G04 (created by PCBNEW-RS274X (2010-02-09)-RC2) date 30.03.2010 12:29:40*
G01*
G70*
G90*
%MOIN*%
G04 Gerber Fmt 3.4, Leading zero omitted, Abs format*
%FSLAX34Y34*%
G04 APERTURE LIST*
%ADD10C,0.005000*%
%ADD11C,0.007900*%
%ADD12R,0.060000X0.060000*%
%ADD13C,0.060000*%
%ADD14O,0.060000X0.060000*%
%ADD15R,0.057100X0.059100*%
%ADD16C,0.057100*%
%ADD17R,0.118100X0.118100*%
%ADD18C,0.043300*%
%ADD19C,0.070000*%
%ADD20R,0.070000X0.070000*%
%ADD21C,0.160000*%
%ADD22C,0.023600*%
%ADD23C,0.216500*%
%ADD24C,0.009800*%
%ADD25C,0.019700*%
%ADD26C,0.010000*%
G04 APERTURE END LIST*
G54D10*
G54D11*
X34780Y-44115D02*
X34780Y-22460D01*
X80060Y-44115D02*
X34780Y-44115D01*
X80060Y-22460D02*
X80060Y-44115D01*
X34780Y-22460D02*
X80060Y-22460D01*
G54D12*
X69170Y-42372D03*
G54D13*
X69170Y-41585D03*
X69957Y-42372D03*
X69957Y-41585D03*
G54D14*
X70745Y-42372D03*
X70745Y-41585D03*
X71532Y-42372D03*
X71532Y-41585D03*
X72320Y-42372D03*
X72320Y-41585D03*
X73107Y-42372D03*
X73107Y-41585D03*
X73894Y-42372D03*
X73894Y-41585D03*
G54D15*
X73810Y-24915D03*
G54D16*
X73023Y-24915D03*
G54D17*
X44700Y-28600D03*
G54D18*
X45000Y-28900D03*
X44700Y-28600D03*
X44400Y-28300D03*
X44400Y-28900D03*
X45000Y-28300D03*
G54D19*
X60560Y-42125D03*
X59560Y-42125D03*
X63525Y-42125D03*
X62525Y-42125D03*
X66495Y-42125D03*
X65495Y-42125D03*
G54D20*
X56595Y-42125D03*
G54D19*
X57595Y-42125D03*
X55595Y-42125D03*
X62970Y-24415D03*
X63970Y-24415D03*
G54D13*
X76352Y-33735D03*
X75565Y-33735D03*
X73203Y-33735D03*
X73990Y-33735D03*
X73990Y-32735D03*
X74790Y-33735D03*
X74790Y-32735D03*
G54D21*
X75890Y-35635D03*
X75890Y-30835D03*
G54D22*
X48650Y-37915D03*
X48250Y-37915D03*
X43545Y-27700D03*
X51650Y-29230D03*
X64470Y-41465D03*
X53095Y-30830D03*
X51715Y-28255D03*
X61135Y-24740D03*
X43245Y-29335D03*
X51650Y-29840D03*
X53380Y-31125D03*
X67950Y-40970D03*
X64570Y-31770D03*
X67390Y-27585D03*
X63235Y-32935D03*
X43065Y-30015D03*
X65160Y-31770D03*
X68300Y-26635D03*
X63235Y-33390D03*
X43415Y-29745D03*
X54490Y-31425D03*
X53660Y-31425D03*
X54340Y-30775D03*
X54075Y-31165D03*
X45605Y-25795D03*
X42375Y-27640D03*
X43375Y-30610D03*
X41800Y-33350D03*
X40685Y-35620D03*
X47650Y-28375D03*
X46000Y-29710D03*
X43715Y-29475D03*
X49360Y-26365D03*
X46675Y-31825D03*
X58915Y-42125D03*
X52775Y-26335D03*
X62250Y-25800D03*
X64900Y-24400D03*
X58240Y-42125D03*
X58500Y-25850D03*
X53605Y-34085D03*
X50265Y-27865D03*
X57580Y-30610D03*
X68575Y-41585D03*
X61880Y-42125D03*
X64850Y-42125D03*
X53980Y-34275D03*
X50195Y-33780D03*
X43715Y-33525D03*
X40955Y-41185D03*
X45060Y-41310D03*
X46505Y-32495D03*
X42360Y-40295D03*
X48155Y-33590D03*
X49920Y-38920D03*
X70290Y-29730D03*
X66575Y-25195D03*
X67010Y-36910D03*
X66390Y-38570D03*
X61275Y-35360D03*
X64850Y-26780D03*
X67110Y-34825D03*
X66105Y-28295D03*
X67190Y-32225D03*
X65150Y-28450D03*
X67170Y-32745D03*
X59185Y-34795D03*
X61135Y-31495D03*
X61240Y-33710D03*
X52565Y-31030D03*
X61500Y-41465D03*
X54625Y-30115D03*
X63620Y-33905D03*
X42690Y-30285D03*
X51475Y-31510D03*
X42790Y-35930D03*
X45855Y-34585D03*
X51875Y-31630D03*
X65295Y-36120D03*
X64275Y-26130D03*
X43135Y-42045D03*
X43415Y-42465D03*
X43080Y-40065D03*
X43315Y-40950D03*
X41425Y-38325D03*
X43315Y-40475D03*
X43080Y-39590D03*
X44405Y-40675D03*
X44405Y-39725D03*
X44295Y-38785D03*
X44960Y-38270D03*
X44295Y-38310D03*
X44405Y-39250D03*
X44405Y-40200D03*
X44405Y-41150D03*
X44195Y-42285D03*
X47110Y-22975D03*
X43105Y-22975D03*
X40040Y-22755D03*
X41890Y-22975D03*
X47110Y-23925D03*
X47110Y-23450D03*
X47115Y-24440D03*
X42935Y-25545D03*
X42265Y-24875D03*
X41890Y-23925D03*
X41890Y-23450D03*
X41905Y-24400D03*
X42600Y-25210D03*
X43740Y-26845D03*
X43740Y-26370D03*
X45500Y-24730D03*
X44830Y-25400D03*
X43840Y-25065D03*
X43170Y-24395D03*
X43105Y-23450D03*
X43105Y-23925D03*
X43505Y-24730D03*
X44175Y-25400D03*
X45165Y-25065D03*
X45835Y-24395D03*
X45890Y-23450D03*
X45890Y-22975D03*
X45890Y-23925D03*
X43375Y-31065D03*
X40655Y-29920D03*
X40240Y-29660D03*
X41105Y-30115D03*
X41595Y-30115D03*
X41625Y-42525D03*
X54915Y-29645D03*
X75870Y-26695D03*
X75870Y-25905D03*
X42350Y-30525D03*
X41900Y-37050D03*
X42450Y-36650D03*
X42085Y-30115D03*
X41900Y-36250D03*
X41895Y-37840D03*
X42100Y-35650D03*
X48785Y-35180D03*
X48550Y-35900D03*
X50350Y-36050D03*
X51620Y-37035D03*
X50350Y-35350D03*
X72950Y-35700D03*
X71800Y-34550D03*
X70200Y-34550D03*
G54D23*
X78090Y-38210D03*
G54D22*
X69350Y-34550D03*
X71000Y-34550D03*
X72400Y-35150D03*
X74050Y-35250D03*
X69350Y-33050D03*
X71750Y-33050D03*
X72550Y-33050D03*
X70950Y-33050D03*
X70150Y-33050D03*
G54D23*
X78090Y-28365D03*
G54D22*
X35075Y-40925D03*
X35910Y-43765D03*
X37490Y-43765D03*
X39070Y-43765D03*
X38280Y-43765D03*
X36700Y-43765D03*
X35120Y-43765D03*
X35075Y-42505D03*
X35075Y-37765D03*
X35075Y-36185D03*
X35075Y-34605D03*
X35075Y-33025D03*
X35075Y-31445D03*
X35075Y-29865D03*
X35075Y-28285D03*
X35075Y-26705D03*
X35075Y-25125D03*
X35075Y-23545D03*
X35910Y-22755D03*
X37490Y-22755D03*
X39070Y-22755D03*
X38280Y-22755D03*
X36700Y-22755D03*
X35075Y-22755D03*
X35075Y-24335D03*
X35075Y-25915D03*
X35075Y-27495D03*
X35075Y-29075D03*
X35075Y-30655D03*
X35075Y-32235D03*
X35075Y-33815D03*
X35075Y-35395D03*
X35075Y-36975D03*
X48400Y-34585D03*
X35075Y-41715D03*
X35075Y-43295D03*
X39070Y-26695D03*
X39070Y-25905D03*
X39050Y-30670D03*
X39070Y-38420D03*
X39070Y-37630D03*
G54D23*
X36750Y-38210D03*
X36750Y-28365D03*
G54D22*
X39075Y-25130D03*
X39070Y-24330D03*
X35075Y-39345D03*
X75870Y-24330D03*
X75865Y-25130D03*
X52245Y-23360D03*
X50625Y-24980D03*
X52245Y-22755D03*
X51685Y-23920D03*
X51125Y-24480D03*
X39070Y-33695D03*
X58555Y-22760D03*
X57755Y-22755D03*
X60120Y-22755D03*
X59330Y-22755D03*
X61700Y-22760D03*
X60905Y-22755D03*
X63265Y-22760D03*
X62480Y-22755D03*
X64845Y-22755D03*
X64055Y-22755D03*
X66420Y-22755D03*
X65630Y-22755D03*
X67995Y-22755D03*
X67205Y-22755D03*
X69570Y-22760D03*
X68780Y-22755D03*
X71145Y-22755D03*
X70355Y-22755D03*
X72730Y-22750D03*
X74310Y-22745D03*
X73505Y-22755D03*
X71930Y-22755D03*
X75875Y-23545D03*
X75870Y-22755D03*
X75080Y-22755D03*
X49095Y-22755D03*
X48305Y-22755D03*
X50670Y-22755D03*
X49880Y-22755D03*
X53820Y-22755D03*
X53030Y-22755D03*
X55400Y-22755D03*
X54605Y-22755D03*
X56970Y-22760D03*
X56180Y-22755D03*
X51120Y-41640D03*
X51400Y-41920D03*
X50095Y-41195D03*
X46755Y-41485D03*
X49535Y-40635D03*
X46755Y-42275D03*
X46755Y-43065D03*
X46755Y-42670D03*
X46755Y-41880D03*
X48695Y-39795D03*
X49255Y-40355D03*
X49815Y-40915D03*
X50380Y-41480D03*
X48975Y-40075D03*
X35075Y-38555D03*
X35075Y-40135D03*
X39070Y-32120D03*
X39070Y-31330D03*
X51455Y-22755D03*
X39070Y-32905D03*
X39035Y-35295D03*
X39070Y-34480D03*
X39070Y-39205D03*
X39070Y-36845D03*
X52580Y-41935D03*
X50960Y-40310D03*
X50400Y-39750D03*
X39070Y-43040D03*
X39070Y-42355D03*
X67685Y-38015D03*
X39075Y-40000D03*
X47785Y-42670D03*
X47785Y-43065D03*
X39070Y-41570D03*
X39070Y-40780D03*
X48180Y-41855D03*
X41760Y-29270D03*
X44830Y-33670D03*
X41620Y-28095D03*
X39070Y-36055D03*
X71935Y-25460D03*
X70765Y-25490D03*
X71345Y-26195D03*
X48390Y-31570D03*
X47635Y-30640D03*
X48935Y-33195D03*
X40325Y-34220D03*
X41300Y-34005D03*
X41125Y-32405D03*
X42365Y-31625D03*
X40470Y-31330D03*
X40960Y-30865D03*
X46865Y-36065D03*
X44815Y-36850D03*
X44345Y-36355D03*
X46800Y-35550D03*
X47400Y-35450D03*
X64165Y-28175D03*
X62785Y-30080D03*
X63340Y-26640D03*
X65260Y-29075D03*
X57460Y-26475D03*
X58330Y-26475D03*
X56785Y-25735D03*
X55215Y-26475D03*
X56615Y-23570D03*
X45460Y-33195D03*
X45115Y-33385D03*
X41425Y-34475D03*
X39070Y-23545D03*
X51620Y-38935D03*
X45815Y-31515D03*
X45235Y-31390D03*
X45535Y-31795D03*
X43440Y-32900D03*
X44055Y-32975D03*
X51030Y-37655D03*
X51620Y-37985D03*
X51620Y-39885D03*
X52225Y-38620D03*
X52225Y-40590D03*
X51240Y-40590D03*
X52225Y-39605D03*
X39820Y-43765D03*
X50680Y-40030D03*
X42540Y-26855D03*
X53095Y-34080D03*
X50495Y-25615D03*
X49945Y-25100D03*
X69230Y-29680D03*
X49385Y-25620D03*
X65805Y-27450D03*
X65345Y-27935D03*
X62950Y-34425D03*
X64880Y-27450D03*
X63745Y-26435D03*
X50635Y-32015D03*
X49345Y-28840D03*
X49755Y-29275D03*
X49530Y-31665D03*
X50175Y-31540D03*
X45995Y-32540D03*
X45595Y-33865D03*
X51185Y-38335D03*
X50675Y-38900D03*
X47740Y-37420D03*
X48130Y-36835D03*
X47740Y-36245D03*
X44675Y-37505D03*
X45870Y-38270D03*
X47780Y-39340D03*
X48185Y-39785D03*
X47780Y-41410D03*
X42765Y-42780D03*
X43805Y-42780D03*
X41425Y-35620D03*
X41955Y-35045D03*
X40955Y-42990D03*
X40400Y-42480D03*
X42380Y-37975D03*
X44290Y-36910D03*
X42050Y-34540D03*
X41895Y-33845D03*
X42415Y-33285D03*
X46350Y-25780D03*
X46110Y-25405D03*
X46315Y-41270D03*
X46700Y-40160D03*
X45415Y-38745D03*
X67105Y-28290D03*
X67605Y-28290D03*
X66605Y-27230D03*
X66605Y-28290D03*
X46560Y-30680D03*
X46105Y-31105D03*
X48180Y-40310D03*
X49350Y-28310D03*
X68000Y-28880D03*
X49755Y-27865D03*
X53680Y-28275D03*
X47180Y-26150D03*
X51545Y-31000D03*
X52500Y-31565D03*
X56780Y-30100D03*
X55945Y-30010D03*
X54085Y-26500D03*
X53640Y-26100D03*
X44295Y-31385D03*
X39735Y-29020D03*
X39785Y-28510D03*
X53300Y-35510D03*
X54375Y-35510D03*
X53840Y-36005D03*
X65400Y-34425D03*
X62945Y-32175D03*
X62950Y-31675D03*
X68195Y-38570D03*
X65395Y-32925D03*
X65395Y-32425D03*
X63095Y-35425D03*
X60585Y-31510D03*
X67685Y-39125D03*
X65425Y-36675D03*
X68135Y-37325D03*
X46785Y-27835D03*
X42940Y-32405D03*
X45555Y-31120D03*
X47555Y-27860D03*
X42055Y-28700D03*
X68225Y-34385D03*
X68125Y-35980D03*
X68125Y-36500D03*
X68095Y-31790D03*
X47780Y-40750D03*
X71320Y-39800D03*
X65395Y-33425D03*
X43005Y-31370D03*
X42940Y-31845D03*
X40235Y-27355D03*
X60250Y-33290D03*
X41680Y-27695D03*
X42795Y-26375D03*
X48270Y-26510D03*
X45935Y-26640D03*
X68675Y-34960D03*
X53165Y-25600D03*
X53095Y-33275D03*
X60255Y-35775D03*
X39760Y-27525D03*
X39795Y-29550D03*
X57580Y-30100D03*
X48670Y-26150D03*
X42315Y-29270D03*
X39730Y-27980D03*
X40620Y-27050D03*
X41560Y-26855D03*
X68095Y-33175D03*
X46475Y-26165D03*
X41070Y-26855D03*
X42050Y-26855D03*
X42995Y-32830D03*
X72800Y-39800D03*
X47720Y-26510D03*
X42175Y-42530D03*
X69735Y-28020D03*
X63085Y-35850D03*
X59775Y-33210D03*
X63045Y-33825D03*
X70860Y-28525D03*
X63230Y-36475D03*
X59150Y-35305D03*
X63605Y-35295D03*
X63350Y-34545D03*
X59245Y-33220D03*
X42995Y-28190D03*
X48740Y-25640D03*
X58715Y-33220D03*
X63625Y-34855D03*
X44960Y-30060D03*
X44630Y-32405D03*
X46265Y-37790D03*
X40335Y-33440D03*
X48250Y-30655D03*
X54920Y-25870D03*
X62625Y-26500D03*
X68960Y-25405D03*
X68960Y-26245D03*
X68960Y-25825D03*
G54D24*
X59560Y-42125D02*
X59505Y-42125D01*
X57650Y-42125D02*
X57875Y-42350D01*
X57875Y-42350D02*
X58165Y-42350D01*
X58165Y-42350D02*
X58240Y-42275D01*
X58915Y-42330D02*
X58915Y-42125D01*
X58935Y-42350D02*
X58915Y-42330D01*
X59280Y-42350D02*
X58935Y-42350D01*
X59505Y-42125D02*
X59280Y-42350D01*
X58240Y-42275D02*
X58240Y-42125D01*
X57595Y-42125D02*
X57650Y-42125D01*
G54D25*
X72110Y-31720D02*
X72725Y-31105D01*
X72725Y-28525D02*
X70025Y-25825D01*
X72725Y-31105D02*
X72725Y-28525D01*
X75200Y-38685D02*
X75200Y-38690D01*
X75200Y-38690D02*
X76270Y-39760D01*
X70605Y-34935D02*
X70605Y-35520D01*
X70605Y-35520D02*
X75115Y-40030D01*
X71400Y-34885D02*
X75200Y-38685D01*
X71400Y-33930D02*
X71400Y-34885D01*
X71340Y-33870D02*
X71400Y-33930D01*
X71340Y-32490D02*
X71340Y-33870D01*
X72110Y-31720D02*
X72110Y-31720D01*
X72110Y-31720D02*
X71340Y-32490D01*
X71535Y-28385D02*
X71535Y-30630D01*
X71530Y-30635D02*
X71530Y-30620D01*
X71535Y-30630D02*
X71530Y-30635D01*
X70640Y-31510D02*
X71530Y-30620D01*
X54930Y-43005D02*
X74585Y-43005D01*
X53170Y-41245D02*
X54930Y-43005D01*
X75115Y-42475D02*
X75115Y-40030D01*
X74585Y-43005D02*
X75115Y-42475D01*
X51005Y-41245D02*
X53170Y-41245D01*
X48345Y-38585D02*
X51005Y-41245D01*
X47415Y-38585D02*
X48345Y-38585D01*
X46620Y-37790D02*
X47415Y-38585D01*
X46265Y-37790D02*
X46620Y-37790D01*
X70605Y-34935D02*
X70605Y-33660D01*
X70605Y-33660D02*
X70545Y-33600D01*
X70545Y-33600D02*
X70545Y-31605D01*
X70545Y-31605D02*
X70640Y-31510D01*
X71300Y-28160D02*
X71310Y-28160D01*
X71310Y-28160D02*
X71535Y-28385D01*
X76270Y-42565D02*
X76270Y-41920D01*
X75390Y-43445D02*
X76270Y-42565D01*
X76270Y-41920D02*
X76270Y-39760D01*
X74745Y-43445D02*
X75390Y-43445D01*
X39750Y-34800D02*
X39750Y-34025D01*
X39750Y-34025D02*
X40335Y-33440D01*
X40540Y-43445D02*
X74745Y-43445D01*
X39750Y-42655D02*
X40540Y-43445D01*
X39750Y-34800D02*
X39750Y-42655D01*
X70045Y-26905D02*
X71300Y-28160D01*
X68960Y-25825D02*
X70025Y-25825D01*
X70040Y-26905D02*
X70045Y-26905D01*
X64933Y-25592D02*
X65350Y-25175D01*
X63813Y-25592D02*
X64933Y-25592D01*
X68950Y-24150D02*
X68950Y-24905D01*
X67950Y-23150D02*
X68950Y-24150D01*
X53750Y-23150D02*
X67950Y-23150D01*
X48800Y-28100D02*
X53750Y-23150D01*
X48250Y-30650D02*
X48800Y-30100D01*
X67625Y-23580D02*
X68950Y-24905D01*
X48250Y-30655D02*
X48250Y-30650D01*
X48800Y-30100D02*
X48800Y-28100D01*
X57200Y-23580D02*
X67625Y-23580D01*
X54920Y-25860D02*
X57200Y-23580D01*
X54920Y-25870D02*
X54920Y-25860D01*
X62905Y-26500D02*
X63813Y-25592D01*
X70040Y-26905D02*
X68960Y-25825D01*
X62625Y-26500D02*
X62905Y-26500D01*
X68960Y-25405D02*
X68960Y-25825D01*
X67550Y-24415D02*
X68960Y-25825D01*
X65350Y-25175D02*
X66110Y-24415D01*
X66110Y-24415D02*
X67550Y-24415D01*
X68950Y-24905D02*
X68960Y-24915D01*
X68960Y-24915D02*
X68960Y-25405D01*
X68960Y-25825D02*
X68960Y-26245D01*
G54D26*
X66370Y-24800D02*
X67150Y-24800D01*
X66290Y-24880D02*
X67150Y-24880D01*
X66210Y-24960D02*
X67150Y-24960D01*
X66130Y-25040D02*
X67150Y-25040D01*
X66050Y-25120D02*
X67150Y-25120D01*
X66050Y-25200D02*
X67150Y-25200D01*
X66050Y-25280D02*
X67150Y-25280D01*
X66050Y-25360D02*
X67150Y-25360D01*
X66050Y-25440D02*
X67150Y-25440D01*
X66050Y-25520D02*
X67150Y-25520D01*
X66050Y-25600D02*
X67150Y-25600D01*
X66050Y-25680D02*
X67150Y-25680D01*
X66050Y-25760D02*
X67150Y-25760D01*
X66050Y-25840D02*
X67150Y-25840D01*
X66050Y-25920D02*
X67150Y-25920D01*
X66050Y-26000D02*
X67150Y-26000D01*
X66050Y-26080D02*
X67150Y-26080D01*
X64960Y-26160D02*
X67150Y-26160D01*
X64880Y-26240D02*
X67150Y-26240D01*
X64800Y-26320D02*
X67150Y-26320D01*
X64720Y-26400D02*
X67150Y-26400D01*
X64640Y-26480D02*
X67150Y-26480D01*
X64560Y-26560D02*
X67150Y-26560D01*
X64480Y-26640D02*
X67150Y-26640D01*
X64400Y-26720D02*
X67150Y-26720D01*
X64320Y-26800D02*
X67150Y-26800D01*
X64240Y-26880D02*
X67150Y-26880D01*
X62610Y-26960D02*
X63255Y-26960D01*
X63424Y-26960D02*
X66411Y-26960D01*
X66799Y-26960D02*
X67150Y-26960D01*
X62530Y-27040D02*
X66331Y-27040D01*
X66879Y-27040D02*
X67150Y-27040D01*
X62450Y-27120D02*
X66296Y-27120D01*
X66915Y-27120D02*
X67150Y-27120D01*
X62370Y-27200D02*
X64666Y-27200D01*
X65094Y-27200D02*
X65591Y-27200D01*
X66019Y-27200D02*
X66277Y-27200D01*
X66933Y-27200D02*
X67150Y-27200D01*
X62290Y-27280D02*
X64596Y-27280D01*
X65165Y-27280D02*
X65521Y-27280D01*
X66090Y-27280D02*
X66277Y-27280D01*
X66933Y-27280D02*
X67150Y-27280D01*
X62210Y-27360D02*
X64563Y-27360D01*
X65198Y-27360D02*
X65488Y-27360D01*
X66123Y-27360D02*
X66303Y-27360D01*
X66906Y-27360D02*
X67150Y-27360D01*
X62130Y-27440D02*
X64552Y-27440D01*
X65208Y-27440D02*
X65477Y-27440D01*
X66133Y-27440D02*
X66351Y-27440D01*
X66859Y-27440D02*
X67096Y-27440D01*
X62050Y-27520D02*
X64554Y-27520D01*
X65205Y-27520D02*
X65479Y-27520D01*
X66130Y-27520D02*
X66448Y-27520D01*
X66761Y-27520D02*
X67062Y-27520D01*
X61970Y-27600D02*
X64587Y-27600D01*
X65172Y-27600D02*
X65512Y-27600D01*
X66097Y-27600D02*
X67062Y-27600D01*
X61890Y-27680D02*
X64646Y-27680D01*
X65114Y-27680D02*
X65136Y-27680D01*
X65554Y-27680D02*
X65571Y-27680D01*
X66039Y-27680D02*
X67074Y-27680D01*
X61810Y-27760D02*
X64771Y-27760D01*
X64988Y-27760D02*
X65063Y-27760D01*
X65628Y-27760D02*
X65696Y-27760D01*
X65913Y-27760D02*
X67107Y-27760D01*
X61730Y-27840D02*
X65030Y-27840D01*
X65661Y-27840D02*
X67150Y-27840D01*
X61650Y-27920D02*
X63956Y-27920D01*
X64374Y-27920D02*
X65017Y-27920D01*
X65673Y-27920D02*
X67150Y-27920D01*
X61570Y-28000D02*
X63883Y-28000D01*
X64448Y-28000D02*
X65017Y-28000D01*
X65673Y-28000D02*
X66449Y-28000D01*
X66762Y-28000D02*
X66949Y-28000D01*
X67761Y-28000D02*
X69129Y-28000D01*
X61490Y-28080D02*
X63850Y-28080D01*
X64481Y-28080D02*
X65050Y-28080D01*
X65639Y-28080D02*
X66351Y-28080D01*
X67859Y-28080D02*
X69209Y-28080D01*
X61410Y-28160D02*
X63837Y-28160D01*
X64493Y-28160D02*
X65106Y-28160D01*
X65584Y-28160D02*
X66304Y-28160D01*
X67907Y-28160D02*
X69289Y-28160D01*
X61330Y-28240D02*
X63837Y-28240D01*
X64493Y-28240D02*
X65224Y-28240D01*
X65465Y-28240D02*
X66277Y-28240D01*
X67933Y-28240D02*
X69369Y-28240D01*
X61250Y-28320D02*
X63870Y-28320D01*
X64459Y-28320D02*
X66277Y-28320D01*
X67933Y-28320D02*
X69449Y-28320D01*
X61170Y-28400D02*
X63926Y-28400D01*
X64404Y-28400D02*
X66295Y-28400D01*
X67914Y-28400D02*
X69529Y-28400D01*
X61090Y-28480D02*
X64044Y-28480D01*
X64285Y-28480D02*
X66331Y-28480D01*
X67879Y-28480D02*
X69609Y-28480D01*
X61010Y-28560D02*
X66411Y-28560D01*
X66798Y-28560D02*
X66911Y-28560D01*
X67299Y-28560D02*
X67411Y-28560D01*
X67799Y-28560D02*
X67916Y-28560D01*
X68085Y-28560D02*
X69689Y-28560D01*
X60997Y-28640D02*
X67776Y-28640D01*
X68224Y-28640D02*
X69769Y-28640D01*
X60994Y-28720D02*
X67712Y-28720D01*
X68289Y-28720D02*
X69849Y-28720D01*
X60992Y-28800D02*
X65071Y-28800D01*
X65449Y-28800D02*
X67679Y-28800D01*
X68322Y-28800D02*
X69929Y-28800D01*
X60990Y-28880D02*
X64991Y-28880D01*
X65529Y-28880D02*
X67672Y-28880D01*
X68328Y-28880D02*
X70009Y-28880D01*
X60988Y-28960D02*
X64953Y-28960D01*
X65568Y-28960D02*
X67678Y-28960D01*
X68321Y-28960D02*
X70089Y-28960D01*
X60986Y-29040D02*
X64932Y-29040D01*
X65588Y-29040D02*
X67711Y-29040D01*
X68288Y-29040D02*
X70169Y-29040D01*
X60984Y-29120D02*
X64932Y-29120D01*
X65588Y-29120D02*
X67776Y-29120D01*
X68224Y-29120D02*
X70249Y-29120D01*
X60982Y-29200D02*
X64956Y-29200D01*
X65563Y-29200D02*
X67915Y-29200D01*
X68084Y-29200D02*
X70329Y-29200D01*
X60979Y-29280D02*
X65001Y-29280D01*
X65519Y-29280D02*
X70409Y-29280D01*
X60977Y-29360D02*
X65090Y-29360D01*
X65429Y-29360D02*
X69146Y-29360D01*
X69315Y-29360D02*
X70489Y-29360D01*
X60975Y-29440D02*
X69006Y-29440D01*
X69454Y-29440D02*
X70569Y-29440D01*
X60973Y-29520D02*
X68942Y-29520D01*
X69519Y-29520D02*
X70600Y-29520D01*
X60971Y-29600D02*
X68909Y-29600D01*
X69552Y-29600D02*
X70600Y-29600D01*
X60969Y-29680D02*
X68902Y-29680D01*
X69558Y-29680D02*
X70600Y-29680D01*
X60966Y-29760D02*
X62701Y-29760D01*
X62870Y-29760D02*
X68908Y-29760D01*
X69551Y-29760D02*
X70600Y-29760D01*
X60964Y-29840D02*
X62561Y-29840D01*
X63009Y-29840D02*
X68941Y-29840D01*
X69518Y-29840D02*
X70600Y-29840D01*
X60962Y-29920D02*
X62497Y-29920D01*
X63074Y-29920D02*
X69006Y-29920D01*
X69454Y-29920D02*
X70600Y-29920D01*
X60960Y-30000D02*
X62464Y-30000D01*
X63107Y-30000D02*
X69145Y-30000D01*
X69314Y-30000D02*
X70600Y-30000D01*
X60958Y-30080D02*
X62457Y-30080D01*
X63113Y-30080D02*
X70600Y-30080D01*
X60956Y-30160D02*
X62463Y-30160D01*
X63106Y-30160D02*
X70600Y-30160D01*
X60953Y-30240D02*
X62496Y-30240D01*
X63073Y-30240D02*
X70600Y-30240D01*
X60951Y-30320D02*
X62561Y-30320D01*
X63009Y-30320D02*
X68959Y-30320D01*
X60949Y-30400D02*
X62700Y-30400D01*
X62869Y-30400D02*
X68879Y-30400D01*
X60890Y-30480D02*
X68799Y-30480D01*
X60810Y-30560D02*
X68719Y-30560D01*
X60730Y-30640D02*
X68639Y-30640D01*
X60650Y-30720D02*
X68559Y-30720D01*
X60570Y-30800D02*
X68479Y-30800D01*
X60490Y-30880D02*
X68450Y-30880D01*
X60410Y-30960D02*
X68450Y-30960D01*
X60330Y-31040D02*
X68450Y-31040D01*
X60250Y-31120D02*
X68450Y-31120D01*
X60170Y-31200D02*
X60477Y-31200D01*
X60694Y-31200D02*
X68450Y-31200D01*
X60090Y-31280D02*
X60351Y-31280D01*
X60819Y-31280D02*
X68450Y-31280D01*
X60010Y-31360D02*
X60293Y-31360D01*
X60878Y-31360D02*
X62854Y-31360D01*
X63047Y-31360D02*
X68450Y-31360D01*
X59930Y-31440D02*
X60260Y-31440D01*
X60911Y-31440D02*
X62720Y-31440D01*
X63179Y-31440D02*
X68450Y-31440D01*
X59850Y-31520D02*
X60257Y-31520D01*
X60913Y-31520D02*
X62660Y-31520D01*
X63241Y-31520D02*
X64356Y-31520D01*
X64784Y-31520D02*
X64946Y-31520D01*
X65374Y-31520D02*
X67901Y-31520D01*
X68289Y-31520D02*
X68450Y-31520D01*
X59770Y-31600D02*
X60267Y-31600D01*
X60902Y-31600D02*
X62627Y-31600D01*
X63274Y-31600D02*
X64286Y-31600D01*
X64855Y-31600D02*
X64876Y-31600D01*
X65445Y-31600D02*
X67821Y-31600D01*
X68369Y-31600D02*
X68450Y-31600D01*
X59690Y-31680D02*
X60300Y-31680D01*
X60869Y-31680D02*
X62622Y-31680D01*
X63278Y-31680D02*
X64253Y-31680D01*
X65478Y-31680D02*
X67786Y-31680D01*
X68405Y-31680D02*
X68450Y-31680D01*
X59610Y-31760D02*
X60371Y-31760D01*
X60799Y-31760D02*
X62630Y-31760D01*
X63269Y-31760D02*
X64242Y-31760D01*
X65488Y-31760D02*
X67767Y-31760D01*
X68423Y-31760D02*
X68450Y-31760D01*
X59530Y-31840D02*
X62663Y-31840D01*
X63236Y-31840D02*
X64244Y-31840D01*
X65485Y-31840D02*
X67767Y-31840D01*
X68423Y-31840D02*
X68450Y-31840D01*
X59450Y-31920D02*
X62731Y-31920D01*
X63168Y-31920D02*
X64277Y-31920D01*
X64862Y-31920D02*
X64867Y-31920D01*
X65452Y-31920D02*
X67793Y-31920D01*
X68396Y-31920D02*
X68450Y-31920D01*
X59370Y-32000D02*
X62663Y-32000D01*
X63228Y-32000D02*
X64336Y-32000D01*
X64804Y-32000D02*
X64926Y-32000D01*
X65394Y-32000D02*
X67841Y-32000D01*
X68349Y-32000D02*
X68450Y-32000D01*
X59290Y-32080D02*
X62630Y-32080D01*
X63261Y-32080D02*
X64461Y-32080D01*
X64678Y-32080D02*
X65051Y-32080D01*
X65268Y-32080D02*
X67938Y-32080D01*
X68251Y-32080D02*
X68450Y-32080D01*
X59210Y-32160D02*
X62617Y-32160D01*
X63273Y-32160D02*
X65196Y-32160D01*
X65594Y-32160D02*
X68450Y-32160D01*
X59130Y-32240D02*
X62617Y-32240D01*
X63273Y-32240D02*
X65117Y-32240D01*
X65674Y-32240D02*
X68450Y-32240D01*
X59050Y-32320D02*
X62650Y-32320D01*
X63239Y-32320D02*
X65084Y-32320D01*
X65707Y-32320D02*
X68450Y-32320D01*
X58970Y-32400D02*
X62706Y-32400D01*
X63184Y-32400D02*
X65067Y-32400D01*
X65723Y-32400D02*
X68450Y-32400D01*
X58890Y-32480D02*
X62824Y-32480D01*
X63065Y-32480D02*
X65067Y-32480D01*
X65723Y-32480D02*
X68450Y-32480D01*
X58810Y-32560D02*
X65095Y-32560D01*
X65694Y-32560D02*
X68450Y-32560D01*
X58730Y-32640D02*
X63091Y-32640D01*
X63380Y-32640D02*
X65146Y-32640D01*
X65643Y-32640D02*
X68450Y-32640D01*
X58650Y-32720D02*
X62986Y-32720D01*
X63484Y-32720D02*
X65136Y-32720D01*
X65654Y-32720D02*
X68450Y-32720D01*
X58570Y-32800D02*
X62936Y-32800D01*
X63535Y-32800D02*
X65092Y-32800D01*
X65699Y-32800D02*
X68450Y-32800D01*
X58550Y-32880D02*
X62907Y-32880D01*
X63563Y-32880D02*
X65067Y-32880D01*
X65723Y-32880D02*
X67951Y-32880D01*
X68240Y-32880D02*
X68450Y-32880D01*
X58919Y-32960D02*
X59041Y-32960D01*
X59449Y-32960D02*
X59561Y-32960D01*
X59989Y-32960D02*
X62907Y-32960D01*
X63563Y-32960D02*
X65067Y-32960D01*
X65723Y-32960D02*
X67846Y-32960D01*
X68344Y-32960D02*
X68450Y-32960D01*
X60465Y-33040D02*
X62923Y-33040D01*
X63546Y-33040D02*
X65087Y-33040D01*
X65702Y-33040D02*
X67796Y-33040D01*
X68395Y-33040D02*
X68450Y-33040D01*
X60535Y-33120D02*
X62956Y-33120D01*
X63513Y-33120D02*
X65126Y-33120D01*
X65663Y-33120D02*
X67767Y-33120D01*
X68423Y-33120D02*
X68450Y-33120D01*
X60568Y-33200D02*
X62961Y-33200D01*
X63509Y-33200D02*
X65155Y-33200D01*
X65634Y-33200D02*
X67767Y-33200D01*
X68423Y-33200D02*
X68450Y-33200D01*
X60578Y-33280D02*
X62926Y-33280D01*
X63545Y-33280D02*
X65101Y-33280D01*
X65690Y-33280D02*
X67783Y-33280D01*
X68406Y-33280D02*
X68450Y-33280D01*
X60575Y-33360D02*
X62907Y-33360D01*
X63563Y-33360D02*
X65067Y-33360D01*
X65723Y-33360D02*
X67816Y-33360D01*
X68373Y-33360D02*
X68450Y-33360D01*
X58957Y-33440D02*
X59001Y-33440D01*
X59487Y-33440D02*
X59541Y-33440D01*
X60542Y-33440D02*
X62907Y-33440D01*
X63563Y-33440D02*
X65067Y-33440D01*
X65723Y-33440D02*
X67896Y-33440D01*
X68294Y-33440D02*
X68450Y-33440D01*
X58550Y-33520D02*
X58583Y-33520D01*
X58847Y-33520D02*
X59112Y-33520D01*
X59377Y-33520D02*
X59666Y-33520D01*
X59883Y-33520D02*
X60016Y-33520D01*
X60484Y-33520D02*
X62923Y-33520D01*
X63536Y-33520D02*
X65079Y-33520D01*
X65710Y-33520D02*
X68450Y-33520D01*
X58550Y-33600D02*
X60141Y-33600D01*
X60358Y-33600D02*
X62806Y-33600D01*
X63488Y-33600D02*
X63499Y-33600D01*
X63741Y-33600D02*
X65112Y-33600D01*
X65677Y-33600D02*
X68450Y-33600D01*
X58550Y-33680D02*
X62751Y-33680D01*
X63859Y-33680D02*
X65186Y-33680D01*
X65604Y-33680D02*
X68450Y-33680D01*
X58550Y-33760D02*
X62717Y-33760D01*
X63915Y-33760D02*
X68450Y-33760D01*
X58550Y-33840D02*
X62717Y-33840D01*
X63948Y-33840D02*
X68450Y-33840D01*
X58550Y-33920D02*
X62729Y-33920D01*
X63948Y-33920D02*
X68450Y-33920D01*
X58550Y-34000D02*
X62762Y-34000D01*
X63935Y-34000D02*
X68450Y-34000D01*
X58550Y-34080D02*
X62836Y-34080D01*
X63253Y-34080D02*
X63337Y-34080D01*
X63902Y-34080D02*
X68105Y-34080D01*
X68346Y-34080D02*
X68450Y-34080D01*
X58550Y-34160D02*
X62751Y-34160D01*
X63149Y-34160D02*
X63411Y-34160D01*
X63829Y-34160D02*
X65201Y-34160D01*
X65599Y-34160D02*
X67986Y-34160D01*
X58550Y-34240D02*
X62672Y-34240D01*
X63471Y-34240D02*
X65122Y-34240D01*
X65679Y-34240D02*
X67931Y-34240D01*
X58550Y-34320D02*
X62639Y-34320D01*
X63589Y-34320D02*
X65089Y-34320D01*
X65712Y-34320D02*
X67897Y-34320D01*
X58550Y-34400D02*
X62622Y-34400D01*
X63645Y-34400D02*
X65072Y-34400D01*
X65728Y-34400D02*
X67897Y-34400D01*
X58550Y-34480D02*
X62622Y-34480D01*
X63678Y-34480D02*
X65072Y-34480D01*
X65728Y-34480D02*
X67909Y-34480D01*
X58550Y-34560D02*
X62650Y-34560D01*
X63770Y-34560D02*
X65100Y-34560D01*
X65699Y-34560D02*
X67942Y-34560D01*
X58550Y-34640D02*
X62701Y-34640D01*
X63874Y-34640D02*
X65151Y-34640D01*
X65649Y-34640D02*
X68016Y-34640D01*
X68434Y-34640D02*
X68450Y-34640D01*
X58550Y-34720D02*
X62805Y-34720D01*
X63925Y-34720D02*
X65255Y-34720D01*
X65544Y-34720D02*
X68450Y-34720D01*
X58550Y-34800D02*
X63141Y-34800D01*
X63953Y-34800D02*
X68387Y-34800D01*
X58550Y-34880D02*
X63297Y-34880D01*
X63953Y-34880D02*
X68354Y-34880D01*
X58550Y-34960D02*
X63313Y-34960D01*
X63936Y-34960D02*
X68347Y-34960D01*
X58550Y-35040D02*
X58951Y-35040D01*
X59349Y-35040D02*
X63346Y-35040D01*
X63903Y-35040D02*
X68353Y-35040D01*
X58550Y-35120D02*
X58872Y-35120D01*
X59429Y-35120D02*
X62975Y-35120D01*
X63216Y-35120D02*
X63323Y-35120D01*
X63888Y-35120D02*
X68386Y-35120D01*
X58550Y-35200D02*
X58839Y-35200D01*
X59462Y-35200D02*
X62856Y-35200D01*
X63921Y-35200D02*
X68450Y-35200D01*
X58550Y-35280D02*
X58822Y-35280D01*
X59478Y-35280D02*
X62801Y-35280D01*
X63933Y-35280D02*
X68450Y-35280D01*
X58550Y-35360D02*
X58822Y-35360D01*
X59478Y-35360D02*
X62767Y-35360D01*
X63933Y-35360D02*
X68450Y-35360D01*
X58550Y-35440D02*
X58850Y-35440D01*
X59449Y-35440D02*
X62767Y-35440D01*
X63899Y-35440D02*
X68450Y-35440D01*
X58550Y-35520D02*
X58901Y-35520D01*
X59399Y-35520D02*
X60046Y-35520D01*
X60464Y-35520D02*
X62779Y-35520D01*
X63844Y-35520D02*
X68450Y-35520D01*
X58550Y-35600D02*
X59005Y-35600D01*
X59294Y-35600D02*
X59973Y-35600D01*
X60538Y-35600D02*
X62812Y-35600D01*
X63377Y-35600D02*
X63484Y-35600D01*
X63725Y-35600D02*
X68450Y-35600D01*
X58550Y-35680D02*
X59940Y-35680D01*
X60571Y-35680D02*
X62801Y-35680D01*
X63370Y-35680D02*
X67993Y-35680D01*
X68258Y-35680D02*
X68450Y-35680D01*
X58550Y-35760D02*
X59927Y-35760D01*
X60583Y-35760D02*
X62768Y-35760D01*
X63403Y-35760D02*
X67881Y-35760D01*
X68369Y-35760D02*
X68450Y-35760D01*
X58562Y-35840D02*
X59927Y-35840D01*
X60583Y-35840D02*
X62757Y-35840D01*
X63413Y-35840D02*
X65114Y-35840D01*
X65477Y-35840D02*
X67828Y-35840D01*
X68423Y-35840D02*
X68450Y-35840D01*
X58642Y-35920D02*
X59960Y-35920D01*
X60549Y-35920D02*
X62759Y-35920D01*
X63410Y-35920D02*
X65031Y-35920D01*
X65559Y-35920D02*
X67797Y-35920D01*
X58722Y-36000D02*
X60016Y-36000D01*
X60494Y-36000D02*
X62792Y-36000D01*
X63377Y-36000D02*
X64990Y-36000D01*
X65601Y-36000D02*
X67797Y-36000D01*
X58802Y-36080D02*
X60134Y-36080D01*
X60375Y-36080D02*
X62851Y-36080D01*
X63319Y-36080D02*
X64967Y-36080D01*
X65623Y-36080D02*
X67811Y-36080D01*
X58882Y-36160D02*
X62976Y-36160D01*
X63327Y-36160D02*
X64967Y-36160D01*
X65623Y-36160D02*
X67844Y-36160D01*
X58962Y-36240D02*
X63001Y-36240D01*
X63459Y-36240D02*
X64989Y-36240D01*
X65600Y-36240D02*
X67920Y-36240D01*
X59042Y-36320D02*
X62940Y-36320D01*
X63521Y-36320D02*
X65031Y-36320D01*
X65558Y-36320D02*
X67845Y-36320D01*
X59122Y-36400D02*
X62907Y-36400D01*
X63554Y-36400D02*
X65113Y-36400D01*
X65614Y-36400D02*
X67812Y-36400D01*
X59202Y-36480D02*
X62902Y-36480D01*
X63558Y-36480D02*
X65156Y-36480D01*
X65694Y-36480D02*
X67797Y-36480D01*
X59282Y-36560D02*
X62910Y-36560D01*
X63549Y-36560D02*
X65118Y-36560D01*
X65733Y-36560D02*
X67797Y-36560D01*
X59362Y-36640D02*
X62943Y-36640D01*
X63516Y-36640D02*
X65097Y-36640D01*
X65753Y-36640D02*
X67827Y-36640D01*
X68421Y-36640D02*
X68450Y-36640D01*
X59442Y-36720D02*
X63011Y-36720D01*
X63449Y-36720D02*
X65097Y-36720D01*
X65753Y-36720D02*
X67881Y-36720D01*
X68369Y-36720D02*
X68450Y-36720D01*
X59522Y-36800D02*
X63157Y-36800D01*
X63302Y-36800D02*
X65121Y-36800D01*
X65728Y-36800D02*
X67992Y-36800D01*
X68257Y-36800D02*
X68450Y-36800D01*
X59602Y-36880D02*
X65166Y-36880D01*
X65684Y-36880D02*
X68450Y-36880D01*
X59682Y-36960D02*
X65255Y-36960D01*
X65594Y-36960D02*
X68450Y-36960D01*
X59762Y-37040D02*
X67966Y-37040D01*
X68305Y-37040D02*
X68450Y-37040D01*
X59842Y-37120D02*
X67876Y-37120D01*
X68394Y-37120D02*
X68450Y-37120D01*
X59922Y-37200D02*
X67832Y-37200D01*
X68439Y-37200D02*
X68450Y-37200D01*
X60002Y-37280D02*
X67807Y-37280D01*
X60082Y-37360D02*
X67807Y-37360D01*
X60162Y-37440D02*
X67827Y-37440D01*
X68442Y-37440D02*
X68450Y-37440D01*
X60242Y-37520D02*
X67866Y-37520D01*
X68404Y-37520D02*
X68450Y-37520D01*
X60322Y-37600D02*
X67946Y-37600D01*
X68324Y-37600D02*
X68450Y-37600D01*
X60402Y-37680D02*
X68450Y-37680D01*
X60482Y-37760D02*
X67476Y-37760D01*
X67894Y-37760D02*
X68450Y-37760D01*
X60562Y-37840D02*
X67403Y-37840D01*
X67968Y-37840D02*
X68450Y-37840D01*
X60642Y-37920D02*
X67370Y-37920D01*
X68001Y-37920D02*
X68450Y-37920D01*
X60722Y-38000D02*
X67357Y-38000D01*
X68013Y-38000D02*
X68450Y-38000D01*
X60802Y-38080D02*
X67357Y-38080D01*
X68013Y-38080D02*
X68450Y-38080D01*
X60882Y-38160D02*
X67390Y-38160D01*
X67979Y-38160D02*
X68450Y-38160D01*
X60962Y-38240D02*
X67446Y-38240D01*
X67924Y-38240D02*
X68450Y-38240D01*
X61042Y-38320D02*
X67564Y-38320D01*
X67805Y-38320D02*
X67981Y-38320D01*
X68409Y-38320D02*
X68450Y-38320D01*
X61122Y-38400D02*
X67911Y-38400D01*
X61202Y-38480D02*
X67878Y-38480D01*
X61282Y-38560D02*
X67867Y-38560D01*
X61362Y-38640D02*
X67869Y-38640D01*
X65996Y-38720D02*
X67902Y-38720D01*
X66075Y-38800D02*
X67613Y-38800D01*
X67758Y-38800D02*
X67961Y-38800D01*
X68429Y-38800D02*
X68450Y-38800D01*
X66155Y-38880D02*
X67466Y-38880D01*
X67904Y-38880D02*
X68086Y-38880D01*
X68303Y-38880D02*
X68450Y-38880D01*
X66234Y-38960D02*
X67399Y-38960D01*
X67972Y-38960D02*
X68450Y-38960D01*
X66313Y-39040D02*
X67366Y-39040D01*
X68005Y-39040D02*
X68450Y-39040D01*
X66393Y-39120D02*
X67357Y-39120D01*
X68013Y-39120D02*
X68450Y-39120D01*
X66472Y-39200D02*
X67361Y-39200D01*
X68008Y-39200D02*
X68450Y-39200D01*
X66551Y-39280D02*
X67394Y-39280D01*
X67975Y-39280D02*
X68450Y-39280D01*
X66631Y-39360D02*
X67455Y-39360D01*
X67913Y-39360D02*
X68450Y-39360D01*
X68450Y-39400D02*
X68450Y-38779D01*
X68381Y-38848D01*
X68260Y-38898D01*
X68130Y-38898D01*
X68009Y-38848D01*
X67917Y-38756D01*
X67867Y-38635D01*
X67867Y-38505D01*
X67917Y-38384D01*
X68009Y-38292D01*
X68130Y-38242D01*
X68260Y-38242D01*
X68381Y-38292D01*
X68450Y-38361D01*
X68450Y-37421D01*
X68413Y-37511D01*
X68321Y-37603D01*
X68200Y-37653D01*
X68070Y-37653D01*
X67949Y-37603D01*
X67857Y-37511D01*
X67807Y-37390D01*
X67807Y-37260D01*
X67857Y-37139D01*
X67949Y-37047D01*
X68070Y-36997D01*
X68200Y-36997D01*
X68321Y-37047D01*
X68413Y-37139D01*
X68450Y-37228D01*
X68450Y-36572D01*
X68403Y-36686D01*
X68311Y-36778D01*
X68190Y-36828D01*
X68060Y-36828D01*
X67939Y-36778D01*
X67847Y-36686D01*
X67797Y-36565D01*
X67797Y-36435D01*
X67847Y-36314D01*
X67920Y-36239D01*
X67847Y-36166D01*
X67797Y-36045D01*
X67797Y-35915D01*
X67847Y-35794D01*
X67939Y-35702D01*
X68060Y-35652D01*
X68190Y-35652D01*
X68311Y-35702D01*
X68403Y-35794D01*
X68450Y-35907D01*
X68450Y-35199D01*
X68397Y-35146D01*
X68347Y-35025D01*
X68347Y-34895D01*
X68397Y-34774D01*
X68450Y-34721D01*
X68450Y-34624D01*
X68411Y-34663D01*
X68290Y-34713D01*
X68160Y-34713D01*
X68039Y-34663D01*
X67947Y-34571D01*
X67897Y-34450D01*
X67897Y-34320D01*
X67947Y-34199D01*
X68030Y-34116D01*
X68030Y-33503D01*
X67909Y-33453D01*
X67817Y-33361D01*
X67767Y-33240D01*
X67767Y-33110D01*
X67817Y-32989D01*
X67909Y-32897D01*
X68030Y-32847D01*
X68030Y-32118D01*
X67909Y-32068D01*
X67817Y-31976D01*
X67767Y-31855D01*
X67767Y-31725D01*
X67817Y-31604D01*
X67909Y-31512D01*
X67935Y-31501D01*
X67935Y-29208D01*
X67814Y-29158D01*
X67722Y-29066D01*
X67672Y-28945D01*
X67672Y-28815D01*
X67722Y-28694D01*
X67814Y-28602D01*
X67935Y-28552D01*
X68065Y-28552D01*
X68186Y-28602D01*
X68278Y-28694D01*
X68328Y-28815D01*
X68328Y-28945D01*
X68278Y-29066D01*
X68186Y-29158D01*
X68065Y-29208D01*
X67935Y-29208D01*
X67935Y-31501D01*
X68030Y-31462D01*
X68160Y-31462D01*
X68281Y-31512D01*
X68373Y-31604D01*
X68423Y-31725D01*
X68423Y-31855D01*
X68373Y-31976D01*
X68281Y-32068D01*
X68160Y-32118D01*
X68030Y-32118D01*
X68030Y-32847D01*
X68160Y-32847D01*
X68281Y-32897D01*
X68373Y-32989D01*
X68423Y-33110D01*
X68423Y-33240D01*
X68373Y-33361D01*
X68281Y-33453D01*
X68160Y-33503D01*
X68030Y-33503D01*
X68030Y-34116D01*
X68039Y-34107D01*
X68160Y-34057D01*
X68290Y-34057D01*
X68411Y-34107D01*
X68450Y-34146D01*
X68450Y-30829D01*
X69029Y-30250D01*
X69165Y-30250D01*
X69165Y-30008D01*
X69044Y-29958D01*
X68952Y-29866D01*
X68902Y-29745D01*
X68902Y-29615D01*
X68952Y-29494D01*
X69044Y-29402D01*
X69165Y-29352D01*
X69295Y-29352D01*
X69416Y-29402D01*
X69508Y-29494D01*
X69558Y-29615D01*
X69558Y-29745D01*
X69508Y-29866D01*
X69416Y-29958D01*
X69295Y-30008D01*
X69165Y-30008D01*
X69165Y-30250D01*
X70600Y-30250D01*
X70600Y-29470D01*
X69129Y-28000D01*
X67761Y-28000D01*
X67791Y-28012D01*
X67883Y-28104D01*
X67933Y-28225D01*
X67933Y-28355D01*
X67883Y-28476D01*
X67791Y-28568D01*
X67670Y-28618D01*
X67540Y-28618D01*
X67419Y-28568D01*
X67355Y-28504D01*
X67291Y-28568D01*
X67170Y-28618D01*
X67040Y-28618D01*
X66919Y-28568D01*
X66854Y-28503D01*
X66791Y-28568D01*
X66670Y-28618D01*
X66540Y-28618D01*
X66419Y-28568D01*
X66327Y-28476D01*
X66277Y-28355D01*
X66277Y-28225D01*
X66327Y-28104D01*
X66419Y-28012D01*
X66540Y-27962D01*
X66540Y-27558D01*
X66419Y-27508D01*
X66327Y-27416D01*
X66277Y-27295D01*
X66277Y-27165D01*
X66327Y-27044D01*
X66419Y-26952D01*
X66540Y-26902D01*
X66670Y-26902D01*
X66791Y-26952D01*
X66883Y-27044D01*
X66933Y-27165D01*
X66933Y-27295D01*
X66883Y-27416D01*
X66791Y-27508D01*
X66670Y-27558D01*
X66540Y-27558D01*
X66540Y-27962D01*
X66670Y-27962D01*
X66791Y-28012D01*
X66854Y-28076D01*
X66919Y-28012D01*
X67040Y-27962D01*
X67150Y-27962D01*
X67150Y-27809D01*
X67112Y-27771D01*
X67062Y-27650D01*
X67062Y-27520D01*
X67112Y-27399D01*
X67150Y-27361D01*
X67150Y-24800D01*
X66370Y-24800D01*
X66050Y-25120D01*
X66050Y-26150D01*
X64970Y-26150D01*
X64220Y-26900D01*
X63543Y-26900D01*
X63526Y-26918D01*
X63405Y-26968D01*
X63275Y-26968D01*
X63154Y-26918D01*
X63136Y-26900D01*
X62670Y-26900D01*
X60999Y-28571D01*
X60949Y-30421D01*
X58550Y-32820D01*
X58550Y-32933D01*
X58650Y-32892D01*
X58780Y-32892D01*
X58901Y-32942D01*
X58979Y-33020D01*
X59059Y-32942D01*
X59180Y-32892D01*
X59310Y-32892D01*
X59431Y-32942D01*
X59504Y-33016D01*
X59589Y-32932D01*
X59710Y-32882D01*
X59840Y-32882D01*
X59961Y-32932D01*
X60052Y-33023D01*
X60064Y-33012D01*
X60185Y-32962D01*
X60315Y-32962D01*
X60436Y-33012D01*
X60520Y-33095D01*
X60520Y-31838D01*
X60399Y-31788D01*
X60307Y-31696D01*
X60257Y-31575D01*
X60257Y-31445D01*
X60307Y-31324D01*
X60399Y-31232D01*
X60520Y-31182D01*
X60650Y-31182D01*
X60771Y-31232D01*
X60863Y-31324D01*
X60913Y-31445D01*
X60913Y-31575D01*
X60863Y-31696D01*
X60771Y-31788D01*
X60650Y-31838D01*
X60520Y-31838D01*
X60520Y-33095D01*
X60528Y-33104D01*
X60578Y-33225D01*
X60578Y-33355D01*
X60528Y-33476D01*
X60436Y-33568D01*
X60315Y-33618D01*
X60185Y-33618D01*
X60064Y-33568D01*
X59972Y-33476D01*
X59961Y-33488D01*
X59840Y-33538D01*
X59710Y-33538D01*
X59589Y-33488D01*
X59514Y-33413D01*
X59431Y-33498D01*
X59310Y-33548D01*
X59180Y-33548D01*
X59059Y-33498D01*
X58979Y-33418D01*
X58901Y-33498D01*
X58780Y-33548D01*
X58650Y-33548D01*
X58550Y-33506D01*
X58550Y-35829D01*
X59085Y-36363D01*
X59085Y-35633D01*
X58964Y-35583D01*
X58872Y-35491D01*
X58822Y-35370D01*
X58822Y-35240D01*
X58872Y-35119D01*
X58964Y-35027D01*
X59085Y-34977D01*
X59215Y-34977D01*
X59336Y-35027D01*
X59428Y-35119D01*
X59478Y-35240D01*
X59478Y-35370D01*
X59428Y-35491D01*
X59336Y-35583D01*
X59215Y-35633D01*
X59085Y-35633D01*
X59085Y-36363D01*
X60190Y-37468D01*
X60190Y-36103D01*
X60069Y-36053D01*
X59977Y-35961D01*
X59927Y-35840D01*
X59927Y-35710D01*
X59977Y-35589D01*
X60069Y-35497D01*
X60190Y-35447D01*
X60320Y-35447D01*
X60441Y-35497D01*
X60533Y-35589D01*
X60583Y-35710D01*
X60583Y-35840D01*
X60533Y-35961D01*
X60441Y-36053D01*
X60320Y-36103D01*
X60190Y-36103D01*
X60190Y-37468D01*
X61370Y-38649D01*
X63165Y-38647D01*
X63165Y-36803D01*
X63044Y-36753D01*
X62952Y-36661D01*
X62902Y-36540D01*
X62902Y-36410D01*
X62952Y-36289D01*
X63044Y-36197D01*
X63089Y-36178D01*
X63020Y-36178D01*
X62899Y-36128D01*
X62807Y-36036D01*
X62757Y-35915D01*
X62757Y-35785D01*
X62807Y-35664D01*
X62838Y-35632D01*
X62817Y-35611D01*
X62767Y-35490D01*
X62767Y-35360D01*
X62817Y-35239D01*
X62909Y-35147D01*
X63030Y-35097D01*
X63160Y-35097D01*
X63281Y-35147D01*
X63302Y-35168D01*
X63327Y-35109D01*
X63370Y-35065D01*
X63347Y-35041D01*
X63297Y-34920D01*
X63297Y-34873D01*
X63285Y-34873D01*
X63164Y-34823D01*
X63072Y-34731D01*
X63071Y-34729D01*
X63015Y-34753D01*
X62885Y-34753D01*
X62764Y-34703D01*
X62672Y-34611D01*
X62622Y-34490D01*
X62622Y-34360D01*
X62672Y-34239D01*
X62764Y-34147D01*
X62864Y-34105D01*
X62859Y-34103D01*
X62767Y-34011D01*
X62717Y-33890D01*
X62717Y-33760D01*
X62767Y-33639D01*
X62859Y-33547D01*
X62880Y-33538D01*
X62880Y-32503D01*
X62759Y-32453D01*
X62667Y-32361D01*
X62617Y-32240D01*
X62617Y-32110D01*
X62667Y-31989D01*
X62733Y-31922D01*
X62672Y-31861D01*
X62622Y-31740D01*
X62622Y-31610D01*
X62672Y-31489D01*
X62720Y-31440D01*
X62720Y-30408D01*
X62599Y-30358D01*
X62507Y-30266D01*
X62457Y-30145D01*
X62457Y-30015D01*
X62507Y-29894D01*
X62599Y-29802D01*
X62720Y-29752D01*
X62850Y-29752D01*
X62971Y-29802D01*
X63063Y-29894D01*
X63113Y-30015D01*
X63113Y-30145D01*
X63063Y-30266D01*
X62971Y-30358D01*
X62850Y-30408D01*
X62720Y-30408D01*
X62720Y-31440D01*
X62764Y-31397D01*
X62885Y-31347D01*
X63015Y-31347D01*
X63136Y-31397D01*
X63228Y-31489D01*
X63278Y-31610D01*
X63278Y-31740D01*
X63228Y-31861D01*
X63161Y-31927D01*
X63223Y-31989D01*
X63273Y-32110D01*
X63273Y-32240D01*
X63223Y-32361D01*
X63131Y-32453D01*
X63010Y-32503D01*
X62880Y-32503D01*
X62880Y-33538D01*
X62932Y-33516D01*
X62907Y-33455D01*
X62907Y-33325D01*
X62957Y-33204D01*
X62998Y-33162D01*
X62957Y-33121D01*
X62907Y-33000D01*
X62907Y-32870D01*
X62957Y-32749D01*
X63049Y-32657D01*
X63170Y-32607D01*
X63300Y-32607D01*
X63421Y-32657D01*
X63513Y-32749D01*
X63563Y-32870D01*
X63563Y-33000D01*
X63513Y-33121D01*
X63471Y-33162D01*
X63513Y-33204D01*
X63563Y-33325D01*
X63563Y-33455D01*
X63513Y-33576D01*
X63481Y-33607D01*
X63555Y-33577D01*
X63685Y-33577D01*
X63806Y-33627D01*
X63898Y-33719D01*
X63948Y-33840D01*
X63948Y-33970D01*
X63898Y-34091D01*
X63806Y-34183D01*
X63685Y-34233D01*
X63555Y-34233D01*
X63434Y-34183D01*
X63342Y-34091D01*
X63313Y-34020D01*
X63231Y-34103D01*
X63130Y-34144D01*
X63136Y-34147D01*
X63228Y-34239D01*
X63228Y-34240D01*
X63285Y-34217D01*
X63415Y-34217D01*
X63536Y-34267D01*
X63628Y-34359D01*
X63678Y-34480D01*
X63678Y-34527D01*
X63690Y-34527D01*
X63811Y-34577D01*
X63903Y-34669D01*
X63953Y-34790D01*
X63953Y-34920D01*
X63903Y-35041D01*
X63858Y-35084D01*
X63883Y-35109D01*
X63933Y-35230D01*
X63933Y-35360D01*
X63883Y-35481D01*
X63791Y-35573D01*
X63670Y-35623D01*
X63540Y-35623D01*
X63419Y-35573D01*
X63397Y-35551D01*
X63373Y-35611D01*
X63341Y-35642D01*
X63363Y-35664D01*
X63413Y-35785D01*
X63413Y-35915D01*
X63363Y-36036D01*
X63271Y-36128D01*
X63225Y-36147D01*
X63295Y-36147D01*
X63416Y-36197D01*
X63508Y-36289D01*
X63558Y-36410D01*
X63558Y-36540D01*
X63508Y-36661D01*
X63416Y-36753D01*
X63295Y-36803D01*
X63165Y-36803D01*
X63165Y-38647D01*
X64100Y-38645D01*
X64100Y-28503D01*
X63979Y-28453D01*
X63887Y-28361D01*
X63837Y-28240D01*
X63837Y-28110D01*
X63887Y-27989D01*
X63979Y-27897D01*
X64100Y-27847D01*
X64230Y-27847D01*
X64351Y-27897D01*
X64443Y-27989D01*
X64493Y-28110D01*
X64493Y-28240D01*
X64443Y-28361D01*
X64351Y-28453D01*
X64230Y-28503D01*
X64100Y-28503D01*
X64100Y-38645D01*
X65360Y-38644D01*
X65360Y-37003D01*
X65239Y-36953D01*
X65147Y-36861D01*
X65097Y-36740D01*
X65097Y-36610D01*
X65147Y-36489D01*
X65200Y-36435D01*
X65109Y-36398D01*
X65017Y-36306D01*
X64967Y-36185D01*
X64967Y-36055D01*
X65017Y-35934D01*
X65109Y-35842D01*
X65230Y-35792D01*
X65335Y-35792D01*
X65335Y-34753D01*
X65214Y-34703D01*
X65122Y-34611D01*
X65072Y-34490D01*
X65072Y-34360D01*
X65122Y-34239D01*
X65214Y-34147D01*
X65330Y-34099D01*
X65330Y-33753D01*
X65209Y-33703D01*
X65117Y-33611D01*
X65067Y-33490D01*
X65067Y-33360D01*
X65117Y-33239D01*
X65180Y-33174D01*
X65117Y-33111D01*
X65067Y-32990D01*
X65067Y-32860D01*
X65117Y-32739D01*
X65180Y-32674D01*
X65117Y-32611D01*
X65067Y-32490D01*
X65067Y-32360D01*
X65095Y-32292D01*
X65095Y-32098D01*
X64974Y-32048D01*
X64882Y-31956D01*
X64865Y-31914D01*
X64848Y-31956D01*
X64756Y-32048D01*
X64635Y-32098D01*
X64505Y-32098D01*
X64384Y-32048D01*
X64292Y-31956D01*
X64242Y-31835D01*
X64242Y-31705D01*
X64292Y-31584D01*
X64384Y-31492D01*
X64505Y-31442D01*
X64635Y-31442D01*
X64756Y-31492D01*
X64815Y-31551D01*
X64815Y-27778D01*
X64694Y-27728D01*
X64602Y-27636D01*
X64552Y-27515D01*
X64552Y-27385D01*
X64602Y-27264D01*
X64694Y-27172D01*
X64815Y-27122D01*
X64945Y-27122D01*
X65066Y-27172D01*
X65158Y-27264D01*
X65208Y-27385D01*
X65208Y-27515D01*
X65158Y-27636D01*
X65066Y-27728D01*
X64945Y-27778D01*
X64815Y-27778D01*
X64815Y-31551D01*
X64848Y-31584D01*
X64865Y-31625D01*
X64882Y-31584D01*
X64974Y-31492D01*
X65095Y-31442D01*
X65195Y-31442D01*
X65195Y-29403D01*
X65074Y-29353D01*
X64982Y-29261D01*
X64932Y-29140D01*
X64932Y-29010D01*
X64982Y-28889D01*
X65074Y-28797D01*
X65195Y-28747D01*
X65280Y-28747D01*
X65280Y-28263D01*
X65159Y-28213D01*
X65067Y-28121D01*
X65017Y-28000D01*
X65017Y-27870D01*
X65067Y-27749D01*
X65159Y-27657D01*
X65280Y-27607D01*
X65410Y-27607D01*
X65531Y-27657D01*
X65623Y-27749D01*
X65673Y-27870D01*
X65673Y-28000D01*
X65623Y-28121D01*
X65531Y-28213D01*
X65410Y-28263D01*
X65280Y-28263D01*
X65280Y-28747D01*
X65325Y-28747D01*
X65446Y-28797D01*
X65538Y-28889D01*
X65588Y-29010D01*
X65588Y-29140D01*
X65538Y-29261D01*
X65446Y-29353D01*
X65325Y-29403D01*
X65195Y-29403D01*
X65195Y-31442D01*
X65225Y-31442D01*
X65346Y-31492D01*
X65438Y-31584D01*
X65488Y-31705D01*
X65488Y-31835D01*
X65438Y-31956D01*
X65346Y-32048D01*
X65225Y-32098D01*
X65095Y-32098D01*
X65095Y-32292D01*
X65117Y-32239D01*
X65209Y-32147D01*
X65330Y-32097D01*
X65460Y-32097D01*
X65581Y-32147D01*
X65673Y-32239D01*
X65723Y-32360D01*
X65723Y-32490D01*
X65673Y-32611D01*
X65608Y-32675D01*
X65673Y-32739D01*
X65723Y-32860D01*
X65723Y-32990D01*
X65673Y-33111D01*
X65608Y-33174D01*
X65673Y-33239D01*
X65723Y-33360D01*
X65723Y-33490D01*
X65673Y-33611D01*
X65581Y-33703D01*
X65460Y-33753D01*
X65330Y-33753D01*
X65330Y-34099D01*
X65335Y-34097D01*
X65465Y-34097D01*
X65586Y-34147D01*
X65678Y-34239D01*
X65728Y-34360D01*
X65728Y-34490D01*
X65678Y-34611D01*
X65586Y-34703D01*
X65465Y-34753D01*
X65335Y-34753D01*
X65335Y-35792D01*
X65360Y-35792D01*
X65481Y-35842D01*
X65573Y-35934D01*
X65623Y-36055D01*
X65623Y-36185D01*
X65573Y-36306D01*
X65519Y-36359D01*
X65611Y-36397D01*
X65703Y-36489D01*
X65740Y-36578D01*
X65740Y-27778D01*
X65619Y-27728D01*
X65527Y-27636D01*
X65477Y-27515D01*
X65477Y-27385D01*
X65527Y-27264D01*
X65619Y-27172D01*
X65740Y-27122D01*
X65870Y-27122D01*
X65991Y-27172D01*
X66083Y-27264D01*
X66133Y-27385D01*
X66133Y-27515D01*
X66083Y-27636D01*
X65991Y-27728D01*
X65870Y-27778D01*
X65740Y-27778D01*
X65740Y-36578D01*
X65753Y-36610D01*
X65753Y-36740D01*
X65703Y-36861D01*
X65611Y-36953D01*
X65490Y-37003D01*
X65360Y-37003D01*
X65360Y-38644D01*
X65920Y-38644D01*
X66670Y-39400D01*
X67495Y-39400D01*
X67407Y-39311D01*
X67357Y-39190D01*
X67357Y-39060D01*
X67407Y-38939D01*
X67499Y-38847D01*
X67620Y-38797D01*
X67620Y-38343D01*
X67499Y-38293D01*
X67407Y-38201D01*
X67357Y-38080D01*
X67357Y-37950D01*
X67407Y-37829D01*
X67499Y-37737D01*
X67620Y-37687D01*
X67750Y-37687D01*
X67871Y-37737D01*
X67963Y-37829D01*
X68013Y-37950D01*
X68013Y-38080D01*
X67963Y-38201D01*
X67871Y-38293D01*
X67750Y-38343D01*
X67620Y-38343D01*
X67620Y-38797D01*
X67750Y-38797D01*
X67871Y-38847D01*
X67963Y-38939D01*
X68013Y-39060D01*
X68013Y-39190D01*
X67963Y-39311D01*
X67873Y-39400D01*
X68450Y-39400D01*
X39200Y-25500D02*
X42443Y-25500D01*
X43263Y-25500D02*
X43861Y-25500D01*
X44488Y-25500D02*
X44516Y-25500D01*
X45143Y-25500D02*
X45794Y-25500D01*
X39200Y-25580D02*
X42607Y-25580D01*
X43263Y-25580D02*
X43894Y-25580D01*
X44455Y-25580D02*
X44549Y-25580D01*
X45110Y-25580D02*
X45827Y-25580D01*
X39289Y-25660D02*
X42627Y-25660D01*
X43242Y-25660D02*
X43971Y-25660D01*
X44379Y-25660D02*
X44626Y-25660D01*
X45034Y-25660D02*
X45901Y-25660D01*
X39357Y-25740D02*
X42666Y-25740D01*
X43204Y-25740D02*
X46022Y-25740D01*
X39390Y-25820D02*
X42746Y-25820D01*
X43124Y-25820D02*
X46022Y-25820D01*
X39398Y-25900D02*
X46044Y-25900D01*
X39393Y-25980D02*
X46086Y-25980D01*
X39360Y-26060D02*
X42699Y-26060D01*
X42892Y-26060D02*
X43632Y-26060D01*
X43849Y-26060D02*
X46164Y-26060D01*
X39299Y-26140D02*
X42566Y-26140D01*
X43024Y-26140D02*
X43506Y-26140D01*
X43974Y-26140D02*
X46147Y-26140D01*
X39200Y-26220D02*
X42505Y-26220D01*
X43086Y-26220D02*
X43448Y-26220D01*
X44033Y-26220D02*
X46147Y-26220D01*
X39200Y-26300D02*
X42472Y-26300D01*
X43119Y-26300D02*
X43415Y-26300D01*
X44066Y-26300D02*
X46175Y-26300D01*
X39200Y-26380D02*
X42467Y-26380D01*
X43123Y-26380D02*
X43412Y-26380D01*
X44068Y-26380D02*
X45731Y-26380D01*
X46139Y-26380D02*
X46226Y-26380D01*
X39299Y-26460D02*
X42475Y-26460D01*
X43114Y-26460D02*
X43422Y-26460D01*
X44057Y-26460D02*
X45655Y-26460D01*
X46216Y-26460D02*
X46219Y-26460D01*
X39361Y-26540D02*
X40974Y-26540D01*
X41167Y-26540D02*
X41464Y-26540D01*
X41657Y-26540D02*
X41954Y-26540D01*
X42147Y-26540D02*
X42444Y-26540D01*
X43081Y-26540D02*
X43455Y-26540D01*
X44024Y-26540D02*
X45622Y-26540D01*
X39394Y-26620D02*
X40841Y-26620D01*
X41299Y-26620D02*
X41330Y-26620D01*
X41789Y-26620D02*
X41820Y-26620D01*
X42279Y-26620D02*
X42310Y-26620D01*
X43014Y-26620D02*
X43501Y-26620D01*
X43979Y-26620D02*
X45607Y-26620D01*
X39398Y-26700D02*
X40779Y-26700D01*
X42867Y-26700D02*
X43446Y-26700D01*
X44035Y-26700D02*
X44879Y-26700D01*
X39389Y-26780D02*
X40426Y-26780D01*
X42864Y-26780D02*
X43412Y-26780D01*
X44068Y-26780D02*
X44799Y-26780D01*
X39356Y-26860D02*
X40346Y-26860D01*
X42868Y-26860D02*
X43412Y-26860D01*
X44068Y-26860D02*
X44719Y-26860D01*
X39289Y-26940D02*
X40311Y-26940D01*
X42859Y-26940D02*
X43424Y-26940D01*
X44055Y-26940D02*
X44639Y-26940D01*
X39200Y-27020D02*
X40292Y-27020D01*
X42826Y-27020D02*
X43457Y-27020D01*
X44022Y-27020D02*
X44559Y-27020D01*
X39200Y-27100D02*
X40026Y-27100D01*
X41287Y-27100D02*
X41341Y-27100D01*
X41777Y-27100D02*
X41831Y-27100D01*
X42267Y-27100D02*
X42321Y-27100D01*
X42759Y-27100D02*
X43531Y-27100D01*
X43949Y-27100D02*
X44479Y-27100D01*
X39200Y-27180D02*
X39953Y-27180D01*
X40920Y-27180D02*
X40997Y-27180D01*
X41142Y-27180D02*
X41487Y-27180D01*
X41632Y-27180D02*
X41977Y-27180D01*
X42122Y-27180D02*
X42467Y-27180D01*
X42612Y-27180D02*
X44399Y-27180D01*
X39200Y-27260D02*
X39561Y-27260D01*
X40874Y-27260D02*
X44319Y-27260D01*
X39200Y-27340D02*
X39482Y-27340D01*
X40776Y-27340D02*
X44239Y-27340D01*
X39200Y-27420D02*
X39449Y-27420D01*
X40563Y-27420D02*
X41491Y-27420D01*
X41869Y-27420D02*
X43364Y-27420D01*
X43727Y-27420D02*
X44159Y-27420D01*
X39200Y-27500D02*
X39432Y-27500D01*
X40529Y-27500D02*
X41411Y-27500D01*
X41949Y-27500D02*
X43281Y-27500D01*
X43809Y-27500D02*
X44079Y-27500D01*
X39200Y-27580D02*
X39432Y-27580D01*
X40474Y-27580D02*
X41373Y-27580D01*
X41988Y-27580D02*
X43240Y-27580D01*
X43851Y-27580D02*
X43999Y-27580D01*
X39200Y-27660D02*
X39460Y-27660D01*
X40058Y-27660D02*
X40114Y-27660D01*
X40355Y-27660D02*
X41352Y-27660D01*
X42008Y-27660D02*
X43217Y-27660D01*
X43873Y-27660D02*
X43919Y-27660D01*
X39200Y-27740D02*
X39506Y-27740D01*
X40008Y-27740D02*
X41352Y-27740D01*
X42008Y-27740D02*
X43217Y-27740D01*
X39200Y-27820D02*
X39442Y-27820D01*
X40019Y-27820D02*
X41376Y-27820D01*
X41983Y-27820D02*
X43239Y-27820D01*
X39200Y-27900D02*
X39409Y-27900D01*
X40052Y-27900D02*
X41351Y-27900D01*
X41938Y-27900D02*
X42839Y-27900D01*
X43152Y-27900D02*
X43281Y-27900D01*
X39200Y-27980D02*
X39402Y-27980D01*
X40058Y-27980D02*
X41313Y-27980D01*
X41928Y-27980D02*
X42741Y-27980D01*
X43249Y-27980D02*
X43363Y-27980D01*
X39200Y-28060D02*
X39408Y-28060D01*
X40051Y-28060D02*
X41292Y-28060D01*
X41948Y-28060D02*
X42694Y-28060D01*
X43297Y-28060D02*
X43518Y-28060D01*
X39200Y-28140D02*
X39441Y-28140D01*
X40018Y-28140D02*
X41292Y-28140D01*
X41948Y-28140D02*
X42667Y-28140D01*
X43323Y-28140D02*
X43438Y-28140D01*
X39200Y-28220D02*
X39506Y-28220D01*
X39953Y-28220D02*
X41316Y-28220D01*
X41923Y-28220D02*
X42667Y-28220D01*
X43323Y-28220D02*
X43358Y-28220D01*
X39200Y-28300D02*
X39531Y-28300D01*
X40039Y-28300D02*
X41361Y-28300D01*
X41879Y-28300D02*
X42685Y-28300D01*
X39200Y-28380D02*
X39484Y-28380D01*
X40087Y-28380D02*
X41450Y-28380D01*
X41789Y-28380D02*
X41971Y-28380D01*
X42140Y-28380D02*
X42721Y-28380D01*
X39200Y-28460D02*
X39457Y-28460D01*
X40113Y-28460D02*
X41831Y-28460D01*
X42279Y-28460D02*
X42801Y-28460D01*
X39200Y-28540D02*
X39457Y-28540D01*
X40113Y-28540D02*
X41767Y-28540D01*
X42344Y-28540D02*
X43038Y-28540D01*
X39200Y-28620D02*
X39475Y-28620D01*
X40094Y-28620D02*
X41734Y-28620D01*
X42377Y-28620D02*
X42958Y-28620D01*
X39200Y-28700D02*
X39511Y-28700D01*
X40059Y-28700D02*
X41727Y-28700D01*
X42383Y-28700D02*
X42878Y-28700D01*
X39200Y-28780D02*
X39511Y-28780D01*
X39979Y-28780D02*
X41733Y-28780D01*
X42376Y-28780D02*
X42849Y-28780D01*
X39200Y-28860D02*
X39447Y-28860D01*
X40024Y-28860D02*
X41766Y-28860D01*
X42343Y-28860D02*
X42849Y-28860D01*
X39200Y-28940D02*
X39414Y-28940D01*
X40057Y-28940D02*
X41831Y-28940D01*
X42279Y-28940D02*
X42849Y-28940D01*
X39200Y-29020D02*
X39407Y-29020D01*
X40063Y-29020D02*
X41546Y-29020D01*
X42529Y-29020D02*
X42849Y-29020D01*
X39200Y-29100D02*
X39413Y-29100D01*
X40056Y-29100D02*
X41476Y-29100D01*
X42600Y-29100D02*
X42849Y-29100D01*
X39200Y-29180D02*
X39446Y-29180D01*
X40023Y-29180D02*
X41443Y-29180D01*
X42633Y-29180D02*
X42849Y-29180D01*
X39200Y-29260D02*
X39511Y-29260D01*
X39958Y-29260D02*
X41432Y-29260D01*
X42643Y-29260D02*
X42849Y-29260D01*
X39200Y-29340D02*
X39541Y-29340D01*
X40049Y-29340D02*
X40156Y-29340D01*
X40325Y-29340D02*
X41434Y-29340D01*
X42640Y-29340D02*
X42849Y-29340D01*
X39200Y-29420D02*
X39494Y-29420D01*
X40464Y-29420D02*
X41467Y-29420D01*
X42607Y-29420D02*
X42849Y-29420D01*
X39200Y-29500D02*
X39467Y-29500D01*
X40529Y-29500D02*
X41526Y-29500D01*
X41993Y-29500D02*
X42081Y-29500D01*
X42549Y-29500D02*
X42849Y-29500D01*
X39200Y-29580D02*
X39467Y-29580D01*
X40562Y-29580D02*
X41651Y-29580D01*
X41868Y-29580D02*
X42206Y-29580D01*
X42423Y-29580D02*
X42849Y-29580D01*
X39200Y-29660D02*
X39485Y-29660D01*
X40859Y-29660D02*
X42889Y-29660D01*
X39200Y-29740D02*
X39521Y-29740D01*
X40936Y-29740D02*
X42876Y-29740D01*
X39200Y-29820D02*
X39601Y-29820D01*
X41250Y-29820D02*
X41451Y-29820D01*
X41740Y-29820D02*
X41941Y-29820D01*
X42231Y-29820D02*
X42796Y-29820D01*
X39200Y-29900D02*
X40016Y-29900D01*
X42334Y-29900D02*
X42758Y-29900D01*
X39200Y-29980D02*
X40155Y-29980D01*
X40322Y-29980D02*
X40327Y-29980D01*
X42385Y-29980D02*
X42570Y-29980D01*
X39200Y-30060D02*
X40357Y-30060D01*
X42413Y-30060D02*
X42451Y-30060D01*
X39200Y-30140D02*
X40411Y-30140D01*
X43367Y-30140D02*
X43369Y-30140D01*
X39200Y-30220D02*
X40522Y-30220D01*
X40785Y-30220D02*
X40793Y-30220D01*
X43324Y-30220D02*
X43449Y-30220D01*
X39200Y-30300D02*
X40826Y-30300D01*
X43234Y-30300D02*
X43529Y-30300D01*
X39208Y-30380D02*
X40906Y-30380D01*
X41303Y-30380D02*
X41396Y-30380D01*
X41793Y-30380D02*
X41886Y-30380D01*
X43005Y-30380D02*
X43599Y-30380D01*
X39304Y-30460D02*
X42022Y-30460D01*
X42972Y-30460D02*
X43599Y-30460D01*
X39352Y-30540D02*
X40888Y-30540D01*
X41033Y-30540D02*
X42022Y-30540D01*
X42899Y-30540D02*
X43599Y-30540D01*
X39378Y-30620D02*
X40741Y-30620D01*
X41179Y-30620D02*
X42034Y-30620D01*
X42665Y-30620D02*
X43599Y-30620D01*
X39378Y-30700D02*
X40674Y-30700D01*
X41247Y-30700D02*
X42067Y-30700D01*
X42632Y-30700D02*
X43599Y-30700D01*
X39358Y-30780D02*
X40641Y-30780D01*
X41280Y-30780D02*
X42141Y-30780D01*
X42559Y-30780D02*
X43206Y-30780D01*
X43545Y-30780D02*
X43598Y-30780D01*
X39430Y-30860D02*
X40632Y-30860D01*
X41288Y-30860D02*
X43116Y-30860D01*
X39510Y-30940D02*
X40636Y-30940D01*
X41283Y-30940D02*
X43072Y-30940D01*
X39590Y-31020D02*
X40362Y-31020D01*
X40579Y-31020D02*
X40669Y-31020D01*
X41250Y-31020D02*
X43047Y-31020D01*
X39670Y-31100D02*
X40236Y-31100D01*
X40704Y-31100D02*
X40731Y-31100D01*
X41189Y-31100D02*
X42811Y-31100D01*
X39750Y-31180D02*
X40178Y-31180D01*
X40763Y-31180D02*
X40863Y-31180D01*
X41056Y-31180D02*
X42731Y-31180D01*
X39830Y-31260D02*
X40145Y-31260D01*
X40796Y-31260D02*
X42696Y-31260D01*
X39910Y-31340D02*
X40142Y-31340D01*
X40798Y-31340D02*
X42196Y-31340D01*
X42535Y-31340D02*
X42677Y-31340D01*
X39990Y-31420D02*
X40152Y-31420D01*
X40787Y-31420D02*
X42106Y-31420D01*
X42624Y-31420D02*
X42677Y-31420D01*
X40070Y-31500D02*
X40185Y-31500D01*
X40754Y-31500D02*
X42062Y-31500D01*
X42669Y-31500D02*
X42703Y-31500D01*
X40150Y-31580D02*
X40256Y-31580D01*
X40684Y-31580D02*
X42037Y-31580D01*
X42693Y-31580D02*
X42740Y-31580D01*
X40230Y-31660D02*
X42037Y-31660D01*
X40299Y-31740D02*
X42057Y-31740D01*
X40299Y-31820D02*
X42096Y-31820D01*
X40299Y-31900D02*
X42176Y-31900D01*
X40299Y-31980D02*
X42450Y-31980D01*
X40299Y-32060D02*
X42450Y-32060D01*
X40299Y-32140D02*
X40926Y-32140D01*
X41324Y-32140D02*
X42450Y-32140D01*
X40299Y-32220D02*
X40847Y-32220D01*
X41404Y-32220D02*
X42450Y-32220D01*
X40299Y-32300D02*
X40814Y-32300D01*
X41437Y-32300D02*
X42450Y-32300D01*
X40299Y-32380D02*
X40797Y-32380D01*
X41453Y-32380D02*
X42450Y-32380D01*
X40299Y-32460D02*
X40797Y-32460D01*
X41453Y-32460D02*
X42450Y-32460D01*
X40299Y-32540D02*
X40825Y-32540D01*
X41424Y-32540D02*
X42450Y-32540D01*
X40299Y-32620D02*
X40876Y-32620D01*
X41374Y-32620D02*
X42450Y-32620D01*
X40299Y-32700D02*
X40980Y-32700D01*
X41269Y-32700D02*
X42450Y-32700D01*
X40299Y-32780D02*
X42450Y-32780D01*
X40299Y-32860D02*
X42450Y-32860D01*
X40299Y-32940D02*
X42450Y-32940D01*
X40299Y-33020D02*
X42216Y-33020D01*
X40299Y-33100D02*
X42137Y-33100D01*
X40539Y-33180D02*
X42104Y-33180D01*
X40616Y-33260D02*
X42087Y-33260D01*
X40649Y-33340D02*
X42087Y-33340D01*
X40663Y-33420D02*
X42108Y-33420D01*
X40663Y-33500D02*
X42028Y-33500D01*
X40632Y-33580D02*
X41696Y-33580D01*
X40579Y-33660D02*
X41617Y-33660D01*
X40470Y-33740D02*
X41101Y-33740D01*
X41499Y-33740D02*
X41584Y-33740D01*
X40390Y-33820D02*
X41022Y-33820D01*
X40410Y-33900D02*
X40989Y-33900D01*
X40549Y-33980D02*
X40972Y-33980D01*
X40614Y-34060D02*
X40972Y-34060D01*
X40647Y-34140D02*
X41000Y-34140D01*
X40653Y-34220D02*
X41051Y-34220D01*
X40646Y-34300D02*
X41142Y-34300D01*
X40613Y-34380D02*
X41110Y-34380D01*
X40549Y-34460D02*
X41097Y-34460D01*
X40409Y-34540D02*
X41097Y-34540D01*
X40299Y-34620D02*
X41100Y-34620D01*
X40299Y-34700D02*
X41100Y-34700D01*
X40299Y-34780D02*
X41100Y-34780D01*
X40299Y-34860D02*
X41100Y-34860D01*
X40299Y-34940D02*
X41100Y-34940D01*
X40299Y-35020D02*
X41100Y-35020D01*
X40299Y-35100D02*
X41100Y-35100D01*
X40299Y-35180D02*
X41100Y-35180D01*
X40299Y-35260D02*
X41100Y-35260D01*
X40299Y-35340D02*
X41100Y-35340D01*
X40299Y-35420D02*
X41100Y-35420D01*
X40299Y-35500D02*
X41100Y-35500D01*
X40299Y-35580D02*
X41097Y-35580D01*
X40299Y-35660D02*
X41097Y-35660D01*
X40299Y-35740D02*
X41100Y-35740D01*
X40299Y-35820D02*
X41100Y-35820D01*
X41100Y-35900D02*
X41100Y-35692D01*
X41097Y-35685D01*
X41097Y-35555D01*
X41100Y-35547D01*
X41100Y-34547D01*
X41097Y-34540D01*
X41097Y-34410D01*
X41144Y-34295D01*
X41114Y-34283D01*
X41022Y-34191D01*
X40972Y-34070D01*
X40972Y-33940D01*
X41022Y-33819D01*
X41060Y-33780D01*
X41060Y-32733D01*
X40939Y-32683D01*
X40847Y-32591D01*
X40797Y-32470D01*
X40797Y-32340D01*
X40847Y-32219D01*
X40895Y-32170D01*
X40895Y-31193D01*
X40774Y-31143D01*
X40682Y-31051D01*
X40632Y-30930D01*
X40632Y-30800D01*
X40682Y-30679D01*
X40774Y-30587D01*
X40895Y-30537D01*
X41025Y-30537D01*
X41146Y-30587D01*
X41238Y-30679D01*
X41288Y-30800D01*
X41288Y-30930D01*
X41238Y-31051D01*
X41146Y-31143D01*
X41025Y-31193D01*
X40895Y-31193D01*
X40895Y-32170D01*
X40939Y-32127D01*
X41060Y-32077D01*
X41190Y-32077D01*
X41311Y-32127D01*
X41403Y-32219D01*
X41453Y-32340D01*
X41453Y-32470D01*
X41403Y-32591D01*
X41311Y-32683D01*
X41190Y-32733D01*
X41060Y-32733D01*
X41060Y-33780D01*
X41114Y-33727D01*
X41235Y-33677D01*
X41365Y-33677D01*
X41486Y-33727D01*
X41567Y-33808D01*
X41567Y-33780D01*
X41617Y-33659D01*
X41709Y-33567D01*
X41830Y-33517D01*
X41960Y-33517D01*
X41996Y-33532D01*
X42113Y-33415D01*
X42087Y-33350D01*
X42087Y-33220D01*
X42137Y-33099D01*
X42229Y-33007D01*
X42350Y-32957D01*
X42450Y-32957D01*
X42450Y-31944D01*
X42430Y-31953D01*
X42300Y-31953D01*
X42179Y-31903D01*
X42087Y-31811D01*
X42037Y-31690D01*
X42037Y-31560D01*
X42087Y-31439D01*
X42179Y-31347D01*
X42300Y-31297D01*
X42430Y-31297D01*
X42551Y-31347D01*
X42643Y-31439D01*
X42693Y-31560D01*
X42693Y-31628D01*
X42745Y-31574D01*
X42727Y-31556D01*
X42677Y-31435D01*
X42677Y-31305D01*
X42727Y-31184D01*
X42819Y-31092D01*
X42940Y-31042D01*
X43047Y-31042D01*
X43047Y-31000D01*
X43097Y-30879D01*
X43189Y-30787D01*
X43310Y-30737D01*
X43440Y-30737D01*
X43561Y-30787D01*
X43576Y-30802D01*
X43599Y-30779D01*
X43599Y-30370D01*
X43368Y-30139D01*
X43343Y-30201D01*
X43251Y-30293D01*
X43130Y-30343D01*
X43018Y-30343D01*
X43018Y-30350D01*
X42968Y-30471D01*
X42876Y-30563D01*
X42755Y-30613D01*
X42668Y-30613D01*
X42628Y-30711D01*
X42536Y-30803D01*
X42415Y-30853D01*
X42285Y-30853D01*
X42164Y-30803D01*
X42072Y-30711D01*
X42022Y-30590D01*
X42022Y-30460D01*
X42029Y-30443D01*
X42020Y-30443D01*
X41899Y-30393D01*
X41839Y-30333D01*
X41781Y-30393D01*
X41660Y-30443D01*
X41530Y-30443D01*
X41409Y-30393D01*
X41349Y-30333D01*
X41291Y-30393D01*
X41170Y-30443D01*
X41040Y-30443D01*
X40919Y-30393D01*
X40827Y-30301D01*
X40792Y-30217D01*
X40720Y-30248D01*
X40590Y-30248D01*
X40469Y-30198D01*
X40377Y-30106D01*
X40327Y-29985D01*
X40327Y-29978D01*
X40305Y-29988D01*
X40175Y-29988D01*
X40054Y-29938D01*
X39962Y-29846D01*
X39958Y-29837D01*
X39860Y-29878D01*
X39730Y-29878D01*
X39609Y-29828D01*
X39517Y-29736D01*
X39467Y-29615D01*
X39467Y-29485D01*
X39517Y-29364D01*
X39573Y-29307D01*
X39549Y-29298D01*
X39457Y-29206D01*
X39407Y-29085D01*
X39407Y-28955D01*
X39457Y-28834D01*
X39549Y-28742D01*
X39551Y-28740D01*
X39507Y-28696D01*
X39457Y-28575D01*
X39457Y-28445D01*
X39507Y-28324D01*
X39564Y-28266D01*
X39544Y-28258D01*
X39452Y-28166D01*
X39402Y-28045D01*
X39402Y-27915D01*
X39452Y-27794D01*
X39508Y-27737D01*
X39482Y-27711D01*
X39432Y-27590D01*
X39432Y-27460D01*
X39482Y-27339D01*
X39574Y-27247D01*
X39695Y-27197D01*
X39825Y-27197D01*
X39927Y-27239D01*
X39957Y-27169D01*
X40049Y-27077D01*
X40170Y-27027D01*
X40292Y-27027D01*
X40292Y-26985D01*
X40342Y-26864D01*
X40434Y-26772D01*
X40555Y-26722D01*
X40685Y-26722D01*
X40757Y-26752D01*
X40792Y-26669D01*
X40884Y-26577D01*
X41005Y-26527D01*
X41135Y-26527D01*
X41256Y-26577D01*
X41314Y-26635D01*
X41374Y-26577D01*
X41495Y-26527D01*
X41625Y-26527D01*
X41746Y-26577D01*
X41804Y-26635D01*
X41864Y-26577D01*
X41985Y-26527D01*
X42115Y-26527D01*
X42236Y-26577D01*
X42294Y-26635D01*
X42354Y-26577D01*
X42475Y-26527D01*
X42502Y-26527D01*
X42467Y-26440D01*
X42467Y-26310D01*
X42517Y-26189D01*
X42609Y-26097D01*
X42730Y-26047D01*
X42860Y-26047D01*
X42981Y-26097D01*
X43073Y-26189D01*
X43123Y-26310D01*
X43123Y-26440D01*
X43073Y-26561D01*
X42981Y-26653D01*
X42860Y-26703D01*
X42832Y-26703D01*
X42868Y-26790D01*
X42868Y-26920D01*
X42818Y-27041D01*
X42726Y-27133D01*
X42605Y-27183D01*
X42475Y-27183D01*
X42354Y-27133D01*
X42294Y-27073D01*
X42236Y-27133D01*
X42115Y-27183D01*
X41985Y-27183D01*
X41864Y-27133D01*
X41804Y-27073D01*
X41746Y-27133D01*
X41625Y-27183D01*
X41495Y-27183D01*
X41374Y-27133D01*
X41314Y-27073D01*
X41256Y-27133D01*
X41135Y-27183D01*
X41005Y-27183D01*
X40932Y-27152D01*
X40898Y-27236D01*
X40806Y-27328D01*
X40685Y-27378D01*
X40563Y-27378D01*
X40563Y-27420D01*
X40513Y-27541D01*
X40421Y-27633D01*
X40300Y-27683D01*
X40170Y-27683D01*
X40067Y-27640D01*
X40038Y-27711D01*
X39981Y-27767D01*
X40008Y-27794D01*
X40058Y-27915D01*
X40058Y-28045D01*
X40008Y-28166D01*
X39950Y-28223D01*
X39971Y-28232D01*
X40063Y-28324D01*
X40113Y-28445D01*
X40113Y-28575D01*
X40063Y-28696D01*
X39971Y-28788D01*
X39968Y-28789D01*
X40013Y-28834D01*
X40063Y-28955D01*
X40063Y-29085D01*
X40013Y-29206D01*
X39956Y-29262D01*
X39981Y-29272D01*
X40073Y-29364D01*
X40076Y-29372D01*
X40175Y-29332D01*
X40305Y-29332D01*
X40426Y-29382D01*
X40518Y-29474D01*
X40568Y-29595D01*
X40568Y-29601D01*
X40590Y-29592D01*
X40720Y-29592D01*
X40841Y-29642D01*
X40933Y-29734D01*
X40967Y-29817D01*
X41040Y-29787D01*
X41170Y-29787D01*
X41291Y-29837D01*
X41349Y-29895D01*
X41409Y-29837D01*
X41530Y-29787D01*
X41660Y-29787D01*
X41781Y-29837D01*
X41839Y-29895D01*
X41899Y-29837D01*
X42020Y-29787D01*
X42150Y-29787D01*
X42250Y-29828D01*
X42250Y-29598D01*
X42129Y-29548D01*
X42037Y-29456D01*
X41946Y-29548D01*
X41825Y-29598D01*
X41695Y-29598D01*
X41574Y-29548D01*
X41482Y-29456D01*
X41432Y-29335D01*
X41432Y-29205D01*
X41482Y-29084D01*
X41555Y-29010D01*
X41555Y-28423D01*
X41434Y-28373D01*
X41342Y-28281D01*
X41292Y-28160D01*
X41292Y-28030D01*
X41342Y-27909D01*
X41392Y-27858D01*
X41352Y-27760D01*
X41352Y-27630D01*
X41402Y-27509D01*
X41494Y-27417D01*
X41615Y-27367D01*
X41745Y-27367D01*
X41866Y-27417D01*
X41958Y-27509D01*
X42008Y-27630D01*
X42008Y-27760D01*
X41958Y-27881D01*
X41907Y-27931D01*
X41948Y-28030D01*
X41948Y-28160D01*
X41898Y-28281D01*
X41806Y-28373D01*
X41685Y-28423D01*
X41555Y-28423D01*
X41555Y-29010D01*
X41574Y-28992D01*
X41695Y-28942D01*
X41825Y-28942D01*
X41838Y-28947D01*
X41777Y-28886D01*
X41727Y-28765D01*
X41727Y-28635D01*
X41777Y-28514D01*
X41869Y-28422D01*
X41990Y-28372D01*
X42120Y-28372D01*
X42241Y-28422D01*
X42333Y-28514D01*
X42383Y-28635D01*
X42383Y-28765D01*
X42333Y-28886D01*
X42277Y-28942D01*
X42380Y-28942D01*
X42501Y-28992D01*
X42593Y-29084D01*
X42643Y-29205D01*
X42643Y-29335D01*
X42593Y-29456D01*
X42501Y-29548D01*
X42380Y-29598D01*
X42250Y-29598D01*
X42250Y-29828D01*
X42271Y-29837D01*
X42363Y-29929D01*
X42413Y-30050D01*
X42413Y-30098D01*
X42504Y-30007D01*
X42625Y-29957D01*
X42737Y-29957D01*
X42737Y-29950D01*
X42787Y-29829D01*
X42879Y-29737D01*
X42940Y-29711D01*
X42849Y-29620D01*
X42849Y-28729D01*
X43060Y-28517D01*
X43060Y-28518D01*
X42930Y-28518D01*
X42809Y-28468D01*
X42717Y-28376D01*
X42667Y-28255D01*
X42667Y-28125D01*
X42717Y-28004D01*
X42809Y-27912D01*
X42930Y-27862D01*
X43060Y-27862D01*
X43181Y-27912D01*
X43273Y-28004D01*
X43323Y-28125D01*
X43323Y-28255D01*
X43322Y-28255D01*
X43550Y-28028D01*
X43480Y-28028D01*
X43359Y-27978D01*
X43267Y-27886D01*
X43217Y-27765D01*
X43217Y-27635D01*
X43267Y-27514D01*
X43359Y-27422D01*
X43480Y-27372D01*
X43610Y-27372D01*
X43675Y-27398D01*
X43675Y-27173D01*
X43554Y-27123D01*
X43462Y-27031D01*
X43412Y-26910D01*
X43412Y-26780D01*
X43462Y-26659D01*
X43513Y-26607D01*
X43462Y-26556D01*
X43412Y-26435D01*
X43412Y-26305D01*
X43462Y-26184D01*
X43554Y-26092D01*
X43675Y-26042D01*
X43805Y-26042D01*
X43926Y-26092D01*
X44018Y-26184D01*
X44068Y-26305D01*
X44068Y-26435D01*
X44018Y-26556D01*
X43966Y-26607D01*
X44018Y-26659D01*
X44068Y-26780D01*
X44068Y-26910D01*
X44018Y-27031D01*
X43926Y-27123D01*
X43805Y-27173D01*
X43675Y-27173D01*
X43675Y-27398D01*
X43731Y-27422D01*
X43823Y-27514D01*
X43873Y-27635D01*
X43873Y-27705D01*
X44929Y-26650D01*
X45607Y-26650D01*
X45607Y-26575D01*
X45657Y-26454D01*
X45749Y-26362D01*
X45870Y-26312D01*
X46000Y-26312D01*
X46121Y-26362D01*
X46213Y-26454D01*
X46216Y-26462D01*
X46250Y-26429D01*
X46250Y-26404D01*
X46197Y-26351D01*
X46147Y-26230D01*
X46147Y-26100D01*
X46164Y-26058D01*
X46164Y-26058D01*
X46072Y-25966D01*
X46022Y-25845D01*
X46022Y-25723D01*
X45924Y-25683D01*
X45832Y-25591D01*
X45794Y-25500D01*
X45143Y-25500D01*
X45108Y-25586D01*
X45016Y-25678D01*
X44895Y-25728D01*
X44765Y-25728D01*
X44644Y-25678D01*
X44552Y-25586D01*
X44516Y-25500D01*
X44488Y-25500D01*
X44453Y-25586D01*
X44361Y-25678D01*
X44240Y-25728D01*
X44110Y-25728D01*
X43989Y-25678D01*
X43897Y-25586D01*
X43861Y-25500D01*
X43263Y-25500D01*
X43263Y-25610D01*
X43213Y-25731D01*
X43121Y-25823D01*
X43000Y-25873D01*
X42870Y-25873D01*
X42749Y-25823D01*
X42657Y-25731D01*
X42607Y-25610D01*
X42607Y-25538D01*
X42535Y-25538D01*
X42443Y-25500D01*
X39200Y-25500D01*
X39200Y-25603D01*
X39256Y-25627D01*
X39348Y-25719D01*
X39398Y-25840D01*
X39398Y-25970D01*
X39348Y-26091D01*
X39256Y-26183D01*
X39200Y-26206D01*
X39200Y-26393D01*
X39256Y-26417D01*
X39348Y-26509D01*
X39398Y-26630D01*
X39398Y-26760D01*
X39348Y-26881D01*
X39256Y-26973D01*
X39200Y-26996D01*
X39200Y-30377D01*
X39236Y-30392D01*
X39328Y-30484D01*
X39378Y-30605D01*
X39378Y-30735D01*
X39356Y-30786D01*
X40299Y-31729D01*
X40299Y-33112D01*
X40400Y-33112D01*
X40405Y-33114D01*
X40405Y-31658D01*
X40284Y-31608D01*
X40192Y-31516D01*
X40142Y-31395D01*
X40142Y-31265D01*
X40192Y-31144D01*
X40284Y-31052D01*
X40405Y-31002D01*
X40535Y-31002D01*
X40656Y-31052D01*
X40748Y-31144D01*
X40798Y-31265D01*
X40798Y-31395D01*
X40748Y-31516D01*
X40656Y-31608D01*
X40535Y-31658D01*
X40405Y-31658D01*
X40405Y-33114D01*
X40521Y-33162D01*
X40613Y-33254D01*
X40663Y-33375D01*
X40663Y-33505D01*
X40613Y-33626D01*
X40521Y-33718D01*
X40473Y-33737D01*
X40319Y-33892D01*
X40390Y-33892D01*
X40511Y-33942D01*
X40603Y-34034D01*
X40653Y-34155D01*
X40653Y-34285D01*
X40603Y-34406D01*
X40511Y-34498D01*
X40390Y-34548D01*
X40299Y-34548D01*
X40299Y-35900D01*
X41100Y-35900D01*
X46490Y-38102D02*
X46490Y-38102D01*
X46194Y-38182D02*
X46569Y-38182D01*
X46203Y-38262D02*
X46649Y-38262D01*
X44628Y-38342D02*
X44629Y-38342D01*
X46200Y-38342D02*
X46729Y-38342D01*
X44608Y-38422D02*
X44663Y-38422D01*
X46167Y-38422D02*
X46809Y-38422D01*
X44573Y-38502D02*
X44721Y-38502D01*
X46108Y-38502D02*
X46889Y-38502D01*
X44563Y-38582D02*
X44843Y-38582D01*
X45075Y-38582D02*
X45122Y-38582D01*
X45708Y-38582D02*
X45754Y-38582D01*
X45986Y-38582D02*
X46969Y-38582D01*
X44605Y-38662D02*
X45089Y-38662D01*
X45741Y-38662D02*
X47049Y-38662D01*
X44628Y-38742D02*
X45082Y-38742D01*
X45748Y-38742D02*
X47129Y-38742D01*
X44628Y-38822D02*
X45086Y-38822D01*
X45743Y-38822D02*
X47217Y-38822D01*
X44606Y-38902D02*
X45120Y-38902D01*
X45710Y-38902D02*
X48219Y-38902D01*
X44608Y-38982D02*
X45181Y-38982D01*
X45648Y-38982D02*
X48299Y-38982D01*
X44687Y-39062D02*
X45310Y-39062D01*
X45519Y-39062D02*
X47588Y-39062D01*
X47973Y-39062D02*
X48379Y-39062D01*
X44721Y-39142D02*
X47508Y-39142D01*
X48053Y-39142D02*
X48459Y-39142D01*
X44738Y-39222D02*
X47469Y-39222D01*
X44738Y-39302D02*
X47447Y-39302D01*
X44710Y-39382D02*
X47447Y-39382D01*
X44663Y-39462D02*
X47470Y-39462D01*
X44690Y-39542D02*
X47511Y-39542D01*
X44723Y-39622D02*
X47591Y-39622D01*
X44738Y-39702D02*
X47576Y-39702D01*
X44738Y-39782D02*
X47496Y-39782D01*
X44708Y-39862D02*
X46551Y-39862D01*
X46851Y-39862D02*
X47416Y-39862D01*
X44658Y-39942D02*
X46448Y-39942D01*
X46953Y-39942D02*
X47336Y-39942D01*
X44692Y-40022D02*
X46397Y-40022D01*
X47003Y-40022D02*
X47256Y-40022D01*
X44725Y-40102D02*
X46367Y-40102D01*
X47033Y-40102D02*
X47176Y-40102D01*
X44738Y-40182D02*
X46367Y-40182D01*
X47033Y-40182D02*
X47096Y-40182D01*
X44738Y-40262D02*
X46382Y-40262D01*
X44706Y-40342D02*
X46415Y-40342D01*
X44653Y-40422D02*
X46491Y-40422D01*
X44694Y-40502D02*
X46777Y-40502D01*
X44727Y-40582D02*
X46697Y-40582D01*
X44738Y-40662D02*
X46617Y-40662D01*
X44737Y-40742D02*
X46537Y-40742D01*
X44704Y-40822D02*
X46457Y-40822D01*
X44648Y-40902D02*
X46377Y-40902D01*
X44696Y-40982D02*
X46142Y-40982D01*
X44729Y-41062D02*
X46053Y-41062D01*
X44738Y-41142D02*
X46008Y-41142D01*
X44735Y-41222D02*
X45982Y-41222D01*
X44702Y-41302D02*
X45977Y-41302D01*
X44643Y-41382D02*
X45897Y-41382D01*
X45170Y-32300D02*
X45764Y-32300D01*
X46225Y-32300D02*
X46675Y-32300D01*
X45089Y-32380D02*
X45701Y-32380D01*
X46289Y-32380D02*
X46739Y-32380D01*
X45009Y-32460D02*
X45668Y-32460D01*
X46323Y-32460D02*
X46803Y-32460D01*
X44933Y-32540D02*
X45662Y-32540D01*
X46328Y-32540D02*
X46867Y-32540D01*
X44885Y-32620D02*
X45667Y-32620D01*
X46322Y-32620D02*
X46931Y-32620D01*
X44786Y-32700D02*
X45701Y-32700D01*
X46289Y-32700D02*
X46995Y-32700D01*
X44689Y-32780D02*
X45764Y-32780D01*
X46225Y-32780D02*
X47059Y-32780D01*
X44609Y-32860D02*
X45897Y-32860D01*
X46092Y-32860D02*
X47123Y-32860D01*
X44529Y-32940D02*
X45245Y-32940D01*
X45676Y-32940D02*
X47187Y-32940D01*
X44449Y-33020D02*
X45172Y-33020D01*
X45748Y-33020D02*
X47251Y-33020D01*
X44369Y-33100D02*
X44935Y-33100D01*
X45781Y-33100D02*
X47315Y-33100D01*
X44320Y-33180D02*
X44850Y-33180D01*
X45793Y-33180D02*
X47379Y-33180D01*
X44235Y-33260D02*
X44807Y-33260D01*
X45793Y-33260D02*
X47443Y-33260D01*
X43430Y-33340D02*
X44757Y-33340D01*
X45760Y-33340D02*
X48634Y-33340D01*
X49234Y-33340D02*
X50619Y-33340D01*
X43350Y-33420D02*
X44610Y-33420D01*
X45705Y-33420D02*
X48689Y-33420D01*
X49180Y-33420D02*
X50699Y-33420D01*
X43270Y-33500D02*
X44541Y-33500D01*
X45592Y-33500D02*
X48801Y-33500D01*
X49067Y-33500D02*
X50779Y-33500D01*
X43200Y-33580D02*
X44507Y-33580D01*
X45390Y-33580D02*
X45415Y-33580D01*
X45777Y-33580D02*
X50859Y-33580D01*
X43200Y-33660D02*
X44497Y-33660D01*
X45310Y-33660D02*
X45330Y-33660D01*
X45861Y-33660D02*
X50939Y-33660D01*
X43200Y-33740D02*
X44498Y-33740D01*
X45161Y-33740D02*
X45287Y-33740D01*
X45904Y-33740D02*
X51019Y-33740D01*
X43200Y-33820D02*
X44532Y-33820D01*
X45128Y-33820D02*
X45262Y-33820D01*
X45928Y-33820D02*
X51099Y-33820D01*
X43200Y-33900D02*
X44589Y-33900D01*
X45070Y-33900D02*
X45262Y-33900D01*
X45928Y-33900D02*
X51179Y-33900D01*
X43200Y-33980D02*
X44708Y-33980D01*
X44951Y-33980D02*
X45282Y-33980D01*
X45907Y-33980D02*
X51250Y-33980D01*
X43200Y-34060D02*
X45319Y-34060D01*
X45870Y-34060D02*
X51250Y-34060D01*
X43200Y-34140D02*
X45399Y-34140D01*
X45790Y-34140D02*
X51250Y-34140D01*
X43200Y-34220D02*
X51250Y-34220D01*
X43200Y-34300D02*
X45675Y-34300D01*
X46037Y-34300D02*
X48220Y-34300D01*
X48582Y-34300D02*
X51250Y-34300D01*
X43200Y-34380D02*
X45590Y-34380D01*
X46121Y-34380D02*
X48135Y-34380D01*
X48666Y-34380D02*
X51250Y-34380D01*
X43200Y-34460D02*
X45547Y-34460D01*
X46164Y-34460D02*
X48092Y-34460D01*
X48709Y-34460D02*
X51250Y-34460D01*
X43200Y-34540D02*
X45522Y-34540D01*
X46188Y-34540D02*
X48067Y-34540D01*
X48733Y-34540D02*
X51250Y-34540D01*
X43200Y-34620D02*
X45522Y-34620D01*
X46188Y-34620D02*
X48067Y-34620D01*
X48733Y-34620D02*
X51250Y-34620D01*
X43200Y-34700D02*
X45542Y-34700D01*
X46167Y-34700D02*
X48087Y-34700D01*
X48712Y-34700D02*
X51250Y-34700D01*
X43200Y-34780D02*
X45579Y-34780D01*
X46130Y-34780D02*
X48124Y-34780D01*
X48675Y-34780D02*
X51250Y-34780D01*
X43200Y-34860D02*
X45659Y-34860D01*
X46050Y-34860D02*
X48204Y-34860D01*
X48595Y-34860D02*
X48688Y-34860D01*
X48883Y-34860D02*
X51250Y-34860D01*
X43200Y-34940D02*
X48555Y-34940D01*
X49016Y-34940D02*
X51250Y-34940D01*
X43200Y-35020D02*
X48491Y-35020D01*
X49079Y-35020D02*
X50277Y-35020D01*
X50424Y-35020D02*
X51250Y-35020D01*
X43200Y-35100D02*
X48458Y-35100D01*
X49113Y-35100D02*
X50130Y-35100D01*
X50571Y-35100D02*
X51250Y-35100D01*
X43200Y-35180D02*
X47200Y-35180D01*
X47601Y-35180D02*
X48452Y-35180D01*
X49118Y-35180D02*
X50061Y-35180D01*
X50640Y-35180D02*
X51250Y-35180D01*
X43200Y-35260D02*
X46632Y-35260D01*
X46970Y-35260D02*
X47120Y-35260D01*
X47681Y-35260D02*
X48457Y-35260D01*
X49112Y-35260D02*
X50027Y-35260D01*
X50673Y-35260D02*
X51250Y-35260D01*
X43200Y-35340D02*
X46540Y-35340D01*
X47061Y-35340D02*
X47085Y-35340D01*
X47715Y-35340D02*
X48491Y-35340D01*
X49079Y-35340D02*
X50017Y-35340D01*
X50683Y-35340D02*
X51250Y-35340D01*
X43200Y-35420D02*
X46494Y-35420D01*
X47733Y-35420D02*
X48554Y-35420D01*
X49015Y-35420D02*
X50018Y-35420D01*
X50681Y-35420D02*
X51250Y-35420D01*
X43200Y-35500D02*
X46467Y-35500D01*
X47733Y-35500D02*
X48687Y-35500D01*
X48882Y-35500D02*
X50052Y-35500D01*
X50648Y-35500D02*
X51250Y-35500D01*
X43200Y-35580D02*
X46467Y-35580D01*
X47706Y-35580D02*
X48453Y-35580D01*
X48648Y-35580D02*
X50109Y-35580D01*
X50590Y-35580D02*
X51250Y-35580D01*
X43200Y-35660D02*
X46485Y-35660D01*
X47114Y-35660D02*
X47139Y-35660D01*
X47660Y-35660D02*
X48319Y-35660D01*
X48781Y-35660D02*
X50228Y-35660D01*
X50471Y-35660D02*
X51250Y-35660D01*
X43200Y-35740D02*
X46519Y-35740D01*
X47080Y-35740D02*
X47230Y-35740D01*
X47568Y-35740D02*
X48256Y-35740D01*
X48844Y-35740D02*
X50229Y-35740D01*
X50472Y-35740D02*
X51250Y-35740D01*
X43200Y-35820D02*
X46599Y-35820D01*
X47091Y-35820D02*
X48223Y-35820D01*
X48878Y-35820D02*
X50110Y-35820D01*
X50591Y-35820D02*
X51250Y-35820D01*
X43200Y-35900D02*
X46574Y-35900D01*
X47157Y-35900D02*
X48217Y-35900D01*
X48883Y-35900D02*
X50052Y-35900D01*
X50648Y-35900D02*
X51250Y-35900D01*
X43200Y-35980D02*
X46540Y-35980D01*
X47191Y-35980D02*
X47535Y-35980D01*
X47946Y-35980D02*
X48222Y-35980D01*
X48877Y-35980D02*
X50019Y-35980D01*
X50682Y-35980D02*
X51250Y-35980D01*
X43200Y-36060D02*
X44189Y-36060D01*
X44503Y-36060D02*
X46532Y-36060D01*
X47198Y-36060D02*
X47457Y-36060D01*
X48024Y-36060D02*
X48256Y-36060D01*
X48844Y-36060D02*
X50017Y-36060D01*
X50683Y-36060D02*
X51250Y-36060D01*
X43200Y-36140D02*
X44090Y-36140D01*
X44601Y-36140D02*
X46535Y-36140D01*
X47194Y-36140D02*
X47424Y-36140D01*
X48057Y-36140D02*
X48319Y-36140D01*
X48780Y-36140D02*
X50027Y-36140D01*
X50673Y-36140D02*
X51250Y-36140D01*
X43200Y-36220D02*
X44041Y-36220D01*
X44650Y-36220D02*
X46569Y-36220D01*
X47161Y-36220D02*
X47407Y-36220D01*
X48073Y-36220D02*
X48452Y-36220D01*
X48647Y-36220D02*
X50060Y-36220D01*
X50639Y-36220D02*
X51250Y-36220D01*
X43200Y-36300D02*
X44012Y-36300D01*
X44678Y-36300D02*
X46629Y-36300D01*
X47100Y-36300D02*
X47407Y-36300D01*
X48073Y-36300D02*
X50129Y-36300D01*
X50570Y-36300D02*
X51250Y-36300D01*
X43200Y-36380D02*
X44012Y-36380D01*
X44678Y-36380D02*
X46755Y-36380D01*
X46974Y-36380D02*
X47435Y-36380D01*
X48044Y-36380D02*
X50276Y-36380D01*
X50423Y-36380D02*
X51250Y-36380D01*
X43200Y-36460D02*
X44028Y-36460D01*
X44661Y-36460D02*
X47484Y-36460D01*
X47995Y-36460D02*
X51250Y-36460D01*
X43200Y-36540D02*
X44061Y-36540D01*
X44628Y-36540D02*
X44694Y-36540D01*
X44937Y-36540D02*
X47582Y-36540D01*
X47896Y-36540D02*
X47974Y-36540D01*
X48288Y-36540D02*
X51250Y-36540D01*
X43200Y-36620D02*
X44120Y-36620D01*
X44550Y-36620D02*
X44575Y-36620D01*
X45056Y-36620D02*
X47875Y-36620D01*
X48386Y-36620D02*
X51250Y-36620D01*
X43200Y-36700D02*
X44030Y-36700D01*
X45113Y-36700D02*
X47826Y-36700D01*
X48435Y-36700D02*
X51250Y-36700D01*
X43200Y-36780D02*
X43984Y-36780D01*
X45147Y-36780D02*
X47797Y-36780D01*
X48463Y-36780D02*
X51250Y-36780D01*
X43200Y-36860D02*
X43957Y-36860D01*
X45148Y-36860D02*
X47797Y-36860D01*
X48463Y-36860D02*
X51250Y-36860D01*
X43200Y-36940D02*
X43957Y-36940D01*
X45138Y-36940D02*
X47813Y-36940D01*
X48446Y-36940D02*
X51250Y-36940D01*
X43200Y-37020D02*
X43975Y-37020D01*
X45104Y-37020D02*
X47846Y-37020D01*
X48413Y-37020D02*
X51250Y-37020D01*
X43200Y-37100D02*
X44009Y-37100D01*
X44570Y-37100D02*
X44594Y-37100D01*
X45035Y-37100D02*
X47643Y-37100D01*
X47838Y-37100D02*
X47924Y-37100D01*
X48335Y-37100D02*
X51250Y-37100D01*
X43200Y-37180D02*
X44089Y-37180D01*
X44490Y-37180D02*
X44590Y-37180D01*
X44888Y-37180D02*
X47510Y-37180D01*
X47971Y-37180D02*
X51250Y-37180D01*
X43200Y-37260D02*
X44450Y-37260D01*
X44901Y-37260D02*
X47446Y-37260D01*
X48034Y-37260D02*
X51250Y-37260D01*
X43200Y-37340D02*
X44384Y-37340D01*
X44967Y-37340D02*
X47413Y-37340D01*
X48068Y-37340D02*
X50921Y-37340D01*
X51140Y-37340D02*
X51250Y-37340D01*
X43200Y-37420D02*
X44350Y-37420D01*
X45001Y-37420D02*
X47407Y-37420D01*
X48073Y-37420D02*
X50795Y-37420D01*
X43200Y-37500D02*
X44342Y-37500D01*
X45008Y-37500D02*
X46097Y-37500D01*
X46735Y-37500D02*
X47412Y-37500D01*
X48067Y-37500D02*
X50734Y-37500D01*
X43200Y-37580D02*
X44345Y-37580D01*
X45004Y-37580D02*
X46005Y-37580D01*
X46852Y-37580D02*
X47446Y-37580D01*
X48034Y-37580D02*
X50701Y-37580D01*
X43200Y-37660D02*
X44379Y-37660D01*
X44971Y-37660D02*
X45959Y-37660D01*
X46932Y-37660D02*
X47509Y-37660D01*
X47970Y-37660D02*
X48035Y-37660D01*
X48866Y-37660D02*
X50697Y-37660D01*
X43200Y-37740D02*
X44439Y-37740D01*
X44910Y-37740D02*
X45932Y-37740D01*
X47012Y-37740D02*
X47642Y-37740D01*
X47837Y-37740D02*
X47963Y-37740D01*
X48938Y-37740D02*
X50704Y-37740D01*
X43200Y-37820D02*
X44565Y-37820D01*
X44784Y-37820D02*
X45932Y-37820D01*
X47092Y-37820D02*
X47930Y-37820D01*
X48971Y-37820D02*
X50738Y-37820D01*
X43200Y-37900D02*
X45950Y-37900D01*
X47172Y-37900D02*
X47917Y-37900D01*
X48983Y-37900D02*
X50804Y-37900D01*
X43190Y-37980D02*
X44222Y-37980D01*
X44369Y-37980D02*
X44792Y-37980D01*
X45130Y-37980D02*
X45702Y-37980D01*
X47252Y-37980D02*
X47917Y-37980D01*
X48983Y-37980D02*
X50944Y-37980D01*
X51115Y-37980D02*
X51250Y-37980D01*
X43110Y-38060D02*
X44075Y-38060D01*
X44516Y-38060D02*
X44700Y-38060D01*
X45221Y-38060D02*
X45610Y-38060D01*
X47332Y-38060D02*
X47950Y-38060D01*
X48950Y-38060D02*
X50990Y-38060D01*
X43030Y-38140D02*
X44006Y-38140D01*
X44585Y-38140D02*
X44654Y-38140D01*
X45267Y-38140D02*
X45564Y-38140D01*
X47412Y-38140D02*
X48004Y-38140D01*
X48895Y-38140D02*
X50910Y-38140D01*
X42950Y-38220D02*
X43972Y-38220D01*
X44619Y-38220D02*
X44627Y-38220D01*
X45293Y-38220D02*
X45537Y-38220D01*
X47492Y-38220D02*
X48116Y-38220D01*
X48382Y-38220D02*
X48516Y-38220D01*
X48782Y-38220D02*
X50873Y-38220D01*
X42870Y-38300D02*
X43962Y-38300D01*
X45293Y-38300D02*
X45537Y-38300D01*
X48471Y-38300D02*
X50852Y-38300D01*
X42790Y-38380D02*
X43963Y-38380D01*
X45274Y-38380D02*
X45555Y-38380D01*
X48583Y-38380D02*
X50852Y-38380D01*
X42710Y-38460D02*
X43997Y-38460D01*
X48663Y-38460D02*
X50876Y-38460D01*
X42630Y-38540D02*
X44054Y-38540D01*
X48743Y-38540D02*
X50919Y-38540D01*
X42550Y-38620D02*
X44004Y-38620D01*
X48823Y-38620D02*
X50485Y-38620D01*
X50866Y-38620D02*
X51003Y-38620D01*
X42470Y-38700D02*
X43970Y-38700D01*
X48903Y-38700D02*
X50405Y-38700D01*
X50946Y-38700D02*
X51250Y-38700D01*
X42390Y-38780D02*
X43962Y-38780D01*
X48983Y-38780D02*
X50365Y-38780D01*
X50986Y-38780D02*
X51250Y-38780D01*
X42310Y-38860D02*
X43965Y-38860D01*
X49063Y-38860D02*
X50342Y-38860D01*
X51008Y-38860D02*
X51250Y-38860D01*
X42230Y-38940D02*
X43999Y-38940D01*
X49143Y-38940D02*
X50342Y-38940D01*
X51008Y-38940D02*
X51250Y-38940D01*
X42150Y-39020D02*
X44059Y-39020D01*
X49223Y-39020D02*
X50364Y-39020D01*
X50985Y-39020D02*
X51250Y-39020D01*
X42070Y-39100D02*
X44107Y-39100D01*
X49303Y-39100D02*
X50404Y-39100D01*
X50945Y-39100D02*
X51250Y-39100D01*
X41990Y-39180D02*
X44074Y-39180D01*
X49383Y-39180D02*
X50484Y-39180D01*
X50865Y-39180D02*
X51250Y-39180D01*
X41910Y-39260D02*
X43007Y-39260D01*
X43154Y-39260D02*
X44072Y-39260D01*
X41830Y-39340D02*
X42860Y-39340D01*
X43301Y-39340D02*
X44082Y-39340D01*
X41750Y-39420D02*
X42791Y-39420D01*
X43370Y-39420D02*
X44115Y-39420D01*
X41670Y-39500D02*
X42757Y-39500D01*
X43403Y-39500D02*
X44159Y-39500D01*
X41590Y-39580D02*
X42747Y-39580D01*
X43413Y-39580D02*
X44105Y-39580D01*
X41510Y-39660D02*
X42748Y-39660D01*
X43411Y-39660D02*
X44072Y-39660D01*
X41430Y-39740D02*
X42782Y-39740D01*
X43378Y-39740D02*
X44072Y-39740D01*
X41350Y-39820D02*
X42839Y-39820D01*
X43320Y-39820D02*
X44084Y-39820D01*
X41270Y-39900D02*
X42789Y-39900D01*
X43372Y-39900D02*
X44117Y-39900D01*
X41190Y-39980D02*
X42755Y-39980D01*
X43406Y-39980D02*
X44154Y-39980D01*
X41110Y-40060D02*
X42747Y-40060D01*
X43413Y-40060D02*
X44103Y-40060D01*
X41030Y-40140D02*
X42750Y-40140D01*
X43408Y-40140D02*
X44072Y-40140D01*
X40950Y-40220D02*
X42784Y-40220D01*
X43531Y-40220D02*
X44072Y-40220D01*
X40870Y-40300D02*
X42844Y-40300D01*
X43603Y-40300D02*
X44086Y-40300D01*
X40790Y-40380D02*
X42970Y-40380D01*
X43636Y-40380D02*
X44119Y-40380D01*
X40710Y-40460D02*
X42982Y-40460D01*
X43648Y-40460D02*
X44149Y-40460D01*
X40630Y-40540D02*
X42982Y-40540D01*
X43648Y-40540D02*
X44101Y-40540D01*
X40550Y-40620D02*
X43015Y-40620D01*
X43615Y-40620D02*
X44072Y-40620D01*
X40470Y-40700D02*
X43069Y-40700D01*
X43560Y-40700D02*
X44072Y-40700D01*
X40400Y-40780D02*
X43026Y-40780D01*
X43605Y-40780D02*
X44088Y-40780D01*
X40400Y-40860D02*
X42992Y-40860D01*
X43638Y-40860D02*
X44121Y-40860D01*
X40400Y-40940D02*
X42982Y-40940D01*
X43648Y-40940D02*
X44144Y-40940D01*
X40400Y-41020D02*
X42983Y-41020D01*
X43646Y-41020D02*
X44099Y-41020D01*
X40400Y-41100D02*
X43017Y-41100D01*
X43613Y-41100D02*
X44072Y-41100D01*
X40400Y-41180D02*
X43074Y-41180D01*
X43555Y-41180D02*
X44072Y-41180D01*
X40400Y-41260D02*
X43193Y-41260D01*
X43436Y-41260D02*
X44090Y-41260D01*
X40400Y-41340D02*
X44124Y-41340D01*
X40400Y-41420D02*
X44204Y-41420D01*
X45829Y-41450D02*
X45982Y-41297D01*
X45982Y-41204D01*
X46033Y-41081D01*
X46127Y-40988D01*
X46249Y-40937D01*
X46342Y-40937D01*
X46800Y-40478D01*
X46766Y-40493D01*
X46634Y-40493D01*
X46511Y-40442D01*
X46418Y-40348D01*
X46367Y-40226D01*
X46367Y-40094D01*
X46418Y-39971D01*
X46512Y-39878D01*
X46634Y-39827D01*
X46766Y-39827D01*
X46889Y-39878D01*
X46982Y-39972D01*
X47033Y-40094D01*
X47033Y-40226D01*
X47018Y-40260D01*
X47637Y-39641D01*
X47591Y-39622D01*
X47498Y-39528D01*
X47447Y-39406D01*
X47447Y-39274D01*
X47498Y-39151D01*
X47592Y-39058D01*
X47714Y-39007D01*
X47846Y-39007D01*
X47969Y-39058D01*
X48062Y-39152D01*
X48082Y-39200D01*
X48517Y-39200D01*
X48215Y-38898D01*
X47415Y-38898D01*
X47295Y-38874D01*
X47193Y-38806D01*
X46490Y-38102D01*
X46378Y-38103D01*
X46331Y-38123D01*
X46199Y-38123D01*
X46162Y-38108D01*
X46203Y-38204D01*
X46203Y-38336D01*
X46152Y-38459D01*
X46058Y-38552D01*
X45936Y-38603D01*
X45804Y-38603D01*
X45697Y-38558D01*
X45748Y-38679D01*
X45748Y-38811D01*
X45697Y-38934D01*
X45603Y-39027D01*
X45481Y-39078D01*
X45349Y-39078D01*
X45226Y-39027D01*
X45133Y-38933D01*
X45082Y-38811D01*
X45082Y-38679D01*
X45131Y-38558D01*
X45026Y-38603D01*
X44894Y-38603D01*
X44771Y-38552D01*
X44678Y-38458D01*
X44628Y-38338D01*
X44628Y-38376D01*
X44577Y-38499D01*
X44528Y-38547D01*
X44577Y-38597D01*
X44628Y-38719D01*
X44628Y-38851D01*
X44581Y-38962D01*
X44594Y-38968D01*
X44687Y-39062D01*
X44738Y-39184D01*
X44738Y-39316D01*
X44687Y-39439D01*
X44638Y-39487D01*
X44687Y-39537D01*
X44738Y-39659D01*
X44738Y-39791D01*
X44687Y-39914D01*
X44638Y-39962D01*
X44687Y-40012D01*
X44738Y-40134D01*
X44738Y-40266D01*
X44687Y-40389D01*
X44638Y-40437D01*
X44687Y-40487D01*
X44738Y-40609D01*
X44738Y-40741D01*
X44687Y-40864D01*
X44638Y-40912D01*
X44687Y-40962D01*
X44738Y-41084D01*
X44738Y-41216D01*
X44687Y-41339D01*
X44593Y-41432D01*
X44549Y-41450D01*
X45829Y-41450D01*
X46490Y-38102D02*
X46490Y-38102D01*
X46194Y-38182D02*
X46569Y-38182D01*
X46203Y-38262D02*
X46649Y-38262D01*
X44628Y-38342D02*
X44629Y-38342D01*
X46200Y-38342D02*
X46729Y-38342D01*
X44608Y-38422D02*
X44663Y-38422D01*
X46167Y-38422D02*
X46809Y-38422D01*
X44573Y-38502D02*
X44721Y-38502D01*
X46108Y-38502D02*
X46889Y-38502D01*
X44563Y-38582D02*
X44843Y-38582D01*
X45075Y-38582D02*
X45122Y-38582D01*
X45708Y-38582D02*
X45754Y-38582D01*
X45986Y-38582D02*
X46969Y-38582D01*
X44605Y-38662D02*
X45089Y-38662D01*
X45741Y-38662D02*
X47049Y-38662D01*
X44628Y-38742D02*
X45082Y-38742D01*
X45748Y-38742D02*
X47129Y-38742D01*
X44628Y-38822D02*
X45086Y-38822D01*
X45743Y-38822D02*
X47217Y-38822D01*
X44606Y-38902D02*
X45120Y-38902D01*
X45710Y-38902D02*
X48219Y-38902D01*
X44608Y-38982D02*
X45181Y-38982D01*
X45648Y-38982D02*
X48299Y-38982D01*
X44687Y-39062D02*
X45310Y-39062D01*
X45519Y-39062D02*
X47588Y-39062D01*
X47973Y-39062D02*
X48379Y-39062D01*
X44721Y-39142D02*
X47508Y-39142D01*
X48053Y-39142D02*
X48459Y-39142D01*
X44738Y-39222D02*
X47469Y-39222D01*
X44738Y-39302D02*
X47447Y-39302D01*
X44710Y-39382D02*
X47447Y-39382D01*
X44663Y-39462D02*
X47470Y-39462D01*
X44690Y-39542D02*
X47511Y-39542D01*
X44723Y-39622D02*
X47591Y-39622D01*
X44738Y-39702D02*
X47576Y-39702D01*
X44738Y-39782D02*
X47496Y-39782D01*
X44708Y-39862D02*
X46551Y-39862D01*
X46851Y-39862D02*
X47416Y-39862D01*
X44658Y-39942D02*
X46448Y-39942D01*
X46953Y-39942D02*
X47336Y-39942D01*
X44692Y-40022D02*
X46397Y-40022D01*
X47003Y-40022D02*
X47256Y-40022D01*
X44725Y-40102D02*
X46367Y-40102D01*
X47033Y-40102D02*
X47176Y-40102D01*
X44738Y-40182D02*
X46367Y-40182D01*
X47033Y-40182D02*
X47096Y-40182D01*
X44738Y-40262D02*
X46382Y-40262D01*
X44706Y-40342D02*
X46415Y-40342D01*
X44653Y-40422D02*
X46491Y-40422D01*
X44694Y-40502D02*
X46777Y-40502D01*
X44727Y-40582D02*
X46697Y-40582D01*
X44738Y-40662D02*
X46617Y-40662D01*
X44737Y-40742D02*
X46537Y-40742D01*
X44704Y-40822D02*
X46457Y-40822D01*
X44648Y-40902D02*
X46377Y-40902D01*
X44696Y-40982D02*
X46142Y-40982D01*
X44729Y-41062D02*
X46053Y-41062D01*
X44738Y-41142D02*
X46008Y-41142D01*
X44735Y-41222D02*
X45982Y-41222D01*
X44702Y-41302D02*
X45977Y-41302D01*
X44643Y-41382D02*
X45897Y-41382D01*
X45170Y-32300D02*
X45764Y-32300D01*
X46225Y-32300D02*
X46675Y-32300D01*
X45089Y-32380D02*
X45701Y-32380D01*
X46289Y-32380D02*
X46739Y-32380D01*
X45009Y-32460D02*
X45668Y-32460D01*
X46323Y-32460D02*
X46803Y-32460D01*
X44933Y-32540D02*
X45662Y-32540D01*
X46328Y-32540D02*
X46867Y-32540D01*
X44885Y-32620D02*
X45667Y-32620D01*
X46322Y-32620D02*
X46931Y-32620D01*
X44786Y-32700D02*
X45701Y-32700D01*
X46289Y-32700D02*
X46995Y-32700D01*
X44689Y-32780D02*
X45764Y-32780D01*
X46225Y-32780D02*
X47059Y-32780D01*
X44609Y-32860D02*
X45897Y-32860D01*
X46092Y-32860D02*
X47123Y-32860D01*
X44529Y-32940D02*
X45245Y-32940D01*
X45676Y-32940D02*
X47187Y-32940D01*
X44449Y-33020D02*
X45172Y-33020D01*
X45748Y-33020D02*
X47251Y-33020D01*
X44369Y-33100D02*
X44935Y-33100D01*
X45781Y-33100D02*
X47315Y-33100D01*
X44320Y-33180D02*
X44850Y-33180D01*
X45793Y-33180D02*
X47379Y-33180D01*
X44235Y-33260D02*
X44807Y-33260D01*
X45793Y-33260D02*
X47443Y-33260D01*
X43430Y-33340D02*
X44757Y-33340D01*
X45760Y-33340D02*
X48634Y-33340D01*
X49234Y-33340D02*
X50619Y-33340D01*
X43350Y-33420D02*
X44610Y-33420D01*
X45705Y-33420D02*
X48689Y-33420D01*
X49180Y-33420D02*
X50699Y-33420D01*
X43270Y-33500D02*
X44541Y-33500D01*
X45592Y-33500D02*
X48801Y-33500D01*
X49067Y-33500D02*
X50779Y-33500D01*
X43200Y-33580D02*
X44507Y-33580D01*
X45390Y-33580D02*
X45415Y-33580D01*
X45777Y-33580D02*
X50859Y-33580D01*
X43200Y-33660D02*
X44497Y-33660D01*
X45310Y-33660D02*
X45330Y-33660D01*
X45861Y-33660D02*
X50939Y-33660D01*
X43200Y-33740D02*
X44498Y-33740D01*
X45161Y-33740D02*
X45287Y-33740D01*
X45904Y-33740D02*
X51019Y-33740D01*
X43200Y-33820D02*
X44532Y-33820D01*
X45128Y-33820D02*
X45262Y-33820D01*
X45928Y-33820D02*
X51099Y-33820D01*
X43200Y-33900D02*
X44589Y-33900D01*
X45070Y-33900D02*
X45262Y-33900D01*
X45928Y-33900D02*
X51179Y-33900D01*
X43200Y-33980D02*
X44708Y-33980D01*
X44951Y-33980D02*
X45282Y-33980D01*
X45907Y-33980D02*
X51250Y-33980D01*
X43200Y-34060D02*
X45319Y-34060D01*
X45870Y-34060D02*
X51250Y-34060D01*
X43200Y-34140D02*
X45399Y-34140D01*
X45790Y-34140D02*
X51250Y-34140D01*
X43200Y-34220D02*
X51250Y-34220D01*
X43200Y-34300D02*
X45675Y-34300D01*
X46037Y-34300D02*
X48220Y-34300D01*
X48582Y-34300D02*
X51250Y-34300D01*
X43200Y-34380D02*
X45590Y-34380D01*
X46121Y-34380D02*
X48135Y-34380D01*
X48666Y-34380D02*
X51250Y-34380D01*
X43200Y-34460D02*
X45547Y-34460D01*
X46164Y-34460D02*
X48092Y-34460D01*
X48709Y-34460D02*
X51250Y-34460D01*
X43200Y-34540D02*
X45522Y-34540D01*
X46188Y-34540D02*
X48067Y-34540D01*
X48733Y-34540D02*
X51250Y-34540D01*
X43200Y-34620D02*
X45522Y-34620D01*
X46188Y-34620D02*
X48067Y-34620D01*
X48733Y-34620D02*
X51250Y-34620D01*
X43200Y-34700D02*
X45542Y-34700D01*
X46167Y-34700D02*
X48087Y-34700D01*
X48712Y-34700D02*
X51250Y-34700D01*
X43200Y-34780D02*
X45579Y-34780D01*
X46130Y-34780D02*
X48124Y-34780D01*
X48675Y-34780D02*
X51250Y-34780D01*
X43200Y-34860D02*
X45659Y-34860D01*
X46050Y-34860D02*
X48204Y-34860D01*
X48595Y-34860D02*
X48688Y-34860D01*
X48883Y-34860D02*
X51250Y-34860D01*
X43200Y-34940D02*
X48555Y-34940D01*
X49016Y-34940D02*
X51250Y-34940D01*
X43200Y-35020D02*
X48491Y-35020D01*
X49079Y-35020D02*
X50277Y-35020D01*
X50424Y-35020D02*
X51250Y-35020D01*
X43200Y-35100D02*
X48458Y-35100D01*
X49113Y-35100D02*
X50130Y-35100D01*
X50571Y-35100D02*
X51250Y-35100D01*
X43200Y-35180D02*
X47200Y-35180D01*
X47601Y-35180D02*
X48452Y-35180D01*
X49118Y-35180D02*
X50061Y-35180D01*
X50640Y-35180D02*
X51250Y-35180D01*
X43200Y-35260D02*
X46632Y-35260D01*
X46970Y-35260D02*
X47120Y-35260D01*
X47681Y-35260D02*
X48457Y-35260D01*
X49112Y-35260D02*
X50027Y-35260D01*
X50673Y-35260D02*
X51250Y-35260D01*
X43200Y-35340D02*
X46540Y-35340D01*
X47061Y-35340D02*
X47085Y-35340D01*
X47715Y-35340D02*
X48491Y-35340D01*
X49079Y-35340D02*
X50017Y-35340D01*
X50683Y-35340D02*
X51250Y-35340D01*
X43200Y-35420D02*
X46494Y-35420D01*
X47733Y-35420D02*
X48554Y-35420D01*
X49015Y-35420D02*
X50018Y-35420D01*
X50681Y-35420D02*
X51250Y-35420D01*
X43200Y-35500D02*
X46467Y-35500D01*
X47733Y-35500D02*
X48687Y-35500D01*
X48882Y-35500D02*
X50052Y-35500D01*
X50648Y-35500D02*
X51250Y-35500D01*
X43200Y-35580D02*
X46467Y-35580D01*
X47706Y-35580D02*
X48453Y-35580D01*
X48648Y-35580D02*
X50109Y-35580D01*
X50590Y-35580D02*
X51250Y-35580D01*
X43200Y-35660D02*
X46485Y-35660D01*
X47114Y-35660D02*
X47139Y-35660D01*
X47660Y-35660D02*
X48319Y-35660D01*
X48781Y-35660D02*
X50228Y-35660D01*
X50471Y-35660D02*
X51250Y-35660D01*
X43200Y-35740D02*
X46519Y-35740D01*
X47080Y-35740D02*
X47230Y-35740D01*
X47568Y-35740D02*
X48256Y-35740D01*
X48844Y-35740D02*
X50229Y-35740D01*
X50472Y-35740D02*
X51250Y-35740D01*
X43200Y-35820D02*
X46599Y-35820D01*
X47091Y-35820D02*
X48223Y-35820D01*
X48878Y-35820D02*
X50110Y-35820D01*
X50591Y-35820D02*
X51250Y-35820D01*
X43200Y-35900D02*
X46574Y-35900D01*
X47157Y-35900D02*
X48217Y-35900D01*
X48883Y-35900D02*
X50052Y-35900D01*
X50648Y-35900D02*
X51250Y-35900D01*
X43200Y-35980D02*
X46540Y-35980D01*
X47191Y-35980D02*
X47535Y-35980D01*
X47946Y-35980D02*
X48222Y-35980D01*
X48877Y-35980D02*
X50019Y-35980D01*
X50682Y-35980D02*
X51250Y-35980D01*
X43200Y-36060D02*
X44189Y-36060D01*
X44503Y-36060D02*
X46532Y-36060D01*
X47198Y-36060D02*
X47457Y-36060D01*
X48024Y-36060D02*
X48256Y-36060D01*
X48844Y-36060D02*
X50017Y-36060D01*
X50683Y-36060D02*
X51250Y-36060D01*
X43200Y-36140D02*
X44090Y-36140D01*
X44601Y-36140D02*
X46535Y-36140D01*
X47194Y-36140D02*
X47424Y-36140D01*
X48057Y-36140D02*
X48319Y-36140D01*
X48780Y-36140D02*
X50027Y-36140D01*
X50673Y-36140D02*
X51250Y-36140D01*
X43200Y-36220D02*
X44041Y-36220D01*
X44650Y-36220D02*
X46569Y-36220D01*
X47161Y-36220D02*
X47407Y-36220D01*
X48073Y-36220D02*
X48452Y-36220D01*
X48647Y-36220D02*
X50060Y-36220D01*
X50639Y-36220D02*
X51250Y-36220D01*
X43200Y-36300D02*
X44012Y-36300D01*
X44678Y-36300D02*
X46629Y-36300D01*
X47100Y-36300D02*
X47407Y-36300D01*
X48073Y-36300D02*
X50129Y-36300D01*
X50570Y-36300D02*
X51250Y-36300D01*
X43200Y-36380D02*
X44012Y-36380D01*
X44678Y-36380D02*
X46755Y-36380D01*
X46974Y-36380D02*
X47435Y-36380D01*
X48044Y-36380D02*
X50276Y-36380D01*
X50423Y-36380D02*
X51250Y-36380D01*
X43200Y-36460D02*
X44028Y-36460D01*
X44661Y-36460D02*
X47484Y-36460D01*
X47995Y-36460D02*
X51250Y-36460D01*
X43200Y-36540D02*
X44061Y-36540D01*
X44628Y-36540D02*
X44694Y-36540D01*
X44937Y-36540D02*
X47582Y-36540D01*
X47896Y-36540D02*
X47974Y-36540D01*
X48288Y-36540D02*
X51250Y-36540D01*
X43200Y-36620D02*
X44120Y-36620D01*
X44550Y-36620D02*
X44575Y-36620D01*
X45056Y-36620D02*
X47875Y-36620D01*
X48386Y-36620D02*
X51250Y-36620D01*
X43200Y-36700D02*
X44030Y-36700D01*
X45113Y-36700D02*
X47826Y-36700D01*
X48435Y-36700D02*
X51250Y-36700D01*
X43200Y-36780D02*
X43984Y-36780D01*
X45147Y-36780D02*
X47797Y-36780D01*
X48463Y-36780D02*
X51250Y-36780D01*
X43200Y-36860D02*
X43957Y-36860D01*
X45148Y-36860D02*
X47797Y-36860D01*
X48463Y-36860D02*
X51250Y-36860D01*
X43200Y-36940D02*
X43957Y-36940D01*
X45138Y-36940D02*
X47813Y-36940D01*
X48446Y-36940D02*
X51250Y-36940D01*
X43200Y-37020D02*
X43975Y-37020D01*
X45104Y-37020D02*
X47846Y-37020D01*
X48413Y-37020D02*
X51250Y-37020D01*
X43200Y-37100D02*
X44009Y-37100D01*
X44570Y-37100D02*
X44594Y-37100D01*
X45035Y-37100D02*
X47643Y-37100D01*
X47838Y-37100D02*
X47924Y-37100D01*
X48335Y-37100D02*
X51250Y-37100D01*
X43200Y-37180D02*
X44089Y-37180D01*
X44490Y-37180D02*
X44590Y-37180D01*
X44888Y-37180D02*
X47510Y-37180D01*
X47971Y-37180D02*
X51250Y-37180D01*
X43200Y-37260D02*
X44450Y-37260D01*
X44901Y-37260D02*
X47446Y-37260D01*
X48034Y-37260D02*
X51250Y-37260D01*
X43200Y-37340D02*
X44384Y-37340D01*
X44967Y-37340D02*
X47413Y-37340D01*
X48068Y-37340D02*
X50921Y-37340D01*
X51140Y-37340D02*
X51250Y-37340D01*
X43200Y-37420D02*
X44350Y-37420D01*
X45001Y-37420D02*
X47407Y-37420D01*
X48073Y-37420D02*
X50795Y-37420D01*
X43200Y-37500D02*
X44342Y-37500D01*
X45008Y-37500D02*
X46097Y-37500D01*
X46735Y-37500D02*
X47412Y-37500D01*
X48067Y-37500D02*
X50734Y-37500D01*
X43200Y-37580D02*
X44345Y-37580D01*
X45004Y-37580D02*
X46005Y-37580D01*
X46852Y-37580D02*
X47446Y-37580D01*
X48034Y-37580D02*
X50701Y-37580D01*
X43200Y-37660D02*
X44379Y-37660D01*
X44971Y-37660D02*
X45959Y-37660D01*
X46932Y-37660D02*
X47509Y-37660D01*
X47970Y-37660D02*
X48035Y-37660D01*
X48866Y-37660D02*
X50697Y-37660D01*
X43200Y-37740D02*
X44439Y-37740D01*
X44910Y-37740D02*
X45932Y-37740D01*
X47012Y-37740D02*
X47642Y-37740D01*
X47837Y-37740D02*
X47963Y-37740D01*
X48938Y-37740D02*
X50704Y-37740D01*
X43200Y-37820D02*
X44565Y-37820D01*
X44784Y-37820D02*
X45932Y-37820D01*
X47092Y-37820D02*
X47930Y-37820D01*
X48971Y-37820D02*
X50738Y-37820D01*
X43200Y-37900D02*
X45950Y-37900D01*
X47172Y-37900D02*
X47917Y-37900D01*
X48983Y-37900D02*
X50804Y-37900D01*
X43190Y-37980D02*
X44222Y-37980D01*
X44369Y-37980D02*
X44792Y-37980D01*
X45130Y-37980D02*
X45702Y-37980D01*
X47252Y-37980D02*
X47917Y-37980D01*
X48983Y-37980D02*
X50944Y-37980D01*
X51115Y-37980D02*
X51250Y-37980D01*
X43110Y-38060D02*
X44075Y-38060D01*
X44516Y-38060D02*
X44700Y-38060D01*
X45221Y-38060D02*
X45610Y-38060D01*
X47332Y-38060D02*
X47950Y-38060D01*
X48950Y-38060D02*
X50990Y-38060D01*
X43030Y-38140D02*
X44006Y-38140D01*
X44585Y-38140D02*
X44654Y-38140D01*
X45267Y-38140D02*
X45564Y-38140D01*
X47412Y-38140D02*
X48004Y-38140D01*
X48895Y-38140D02*
X50910Y-38140D01*
X42950Y-38220D02*
X43972Y-38220D01*
X44619Y-38220D02*
X44627Y-38220D01*
X45293Y-38220D02*
X45537Y-38220D01*
X47492Y-38220D02*
X48116Y-38220D01*
X48382Y-38220D02*
X48516Y-38220D01*
X48782Y-38220D02*
X50873Y-38220D01*
X42870Y-38300D02*
X43962Y-38300D01*
X45293Y-38300D02*
X45537Y-38300D01*
X48471Y-38300D02*
X50852Y-38300D01*
X42790Y-38380D02*
X43963Y-38380D01*
X45274Y-38380D02*
X45555Y-38380D01*
X48583Y-38380D02*
X50852Y-38380D01*
X42710Y-38460D02*
X43997Y-38460D01*
X48663Y-38460D02*
X50876Y-38460D01*
X42630Y-38540D02*
X44054Y-38540D01*
X48743Y-38540D02*
X50919Y-38540D01*
X42550Y-38620D02*
X44004Y-38620D01*
X48823Y-38620D02*
X50485Y-38620D01*
X50866Y-38620D02*
X51003Y-38620D01*
X42470Y-38700D02*
X43970Y-38700D01*
X48903Y-38700D02*
X50405Y-38700D01*
X50946Y-38700D02*
X51250Y-38700D01*
X42390Y-38780D02*
X43962Y-38780D01*
X48983Y-38780D02*
X50365Y-38780D01*
X50986Y-38780D02*
X51250Y-38780D01*
X42310Y-38860D02*
X43965Y-38860D01*
X49063Y-38860D02*
X50342Y-38860D01*
X51008Y-38860D02*
X51250Y-38860D01*
X42230Y-38940D02*
X43999Y-38940D01*
X49143Y-38940D02*
X50342Y-38940D01*
X51008Y-38940D02*
X51250Y-38940D01*
X42150Y-39020D02*
X44059Y-39020D01*
X49223Y-39020D02*
X50364Y-39020D01*
X50985Y-39020D02*
X51250Y-39020D01*
X42070Y-39100D02*
X44107Y-39100D01*
X49303Y-39100D02*
X50404Y-39100D01*
X50945Y-39100D02*
X51250Y-39100D01*
X41990Y-39180D02*
X44074Y-39180D01*
X49383Y-39180D02*
X50484Y-39180D01*
X50865Y-39180D02*
X51250Y-39180D01*
X41910Y-39260D02*
X43007Y-39260D01*
X43154Y-39260D02*
X44072Y-39260D01*
X41830Y-39340D02*
X42860Y-39340D01*
X43301Y-39340D02*
X44082Y-39340D01*
X41750Y-39420D02*
X42791Y-39420D01*
X43370Y-39420D02*
X44115Y-39420D01*
X41670Y-39500D02*
X42757Y-39500D01*
X43403Y-39500D02*
X44159Y-39500D01*
X41590Y-39580D02*
X42747Y-39580D01*
X43413Y-39580D02*
X44105Y-39580D01*
X41510Y-39660D02*
X42748Y-39660D01*
X43411Y-39660D02*
X44072Y-39660D01*
X41430Y-39740D02*
X42782Y-39740D01*
X43378Y-39740D02*
X44072Y-39740D01*
X41350Y-39820D02*
X42839Y-39820D01*
X43320Y-39820D02*
X44084Y-39820D01*
X41270Y-39900D02*
X42789Y-39900D01*
X43372Y-39900D02*
X44117Y-39900D01*
X41190Y-39980D02*
X42755Y-39980D01*
X43406Y-39980D02*
X44154Y-39980D01*
X41110Y-40060D02*
X42747Y-40060D01*
X43413Y-40060D02*
X44103Y-40060D01*
X41030Y-40140D02*
X42750Y-40140D01*
X43408Y-40140D02*
X44072Y-40140D01*
X40950Y-40220D02*
X42784Y-40220D01*
X43531Y-40220D02*
X44072Y-40220D01*
X40870Y-40300D02*
X42844Y-40300D01*
X43603Y-40300D02*
X44086Y-40300D01*
X40790Y-40380D02*
X42970Y-40380D01*
X43636Y-40380D02*
X44119Y-40380D01*
X40710Y-40460D02*
X42982Y-40460D01*
X43648Y-40460D02*
X44149Y-40460D01*
X40630Y-40540D02*
X42982Y-40540D01*
X43648Y-40540D02*
X44101Y-40540D01*
X40550Y-40620D02*
X43015Y-40620D01*
X43615Y-40620D02*
X44072Y-40620D01*
X40470Y-40700D02*
X43069Y-40700D01*
X43560Y-40700D02*
X44072Y-40700D01*
X40400Y-40780D02*
X43026Y-40780D01*
X43605Y-40780D02*
X44088Y-40780D01*
X40400Y-40860D02*
X42992Y-40860D01*
X43638Y-40860D02*
X44121Y-40860D01*
X40400Y-40940D02*
X42982Y-40940D01*
X43648Y-40940D02*
X44144Y-40940D01*
X40400Y-41020D02*
X42983Y-41020D01*
X43646Y-41020D02*
X44099Y-41020D01*
X40400Y-41100D02*
X43017Y-41100D01*
X43613Y-41100D02*
X44072Y-41100D01*
X40400Y-41180D02*
X43074Y-41180D01*
X43555Y-41180D02*
X44072Y-41180D01*
X40400Y-41260D02*
X43193Y-41260D01*
X43436Y-41260D02*
X44090Y-41260D01*
X40400Y-41340D02*
X44124Y-41340D01*
X40400Y-41420D02*
X44204Y-41420D01*
X44259Y-41450D02*
X44216Y-41432D01*
X44123Y-41338D01*
X44072Y-41216D01*
X44072Y-41084D01*
X44123Y-40961D01*
X44171Y-40912D01*
X44123Y-40863D01*
X44072Y-40741D01*
X44072Y-40609D01*
X44123Y-40486D01*
X44171Y-40437D01*
X44123Y-40388D01*
X44072Y-40266D01*
X44072Y-40134D01*
X44123Y-40011D01*
X44171Y-39962D01*
X44123Y-39913D01*
X44072Y-39791D01*
X44072Y-39659D01*
X44123Y-39536D01*
X44171Y-39487D01*
X44123Y-39438D01*
X44072Y-39316D01*
X44072Y-39184D01*
X44118Y-39072D01*
X44106Y-39067D01*
X44013Y-38973D01*
X43962Y-38851D01*
X43962Y-38719D01*
X44013Y-38596D01*
X44061Y-38547D01*
X44013Y-38498D01*
X43962Y-38376D01*
X43962Y-38244D01*
X44013Y-38121D01*
X44107Y-38028D01*
X44229Y-37977D01*
X44361Y-37977D01*
X44484Y-38028D01*
X44577Y-38122D01*
X44609Y-38198D01*
X44609Y-37838D01*
X44486Y-37787D01*
X44393Y-37693D01*
X44342Y-37571D01*
X44342Y-37439D01*
X44393Y-37316D01*
X44487Y-37223D01*
X44609Y-37172D01*
X44722Y-37172D01*
X44626Y-37132D01*
X44578Y-37083D01*
X44572Y-37099D01*
X44478Y-37192D01*
X44356Y-37243D01*
X44224Y-37243D01*
X44101Y-37192D01*
X44008Y-37098D01*
X43957Y-36976D01*
X43957Y-36844D01*
X44008Y-36721D01*
X44102Y-36628D01*
X44133Y-36614D01*
X44063Y-36543D01*
X44012Y-36421D01*
X44012Y-36289D01*
X44063Y-36166D01*
X44157Y-36073D01*
X44279Y-36022D01*
X44411Y-36022D01*
X44534Y-36073D01*
X44627Y-36167D01*
X44678Y-36289D01*
X44678Y-36421D01*
X44627Y-36544D01*
X44533Y-36637D01*
X44501Y-36650D01*
X44526Y-36676D01*
X44533Y-36661D01*
X44627Y-36568D01*
X44749Y-36517D01*
X44764Y-36517D01*
X44764Y-34003D01*
X44641Y-33952D01*
X44548Y-33858D01*
X44497Y-33736D01*
X44497Y-33604D01*
X44548Y-33481D01*
X44642Y-33388D01*
X44764Y-33337D01*
X44782Y-33337D01*
X44782Y-33319D01*
X44833Y-33196D01*
X44927Y-33103D01*
X45049Y-33052D01*
X45158Y-33052D01*
X45178Y-33006D01*
X45272Y-32913D01*
X45394Y-32862D01*
X45526Y-32862D01*
X45649Y-32913D01*
X45742Y-33007D01*
X45793Y-33129D01*
X45793Y-33261D01*
X45742Y-33384D01*
X45648Y-33477D01*
X45526Y-33528D01*
X45416Y-33528D01*
X45397Y-33574D01*
X45303Y-33667D01*
X45181Y-33718D01*
X45163Y-33718D01*
X45163Y-33736D01*
X45112Y-33859D01*
X45018Y-33952D01*
X44896Y-34003D01*
X44764Y-34003D01*
X44764Y-36517D01*
X44881Y-36517D01*
X45004Y-36568D01*
X45097Y-36662D01*
X45148Y-36784D01*
X45148Y-36916D01*
X45097Y-37039D01*
X45003Y-37132D01*
X44881Y-37183D01*
X44767Y-37183D01*
X44864Y-37223D01*
X44957Y-37317D01*
X45008Y-37439D01*
X45008Y-37571D01*
X44957Y-37694D01*
X44863Y-37787D01*
X44741Y-37838D01*
X44609Y-37838D01*
X44609Y-38198D01*
X44627Y-38241D01*
X44627Y-38204D01*
X44678Y-38081D01*
X44772Y-37988D01*
X44894Y-37937D01*
X45026Y-37937D01*
X45149Y-37988D01*
X45242Y-38082D01*
X45293Y-38204D01*
X45293Y-38336D01*
X45243Y-38456D01*
X45349Y-38412D01*
X45481Y-38412D01*
X45587Y-38456D01*
X45537Y-38336D01*
X45537Y-38204D01*
X45588Y-38081D01*
X45682Y-37988D01*
X45789Y-37943D01*
X45789Y-34918D01*
X45666Y-34867D01*
X45573Y-34773D01*
X45522Y-34651D01*
X45522Y-34519D01*
X45529Y-34502D01*
X45529Y-34198D01*
X45406Y-34147D01*
X45313Y-34053D01*
X45262Y-33931D01*
X45262Y-33799D01*
X45313Y-33676D01*
X45407Y-33583D01*
X45529Y-33532D01*
X45661Y-33532D01*
X45784Y-33583D01*
X45877Y-33677D01*
X45928Y-33799D01*
X45928Y-33931D01*
X45877Y-34054D01*
X45783Y-34147D01*
X45661Y-34198D01*
X45529Y-34198D01*
X45529Y-34502D01*
X45573Y-34396D01*
X45667Y-34303D01*
X45789Y-34252D01*
X45921Y-34252D01*
X46044Y-34303D01*
X46137Y-34397D01*
X46188Y-34519D01*
X46188Y-34651D01*
X46137Y-34774D01*
X46043Y-34867D01*
X45921Y-34918D01*
X45789Y-34918D01*
X45789Y-37943D01*
X45804Y-37937D01*
X45936Y-37937D01*
X45972Y-37951D01*
X45932Y-37856D01*
X45932Y-37724D01*
X45983Y-37601D01*
X46077Y-37508D01*
X46199Y-37457D01*
X46331Y-37457D01*
X46379Y-37477D01*
X46620Y-37477D01*
X46740Y-37501D01*
X46799Y-37540D01*
X46799Y-36398D01*
X46676Y-36347D01*
X46583Y-36253D01*
X46532Y-36131D01*
X46532Y-35999D01*
X46583Y-35876D01*
X46622Y-35836D01*
X46611Y-35832D01*
X46518Y-35738D01*
X46467Y-35616D01*
X46467Y-35484D01*
X46518Y-35361D01*
X46612Y-35268D01*
X46734Y-35217D01*
X46866Y-35217D01*
X46989Y-35268D01*
X47077Y-35357D01*
X47118Y-35261D01*
X47212Y-35168D01*
X47334Y-35117D01*
X47466Y-35117D01*
X47589Y-35168D01*
X47682Y-35262D01*
X47733Y-35384D01*
X47733Y-35516D01*
X47682Y-35639D01*
X47588Y-35732D01*
X47466Y-35783D01*
X47334Y-35783D01*
X47211Y-35732D01*
X47122Y-35642D01*
X47082Y-35739D01*
X47042Y-35778D01*
X47054Y-35783D01*
X47147Y-35877D01*
X47198Y-35999D01*
X47198Y-36131D01*
X47147Y-36254D01*
X47053Y-36347D01*
X46931Y-36398D01*
X46799Y-36398D01*
X46799Y-37540D01*
X46841Y-37569D01*
X47544Y-38272D01*
X47674Y-38272D01*
X47674Y-37753D01*
X47551Y-37702D01*
X47458Y-37608D01*
X47407Y-37486D01*
X47407Y-37354D01*
X47458Y-37231D01*
X47552Y-37138D01*
X47674Y-37087D01*
X47674Y-36578D01*
X47551Y-36527D01*
X47458Y-36433D01*
X47407Y-36311D01*
X47407Y-36179D01*
X47458Y-36056D01*
X47552Y-35963D01*
X47674Y-35912D01*
X47806Y-35912D01*
X47929Y-35963D01*
X48022Y-36057D01*
X48073Y-36179D01*
X48073Y-36311D01*
X48022Y-36434D01*
X47928Y-36527D01*
X47806Y-36578D01*
X47674Y-36578D01*
X47674Y-37087D01*
X47806Y-37087D01*
X47929Y-37138D01*
X48022Y-37232D01*
X48064Y-37332D01*
X48064Y-37168D01*
X47941Y-37117D01*
X47848Y-37023D01*
X47797Y-36901D01*
X47797Y-36769D01*
X47848Y-36646D01*
X47942Y-36553D01*
X48064Y-36502D01*
X48196Y-36502D01*
X48319Y-36553D01*
X48412Y-36647D01*
X48463Y-36769D01*
X48463Y-36901D01*
X48412Y-37024D01*
X48318Y-37117D01*
X48196Y-37168D01*
X48064Y-37168D01*
X48064Y-37332D01*
X48073Y-37354D01*
X48073Y-37486D01*
X48022Y-37609D01*
X47928Y-37702D01*
X47806Y-37753D01*
X47674Y-37753D01*
X47674Y-38272D01*
X48345Y-38272D01*
X48465Y-38296D01*
X48566Y-38364D01*
X48584Y-38381D01*
X48584Y-38248D01*
X48461Y-38197D01*
X48449Y-38185D01*
X48438Y-38197D01*
X48316Y-38248D01*
X48184Y-38248D01*
X48061Y-38197D01*
X47968Y-38103D01*
X47917Y-37981D01*
X47917Y-37849D01*
X47968Y-37726D01*
X48062Y-37633D01*
X48184Y-37582D01*
X48316Y-37582D01*
X48439Y-37633D01*
X48450Y-37644D01*
X48462Y-37633D01*
X48484Y-37623D01*
X48484Y-36233D01*
X48361Y-36182D01*
X48268Y-36088D01*
X48217Y-35966D01*
X48217Y-35834D01*
X48268Y-35711D01*
X48334Y-35645D01*
X48334Y-34918D01*
X48211Y-34867D01*
X48118Y-34773D01*
X48067Y-34651D01*
X48067Y-34519D01*
X48118Y-34396D01*
X48212Y-34303D01*
X48334Y-34252D01*
X48466Y-34252D01*
X48589Y-34303D01*
X48682Y-34397D01*
X48733Y-34519D01*
X48733Y-34651D01*
X48682Y-34774D01*
X48588Y-34867D01*
X48466Y-34918D01*
X48334Y-34918D01*
X48334Y-35645D01*
X48362Y-35618D01*
X48484Y-35567D01*
X48616Y-35567D01*
X48719Y-35609D01*
X48719Y-35513D01*
X48596Y-35462D01*
X48503Y-35368D01*
X48452Y-35246D01*
X48452Y-35114D01*
X48503Y-34991D01*
X48597Y-34898D01*
X48719Y-34847D01*
X48851Y-34847D01*
X48974Y-34898D01*
X49067Y-34992D01*
X49118Y-35114D01*
X49118Y-35246D01*
X49067Y-35369D01*
X48973Y-35462D01*
X48851Y-35513D01*
X48719Y-35513D01*
X48719Y-35609D01*
X48739Y-35618D01*
X48832Y-35712D01*
X48883Y-35834D01*
X48883Y-35966D01*
X48832Y-36089D01*
X48738Y-36182D01*
X48616Y-36233D01*
X48484Y-36233D01*
X48484Y-37623D01*
X48584Y-37582D01*
X48716Y-37582D01*
X48839Y-37633D01*
X48932Y-37727D01*
X48983Y-37849D01*
X48983Y-37981D01*
X48932Y-38104D01*
X48838Y-38197D01*
X48716Y-38248D01*
X48584Y-38248D01*
X48584Y-38381D01*
X49402Y-39200D01*
X50284Y-39200D01*
X50284Y-36383D01*
X50161Y-36332D01*
X50068Y-36238D01*
X50017Y-36116D01*
X50017Y-35984D01*
X50068Y-35861D01*
X50162Y-35768D01*
X50284Y-35717D01*
X50284Y-35683D01*
X50161Y-35632D01*
X50068Y-35538D01*
X50017Y-35416D01*
X50017Y-35284D01*
X50068Y-35161D01*
X50162Y-35068D01*
X50284Y-35017D01*
X50416Y-35017D01*
X50539Y-35068D01*
X50632Y-35162D01*
X50683Y-35284D01*
X50683Y-35416D01*
X50632Y-35539D01*
X50538Y-35632D01*
X50416Y-35683D01*
X50284Y-35683D01*
X50284Y-35717D01*
X50416Y-35717D01*
X50539Y-35768D01*
X50632Y-35862D01*
X50683Y-35984D01*
X50683Y-36116D01*
X50632Y-36239D01*
X50538Y-36332D01*
X50416Y-36383D01*
X50284Y-36383D01*
X50284Y-39200D01*
X50529Y-39200D01*
X50486Y-39182D01*
X50393Y-39088D01*
X50342Y-38966D01*
X50342Y-38834D01*
X50393Y-38711D01*
X50487Y-38618D01*
X50609Y-38567D01*
X50741Y-38567D01*
X50864Y-38618D01*
X50957Y-38712D01*
X51008Y-38834D01*
X51008Y-38966D01*
X50957Y-39089D01*
X50863Y-39182D01*
X50819Y-39200D01*
X51250Y-39200D01*
X51250Y-38668D01*
X51119Y-38668D01*
X50996Y-38617D01*
X50903Y-38523D01*
X50852Y-38401D01*
X50852Y-38269D01*
X50903Y-38146D01*
X50997Y-38053D01*
X51119Y-38002D01*
X51250Y-38002D01*
X51250Y-37905D01*
X51218Y-37937D01*
X51096Y-37988D01*
X50964Y-37988D01*
X50841Y-37937D01*
X50748Y-37843D01*
X50697Y-37721D01*
X50697Y-37589D01*
X50748Y-37466D01*
X50842Y-37373D01*
X50964Y-37322D01*
X51096Y-37322D01*
X51219Y-37373D01*
X51250Y-37404D01*
X51250Y-33970D01*
X50579Y-33300D01*
X49251Y-33300D01*
X49217Y-33384D01*
X49123Y-33477D01*
X49001Y-33528D01*
X48869Y-33528D01*
X48746Y-33477D01*
X48653Y-33383D01*
X48618Y-33300D01*
X47475Y-33300D01*
X46675Y-32300D01*
X46225Y-32300D01*
X46277Y-32352D01*
X46328Y-32474D01*
X46328Y-32606D01*
X46277Y-32729D01*
X46183Y-32822D01*
X46061Y-32873D01*
X45929Y-32873D01*
X45806Y-32822D01*
X45713Y-32728D01*
X45662Y-32606D01*
X45662Y-32474D01*
X45713Y-32351D01*
X45764Y-32300D01*
X45170Y-32300D01*
X44937Y-32532D01*
X44912Y-32594D01*
X44818Y-32687D01*
X44757Y-32712D01*
X44358Y-33111D01*
X44337Y-33164D01*
X44243Y-33257D01*
X44191Y-33278D01*
X44170Y-33300D01*
X44140Y-33300D01*
X44121Y-33308D01*
X43989Y-33308D01*
X43969Y-33300D01*
X43470Y-33300D01*
X43200Y-33570D01*
X43200Y-37970D01*
X40400Y-40770D01*
X40400Y-41450D01*
X43249Y-41450D01*
X43249Y-41283D01*
X43126Y-41232D01*
X43033Y-41138D01*
X42982Y-41016D01*
X42982Y-40884D01*
X43033Y-40761D01*
X43081Y-40712D01*
X43033Y-40663D01*
X42982Y-40541D01*
X42982Y-40409D01*
X42990Y-40388D01*
X42891Y-40347D01*
X42798Y-40253D01*
X42747Y-40131D01*
X42747Y-39999D01*
X42798Y-39876D01*
X42846Y-39827D01*
X42798Y-39778D01*
X42747Y-39656D01*
X42747Y-39524D01*
X42798Y-39401D01*
X42892Y-39308D01*
X43014Y-39257D01*
X43146Y-39257D01*
X43269Y-39308D01*
X43362Y-39402D01*
X43413Y-39524D01*
X43413Y-39656D01*
X43362Y-39779D01*
X43313Y-39827D01*
X43362Y-39877D01*
X43413Y-39999D01*
X43413Y-40131D01*
X43404Y-40151D01*
X43504Y-40193D01*
X43597Y-40287D01*
X43648Y-40409D01*
X43648Y-40541D01*
X43597Y-40664D01*
X43548Y-40712D01*
X43597Y-40762D01*
X43648Y-40884D01*
X43648Y-41016D01*
X43597Y-41139D01*
X43503Y-41232D01*
X43381Y-41283D01*
X43249Y-41283D01*
X43249Y-41450D01*
X44259Y-41450D01*
X49320Y-26000D02*
X49729Y-26000D01*
X49239Y-26080D02*
X49809Y-26080D01*
X49159Y-26160D02*
X49889Y-26160D01*
X49079Y-26240D02*
X49950Y-26240D01*
X48999Y-26320D02*
X49950Y-26320D01*
X48919Y-26400D02*
X49950Y-26400D01*
X48839Y-26480D02*
X49899Y-26480D01*
X48759Y-26560D02*
X49819Y-26560D01*
X48679Y-26640D02*
X49739Y-26640D01*
X48599Y-26720D02*
X49659Y-26720D01*
X48519Y-26800D02*
X49579Y-26800D01*
X48439Y-26880D02*
X49499Y-26880D01*
X48359Y-26960D02*
X49419Y-26960D01*
X48279Y-27040D02*
X49339Y-27040D01*
X48199Y-27120D02*
X49259Y-27120D01*
X48119Y-27200D02*
X49179Y-27200D01*
X48039Y-27280D02*
X49099Y-27280D01*
X47959Y-27360D02*
X49019Y-27360D01*
X47879Y-27440D02*
X48939Y-27440D01*
X47799Y-27520D02*
X48859Y-27520D01*
X47759Y-27600D02*
X48779Y-27600D01*
X47836Y-27680D02*
X48699Y-27680D01*
X47869Y-27760D02*
X48619Y-27760D01*
X47883Y-27840D02*
X48539Y-27840D01*
X47883Y-27920D02*
X48459Y-27920D01*
X47852Y-28000D02*
X48379Y-28000D01*
X47239Y-28080D02*
X47311Y-28080D01*
X47799Y-28080D02*
X48299Y-28080D01*
X47159Y-28160D02*
X47422Y-28160D01*
X47687Y-28160D02*
X48219Y-28160D01*
X47079Y-28240D02*
X48139Y-28240D01*
X46999Y-28320D02*
X48059Y-28320D01*
X46919Y-28400D02*
X48049Y-28400D01*
X46839Y-28480D02*
X48050Y-28480D01*
X46759Y-28560D02*
X48052Y-28560D01*
X46750Y-28640D02*
X48053Y-28640D01*
X46750Y-28720D02*
X48054Y-28720D01*
X46750Y-28800D02*
X48055Y-28800D01*
X46750Y-28880D02*
X48056Y-28880D01*
X46750Y-28960D02*
X48057Y-28960D01*
X46750Y-29040D02*
X48058Y-29040D01*
X46750Y-29120D02*
X48059Y-29120D01*
X46750Y-29200D02*
X48060Y-29200D01*
X46750Y-29280D02*
X48061Y-29280D01*
X46750Y-29360D02*
X48062Y-29360D01*
X43555Y-29440D02*
X48063Y-29440D01*
X43654Y-29520D02*
X48064Y-29520D01*
X43710Y-29600D02*
X48065Y-29600D01*
X43743Y-29680D02*
X48066Y-29680D01*
X43743Y-29760D02*
X44828Y-29760D01*
X45093Y-29760D02*
X48067Y-29760D01*
X43730Y-29840D02*
X44716Y-29840D01*
X45204Y-29840D02*
X48068Y-29840D01*
X45290Y-29920D02*
X48070Y-29920D01*
X45370Y-30000D02*
X48071Y-30000D01*
X45450Y-30080D02*
X48072Y-30080D01*
X45530Y-30160D02*
X48073Y-30160D01*
X45610Y-30240D02*
X48074Y-30240D01*
X45690Y-30320D02*
X47551Y-30320D01*
X47720Y-30320D02*
X48075Y-30320D01*
X45770Y-30400D02*
X46379Y-30400D01*
X46742Y-30400D02*
X47411Y-30400D01*
X47859Y-30400D02*
X48041Y-30400D01*
X45850Y-30480D02*
X46296Y-30480D01*
X46824Y-30480D02*
X47347Y-30480D01*
X47924Y-30480D02*
X47968Y-30480D01*
X46866Y-30560D02*
X47314Y-30560D01*
X46888Y-30640D02*
X47307Y-30640D01*
X46888Y-30720D02*
X47313Y-30720D01*
X46865Y-30800D02*
X47346Y-30800D01*
X47923Y-30800D02*
X47954Y-30800D01*
X46824Y-30880D02*
X47411Y-30880D01*
X47859Y-30880D02*
X48011Y-30880D01*
X46750Y-30960D02*
X47550Y-30960D01*
X47719Y-30960D02*
X48084Y-30960D01*
X46750Y-31040D02*
X48085Y-31040D01*
X46750Y-31120D02*
X48086Y-31120D01*
X46750Y-31200D02*
X48087Y-31200D01*
X46740Y-31280D02*
X48088Y-31280D01*
X46660Y-31360D02*
X48089Y-31360D01*
X46580Y-31440D02*
X48089Y-31440D01*
X46500Y-31520D02*
X48062Y-31520D01*
X46420Y-31600D02*
X48062Y-31600D01*
X46400Y-31680D02*
X48080Y-31680D01*
X46400Y-31760D02*
X48095Y-31760D01*
X46400Y-31840D02*
X48096Y-31840D01*
X46400Y-31920D02*
X48097Y-31920D01*
X48099Y-32000D02*
X48095Y-31715D01*
X48062Y-31635D01*
X48062Y-31505D01*
X48091Y-31434D01*
X48084Y-30941D01*
X48064Y-30933D01*
X47972Y-30841D01*
X47939Y-30762D01*
X47913Y-30826D01*
X47821Y-30918D01*
X47700Y-30968D01*
X47570Y-30968D01*
X47449Y-30918D01*
X47357Y-30826D01*
X47307Y-30705D01*
X47307Y-30575D01*
X47357Y-30454D01*
X47449Y-30362D01*
X47570Y-30312D01*
X47700Y-30312D01*
X47821Y-30362D01*
X47913Y-30454D01*
X47945Y-30532D01*
X47972Y-30469D01*
X48064Y-30377D01*
X48076Y-30371D01*
X48049Y-28329D01*
X49950Y-26429D01*
X49950Y-26220D01*
X49729Y-26000D01*
X49320Y-26000D01*
X47738Y-27581D01*
X47741Y-27582D01*
X47833Y-27674D01*
X47883Y-27795D01*
X47883Y-27925D01*
X47833Y-28046D01*
X47741Y-28138D01*
X47620Y-28188D01*
X47490Y-28188D01*
X47369Y-28138D01*
X47277Y-28046D01*
X47276Y-28043D01*
X46750Y-28570D01*
X46750Y-29399D01*
X43571Y-29403D01*
X43553Y-29447D01*
X43601Y-29467D01*
X43693Y-29559D01*
X43743Y-29680D01*
X43743Y-29810D01*
X43707Y-29895D01*
X44671Y-29898D01*
X44682Y-29874D01*
X44774Y-29782D01*
X44895Y-29732D01*
X45025Y-29732D01*
X45146Y-29782D01*
X45238Y-29874D01*
X45248Y-29899D01*
X45270Y-29900D01*
X45870Y-30500D01*
X46279Y-30500D01*
X46282Y-30494D01*
X46374Y-30402D01*
X46495Y-30352D01*
X46625Y-30352D01*
X46746Y-30402D01*
X46838Y-30494D01*
X46888Y-30615D01*
X46888Y-30745D01*
X46838Y-30866D01*
X46750Y-30954D01*
X46750Y-31270D01*
X46400Y-31620D01*
X46400Y-32000D01*
X48099Y-32000D01*
X56443Y-23899D02*
X56443Y-23899D01*
X57315Y-23899D02*
X57315Y-23899D01*
X53690Y-23979D02*
X56364Y-23979D01*
X57235Y-23979D02*
X62616Y-23979D01*
X64325Y-23979D02*
X65150Y-23979D01*
X53610Y-24059D02*
X56284Y-24059D01*
X57155Y-24059D02*
X62536Y-24059D01*
X64405Y-24059D02*
X65150Y-24059D01*
X53530Y-24139D02*
X56204Y-24139D01*
X57075Y-24139D02*
X62480Y-24139D01*
X64461Y-24139D02*
X65150Y-24139D01*
X53450Y-24219D02*
X56124Y-24219D01*
X56995Y-24219D02*
X62447Y-24219D01*
X64494Y-24219D02*
X65150Y-24219D01*
X53370Y-24299D02*
X56044Y-24299D01*
X56915Y-24299D02*
X62414Y-24299D01*
X64527Y-24299D02*
X65150Y-24299D01*
X53290Y-24379D02*
X55964Y-24379D01*
X56835Y-24379D02*
X62411Y-24379D01*
X64529Y-24379D02*
X65150Y-24379D01*
X53210Y-24459D02*
X55884Y-24459D01*
X56755Y-24459D02*
X60957Y-24459D01*
X61314Y-24459D02*
X62411Y-24459D01*
X64529Y-24459D02*
X65150Y-24459D01*
X53130Y-24539D02*
X55804Y-24539D01*
X56675Y-24539D02*
X60872Y-24539D01*
X61398Y-24539D02*
X62416Y-24539D01*
X64523Y-24539D02*
X65140Y-24539D01*
X53050Y-24619D02*
X55724Y-24619D01*
X56595Y-24619D02*
X60831Y-24619D01*
X61440Y-24619D02*
X62449Y-24619D01*
X64490Y-24619D02*
X65060Y-24619D01*
X52970Y-24699D02*
X55644Y-24699D01*
X56515Y-24699D02*
X60807Y-24699D01*
X61463Y-24699D02*
X62482Y-24699D01*
X63457Y-24699D02*
X63482Y-24699D01*
X64457Y-24699D02*
X64980Y-24699D01*
X52890Y-24779D02*
X55564Y-24779D01*
X56435Y-24779D02*
X60807Y-24779D01*
X61463Y-24779D02*
X62543Y-24779D01*
X63396Y-24779D02*
X63543Y-24779D01*
X64396Y-24779D02*
X64900Y-24779D01*
X52810Y-24859D02*
X55484Y-24859D01*
X56355Y-24859D02*
X60829Y-24859D01*
X61440Y-24859D02*
X62623Y-24859D01*
X63316Y-24859D02*
X63623Y-24859D01*
X64316Y-24859D02*
X64820Y-24859D01*
X52730Y-24939D02*
X55404Y-24939D01*
X56275Y-24939D02*
X60870Y-24939D01*
X61400Y-24939D02*
X62774Y-24939D01*
X63165Y-24939D02*
X63774Y-24939D01*
X64165Y-24939D02*
X64740Y-24939D01*
X52650Y-25019D02*
X55324Y-25019D01*
X56195Y-25019D02*
X60951Y-25019D01*
X61318Y-25019D02*
X64660Y-25019D01*
X52570Y-25099D02*
X55244Y-25099D01*
X56115Y-25099D02*
X64580Y-25099D01*
X52490Y-25179D02*
X55164Y-25179D01*
X56035Y-25179D02*
X63300Y-25179D01*
X52410Y-25259D02*
X55084Y-25259D01*
X55955Y-25259D02*
X63220Y-25259D01*
X52330Y-25339D02*
X52962Y-25339D01*
X53368Y-25339D02*
X55004Y-25339D01*
X55875Y-25339D02*
X63140Y-25339D01*
X52250Y-25419D02*
X52885Y-25419D01*
X53446Y-25419D02*
X54924Y-25419D01*
X55795Y-25419D02*
X56691Y-25419D01*
X56880Y-25419D02*
X63060Y-25419D01*
X52170Y-25499D02*
X52852Y-25499D01*
X53479Y-25499D02*
X54844Y-25499D01*
X55715Y-25499D02*
X56557Y-25499D01*
X57013Y-25499D02*
X62980Y-25499D01*
X52090Y-25579D02*
X52837Y-25579D01*
X53493Y-25579D02*
X54764Y-25579D01*
X55635Y-25579D02*
X56495Y-25579D01*
X57076Y-25579D02*
X62900Y-25579D01*
X52010Y-25659D02*
X52837Y-25659D01*
X53493Y-25659D02*
X54667Y-25659D01*
X55555Y-25659D02*
X56462Y-25659D01*
X57109Y-25659D02*
X62820Y-25659D01*
X51930Y-25739D02*
X52867Y-25739D01*
X53462Y-25739D02*
X54620Y-25739D01*
X55475Y-25739D02*
X56457Y-25739D01*
X57113Y-25739D02*
X62740Y-25739D01*
X51850Y-25819D02*
X52920Y-25819D01*
X53410Y-25819D02*
X53462Y-25819D01*
X53819Y-25819D02*
X54592Y-25819D01*
X55395Y-25819D02*
X56464Y-25819D01*
X57105Y-25819D02*
X62660Y-25819D01*
X51770Y-25899D02*
X53029Y-25899D01*
X53300Y-25899D02*
X53377Y-25899D01*
X53903Y-25899D02*
X54592Y-25899D01*
X55315Y-25899D02*
X56497Y-25899D01*
X57072Y-25899D02*
X62580Y-25899D01*
X51690Y-25979D02*
X53336Y-25979D01*
X53945Y-25979D02*
X54610Y-25979D01*
X55235Y-25979D02*
X56565Y-25979D01*
X57005Y-25979D02*
X62500Y-25979D01*
X51610Y-26059D02*
X53312Y-26059D01*
X53968Y-26059D02*
X54645Y-26059D01*
X55195Y-26059D02*
X56710Y-26059D01*
X56859Y-26059D02*
X60120Y-26059D01*
X51530Y-26139D02*
X53312Y-26139D01*
X53968Y-26139D02*
X54725Y-26139D01*
X55115Y-26139D02*
X60040Y-26139D01*
X51450Y-26219D02*
X53334Y-26219D01*
X54264Y-26219D02*
X55007Y-26219D01*
X55423Y-26219D02*
X57252Y-26219D01*
X57668Y-26219D02*
X58122Y-26219D01*
X58538Y-26219D02*
X59960Y-26219D01*
X51370Y-26299D02*
X53375Y-26299D01*
X54348Y-26299D02*
X54933Y-26299D01*
X55498Y-26299D02*
X57178Y-26299D01*
X57743Y-26299D02*
X58048Y-26299D01*
X58613Y-26299D02*
X59880Y-26299D01*
X51290Y-26379D02*
X53456Y-26379D01*
X54390Y-26379D02*
X54900Y-26379D01*
X55531Y-26379D02*
X57145Y-26379D01*
X57776Y-26379D02*
X58015Y-26379D01*
X58646Y-26379D02*
X59800Y-26379D01*
X51210Y-26459D02*
X53757Y-26459D01*
X54413Y-26459D02*
X54887Y-26459D01*
X55543Y-26459D02*
X57132Y-26459D01*
X57788Y-26459D02*
X58002Y-26459D01*
X58658Y-26459D02*
X59719Y-26459D01*
X51130Y-26539D02*
X53757Y-26539D01*
X54413Y-26539D02*
X54887Y-26539D01*
X55543Y-26539D02*
X57132Y-26539D01*
X57788Y-26539D02*
X58002Y-26539D01*
X58658Y-26539D02*
X59639Y-26539D01*
X51050Y-26619D02*
X53779Y-26619D01*
X54390Y-26619D02*
X54919Y-26619D01*
X55510Y-26619D02*
X57164Y-26619D01*
X57755Y-26619D02*
X58034Y-26619D01*
X58625Y-26619D02*
X59559Y-26619D01*
X50970Y-26699D02*
X53820Y-26699D01*
X54350Y-26699D02*
X54975Y-26699D01*
X55455Y-26699D02*
X57220Y-26699D01*
X57700Y-26699D02*
X58090Y-26699D01*
X58570Y-26699D02*
X59479Y-26699D01*
X50890Y-26779D02*
X53901Y-26779D01*
X54268Y-26779D02*
X55091Y-26779D01*
X55338Y-26779D02*
X57336Y-26779D01*
X57583Y-26779D02*
X58206Y-26779D01*
X58453Y-26779D02*
X59398Y-26779D01*
X50810Y-26859D02*
X59318Y-26859D01*
X50730Y-26939D02*
X59238Y-26939D01*
X50650Y-27019D02*
X59158Y-27019D01*
X50570Y-27099D02*
X59078Y-27099D01*
X50490Y-27179D02*
X58997Y-27179D01*
X50410Y-27259D02*
X58917Y-27259D01*
X50330Y-27339D02*
X58837Y-27339D01*
X50250Y-27419D02*
X58757Y-27419D01*
X50170Y-27499D02*
X58677Y-27499D01*
X50090Y-27579D02*
X58596Y-27579D01*
X50014Y-27659D02*
X58516Y-27659D01*
X50058Y-27739D02*
X58436Y-27739D01*
X50083Y-27819D02*
X58356Y-27819D01*
X50083Y-27899D02*
X58276Y-27899D01*
X50062Y-27979D02*
X51527Y-27979D01*
X51903Y-27979D02*
X53538Y-27979D01*
X53823Y-27979D02*
X58195Y-27979D01*
X50025Y-28059D02*
X51447Y-28059D01*
X51983Y-28059D02*
X53432Y-28059D01*
X53928Y-28059D02*
X58115Y-28059D01*
X49945Y-28139D02*
X51409Y-28139D01*
X52022Y-28139D02*
X53382Y-28139D01*
X53979Y-28139D02*
X58035Y-28139D01*
X49899Y-28219D02*
X51387Y-28219D01*
X52043Y-28219D02*
X53352Y-28219D01*
X54008Y-28219D02*
X57955Y-28219D01*
X49899Y-28299D02*
X51387Y-28299D01*
X52043Y-28299D02*
X53352Y-28299D01*
X54008Y-28299D02*
X57875Y-28299D01*
X49899Y-28379D02*
X51411Y-28379D01*
X52018Y-28379D02*
X53368Y-28379D01*
X53991Y-28379D02*
X57810Y-28379D01*
X49899Y-28459D02*
X51455Y-28459D01*
X51975Y-28459D02*
X53401Y-28459D01*
X53958Y-28459D02*
X57810Y-28459D01*
X49899Y-28539D02*
X51543Y-28539D01*
X51886Y-28539D02*
X53480Y-28539D01*
X53880Y-28539D02*
X57810Y-28539D01*
X49899Y-28619D02*
X57810Y-28619D01*
X49920Y-28699D02*
X57809Y-28699D01*
X50000Y-28779D02*
X57809Y-28779D01*
X50080Y-28859D02*
X57809Y-28859D01*
X50160Y-28939D02*
X51496Y-28939D01*
X51805Y-28939D02*
X57809Y-28939D01*
X50240Y-29019D02*
X51397Y-29019D01*
X51903Y-29019D02*
X57808Y-29019D01*
X50320Y-29099D02*
X51350Y-29099D01*
X51951Y-29099D02*
X57808Y-29099D01*
X50400Y-29179D02*
X51322Y-29179D01*
X51978Y-29179D02*
X57808Y-29179D01*
X50480Y-29259D02*
X51322Y-29259D01*
X51978Y-29259D02*
X57808Y-29259D01*
X50560Y-29339D02*
X51340Y-29339D01*
X51959Y-29339D02*
X54797Y-29339D01*
X55034Y-29339D02*
X57807Y-29339D01*
X50640Y-29419D02*
X51375Y-29419D01*
X51925Y-29419D02*
X54677Y-29419D01*
X55153Y-29419D02*
X57807Y-29419D01*
X50720Y-29499D02*
X51455Y-29499D01*
X51845Y-29499D02*
X54621Y-29499D01*
X55210Y-29499D02*
X57807Y-29499D01*
X50800Y-29579D02*
X51447Y-29579D01*
X51853Y-29579D02*
X54588Y-29579D01*
X55243Y-29579D02*
X57806Y-29579D01*
X50880Y-29659D02*
X51370Y-29659D01*
X51931Y-29659D02*
X54587Y-29659D01*
X55243Y-29659D02*
X57806Y-29659D01*
X50960Y-29739D02*
X51337Y-29739D01*
X51964Y-29739D02*
X54598Y-29739D01*
X55231Y-29739D02*
X55752Y-29739D01*
X56138Y-29739D02*
X57806Y-29739D01*
X51040Y-29819D02*
X51322Y-29819D01*
X51978Y-29819D02*
X54483Y-29819D01*
X55197Y-29819D02*
X55672Y-29819D01*
X56218Y-29819D02*
X56602Y-29819D01*
X56959Y-29819D02*
X57400Y-29819D01*
X57759Y-29819D02*
X57806Y-29819D01*
X51120Y-29899D02*
X51322Y-29899D01*
X51978Y-29899D02*
X54377Y-29899D01*
X55125Y-29899D02*
X55637Y-29899D01*
X56254Y-29899D02*
X56517Y-29899D01*
X57043Y-29899D02*
X57317Y-29899D01*
X51200Y-29979D02*
X51352Y-29979D01*
X51947Y-29979D02*
X54327Y-29979D01*
X54924Y-29979D02*
X55617Y-29979D01*
X56273Y-29979D02*
X56476Y-29979D01*
X57085Y-29979D02*
X57276Y-29979D01*
X51280Y-30059D02*
X51405Y-30059D01*
X51895Y-30059D02*
X54297Y-30059D01*
X54953Y-30059D02*
X55617Y-30059D01*
X56273Y-30059D02*
X56452Y-30059D01*
X57108Y-30059D02*
X57252Y-30059D01*
X51360Y-30139D02*
X51514Y-30139D01*
X51785Y-30139D02*
X54297Y-30139D01*
X54953Y-30139D02*
X55643Y-30139D01*
X56246Y-30139D02*
X56452Y-30139D01*
X57108Y-30139D02*
X57252Y-30139D01*
X51440Y-30219D02*
X54313Y-30219D01*
X54936Y-30219D02*
X55690Y-30219D01*
X56200Y-30219D02*
X56474Y-30219D01*
X57085Y-30219D02*
X57274Y-30219D01*
X51520Y-30299D02*
X54346Y-30299D01*
X54903Y-30299D02*
X55785Y-30299D01*
X56104Y-30299D02*
X56515Y-30299D01*
X57045Y-30299D02*
X57315Y-30299D01*
X51600Y-30379D02*
X54425Y-30379D01*
X54825Y-30379D02*
X56596Y-30379D01*
X56963Y-30379D02*
X57396Y-30379D01*
X57763Y-30379D02*
X57804Y-30379D01*
X51680Y-30459D02*
X54246Y-30459D01*
X54435Y-30459D02*
X57804Y-30459D01*
X51760Y-30539D02*
X52941Y-30539D01*
X53250Y-30539D02*
X54112Y-30539D01*
X54569Y-30539D02*
X57804Y-30539D01*
X51840Y-30619D02*
X52842Y-30619D01*
X53348Y-30619D02*
X54050Y-30619D01*
X54631Y-30619D02*
X57804Y-30619D01*
X51920Y-30699D02*
X52795Y-30699D01*
X53396Y-30699D02*
X54017Y-30699D01*
X54664Y-30699D02*
X57804Y-30699D01*
X52000Y-30779D02*
X52352Y-30779D01*
X53423Y-30779D02*
X54012Y-30779D01*
X54668Y-30779D02*
X57803Y-30779D01*
X52080Y-30859D02*
X52281Y-30859D01*
X53579Y-30859D02*
X53957Y-30859D01*
X54660Y-30859D02*
X57803Y-30859D01*
X52160Y-30939D02*
X52248Y-30939D01*
X53658Y-30939D02*
X53837Y-30939D01*
X54627Y-30939D02*
X57803Y-30939D01*
X53692Y-31019D02*
X53781Y-31019D01*
X54560Y-31019D02*
X57803Y-31019D01*
X52891Y-31099D02*
X52900Y-31099D01*
X53730Y-31099D02*
X53748Y-31099D01*
X54414Y-31099D02*
X54421Y-31099D01*
X54560Y-31099D02*
X57802Y-31099D01*
X52858Y-31179D02*
X53052Y-31179D01*
X54708Y-31179D02*
X57802Y-31179D01*
X52800Y-31259D02*
X53080Y-31259D01*
X54777Y-31259D02*
X57802Y-31259D01*
X52738Y-31339D02*
X53130Y-31339D01*
X54810Y-31339D02*
X57802Y-31339D01*
X52795Y-31419D02*
X53232Y-31419D01*
X54818Y-31419D02*
X57801Y-31419D01*
X52828Y-31499D02*
X53335Y-31499D01*
X53984Y-31499D02*
X54165Y-31499D01*
X54814Y-31499D02*
X57801Y-31499D01*
X52828Y-31579D02*
X53368Y-31579D01*
X53951Y-31579D02*
X54198Y-31579D01*
X54781Y-31579D02*
X57801Y-31579D01*
X52880Y-31659D02*
X53430Y-31659D01*
X53890Y-31659D02*
X54260Y-31659D01*
X54720Y-31659D02*
X57801Y-31659D01*
X52960Y-31739D02*
X53561Y-31739D01*
X53758Y-31739D02*
X54391Y-31739D01*
X54588Y-31739D02*
X57801Y-31739D01*
X53040Y-31819D02*
X57761Y-31819D01*
X53120Y-31899D02*
X57683Y-31899D01*
X53200Y-31979D02*
X57604Y-31979D01*
X53280Y-32059D02*
X57526Y-32059D01*
X53300Y-32139D02*
X57447Y-32139D01*
X53300Y-32219D02*
X57368Y-32219D01*
X53300Y-32299D02*
X57290Y-32299D01*
X53300Y-32379D02*
X57211Y-32379D01*
X53300Y-32459D02*
X57133Y-32459D01*
X53300Y-32539D02*
X57054Y-32539D01*
X53300Y-32619D02*
X56976Y-32619D01*
X53300Y-32699D02*
X56897Y-32699D01*
X53300Y-32779D02*
X56819Y-32779D01*
X53300Y-32859D02*
X56740Y-32859D01*
X53300Y-32939D02*
X56661Y-32939D01*
X53303Y-33019D02*
X56583Y-33019D01*
X53378Y-33099D02*
X56504Y-33099D01*
X53411Y-33179D02*
X56426Y-33179D01*
X53423Y-33259D02*
X56347Y-33259D01*
X53423Y-33339D02*
X56269Y-33339D01*
X53390Y-33419D02*
X56190Y-33419D01*
X53335Y-33499D02*
X56111Y-33499D01*
X53300Y-33579D02*
X56033Y-33579D01*
X53300Y-33659D02*
X55954Y-33659D01*
X53300Y-33739D02*
X55876Y-33739D01*
X53300Y-33819D02*
X55797Y-33819D01*
X53376Y-33899D02*
X55719Y-33899D01*
X53409Y-33979D02*
X55640Y-33979D01*
X53423Y-34059D02*
X55562Y-34059D01*
X53423Y-34139D02*
X55483Y-34139D01*
X53392Y-34219D02*
X55405Y-34219D01*
X53340Y-34299D02*
X55326Y-34299D01*
X53300Y-34379D02*
X55248Y-34379D01*
X53300Y-34459D02*
X55169Y-34459D01*
X53300Y-34539D02*
X55100Y-34539D01*
X53300Y-34619D02*
X55100Y-34619D01*
X53300Y-34699D02*
X55100Y-34699D01*
X53300Y-34779D02*
X55100Y-34779D01*
X53300Y-34859D02*
X55100Y-34859D01*
X53300Y-34939D02*
X55100Y-34939D01*
X53300Y-35019D02*
X55100Y-35019D01*
X53300Y-35099D02*
X55100Y-35099D01*
X53300Y-35179D02*
X55100Y-35179D01*
X53513Y-35259D02*
X54162Y-35259D01*
X54588Y-35259D02*
X55100Y-35259D01*
X53585Y-35339D02*
X54091Y-35339D01*
X54660Y-35339D02*
X55100Y-35339D01*
X53618Y-35419D02*
X54058Y-35419D01*
X54693Y-35419D02*
X55100Y-35419D01*
X53628Y-35499D02*
X54047Y-35499D01*
X54703Y-35499D02*
X55100Y-35499D01*
X53626Y-35579D02*
X54048Y-35579D01*
X54701Y-35579D02*
X55100Y-35579D01*
X53593Y-35659D02*
X54081Y-35659D01*
X54668Y-35659D02*
X55100Y-35659D01*
X53535Y-35739D02*
X53642Y-35739D01*
X54038Y-35739D02*
X54140Y-35739D01*
X54610Y-35739D02*
X55100Y-35739D01*
X53410Y-35819D02*
X53562Y-35819D01*
X54118Y-35819D02*
X54264Y-35819D01*
X54485Y-35819D02*
X55100Y-35819D01*
X53300Y-35899D02*
X53529Y-35899D01*
X54152Y-35899D02*
X55100Y-35899D01*
X53300Y-35979D02*
X53512Y-35979D01*
X54168Y-35979D02*
X55100Y-35979D01*
X53300Y-36059D02*
X53512Y-36059D01*
X54168Y-36059D02*
X55100Y-36059D01*
X53300Y-36139D02*
X53540Y-36139D01*
X54139Y-36139D02*
X55100Y-36139D01*
X53300Y-36219D02*
X53590Y-36219D01*
X54090Y-36219D02*
X55100Y-36219D01*
X53300Y-36299D02*
X53692Y-36299D01*
X53987Y-36299D02*
X55100Y-36299D01*
X53300Y-36379D02*
X55100Y-36379D01*
X53300Y-36459D02*
X55100Y-36459D01*
X53300Y-36539D02*
X55100Y-36539D01*
X53300Y-36619D02*
X55100Y-36619D01*
X53300Y-36699D02*
X55100Y-36699D01*
X53300Y-36779D02*
X55100Y-36779D01*
X53300Y-36859D02*
X55100Y-36859D01*
X53300Y-36939D02*
X55100Y-36939D01*
X53300Y-37019D02*
X55100Y-37019D01*
X53300Y-37099D02*
X55100Y-37099D01*
X53300Y-37179D02*
X55100Y-37179D01*
X53300Y-37259D02*
X55100Y-37259D01*
X53300Y-37339D02*
X55100Y-37339D01*
X53300Y-37419D02*
X55100Y-37419D01*
X53300Y-37499D02*
X55100Y-37499D01*
X53300Y-37579D02*
X55100Y-37579D01*
X53300Y-37659D02*
X55100Y-37659D01*
X53300Y-37739D02*
X55100Y-37739D01*
X53300Y-37819D02*
X55100Y-37819D01*
X53300Y-37899D02*
X55100Y-37899D01*
X53300Y-37979D02*
X55108Y-37979D01*
X53300Y-38059D02*
X55188Y-38059D01*
X53300Y-38139D02*
X55268Y-38139D01*
X53300Y-38219D02*
X55348Y-38219D01*
X53300Y-38299D02*
X55428Y-38299D01*
X53300Y-38379D02*
X55508Y-38379D01*
X53300Y-38459D02*
X55588Y-38459D01*
X53300Y-38539D02*
X55668Y-38539D01*
X53300Y-38619D02*
X55748Y-38619D01*
X53300Y-38699D02*
X55828Y-38699D01*
X53300Y-38779D02*
X55908Y-38779D01*
X53300Y-38859D02*
X55988Y-38859D01*
X53300Y-38939D02*
X56068Y-38939D01*
X53300Y-39019D02*
X56148Y-39019D01*
X53300Y-39099D02*
X56228Y-39099D01*
X53300Y-39179D02*
X56308Y-39179D01*
X53300Y-39259D02*
X56388Y-39259D01*
X53300Y-39339D02*
X56468Y-39339D01*
X53300Y-39419D02*
X56548Y-39419D01*
X53300Y-39499D02*
X56628Y-39499D01*
X53300Y-39579D02*
X56708Y-39579D01*
X53300Y-39659D02*
X56788Y-39659D01*
X53300Y-39739D02*
X56868Y-39739D01*
X53300Y-39819D02*
X56948Y-39819D01*
X53300Y-39899D02*
X57028Y-39899D01*
X53350Y-39979D02*
X57108Y-39979D01*
X53430Y-40059D02*
X57188Y-40059D01*
X53510Y-40139D02*
X57268Y-40139D01*
X53590Y-40219D02*
X57348Y-40219D01*
X53670Y-40299D02*
X57428Y-40299D01*
X53750Y-40379D02*
X57508Y-40379D01*
X53830Y-40459D02*
X57588Y-40459D01*
X53910Y-40539D02*
X57668Y-40539D01*
X53990Y-40619D02*
X57748Y-40619D01*
X54070Y-40699D02*
X57828Y-40699D01*
X54150Y-40779D02*
X57908Y-40779D01*
X54230Y-40859D02*
X57988Y-40859D01*
X54310Y-40939D02*
X58068Y-40939D01*
X54390Y-41019D02*
X58148Y-41019D01*
X54470Y-41099D02*
X58228Y-41099D01*
X54550Y-41179D02*
X61334Y-41179D01*
X61667Y-41179D02*
X64304Y-41179D01*
X64637Y-41179D02*
X67695Y-41179D01*
X68205Y-41179D02*
X68880Y-41179D01*
X54630Y-41259D02*
X61242Y-41259D01*
X61758Y-41259D02*
X64212Y-41259D01*
X64728Y-41259D02*
X67790Y-41259D01*
X68109Y-41259D02*
X68898Y-41259D01*
X54710Y-41339D02*
X61198Y-41339D01*
X61803Y-41339D02*
X64168Y-41339D01*
X64773Y-41339D02*
X68710Y-41339D01*
X68870Y-41339D02*
X68978Y-41339D01*
X54790Y-41419D02*
X61172Y-41419D01*
X61828Y-41419D02*
X64142Y-41419D01*
X64798Y-41419D02*
X68680Y-41419D01*
X68950Y-41419D02*
X69058Y-41419D01*
X54870Y-41499D02*
X61172Y-41499D01*
X61828Y-41499D02*
X64142Y-41499D01*
X64798Y-41499D02*
X68650Y-41499D01*
X69030Y-41499D02*
X69138Y-41499D01*
X54950Y-41579D02*
X55453Y-41579D01*
X55738Y-41579D02*
X56170Y-41579D01*
X57021Y-41579D02*
X57430Y-41579D01*
X57751Y-41579D02*
X59395Y-41579D01*
X59716Y-41579D02*
X60418Y-41579D01*
X60703Y-41579D02*
X61192Y-41579D01*
X61807Y-41579D02*
X62360Y-41579D01*
X62681Y-41579D02*
X63383Y-41579D01*
X63668Y-41579D02*
X64162Y-41579D01*
X64777Y-41579D02*
X65330Y-41579D01*
X65651Y-41579D02*
X66353Y-41579D01*
X66638Y-41579D02*
X68652Y-41579D01*
X69110Y-41579D02*
X69218Y-41579D01*
X55030Y-41659D02*
X55271Y-41659D01*
X55920Y-41659D02*
X56066Y-41659D01*
X57125Y-41659D02*
X57280Y-41659D01*
X57911Y-41659D02*
X59245Y-41659D01*
X59876Y-41659D02*
X60236Y-41659D01*
X60885Y-41659D02*
X61230Y-41659D01*
X61770Y-41659D02*
X62210Y-41659D01*
X62841Y-41659D02*
X63201Y-41659D01*
X63850Y-41659D02*
X64200Y-41659D01*
X64740Y-41659D02*
X65180Y-41659D01*
X65811Y-41659D02*
X66171Y-41659D01*
X66820Y-41659D02*
X68655Y-41659D01*
X69041Y-41659D02*
X69042Y-41659D01*
X55110Y-41739D02*
X55190Y-41739D01*
X56000Y-41739D02*
X56035Y-41739D01*
X57155Y-41739D02*
X57263Y-41739D01*
X57927Y-41739D02*
X59228Y-41739D01*
X59892Y-41739D02*
X60156Y-41739D01*
X60965Y-41739D02*
X61310Y-41739D01*
X61690Y-41739D02*
X62193Y-41739D01*
X62857Y-41739D02*
X63121Y-41739D01*
X63930Y-41739D02*
X64280Y-41739D01*
X64660Y-41739D02*
X65163Y-41739D01*
X65827Y-41739D02*
X66091Y-41739D01*
X66900Y-41739D02*
X68670Y-41739D01*
X68961Y-41739D02*
X68962Y-41739D01*
X57235Y-41819D02*
X57343Y-41819D01*
X57847Y-41819D02*
X57955Y-41819D01*
X58083Y-41819D02*
X59073Y-41819D01*
X59200Y-41819D02*
X59308Y-41819D01*
X59812Y-41819D02*
X59920Y-41819D01*
X60048Y-41819D02*
X60082Y-41819D01*
X61039Y-41819D02*
X62038Y-41819D01*
X62165Y-41819D02*
X62273Y-41819D01*
X62777Y-41819D02*
X62885Y-41819D01*
X63013Y-41819D02*
X63047Y-41819D01*
X64004Y-41819D02*
X65008Y-41819D01*
X65135Y-41819D02*
X65243Y-41819D01*
X65747Y-41819D02*
X65855Y-41819D01*
X65983Y-41819D02*
X66017Y-41819D01*
X66974Y-41819D02*
X68703Y-41819D01*
X68881Y-41819D02*
X68882Y-41819D01*
X57315Y-41899D02*
X57423Y-41899D01*
X57767Y-41899D02*
X57875Y-41899D01*
X58116Y-41899D02*
X59042Y-41899D01*
X59280Y-41899D02*
X59388Y-41899D01*
X59732Y-41899D02*
X59840Y-41899D01*
X61072Y-41899D02*
X62007Y-41899D01*
X62245Y-41899D02*
X62353Y-41899D01*
X62697Y-41899D02*
X62805Y-41899D01*
X64037Y-41899D02*
X64977Y-41899D01*
X65215Y-41899D02*
X65323Y-41899D01*
X65667Y-41899D02*
X65775Y-41899D01*
X67007Y-41899D02*
X68746Y-41899D01*
X57395Y-41979D02*
X57503Y-41979D01*
X57687Y-41979D02*
X57795Y-41979D01*
X58150Y-41979D02*
X59011Y-41979D01*
X59360Y-41979D02*
X59468Y-41979D01*
X59652Y-41979D02*
X59760Y-41979D01*
X61105Y-41979D02*
X61976Y-41979D01*
X62325Y-41979D02*
X62433Y-41979D01*
X62617Y-41979D02*
X62725Y-41979D01*
X64070Y-41979D02*
X64946Y-41979D01*
X65295Y-41979D02*
X65403Y-41979D01*
X65587Y-41979D02*
X65695Y-41979D01*
X67040Y-41979D02*
X68682Y-41979D01*
X57475Y-42059D02*
X57583Y-42059D01*
X57607Y-42059D02*
X57715Y-42059D01*
X58159Y-42059D02*
X58992Y-42059D01*
X59440Y-42059D02*
X59548Y-42059D01*
X59572Y-42059D02*
X59680Y-42059D01*
X61119Y-42059D02*
X61957Y-42059D01*
X62405Y-42059D02*
X62513Y-42059D01*
X62537Y-42059D02*
X62645Y-42059D01*
X64084Y-42059D02*
X64927Y-42059D01*
X65375Y-42059D02*
X65483Y-42059D01*
X65507Y-42059D02*
X65615Y-42059D01*
X67054Y-42059D02*
X68660Y-42059D01*
X57555Y-42139D02*
X57635Y-42139D01*
X57663Y-42139D02*
X57663Y-42139D01*
X58161Y-42139D02*
X58994Y-42139D01*
X59491Y-42139D02*
X59492Y-42139D01*
X59520Y-42139D02*
X59600Y-42139D01*
X61119Y-42139D02*
X61959Y-42139D01*
X62457Y-42139D02*
X62565Y-42139D01*
X64084Y-42139D02*
X64929Y-42139D01*
X65427Y-42139D02*
X65535Y-42139D01*
X67054Y-42139D02*
X68660Y-42139D01*
X57743Y-42219D02*
X57743Y-42219D01*
X58163Y-42219D02*
X58997Y-42219D01*
X59411Y-42219D02*
X59412Y-42219D01*
X61119Y-42219D02*
X61962Y-42219D01*
X62377Y-42219D02*
X62485Y-42219D01*
X64084Y-42219D02*
X64932Y-42219D01*
X65347Y-42219D02*
X65450Y-42219D01*
X67054Y-42219D02*
X68660Y-42219D01*
X57823Y-42299D02*
X57823Y-42299D01*
X58133Y-42299D02*
X59017Y-42299D01*
X59331Y-42299D02*
X59332Y-42299D01*
X61093Y-42299D02*
X61982Y-42299D01*
X62297Y-42299D02*
X62405Y-42299D01*
X64058Y-42299D02*
X64952Y-42299D01*
X65267Y-42299D02*
X65375Y-42299D01*
X67028Y-42299D02*
X68660Y-42299D01*
X61059Y-42379D02*
X62015Y-42379D01*
X62217Y-42379D02*
X62325Y-42379D01*
X64024Y-42379D02*
X64985Y-42379D01*
X65187Y-42379D02*
X65295Y-42379D01*
X66994Y-42379D02*
X68660Y-42379D01*
X61016Y-42459D02*
X62113Y-42459D01*
X62137Y-42459D02*
X62245Y-42459D01*
X63981Y-42459D02*
X65083Y-42459D01*
X65107Y-42459D02*
X65215Y-42459D01*
X66951Y-42459D02*
X68660Y-42459D01*
X61386Y-42539D02*
X62191Y-42539D01*
X63901Y-42539D02*
X65161Y-42539D01*
X66870Y-42539D02*
X68660Y-42539D01*
X68660Y-42592D02*
X68660Y-42030D01*
X68692Y-41953D01*
X68751Y-41894D01*
X68781Y-41881D01*
X68722Y-41863D01*
X68657Y-41705D01*
X68650Y-41499D01*
X68722Y-41307D01*
X68811Y-41280D01*
X69116Y-41585D01*
X68839Y-41861D01*
X68840Y-41860D01*
X69116Y-41585D01*
X69170Y-41639D01*
X69224Y-41585D01*
X69170Y-41531D01*
X68865Y-41226D01*
X68888Y-41150D01*
X68230Y-41150D01*
X68228Y-41156D01*
X68136Y-41248D01*
X68015Y-41298D01*
X67885Y-41298D01*
X67764Y-41248D01*
X67672Y-41156D01*
X67669Y-41150D01*
X64566Y-41150D01*
X64656Y-41187D01*
X64748Y-41279D01*
X64798Y-41400D01*
X64798Y-41530D01*
X64748Y-41651D01*
X64656Y-41743D01*
X64535Y-41793D01*
X64405Y-41793D01*
X64284Y-41743D01*
X64192Y-41651D01*
X64142Y-41530D01*
X64142Y-41400D01*
X64192Y-41279D01*
X64284Y-41187D01*
X64373Y-41150D01*
X61596Y-41150D01*
X61686Y-41187D01*
X61778Y-41279D01*
X61828Y-41400D01*
X61828Y-41530D01*
X61778Y-41651D01*
X61686Y-41743D01*
X61565Y-41793D01*
X61435Y-41793D01*
X61314Y-41743D01*
X61222Y-41651D01*
X61172Y-41530D01*
X61172Y-41400D01*
X61222Y-41279D01*
X61314Y-41187D01*
X61403Y-41150D01*
X58279Y-41150D01*
X55100Y-37970D01*
X55100Y-34529D01*
X55880Y-33734D01*
X55880Y-30338D01*
X55759Y-30288D01*
X55667Y-30196D01*
X55617Y-30075D01*
X55617Y-29945D01*
X55667Y-29824D01*
X55759Y-29732D01*
X55880Y-29682D01*
X56010Y-29682D01*
X56131Y-29732D01*
X56223Y-29824D01*
X56273Y-29945D01*
X56273Y-30075D01*
X56223Y-30196D01*
X56131Y-30288D01*
X56010Y-30338D01*
X55880Y-30338D01*
X55880Y-33734D01*
X56715Y-32884D01*
X56715Y-30428D01*
X56594Y-30378D01*
X56502Y-30286D01*
X56452Y-30165D01*
X56452Y-30035D01*
X56502Y-29914D01*
X56594Y-29822D01*
X56715Y-29772D01*
X56720Y-29772D01*
X56720Y-26063D01*
X56599Y-26013D01*
X56507Y-25921D01*
X56457Y-25800D01*
X56457Y-25670D01*
X56507Y-25549D01*
X56599Y-25457D01*
X56720Y-25407D01*
X56850Y-25407D01*
X56971Y-25457D01*
X57063Y-25549D01*
X57113Y-25670D01*
X57113Y-25800D01*
X57063Y-25921D01*
X56971Y-26013D01*
X56850Y-26063D01*
X56720Y-26063D01*
X56720Y-29772D01*
X56845Y-29772D01*
X56966Y-29822D01*
X57058Y-29914D01*
X57108Y-30035D01*
X57108Y-30165D01*
X57058Y-30286D01*
X56966Y-30378D01*
X56845Y-30428D01*
X56715Y-30428D01*
X56715Y-32884D01*
X57800Y-31779D01*
X57804Y-30339D01*
X57766Y-30378D01*
X57645Y-30428D01*
X57515Y-30428D01*
X57394Y-30378D01*
X57302Y-30286D01*
X57252Y-30165D01*
X57252Y-30035D01*
X57302Y-29914D01*
X57395Y-29821D01*
X57395Y-26803D01*
X57274Y-26753D01*
X57182Y-26661D01*
X57132Y-26540D01*
X57132Y-26410D01*
X57182Y-26289D01*
X57274Y-26197D01*
X57395Y-26147D01*
X57525Y-26147D01*
X57646Y-26197D01*
X57738Y-26289D01*
X57788Y-26410D01*
X57788Y-26540D01*
X57738Y-26661D01*
X57646Y-26753D01*
X57525Y-26803D01*
X57395Y-26803D01*
X57395Y-29821D01*
X57515Y-29772D01*
X57645Y-29772D01*
X57766Y-29822D01*
X57805Y-29861D01*
X57810Y-28364D01*
X58265Y-27909D01*
X58265Y-26803D01*
X58144Y-26753D01*
X58052Y-26661D01*
X58002Y-26540D01*
X58002Y-26410D01*
X58052Y-26289D01*
X58144Y-26197D01*
X58265Y-26147D01*
X58395Y-26147D01*
X58516Y-26197D01*
X58608Y-26289D01*
X58658Y-26410D01*
X58658Y-26540D01*
X58608Y-26661D01*
X58516Y-26753D01*
X58395Y-26803D01*
X58265Y-26803D01*
X58265Y-27909D01*
X60179Y-26000D01*
X61070Y-26000D01*
X61070Y-25068D01*
X60949Y-25018D01*
X60857Y-24926D01*
X60807Y-24805D01*
X60807Y-24675D01*
X60857Y-24554D01*
X60949Y-24462D01*
X61070Y-24412D01*
X61200Y-24412D01*
X61321Y-24462D01*
X61413Y-24554D01*
X61463Y-24675D01*
X61463Y-24805D01*
X61413Y-24926D01*
X61321Y-25018D01*
X61200Y-25068D01*
X61070Y-25068D01*
X61070Y-26000D01*
X62479Y-26000D01*
X63379Y-25100D01*
X64579Y-25100D01*
X65150Y-24529D01*
X65150Y-23900D01*
X64187Y-23900D01*
X64287Y-23941D01*
X64444Y-24099D01*
X64529Y-24304D01*
X64529Y-24526D01*
X64444Y-24732D01*
X64286Y-24889D01*
X64081Y-24974D01*
X63859Y-24974D01*
X63653Y-24889D01*
X63496Y-24731D01*
X63470Y-24668D01*
X63444Y-24732D01*
X63286Y-24889D01*
X63081Y-24974D01*
X62859Y-24974D01*
X62653Y-24889D01*
X62496Y-24731D01*
X62411Y-24526D01*
X62411Y-24304D01*
X62496Y-24098D01*
X62654Y-23941D01*
X62752Y-23900D01*
X57315Y-23899D01*
X55224Y-25991D01*
X55198Y-26056D01*
X55106Y-26148D01*
X54985Y-26198D01*
X54855Y-26198D01*
X54734Y-26148D01*
X54642Y-26056D01*
X54592Y-25935D01*
X54592Y-25805D01*
X54642Y-25684D01*
X54734Y-25592D01*
X54764Y-25579D01*
X56443Y-23899D01*
X53770Y-23900D01*
X50012Y-27657D01*
X50033Y-27679D01*
X50083Y-27800D01*
X50083Y-27930D01*
X50033Y-28051D01*
X49941Y-28143D01*
X49899Y-28160D01*
X49899Y-28679D01*
X51585Y-30364D01*
X51585Y-30168D01*
X51464Y-30118D01*
X51372Y-30026D01*
X51322Y-29905D01*
X51322Y-29775D01*
X51372Y-29654D01*
X51464Y-29562D01*
X51529Y-29535D01*
X51464Y-29508D01*
X51372Y-29416D01*
X51322Y-29295D01*
X51322Y-29165D01*
X51372Y-29044D01*
X51464Y-28952D01*
X51585Y-28902D01*
X51650Y-28902D01*
X51650Y-28583D01*
X51529Y-28533D01*
X51437Y-28441D01*
X51387Y-28320D01*
X51387Y-28190D01*
X51437Y-28069D01*
X51529Y-27977D01*
X51650Y-27927D01*
X51780Y-27927D01*
X51901Y-27977D01*
X51993Y-28069D01*
X52043Y-28190D01*
X52043Y-28320D01*
X51993Y-28441D01*
X51901Y-28533D01*
X51780Y-28583D01*
X51650Y-28583D01*
X51650Y-28902D01*
X51715Y-28902D01*
X51836Y-28952D01*
X51928Y-29044D01*
X51978Y-29165D01*
X51978Y-29295D01*
X51928Y-29416D01*
X51836Y-29508D01*
X51770Y-29535D01*
X51836Y-29562D01*
X51928Y-29654D01*
X51978Y-29775D01*
X51978Y-29905D01*
X51928Y-30026D01*
X51836Y-30118D01*
X51715Y-30168D01*
X51585Y-30168D01*
X51585Y-30364D01*
X52237Y-31016D01*
X52237Y-30965D01*
X52287Y-30844D01*
X52379Y-30752D01*
X52500Y-30702D01*
X52630Y-30702D01*
X52751Y-30752D01*
X52767Y-30768D01*
X52767Y-30765D01*
X52817Y-30644D01*
X52909Y-30552D01*
X53030Y-30502D01*
X53100Y-30502D01*
X53100Y-25928D01*
X52979Y-25878D01*
X52887Y-25786D01*
X52837Y-25665D01*
X52837Y-25535D01*
X52887Y-25414D01*
X52979Y-25322D01*
X53100Y-25272D01*
X53230Y-25272D01*
X53351Y-25322D01*
X53443Y-25414D01*
X53493Y-25535D01*
X53493Y-25665D01*
X53443Y-25786D01*
X53351Y-25878D01*
X53230Y-25928D01*
X53100Y-25928D01*
X53100Y-30502D01*
X53160Y-30502D01*
X53281Y-30552D01*
X53373Y-30644D01*
X53423Y-30765D01*
X53423Y-30797D01*
X53445Y-30797D01*
X53566Y-30847D01*
X53615Y-30895D01*
X53615Y-28603D01*
X53494Y-28553D01*
X53402Y-28461D01*
X53352Y-28340D01*
X53352Y-28210D01*
X53402Y-28089D01*
X53494Y-27997D01*
X53615Y-27947D01*
X53745Y-27947D01*
X53866Y-27997D01*
X53958Y-28089D01*
X54008Y-28210D01*
X54008Y-28340D01*
X53958Y-28461D01*
X53866Y-28553D01*
X53745Y-28603D01*
X53615Y-28603D01*
X53615Y-30895D01*
X53658Y-30939D01*
X53708Y-31060D01*
X53708Y-31097D01*
X53725Y-31097D01*
X53747Y-31106D01*
X53747Y-31100D01*
X53797Y-30979D01*
X53889Y-30887D01*
X54010Y-30837D01*
X54012Y-30837D01*
X54012Y-30710D01*
X54020Y-30690D01*
X54020Y-26828D01*
X53899Y-26778D01*
X53807Y-26686D01*
X53757Y-26565D01*
X53757Y-26435D01*
X53771Y-26400D01*
X53705Y-26428D01*
X53575Y-26428D01*
X53454Y-26378D01*
X53362Y-26286D01*
X53312Y-26165D01*
X53312Y-26035D01*
X53362Y-25914D01*
X53454Y-25822D01*
X53575Y-25772D01*
X53705Y-25772D01*
X53826Y-25822D01*
X53918Y-25914D01*
X53968Y-26035D01*
X53968Y-26165D01*
X53953Y-26199D01*
X54020Y-26172D01*
X54150Y-26172D01*
X54271Y-26222D01*
X54363Y-26314D01*
X54413Y-26435D01*
X54413Y-26565D01*
X54363Y-26686D01*
X54271Y-26778D01*
X54150Y-26828D01*
X54020Y-26828D01*
X54020Y-30690D01*
X54062Y-30589D01*
X54154Y-30497D01*
X54275Y-30447D01*
X54405Y-30447D01*
X54526Y-30497D01*
X54560Y-30530D01*
X54560Y-30443D01*
X54439Y-30393D01*
X54347Y-30301D01*
X54297Y-30180D01*
X54297Y-30050D01*
X54347Y-29929D01*
X54439Y-29837D01*
X54560Y-29787D01*
X54618Y-29787D01*
X54587Y-29710D01*
X54587Y-29580D01*
X54637Y-29459D01*
X54729Y-29367D01*
X54850Y-29317D01*
X54980Y-29317D01*
X55101Y-29367D01*
X55150Y-29416D01*
X55150Y-26803D01*
X55029Y-26753D01*
X54937Y-26661D01*
X54887Y-26540D01*
X54887Y-26410D01*
X54937Y-26289D01*
X55029Y-26197D01*
X55150Y-26147D01*
X55280Y-26147D01*
X55401Y-26197D01*
X55493Y-26289D01*
X55543Y-26410D01*
X55543Y-26540D01*
X55493Y-26661D01*
X55401Y-26753D01*
X55280Y-26803D01*
X55150Y-26803D01*
X55150Y-29416D01*
X55193Y-29459D01*
X55243Y-29580D01*
X55243Y-29710D01*
X55193Y-29831D01*
X55101Y-29923D01*
X54980Y-29973D01*
X54921Y-29973D01*
X54953Y-30050D01*
X54953Y-30180D01*
X54903Y-30301D01*
X54811Y-30393D01*
X54690Y-30443D01*
X54560Y-30443D01*
X54560Y-30530D01*
X54618Y-30589D01*
X54668Y-30710D01*
X54668Y-30840D01*
X54618Y-30961D01*
X54526Y-31053D01*
X54405Y-31103D01*
X54403Y-31103D01*
X54403Y-31106D01*
X54425Y-31097D01*
X54555Y-31097D01*
X54676Y-31147D01*
X54768Y-31239D01*
X54818Y-31360D01*
X54818Y-31490D01*
X54768Y-31611D01*
X54676Y-31703D01*
X54555Y-31753D01*
X54425Y-31753D01*
X54304Y-31703D01*
X54212Y-31611D01*
X54162Y-31490D01*
X54162Y-31483D01*
X54140Y-31493D01*
X54010Y-31493D01*
X53988Y-31483D01*
X53988Y-31490D01*
X53938Y-31611D01*
X53846Y-31703D01*
X53725Y-31753D01*
X53595Y-31753D01*
X53474Y-31703D01*
X53382Y-31611D01*
X53332Y-31490D01*
X53332Y-31453D01*
X53315Y-31453D01*
X53194Y-31403D01*
X53102Y-31311D01*
X53052Y-31190D01*
X53052Y-31158D01*
X53030Y-31158D01*
X52909Y-31108D01*
X52893Y-31092D01*
X52893Y-31095D01*
X52843Y-31216D01*
X52751Y-31308D01*
X52719Y-31320D01*
X52778Y-31379D01*
X52828Y-31500D01*
X52828Y-31607D01*
X53300Y-32079D01*
X53300Y-33016D01*
X53373Y-33089D01*
X53423Y-33210D01*
X53423Y-33340D01*
X53373Y-33461D01*
X53300Y-33534D01*
X53300Y-33821D01*
X53373Y-33894D01*
X53423Y-34015D01*
X53423Y-34145D01*
X53373Y-34266D01*
X53300Y-34339D01*
X53300Y-35182D01*
X53365Y-35182D01*
X53486Y-35232D01*
X53578Y-35324D01*
X53628Y-35445D01*
X53628Y-35575D01*
X53578Y-35696D01*
X53486Y-35788D01*
X53365Y-35838D01*
X53300Y-35838D01*
X53300Y-39929D01*
X53775Y-40404D01*
X53775Y-36333D01*
X53654Y-36283D01*
X53562Y-36191D01*
X53512Y-36070D01*
X53512Y-35940D01*
X53562Y-35819D01*
X53654Y-35727D01*
X53775Y-35677D01*
X53905Y-35677D01*
X54026Y-35727D01*
X54118Y-35819D01*
X54168Y-35940D01*
X54168Y-36070D01*
X54118Y-36191D01*
X54026Y-36283D01*
X53905Y-36333D01*
X53775Y-36333D01*
X53775Y-40404D01*
X54310Y-40939D01*
X54310Y-35838D01*
X54189Y-35788D01*
X54097Y-35696D01*
X54047Y-35575D01*
X54047Y-35445D01*
X54097Y-35324D01*
X54189Y-35232D01*
X54310Y-35182D01*
X54440Y-35182D01*
X54561Y-35232D01*
X54653Y-35324D01*
X54703Y-35445D01*
X54703Y-35575D01*
X54653Y-35696D01*
X54561Y-35788D01*
X54440Y-35838D01*
X54310Y-35838D01*
X54310Y-40939D01*
X55149Y-41779D01*
X55279Y-41651D01*
X55484Y-41566D01*
X55706Y-41566D01*
X55912Y-41651D01*
X56035Y-41774D01*
X56035Y-41733D01*
X56067Y-41656D01*
X56126Y-41597D01*
X56203Y-41565D01*
X56987Y-41565D01*
X57064Y-41597D01*
X57123Y-41656D01*
X57155Y-41733D01*
X57155Y-41800D01*
X57201Y-41785D01*
X57541Y-42125D01*
X57595Y-42179D01*
X57595Y-42071D01*
X57255Y-41731D01*
X57287Y-41638D01*
X57468Y-41563D01*
X57693Y-41557D01*
X57903Y-41638D01*
X57935Y-41731D01*
X57595Y-42071D01*
X57595Y-42179D01*
X57649Y-42125D01*
X57873Y-42349D01*
X57874Y-42349D01*
X57649Y-42125D01*
X57989Y-41785D01*
X58082Y-41817D01*
X58157Y-41998D01*
X58163Y-42223D01*
X58114Y-42350D01*
X59038Y-42350D01*
X58998Y-42252D01*
X58992Y-42027D01*
X59073Y-41817D01*
X59166Y-41785D01*
X59506Y-42125D01*
X59281Y-42349D01*
X59282Y-42349D01*
X59506Y-42125D01*
X59560Y-42179D01*
X59560Y-42071D01*
X59220Y-41731D01*
X59252Y-41638D01*
X59433Y-41563D01*
X59658Y-41557D01*
X59868Y-41638D01*
X59900Y-41731D01*
X59560Y-42071D01*
X59560Y-42179D01*
X59614Y-42125D01*
X59954Y-41785D01*
X60047Y-41817D01*
X60064Y-41859D01*
X60086Y-41808D01*
X60244Y-41651D01*
X60449Y-41566D01*
X60671Y-41566D01*
X60877Y-41651D01*
X61034Y-41809D01*
X61119Y-42014D01*
X61119Y-42236D01*
X61034Y-42442D01*
X60939Y-42536D01*
X62131Y-42544D01*
X62131Y-42465D01*
X62038Y-42433D01*
X61963Y-42252D01*
X61957Y-42027D01*
X62038Y-41817D01*
X62131Y-41785D01*
X62471Y-42125D01*
X62131Y-42465D01*
X62131Y-42544D01*
X62193Y-42544D01*
X62185Y-42519D01*
X62500Y-42204D01*
X62500Y-42200D01*
X62503Y-42200D01*
X62525Y-42179D01*
X62525Y-42071D01*
X62185Y-41731D01*
X62217Y-41638D01*
X62398Y-41563D01*
X62623Y-41557D01*
X62833Y-41638D01*
X62865Y-41731D01*
X62525Y-42071D01*
X62525Y-42179D01*
X62579Y-42125D01*
X62919Y-41785D01*
X63012Y-41817D01*
X63029Y-41859D01*
X63051Y-41808D01*
X63209Y-41651D01*
X63414Y-41566D01*
X63636Y-41566D01*
X63842Y-41651D01*
X63999Y-41809D01*
X64084Y-42014D01*
X64084Y-42236D01*
X63999Y-42442D01*
X63882Y-42558D01*
X65101Y-42566D01*
X65101Y-42465D01*
X65008Y-42433D01*
X64933Y-42252D01*
X64927Y-42027D01*
X65008Y-41817D01*
X65101Y-41785D01*
X65441Y-42125D01*
X65101Y-42465D01*
X65101Y-42566D01*
X65171Y-42567D01*
X65155Y-42519D01*
X65450Y-42224D01*
X65450Y-42200D01*
X65473Y-42200D01*
X65495Y-42179D01*
X65495Y-42071D01*
X65155Y-41731D01*
X65187Y-41638D01*
X65368Y-41563D01*
X65593Y-41557D01*
X65803Y-41638D01*
X65835Y-41731D01*
X65495Y-42071D01*
X65495Y-42179D01*
X65549Y-42125D01*
X65889Y-41785D01*
X65982Y-41817D01*
X65999Y-41859D01*
X66021Y-41808D01*
X66179Y-41651D01*
X66384Y-41566D01*
X66606Y-41566D01*
X66812Y-41651D01*
X66969Y-41809D01*
X67054Y-42014D01*
X67054Y-42236D01*
X66969Y-42442D01*
X66831Y-42578D01*
X68660Y-42592D01*
M02*
