G04 (created by PCBNEW (2010-02-09)-RC2) date 26.03.2010 15:34:57*
G01*
G70*
G90*
%MOIN*%
G04 Gerber Fmt 3.4, Leading zero omitted, Abs format*
%FSLAX34Y34*%
G04 APERTURE LIST*
%ADD10C,0.001000*%
%ADD11C,0.008000*%
G04 APERTURE END LIST*
G54D10*
G54D10*
X35036Y-22716D02*
X35114Y-22794D01*
X35114Y-22716D02*
X35036Y-22794D01*
X35036Y-23506D02*
X35114Y-23584D01*
X35114Y-23506D02*
X35036Y-23584D01*
X35036Y-24296D02*
X35114Y-24374D01*
X35114Y-24296D02*
X35036Y-24374D01*
X35036Y-25086D02*
X35114Y-25164D01*
X35114Y-25086D02*
X35036Y-25164D01*
X35036Y-25876D02*
X35114Y-25954D01*
X35114Y-25876D02*
X35036Y-25954D01*
X35036Y-26666D02*
X35114Y-26744D01*
X35114Y-26666D02*
X35036Y-26744D01*
X35036Y-27456D02*
X35114Y-27534D01*
X35114Y-27456D02*
X35036Y-27534D01*
X35036Y-28246D02*
X35114Y-28324D01*
X35114Y-28246D02*
X35036Y-28324D01*
X35036Y-29036D02*
X35114Y-29114D01*
X35114Y-29036D02*
X35036Y-29114D01*
X35036Y-29826D02*
X35114Y-29904D01*
X35114Y-29826D02*
X35036Y-29904D01*
X35036Y-30616D02*
X35114Y-30694D01*
X35114Y-30616D02*
X35036Y-30694D01*
X35036Y-31406D02*
X35114Y-31484D01*
X35114Y-31406D02*
X35036Y-31484D01*
X35036Y-32196D02*
X35114Y-32274D01*
X35114Y-32196D02*
X35036Y-32274D01*
X35036Y-32986D02*
X35114Y-33064D01*
X35114Y-32986D02*
X35036Y-33064D01*
X35036Y-33776D02*
X35114Y-33854D01*
X35114Y-33776D02*
X35036Y-33854D01*
X35036Y-34566D02*
X35114Y-34644D01*
X35114Y-34566D02*
X35036Y-34644D01*
X35036Y-35356D02*
X35114Y-35434D01*
X35114Y-35356D02*
X35036Y-35434D01*
X35036Y-36146D02*
X35114Y-36224D01*
X35114Y-36146D02*
X35036Y-36224D01*
X35036Y-36936D02*
X35114Y-37014D01*
X35114Y-36936D02*
X35036Y-37014D01*
X35036Y-37726D02*
X35114Y-37804D01*
X35114Y-37726D02*
X35036Y-37804D01*
X35036Y-38516D02*
X35114Y-38594D01*
X35114Y-38516D02*
X35036Y-38594D01*
X35036Y-39306D02*
X35114Y-39384D01*
X35114Y-39306D02*
X35036Y-39384D01*
X35036Y-40096D02*
X35114Y-40174D01*
X35114Y-40096D02*
X35036Y-40174D01*
X35036Y-40886D02*
X35114Y-40964D01*
X35114Y-40886D02*
X35036Y-40964D01*
X35036Y-41676D02*
X35114Y-41754D01*
X35114Y-41676D02*
X35036Y-41754D01*
X35036Y-42466D02*
X35114Y-42544D01*
X35114Y-42466D02*
X35036Y-42544D01*
X35036Y-43256D02*
X35114Y-43334D01*
X35114Y-43256D02*
X35036Y-43334D01*
X35081Y-43726D02*
X35159Y-43804D01*
X35159Y-43726D02*
X35081Y-43804D01*
X35871Y-22716D02*
X35949Y-22794D01*
X35949Y-22716D02*
X35871Y-22794D01*
X35871Y-43726D02*
X35949Y-43804D01*
X35949Y-43726D02*
X35871Y-43804D01*
X36661Y-22716D02*
X36739Y-22794D01*
X36739Y-22716D02*
X36661Y-22794D01*
X36661Y-43726D02*
X36739Y-43804D01*
X36739Y-43726D02*
X36661Y-43804D01*
X37451Y-22716D02*
X37529Y-22794D01*
X37529Y-22716D02*
X37451Y-22794D01*
X37451Y-43726D02*
X37529Y-43804D01*
X37529Y-43726D02*
X37451Y-43804D01*
X38241Y-22716D02*
X38319Y-22794D01*
X38319Y-22716D02*
X38241Y-22794D01*
X38241Y-43726D02*
X38319Y-43804D01*
X38319Y-43726D02*
X38241Y-43804D01*
X38996Y-35256D02*
X39074Y-35334D01*
X39074Y-35256D02*
X38996Y-35334D01*
X39011Y-30631D02*
X39089Y-30709D01*
X39089Y-30631D02*
X39011Y-30709D01*
X39031Y-22716D02*
X39109Y-22794D01*
X39109Y-22716D02*
X39031Y-22794D01*
X39031Y-23506D02*
X39109Y-23584D01*
X39109Y-23506D02*
X39031Y-23584D01*
X39031Y-24291D02*
X39109Y-24369D01*
X39109Y-24291D02*
X39031Y-24369D01*
X39031Y-25866D02*
X39109Y-25944D01*
X39109Y-25866D02*
X39031Y-25944D01*
X39031Y-26656D02*
X39109Y-26734D01*
X39109Y-26656D02*
X39031Y-26734D01*
X39031Y-27446D02*
X39109Y-27524D01*
X39109Y-27446D02*
X39031Y-27524D01*
X39031Y-28236D02*
X39109Y-28314D01*
X39109Y-28236D02*
X39031Y-28314D01*
X39031Y-29026D02*
X39109Y-29104D01*
X39109Y-29026D02*
X39031Y-29104D01*
X39031Y-29816D02*
X39109Y-29894D01*
X39109Y-29816D02*
X39031Y-29894D01*
X39031Y-31291D02*
X39109Y-31369D01*
X39109Y-31291D02*
X39031Y-31369D01*
X39031Y-32081D02*
X39109Y-32159D01*
X39109Y-32081D02*
X39031Y-32159D01*
X39031Y-32866D02*
X39109Y-32944D01*
X39109Y-32866D02*
X39031Y-32944D01*
X39031Y-33656D02*
X39109Y-33734D01*
X39109Y-33656D02*
X39031Y-33734D01*
X39031Y-34441D02*
X39109Y-34519D01*
X39109Y-34441D02*
X39031Y-34519D01*
X39031Y-36016D02*
X39109Y-36094D01*
X39109Y-36016D02*
X39031Y-36094D01*
X39031Y-36806D02*
X39109Y-36884D01*
X39109Y-36806D02*
X39031Y-36884D01*
X39031Y-37591D02*
X39109Y-37669D01*
X39109Y-37591D02*
X39031Y-37669D01*
X39031Y-38381D02*
X39109Y-38459D01*
X39109Y-38381D02*
X39031Y-38459D01*
X39031Y-39166D02*
X39109Y-39244D01*
X39109Y-39166D02*
X39031Y-39244D01*
X39031Y-40741D02*
X39109Y-40819D01*
X39109Y-40741D02*
X39031Y-40819D01*
X39031Y-41531D02*
X39109Y-41609D01*
X39109Y-41531D02*
X39031Y-41609D01*
X39031Y-42316D02*
X39109Y-42394D01*
X39109Y-42316D02*
X39031Y-42394D01*
X39031Y-43001D02*
X39109Y-43079D01*
X39109Y-43001D02*
X39031Y-43079D01*
X39031Y-43726D02*
X39109Y-43804D01*
X39109Y-43726D02*
X39031Y-43804D01*
X39036Y-25091D02*
X39114Y-25169D01*
X39114Y-25091D02*
X39036Y-25169D01*
X39036Y-39961D02*
X39114Y-40039D01*
X39114Y-39961D02*
X39036Y-40039D01*
X39691Y-27941D02*
X39769Y-28019D01*
X39769Y-27941D02*
X39691Y-28019D01*
X39696Y-28981D02*
X39774Y-29059D01*
X39774Y-28981D02*
X39696Y-29059D01*
X39721Y-27486D02*
X39799Y-27564D01*
X39799Y-27486D02*
X39721Y-27564D01*
X39746Y-28471D02*
X39824Y-28549D01*
X39824Y-28471D02*
X39746Y-28549D01*
X39756Y-29511D02*
X39834Y-29589D01*
X39834Y-29511D02*
X39756Y-29589D01*
X39781Y-43726D02*
X39859Y-43804D01*
X39859Y-43726D02*
X39781Y-43804D01*
X40001Y-22716D02*
X40079Y-22794D01*
X40079Y-22716D02*
X40001Y-22794D01*
X40196Y-27316D02*
X40274Y-27394D01*
X40274Y-27316D02*
X40196Y-27394D01*
X40201Y-29621D02*
X40279Y-29699D01*
X40279Y-29621D02*
X40201Y-29699D01*
X40286Y-34181D02*
X40364Y-34259D01*
X40364Y-34181D02*
X40286Y-34259D01*
X40296Y-33401D02*
X40374Y-33479D01*
X40374Y-33401D02*
X40296Y-33479D01*
X40361Y-42441D02*
X40439Y-42519D01*
X40439Y-42441D02*
X40361Y-42519D01*
X40431Y-31291D02*
X40509Y-31369D01*
X40509Y-31291D02*
X40431Y-31369D01*
X40581Y-27011D02*
X40659Y-27089D01*
X40659Y-27011D02*
X40581Y-27089D01*
X40616Y-29881D02*
X40694Y-29959D01*
X40694Y-29881D02*
X40616Y-29959D01*
X40646Y-35581D02*
X40724Y-35659D01*
X40724Y-35581D02*
X40646Y-35659D01*
X40916Y-41146D02*
X40994Y-41224D01*
X40994Y-41146D02*
X40916Y-41224D01*
X40916Y-42951D02*
X40994Y-43029D01*
X40994Y-42951D02*
X40916Y-43029D01*
X40921Y-30826D02*
X40999Y-30904D01*
X40999Y-30826D02*
X40921Y-30904D01*
X40981Y-22776D02*
X41059Y-22854D01*
X41059Y-22776D02*
X40981Y-22854D01*
X40981Y-23266D02*
X41059Y-23344D01*
X41059Y-23266D02*
X40981Y-23344D01*
X40981Y-23756D02*
X41059Y-23834D01*
X41059Y-23756D02*
X40981Y-23834D01*
X40981Y-24246D02*
X41059Y-24324D01*
X41059Y-24246D02*
X40981Y-24324D01*
X41031Y-26816D02*
X41109Y-26894D01*
X41109Y-26816D02*
X41031Y-26894D01*
X41066Y-30076D02*
X41144Y-30154D01*
X41144Y-30076D02*
X41066Y-30154D01*
X41086Y-32366D02*
X41164Y-32444D01*
X41164Y-32366D02*
X41086Y-32444D01*
X41261Y-33966D02*
X41339Y-34044D01*
X41339Y-33966D02*
X41261Y-34044D01*
X41386Y-34436D02*
X41464Y-34514D01*
X41464Y-34436D02*
X41386Y-34514D01*
X41386Y-35581D02*
X41464Y-35659D01*
X41464Y-35581D02*
X41386Y-35659D01*
X41386Y-38286D02*
X41464Y-38364D01*
X41464Y-38286D02*
X41386Y-38364D01*
X41521Y-26816D02*
X41599Y-26894D01*
X41599Y-26816D02*
X41521Y-26894D01*
X41556Y-30076D02*
X41634Y-30154D01*
X41634Y-30076D02*
X41556Y-30154D01*
X41581Y-28056D02*
X41659Y-28134D01*
X41659Y-28056D02*
X41581Y-28134D01*
X41586Y-42486D02*
X41664Y-42564D01*
X41664Y-42486D02*
X41586Y-42564D01*
X41641Y-27656D02*
X41719Y-27734D01*
X41719Y-27656D02*
X41641Y-27734D01*
X41721Y-28836D02*
X41799Y-28914D01*
X41799Y-28836D02*
X41721Y-28914D01*
X41721Y-29231D02*
X41799Y-29309D01*
X41799Y-29231D02*
X41721Y-29309D01*
X41761Y-33311D02*
X41839Y-33389D01*
X41839Y-33311D02*
X41761Y-33389D01*
X41856Y-33806D02*
X41934Y-33884D01*
X41934Y-33806D02*
X41856Y-33884D01*
X41856Y-37801D02*
X41934Y-37879D01*
X41934Y-37801D02*
X41856Y-37879D01*
X41861Y-36211D02*
X41939Y-36289D01*
X41939Y-36211D02*
X41861Y-36289D01*
X41861Y-37011D02*
X41939Y-37089D01*
X41939Y-37011D02*
X41861Y-37089D01*
X41916Y-35006D02*
X41994Y-35084D01*
X41994Y-35006D02*
X41916Y-35084D01*
X41961Y-22821D02*
X42039Y-22899D01*
X42039Y-22821D02*
X41961Y-22899D01*
X41961Y-23216D02*
X42039Y-23294D01*
X42039Y-23216D02*
X41961Y-23294D01*
X41961Y-23611D02*
X42039Y-23689D01*
X42039Y-23611D02*
X41961Y-23689D01*
X41961Y-24006D02*
X42039Y-24084D01*
X42039Y-24006D02*
X41961Y-24084D01*
X42011Y-26816D02*
X42089Y-26894D01*
X42089Y-26816D02*
X42011Y-26894D01*
X42011Y-34501D02*
X42089Y-34579D01*
X42089Y-34501D02*
X42011Y-34579D01*
X42016Y-28661D02*
X42094Y-28739D01*
X42094Y-28661D02*
X42016Y-28739D01*
X42046Y-30076D02*
X42124Y-30154D01*
X42124Y-30076D02*
X42046Y-30154D01*
X42061Y-35611D02*
X42139Y-35689D01*
X42139Y-35611D02*
X42061Y-35689D01*
X42101Y-24556D02*
X42179Y-24634D01*
X42179Y-24556D02*
X42101Y-24634D01*
X42136Y-42491D02*
X42214Y-42569D01*
X42214Y-42491D02*
X42136Y-42569D01*
X42276Y-29231D02*
X42354Y-29309D01*
X42354Y-29231D02*
X42276Y-29309D01*
X42311Y-30486D02*
X42389Y-30564D01*
X42389Y-30486D02*
X42311Y-30564D01*
X42321Y-40256D02*
X42399Y-40334D01*
X42399Y-40256D02*
X42321Y-40334D01*
X42326Y-31586D02*
X42404Y-31664D01*
X42404Y-31586D02*
X42326Y-31664D01*
X42336Y-27601D02*
X42414Y-27679D01*
X42414Y-27601D02*
X42336Y-27679D01*
X42341Y-37936D02*
X42419Y-38014D01*
X42419Y-37936D02*
X42341Y-38014D01*
X42376Y-33246D02*
X42454Y-33324D01*
X42454Y-33246D02*
X42376Y-33324D01*
X42381Y-24836D02*
X42459Y-24914D01*
X42459Y-24836D02*
X42381Y-24914D01*
X42411Y-36611D02*
X42489Y-36689D01*
X42489Y-36611D02*
X42411Y-36689D01*
X42501Y-26816D02*
X42579Y-26894D01*
X42579Y-26816D02*
X42501Y-26894D01*
X42661Y-25116D02*
X42739Y-25194D01*
X42739Y-25116D02*
X42661Y-25194D01*
X42726Y-42741D02*
X42804Y-42819D01*
X42804Y-42741D02*
X42726Y-42819D01*
X42751Y-35891D02*
X42829Y-35969D01*
X42829Y-35891D02*
X42751Y-35969D01*
X42756Y-26336D02*
X42834Y-26414D01*
X42834Y-26336D02*
X42756Y-26414D01*
X42766Y-30246D02*
X42844Y-30324D01*
X42844Y-30246D02*
X42766Y-30324D01*
X42901Y-31806D02*
X42979Y-31884D01*
X42979Y-31806D02*
X42901Y-31884D01*
X42901Y-32366D02*
X42979Y-32444D01*
X42979Y-32366D02*
X42901Y-32444D01*
X42941Y-25396D02*
X43019Y-25474D01*
X43019Y-25396D02*
X42941Y-25474D01*
X42956Y-28151D02*
X43034Y-28229D01*
X43034Y-28151D02*
X42956Y-28229D01*
X42956Y-32791D02*
X43034Y-32869D01*
X43034Y-32791D02*
X42956Y-32869D01*
X42966Y-22821D02*
X43044Y-22899D01*
X43044Y-22821D02*
X42966Y-22899D01*
X42966Y-23216D02*
X43044Y-23294D01*
X43044Y-23216D02*
X42966Y-23294D01*
X42966Y-23611D02*
X43044Y-23689D01*
X43044Y-23611D02*
X42966Y-23689D01*
X42966Y-24006D02*
X43044Y-24084D01*
X43044Y-24006D02*
X42966Y-24084D01*
X42966Y-31331D02*
X43044Y-31409D01*
X43044Y-31331D02*
X42966Y-31409D01*
X42971Y-29976D02*
X43049Y-30054D01*
X43049Y-29976D02*
X42971Y-30054D01*
X43101Y-42061D02*
X43179Y-42139D01*
X43179Y-42061D02*
X43101Y-42139D01*
X43106Y-24431D02*
X43184Y-24509D01*
X43184Y-24431D02*
X43106Y-24509D01*
X43191Y-39731D02*
X43269Y-39809D01*
X43269Y-39731D02*
X43191Y-39809D01*
X43191Y-40126D02*
X43269Y-40204D01*
X43269Y-40126D02*
X43191Y-40204D01*
X43206Y-29331D02*
X43284Y-29409D01*
X43284Y-29331D02*
X43206Y-29409D01*
X43206Y-29706D02*
X43284Y-29784D01*
X43284Y-29706D02*
X43206Y-29784D01*
X43221Y-25676D02*
X43299Y-25754D01*
X43299Y-25676D02*
X43221Y-25754D01*
X43336Y-30571D02*
X43414Y-30649D01*
X43414Y-30571D02*
X43336Y-30649D01*
X43336Y-31026D02*
X43414Y-31104D01*
X43414Y-31026D02*
X43336Y-31104D01*
X43366Y-40481D02*
X43444Y-40559D01*
X43444Y-40481D02*
X43366Y-40559D01*
X43366Y-40876D02*
X43444Y-40954D01*
X43444Y-40876D02*
X43366Y-40954D01*
X43386Y-42246D02*
X43464Y-42324D01*
X43464Y-42246D02*
X43386Y-42324D01*
X43401Y-32861D02*
X43479Y-32939D01*
X43479Y-32861D02*
X43401Y-32939D01*
X43426Y-24801D02*
X43504Y-24879D01*
X43504Y-24801D02*
X43426Y-24879D01*
X43506Y-27661D02*
X43584Y-27739D01*
X43584Y-27661D02*
X43506Y-27739D01*
X43676Y-29436D02*
X43754Y-29514D01*
X43754Y-29436D02*
X43676Y-29514D01*
X43676Y-33486D02*
X43754Y-33564D01*
X43754Y-33486D02*
X43676Y-33564D01*
X43691Y-26326D02*
X43769Y-26404D01*
X43769Y-26326D02*
X43691Y-26404D01*
X43691Y-26806D02*
X43769Y-26884D01*
X43769Y-26806D02*
X43691Y-26884D01*
X43706Y-25081D02*
X43784Y-25159D01*
X43784Y-25081D02*
X43706Y-25159D01*
X43766Y-42741D02*
X43844Y-42819D01*
X43844Y-42741D02*
X43766Y-42819D01*
X43941Y-22776D02*
X44019Y-22854D01*
X44019Y-22776D02*
X43941Y-22854D01*
X43941Y-23266D02*
X44019Y-23344D01*
X44019Y-23266D02*
X43941Y-23344D01*
X43941Y-23756D02*
X44019Y-23834D01*
X44019Y-23756D02*
X43941Y-23834D01*
X43941Y-24246D02*
X44019Y-24324D01*
X44019Y-24246D02*
X43941Y-24324D01*
X43986Y-25361D02*
X44064Y-25439D01*
X44064Y-25361D02*
X43986Y-25439D01*
X44016Y-24801D02*
X44094Y-24879D01*
X44094Y-24801D02*
X44016Y-24879D01*
X44016Y-32936D02*
X44094Y-33014D01*
X44094Y-32936D02*
X44016Y-33014D01*
X44156Y-42246D02*
X44234Y-42324D01*
X44234Y-42246D02*
X44156Y-42324D01*
X44166Y-38171D02*
X44244Y-38249D01*
X44244Y-38171D02*
X44166Y-38249D01*
X44166Y-38566D02*
X44244Y-38644D01*
X44244Y-38566D02*
X44166Y-38644D01*
X44166Y-38961D02*
X44244Y-39039D01*
X44244Y-38961D02*
X44166Y-39039D01*
X44191Y-40481D02*
X44269Y-40559D01*
X44269Y-40481D02*
X44191Y-40559D01*
X44251Y-36871D02*
X44329Y-36949D01*
X44329Y-36871D02*
X44251Y-36949D01*
X44256Y-31346D02*
X44334Y-31424D01*
X44334Y-31346D02*
X44256Y-31424D01*
X44266Y-25641D02*
X44344Y-25719D01*
X44344Y-25641D02*
X44266Y-25719D01*
X44266Y-40876D02*
X44344Y-40954D01*
X44344Y-40876D02*
X44266Y-40954D01*
X44291Y-39336D02*
X44369Y-39414D01*
X44369Y-39336D02*
X44291Y-39414D01*
X44291Y-39731D02*
X44369Y-39809D01*
X44369Y-39731D02*
X44291Y-39809D01*
X44291Y-40111D02*
X44369Y-40189D01*
X44369Y-40111D02*
X44291Y-40189D01*
X44306Y-36316D02*
X44384Y-36394D01*
X44384Y-36316D02*
X44306Y-36394D01*
X44506Y-24801D02*
X44584Y-24879D01*
X44584Y-24801D02*
X44506Y-24879D01*
X44591Y-32366D02*
X44669Y-32444D01*
X44669Y-32366D02*
X44591Y-32444D01*
X44631Y-31346D02*
X44709Y-31424D01*
X44709Y-31346D02*
X44631Y-31424D01*
X44636Y-37466D02*
X44714Y-37544D01*
X44714Y-37466D02*
X44636Y-37544D01*
X44651Y-25641D02*
X44729Y-25719D01*
X44729Y-25641D02*
X44651Y-25719D01*
X44776Y-36811D02*
X44854Y-36889D01*
X44854Y-36811D02*
X44776Y-36889D01*
X44791Y-33631D02*
X44869Y-33709D01*
X44869Y-33631D02*
X44791Y-33709D01*
X44901Y-24801D02*
X44979Y-24879D01*
X44979Y-24801D02*
X44901Y-24879D01*
X44921Y-30021D02*
X44999Y-30099D01*
X44999Y-30021D02*
X44921Y-30099D01*
X44921Y-38231D02*
X44999Y-38309D01*
X44999Y-38231D02*
X44921Y-38309D01*
X44931Y-25361D02*
X45009Y-25439D01*
X45009Y-25361D02*
X44931Y-25439D01*
X44981Y-22776D02*
X45059Y-22854D01*
X45059Y-22776D02*
X44981Y-22854D01*
X44981Y-23266D02*
X45059Y-23344D01*
X45059Y-23266D02*
X44981Y-23344D01*
X44981Y-23756D02*
X45059Y-23834D01*
X45059Y-23756D02*
X44981Y-23834D01*
X44981Y-24246D02*
X45059Y-24324D01*
X45059Y-24246D02*
X44981Y-24324D01*
X45021Y-41271D02*
X45099Y-41349D01*
X45099Y-41271D02*
X45021Y-41349D01*
X45076Y-33346D02*
X45154Y-33424D01*
X45154Y-33346D02*
X45076Y-33424D01*
X45196Y-31351D02*
X45274Y-31429D01*
X45274Y-31351D02*
X45196Y-31429D01*
X45211Y-25081D02*
X45289Y-25159D01*
X45289Y-25081D02*
X45211Y-25159D01*
X45376Y-38706D02*
X45454Y-38784D01*
X45454Y-38706D02*
X45376Y-38784D01*
X45421Y-33156D02*
X45499Y-33234D01*
X45499Y-33156D02*
X45421Y-33234D01*
X45491Y-24801D02*
X45569Y-24879D01*
X45569Y-24801D02*
X45491Y-24879D01*
X45496Y-31756D02*
X45574Y-31834D01*
X45574Y-31756D02*
X45496Y-31834D01*
X45516Y-31081D02*
X45594Y-31159D01*
X45594Y-31081D02*
X45516Y-31159D01*
X45556Y-33826D02*
X45634Y-33904D01*
X45634Y-33826D02*
X45556Y-33904D01*
X45566Y-25756D02*
X45644Y-25834D01*
X45644Y-25756D02*
X45566Y-25834D01*
X45776Y-31476D02*
X45854Y-31554D01*
X45854Y-31476D02*
X45776Y-31554D01*
X45816Y-34546D02*
X45894Y-34624D01*
X45894Y-34546D02*
X45816Y-34624D01*
X45821Y-24376D02*
X45899Y-24454D01*
X45899Y-24376D02*
X45821Y-24454D01*
X45831Y-38231D02*
X45909Y-38309D01*
X45909Y-38231D02*
X45831Y-38309D01*
X45896Y-26601D02*
X45974Y-26679D01*
X45974Y-26601D02*
X45896Y-26679D01*
X45956Y-32501D02*
X46034Y-32579D01*
X46034Y-32501D02*
X45956Y-32579D01*
X45961Y-22821D02*
X46039Y-22899D01*
X46039Y-22821D02*
X45961Y-22899D01*
X45961Y-23191D02*
X46039Y-23269D01*
X46039Y-23191D02*
X45961Y-23269D01*
X45961Y-23586D02*
X46039Y-23664D01*
X46039Y-23586D02*
X45961Y-23664D01*
X45961Y-23981D02*
X46039Y-24059D01*
X46039Y-23981D02*
X45961Y-24059D01*
X45961Y-29671D02*
X46039Y-29749D01*
X46039Y-29671D02*
X45961Y-29749D01*
X46066Y-31066D02*
X46144Y-31144D01*
X46144Y-31066D02*
X46066Y-31144D01*
X46071Y-25366D02*
X46149Y-25444D01*
X46149Y-25366D02*
X46071Y-25444D01*
X46226Y-37751D02*
X46304Y-37829D01*
X46304Y-37751D02*
X46226Y-37829D01*
X46276Y-41231D02*
X46354Y-41309D01*
X46354Y-41231D02*
X46276Y-41309D01*
X46311Y-25741D02*
X46389Y-25819D01*
X46389Y-25741D02*
X46311Y-25819D01*
X46436Y-26126D02*
X46514Y-26204D01*
X46514Y-26126D02*
X46436Y-26204D01*
X46466Y-32456D02*
X46544Y-32534D01*
X46544Y-32456D02*
X46466Y-32534D01*
X46521Y-30641D02*
X46599Y-30719D01*
X46599Y-30641D02*
X46521Y-30719D01*
X46636Y-31786D02*
X46714Y-31864D01*
X46714Y-31786D02*
X46636Y-31864D01*
X46661Y-40121D02*
X46739Y-40199D01*
X46739Y-40121D02*
X46661Y-40199D01*
X46716Y-41446D02*
X46794Y-41524D01*
X46794Y-41446D02*
X46716Y-41524D01*
X46716Y-41841D02*
X46794Y-41919D01*
X46794Y-41841D02*
X46716Y-41919D01*
X46716Y-42236D02*
X46794Y-42314D01*
X46794Y-42236D02*
X46716Y-42314D01*
X46716Y-42631D02*
X46794Y-42709D01*
X46794Y-42631D02*
X46716Y-42709D01*
X46716Y-43026D02*
X46794Y-43104D01*
X46794Y-43026D02*
X46716Y-43104D01*
X46746Y-27796D02*
X46824Y-27874D01*
X46824Y-27796D02*
X46746Y-27874D01*
X46761Y-35511D02*
X46839Y-35589D01*
X46839Y-35511D02*
X46761Y-35589D01*
X46791Y-26126D02*
X46869Y-26204D01*
X46869Y-26126D02*
X46791Y-26204D01*
X46826Y-36026D02*
X46904Y-36104D01*
X46904Y-36026D02*
X46826Y-36104D01*
X47141Y-26111D02*
X47219Y-26189D01*
X47219Y-26111D02*
X47141Y-26189D01*
X47361Y-35411D02*
X47439Y-35489D01*
X47439Y-35411D02*
X47361Y-35489D01*
X47506Y-37706D02*
X47584Y-37784D01*
X47584Y-37706D02*
X47506Y-37784D01*
X47516Y-27821D02*
X47594Y-27899D01*
X47594Y-27821D02*
X47516Y-27899D01*
X47596Y-30601D02*
X47674Y-30679D01*
X47674Y-30601D02*
X47596Y-30679D01*
X47611Y-28336D02*
X47689Y-28414D01*
X47689Y-28336D02*
X47611Y-28414D01*
X47681Y-26471D02*
X47759Y-26549D01*
X47759Y-26471D02*
X47681Y-26549D01*
X47701Y-36206D02*
X47779Y-36284D01*
X47779Y-36206D02*
X47701Y-36284D01*
X47701Y-37381D02*
X47779Y-37459D01*
X47779Y-37381D02*
X47701Y-37459D01*
X47741Y-39301D02*
X47819Y-39379D01*
X47819Y-39301D02*
X47741Y-39379D01*
X47741Y-40711D02*
X47819Y-40789D01*
X47819Y-40711D02*
X47741Y-40789D01*
X47741Y-41371D02*
X47819Y-41449D01*
X47819Y-41371D02*
X47741Y-41449D01*
X47746Y-42291D02*
X47824Y-42369D01*
X47824Y-42291D02*
X47746Y-42369D01*
X47746Y-42631D02*
X47824Y-42709D01*
X47824Y-42631D02*
X47746Y-42709D01*
X47746Y-43026D02*
X47824Y-43104D01*
X47824Y-43026D02*
X47746Y-43104D01*
X48091Y-36796D02*
X48169Y-36874D01*
X48169Y-36796D02*
X48091Y-36874D01*
X48116Y-33551D02*
X48194Y-33629D01*
X48194Y-33551D02*
X48116Y-33629D01*
X48141Y-40271D02*
X48219Y-40349D01*
X48219Y-40271D02*
X48141Y-40349D01*
X48141Y-41816D02*
X48219Y-41894D01*
X48219Y-41816D02*
X48141Y-41894D01*
X48146Y-39746D02*
X48224Y-39824D01*
X48224Y-39746D02*
X48146Y-39824D01*
X48211Y-30616D02*
X48289Y-30694D01*
X48289Y-30616D02*
X48211Y-30694D01*
X48211Y-37876D02*
X48289Y-37954D01*
X48289Y-37876D02*
X48211Y-37954D01*
X48231Y-26471D02*
X48309Y-26549D01*
X48309Y-26471D02*
X48231Y-26549D01*
X48266Y-22716D02*
X48344Y-22794D01*
X48344Y-22716D02*
X48266Y-22794D01*
X48351Y-31531D02*
X48429Y-31609D01*
X48429Y-31531D02*
X48351Y-31609D01*
X48361Y-34546D02*
X48439Y-34624D01*
X48439Y-34546D02*
X48361Y-34624D01*
X48511Y-35861D02*
X48589Y-35939D01*
X48589Y-35861D02*
X48511Y-35939D01*
X48611Y-37876D02*
X48689Y-37954D01*
X48689Y-37876D02*
X48611Y-37954D01*
X48631Y-26111D02*
X48709Y-26189D01*
X48709Y-26111D02*
X48631Y-26189D01*
X48656Y-39756D02*
X48734Y-39834D01*
X48734Y-39756D02*
X48656Y-39834D01*
X48701Y-25601D02*
X48779Y-25679D01*
X48779Y-25601D02*
X48701Y-25679D01*
X48746Y-35141D02*
X48824Y-35219D01*
X48824Y-35141D02*
X48746Y-35219D01*
X48896Y-33156D02*
X48974Y-33234D01*
X48974Y-33156D02*
X48896Y-33234D01*
X48936Y-40036D02*
X49014Y-40114D01*
X49014Y-40036D02*
X48936Y-40114D01*
X49056Y-22716D02*
X49134Y-22794D01*
X49134Y-22716D02*
X49056Y-22794D01*
X49216Y-40316D02*
X49294Y-40394D01*
X49294Y-40316D02*
X49216Y-40394D01*
X49306Y-28801D02*
X49384Y-28879D01*
X49384Y-28801D02*
X49306Y-28879D01*
X49311Y-28271D02*
X49389Y-28349D01*
X49389Y-28271D02*
X49311Y-28349D01*
X49321Y-26326D02*
X49399Y-26404D01*
X49399Y-26326D02*
X49321Y-26404D01*
X49346Y-25581D02*
X49424Y-25659D01*
X49424Y-25581D02*
X49346Y-25659D01*
X49491Y-31626D02*
X49569Y-31704D01*
X49569Y-31626D02*
X49491Y-31704D01*
X49496Y-40596D02*
X49574Y-40674D01*
X49574Y-40596D02*
X49496Y-40674D01*
X49716Y-27826D02*
X49794Y-27904D01*
X49794Y-27826D02*
X49716Y-27904D01*
X49716Y-29236D02*
X49794Y-29314D01*
X49794Y-29236D02*
X49716Y-29314D01*
X49776Y-40876D02*
X49854Y-40954D01*
X49854Y-40876D02*
X49776Y-40954D01*
X49841Y-22716D02*
X49919Y-22794D01*
X49919Y-22716D02*
X49841Y-22794D01*
X49881Y-38881D02*
X49959Y-38959D01*
X49959Y-38881D02*
X49881Y-38959D01*
X49906Y-25061D02*
X49984Y-25139D01*
X49984Y-25061D02*
X49906Y-25139D01*
X50056Y-41156D02*
X50134Y-41234D01*
X50134Y-41156D02*
X50056Y-41234D01*
X50136Y-31501D02*
X50214Y-31579D01*
X50214Y-31501D02*
X50136Y-31579D01*
X50156Y-33741D02*
X50234Y-33819D01*
X50234Y-33741D02*
X50156Y-33819D01*
X50226Y-27826D02*
X50304Y-27904D01*
X50304Y-27826D02*
X50226Y-27904D01*
X50311Y-35311D02*
X50389Y-35389D01*
X50389Y-35311D02*
X50311Y-35389D01*
X50311Y-36011D02*
X50389Y-36089D01*
X50389Y-36011D02*
X50311Y-36089D01*
X50341Y-41441D02*
X50419Y-41519D01*
X50419Y-41441D02*
X50341Y-41519D01*
X50361Y-39711D02*
X50439Y-39789D01*
X50439Y-39711D02*
X50361Y-39789D01*
X50456Y-25576D02*
X50534Y-25654D01*
X50534Y-25576D02*
X50456Y-25654D01*
X50461Y-31436D02*
X50539Y-31514D01*
X50539Y-31436D02*
X50461Y-31514D01*
X50586Y-24941D02*
X50664Y-25019D01*
X50664Y-24941D02*
X50586Y-25019D01*
X50596Y-31976D02*
X50674Y-32054D01*
X50674Y-31976D02*
X50596Y-32054D01*
X50631Y-22716D02*
X50709Y-22794D01*
X50709Y-22716D02*
X50631Y-22794D01*
X50636Y-38861D02*
X50714Y-38939D01*
X50714Y-38861D02*
X50636Y-38939D01*
X50641Y-39991D02*
X50719Y-40069D01*
X50719Y-39991D02*
X50641Y-40069D01*
X50921Y-40271D02*
X50999Y-40349D01*
X50999Y-40271D02*
X50921Y-40349D01*
X50991Y-37616D02*
X51069Y-37694D01*
X51069Y-37616D02*
X50991Y-37694D01*
X51081Y-41601D02*
X51159Y-41679D01*
X51159Y-41601D02*
X51081Y-41679D01*
X51086Y-24441D02*
X51164Y-24519D01*
X51164Y-24441D02*
X51086Y-24519D01*
X51146Y-38296D02*
X51224Y-38374D01*
X51224Y-38296D02*
X51146Y-38374D01*
X51201Y-40551D02*
X51279Y-40629D01*
X51279Y-40551D02*
X51201Y-40629D01*
X51361Y-41881D02*
X51439Y-41959D01*
X51439Y-41881D02*
X51361Y-41959D01*
X51416Y-22716D02*
X51494Y-22794D01*
X51494Y-22716D02*
X51416Y-22794D01*
X51481Y-40836D02*
X51559Y-40914D01*
X51559Y-40836D02*
X51481Y-40914D01*
X51506Y-30961D02*
X51584Y-31039D01*
X51584Y-30961D02*
X51506Y-31039D01*
X51511Y-31411D02*
X51589Y-31489D01*
X51589Y-31411D02*
X51511Y-31489D01*
X51581Y-36996D02*
X51659Y-37074D01*
X51659Y-36996D02*
X51581Y-37074D01*
X51581Y-37946D02*
X51659Y-38024D01*
X51659Y-37946D02*
X51581Y-38024D01*
X51581Y-38896D02*
X51659Y-38974D01*
X51659Y-38896D02*
X51581Y-38974D01*
X51581Y-39846D02*
X51659Y-39924D01*
X51659Y-39846D02*
X51581Y-39924D01*
X51611Y-29191D02*
X51689Y-29269D01*
X51689Y-29191D02*
X51611Y-29269D01*
X51611Y-29801D02*
X51689Y-29879D01*
X51689Y-29801D02*
X51611Y-29879D01*
X51646Y-23881D02*
X51724Y-23959D01*
X51724Y-23881D02*
X51646Y-23959D01*
X51676Y-28216D02*
X51754Y-28294D01*
X51754Y-28216D02*
X51676Y-28294D01*
X51846Y-31506D02*
X51924Y-31584D01*
X51924Y-31506D02*
X51846Y-31584D01*
X52186Y-38581D02*
X52264Y-38659D01*
X52264Y-38581D02*
X52186Y-38659D01*
X52186Y-39566D02*
X52264Y-39644D01*
X52264Y-39566D02*
X52186Y-39644D01*
X52186Y-40551D02*
X52264Y-40629D01*
X52264Y-40551D02*
X52186Y-40629D01*
X52191Y-41541D02*
X52269Y-41619D01*
X52269Y-41541D02*
X52191Y-41619D01*
X52206Y-22716D02*
X52284Y-22794D01*
X52284Y-22716D02*
X52206Y-22794D01*
X52206Y-23321D02*
X52284Y-23399D01*
X52284Y-23321D02*
X52206Y-23399D01*
X52461Y-31526D02*
X52539Y-31604D01*
X52539Y-31526D02*
X52461Y-31604D01*
X52526Y-30991D02*
X52604Y-31069D01*
X52604Y-30991D02*
X52526Y-31069D01*
X52541Y-41896D02*
X52619Y-41974D01*
X52619Y-41896D02*
X52541Y-41974D01*
X52736Y-26296D02*
X52814Y-26374D01*
X52814Y-26296D02*
X52736Y-26374D01*
X52991Y-22716D02*
X53069Y-22794D01*
X53069Y-22716D02*
X52991Y-22794D01*
X53056Y-30791D02*
X53134Y-30869D01*
X53134Y-30791D02*
X53056Y-30869D01*
X53056Y-33236D02*
X53134Y-33314D01*
X53134Y-33236D02*
X53056Y-33314D01*
X53056Y-34041D02*
X53134Y-34119D01*
X53134Y-34041D02*
X53056Y-34119D01*
X53126Y-25561D02*
X53204Y-25639D01*
X53204Y-25561D02*
X53126Y-25639D01*
X53261Y-35471D02*
X53339Y-35549D01*
X53339Y-35471D02*
X53261Y-35549D01*
X53341Y-31086D02*
X53419Y-31164D01*
X53419Y-31086D02*
X53341Y-31164D01*
X53566Y-34046D02*
X53644Y-34124D01*
X53644Y-34046D02*
X53566Y-34124D01*
X53601Y-26061D02*
X53679Y-26139D01*
X53679Y-26061D02*
X53601Y-26139D01*
X53621Y-31386D02*
X53699Y-31464D01*
X53699Y-31386D02*
X53621Y-31464D01*
X53641Y-28236D02*
X53719Y-28314D01*
X53719Y-28236D02*
X53641Y-28314D01*
X53781Y-22716D02*
X53859Y-22794D01*
X53859Y-22716D02*
X53781Y-22794D01*
X53801Y-35966D02*
X53879Y-36044D01*
X53879Y-35966D02*
X53801Y-36044D01*
X53941Y-34236D02*
X54019Y-34314D01*
X54019Y-34236D02*
X53941Y-34314D01*
X54036Y-31126D02*
X54114Y-31204D01*
X54114Y-31126D02*
X54036Y-31204D01*
X54046Y-26461D02*
X54124Y-26539D01*
X54124Y-26461D02*
X54046Y-26539D01*
X54301Y-30736D02*
X54379Y-30814D01*
X54379Y-30736D02*
X54301Y-30814D01*
X54336Y-35471D02*
X54414Y-35549D01*
X54414Y-35471D02*
X54336Y-35549D01*
X54451Y-31386D02*
X54529Y-31464D01*
X54529Y-31386D02*
X54451Y-31464D01*
X54566Y-22716D02*
X54644Y-22794D01*
X54644Y-22716D02*
X54566Y-22794D01*
X54586Y-30076D02*
X54664Y-30154D01*
X54664Y-30076D02*
X54586Y-30154D01*
X54791Y-29756D02*
X54869Y-29834D01*
X54869Y-29756D02*
X54791Y-29834D01*
X54881Y-25831D02*
X54959Y-25909D01*
X54959Y-25831D02*
X54881Y-25909D01*
X55176Y-26436D02*
X55254Y-26514D01*
X55254Y-26436D02*
X55176Y-26514D01*
X55361Y-22716D02*
X55439Y-22794D01*
X55439Y-22716D02*
X55361Y-22794D01*
X55906Y-29971D02*
X55984Y-30049D01*
X55984Y-29971D02*
X55906Y-30049D01*
X56141Y-22716D02*
X56219Y-22794D01*
X56219Y-22716D02*
X56141Y-22794D01*
X56576Y-23531D02*
X56654Y-23609D01*
X56654Y-23531D02*
X56576Y-23609D01*
X56741Y-30061D02*
X56819Y-30139D01*
X56819Y-30061D02*
X56741Y-30139D01*
X56746Y-25696D02*
X56824Y-25774D01*
X56824Y-25696D02*
X56746Y-25774D01*
X56931Y-22721D02*
X57009Y-22799D01*
X57009Y-22721D02*
X56931Y-22799D01*
X57421Y-26436D02*
X57499Y-26514D01*
X57499Y-26436D02*
X57421Y-26514D01*
X57541Y-30061D02*
X57619Y-30139D01*
X57619Y-30061D02*
X57541Y-30139D01*
X57541Y-30571D02*
X57619Y-30649D01*
X57619Y-30571D02*
X57541Y-30649D01*
X57716Y-22716D02*
X57794Y-22794D01*
X57794Y-22716D02*
X57716Y-22794D01*
X58201Y-42086D02*
X58279Y-42164D01*
X58279Y-42086D02*
X58201Y-42164D01*
X58291Y-26436D02*
X58369Y-26514D01*
X58369Y-26436D02*
X58291Y-26514D01*
X58461Y-25811D02*
X58539Y-25889D01*
X58539Y-25811D02*
X58461Y-25889D01*
X58516Y-22721D02*
X58594Y-22799D01*
X58594Y-22721D02*
X58516Y-22799D01*
X58676Y-33181D02*
X58754Y-33259D01*
X58754Y-33181D02*
X58676Y-33259D01*
X58876Y-42086D02*
X58954Y-42164D01*
X58954Y-42086D02*
X58876Y-42164D01*
X59111Y-35266D02*
X59189Y-35344D01*
X59189Y-35266D02*
X59111Y-35344D01*
X59146Y-34756D02*
X59224Y-34834D01*
X59224Y-34756D02*
X59146Y-34834D01*
X59206Y-33181D02*
X59284Y-33259D01*
X59284Y-33181D02*
X59206Y-33259D01*
X59291Y-22716D02*
X59369Y-22794D01*
X59369Y-22716D02*
X59291Y-22794D01*
X59736Y-33171D02*
X59814Y-33249D01*
X59814Y-33171D02*
X59736Y-33249D01*
X60081Y-22716D02*
X60159Y-22794D01*
X60159Y-22716D02*
X60081Y-22794D01*
X60211Y-33251D02*
X60289Y-33329D01*
X60289Y-33251D02*
X60211Y-33329D01*
X60216Y-35736D02*
X60294Y-35814D01*
X60294Y-35736D02*
X60216Y-35814D01*
X60546Y-31471D02*
X60624Y-31549D01*
X60624Y-31471D02*
X60546Y-31549D01*
X60866Y-22716D02*
X60944Y-22794D01*
X60944Y-22716D02*
X60866Y-22794D01*
X61096Y-24701D02*
X61174Y-24779D01*
X61174Y-24701D02*
X61096Y-24779D01*
X61096Y-31456D02*
X61174Y-31534D01*
X61174Y-31456D02*
X61096Y-31534D01*
X61201Y-33671D02*
X61279Y-33749D01*
X61279Y-33671D02*
X61201Y-33749D01*
X61236Y-35321D02*
X61314Y-35399D01*
X61314Y-35321D02*
X61236Y-35399D01*
X61461Y-41426D02*
X61539Y-41504D01*
X61539Y-41426D02*
X61461Y-41504D01*
X61661Y-22721D02*
X61739Y-22799D01*
X61739Y-22721D02*
X61661Y-22799D01*
X61841Y-42086D02*
X61919Y-42164D01*
X61919Y-42086D02*
X61841Y-42164D01*
X62211Y-25761D02*
X62289Y-25839D01*
X62289Y-25761D02*
X62211Y-25839D01*
X62441Y-22716D02*
X62519Y-22794D01*
X62519Y-22716D02*
X62441Y-22794D01*
X62586Y-26461D02*
X62664Y-26539D01*
X62664Y-26461D02*
X62586Y-26539D01*
X62746Y-30041D02*
X62824Y-30119D01*
X62824Y-30041D02*
X62746Y-30119D01*
X62906Y-32136D02*
X62984Y-32214D01*
X62984Y-32136D02*
X62906Y-32214D01*
X62911Y-31636D02*
X62989Y-31714D01*
X62989Y-31636D02*
X62911Y-31714D01*
X62911Y-34386D02*
X62989Y-34464D01*
X62989Y-34386D02*
X62911Y-34464D01*
X63006Y-33786D02*
X63084Y-33864D01*
X63084Y-33786D02*
X63006Y-33864D01*
X63046Y-35811D02*
X63124Y-35889D01*
X63124Y-35811D02*
X63046Y-35889D01*
X63056Y-35386D02*
X63134Y-35464D01*
X63134Y-35386D02*
X63056Y-35464D01*
X63191Y-36436D02*
X63269Y-36514D01*
X63269Y-36436D02*
X63191Y-36514D01*
X63196Y-32896D02*
X63274Y-32974D01*
X63274Y-32896D02*
X63196Y-32974D01*
X63196Y-33351D02*
X63274Y-33429D01*
X63274Y-33351D02*
X63196Y-33429D01*
X63226Y-22721D02*
X63304Y-22799D01*
X63304Y-22721D02*
X63226Y-22799D01*
X63301Y-26601D02*
X63379Y-26679D01*
X63379Y-26601D02*
X63301Y-26679D01*
X63311Y-34506D02*
X63389Y-34584D01*
X63389Y-34506D02*
X63311Y-34584D01*
X63566Y-35256D02*
X63644Y-35334D01*
X63644Y-35256D02*
X63566Y-35334D01*
X63581Y-33866D02*
X63659Y-33944D01*
X63659Y-33866D02*
X63581Y-33944D01*
X63586Y-34816D02*
X63664Y-34894D01*
X63664Y-34816D02*
X63586Y-34894D01*
X63706Y-26396D02*
X63784Y-26474D01*
X63784Y-26396D02*
X63706Y-26474D01*
X64016Y-22716D02*
X64094Y-22794D01*
X64094Y-22716D02*
X64016Y-22794D01*
X64126Y-28136D02*
X64204Y-28214D01*
X64204Y-28136D02*
X64126Y-28214D01*
X64166Y-25921D02*
X64244Y-25999D01*
X64244Y-25921D02*
X64166Y-25999D01*
X64431Y-41426D02*
X64509Y-41504D01*
X64509Y-41426D02*
X64431Y-41504D01*
X64531Y-31731D02*
X64609Y-31809D01*
X64609Y-31731D02*
X64531Y-31809D01*
X64806Y-22716D02*
X64884Y-22794D01*
X64884Y-22716D02*
X64806Y-22794D01*
X64811Y-26741D02*
X64889Y-26819D01*
X64889Y-26741D02*
X64811Y-26819D01*
X64811Y-42086D02*
X64889Y-42164D01*
X64889Y-42086D02*
X64811Y-42164D01*
X64841Y-27411D02*
X64919Y-27489D01*
X64919Y-27411D02*
X64841Y-27489D01*
X64861Y-24361D02*
X64939Y-24439D01*
X64939Y-24361D02*
X64861Y-24439D01*
X65111Y-28411D02*
X65189Y-28489D01*
X65189Y-28411D02*
X65111Y-28489D01*
X65121Y-31731D02*
X65199Y-31809D01*
X65199Y-31731D02*
X65121Y-31809D01*
X65221Y-29036D02*
X65299Y-29114D01*
X65299Y-29036D02*
X65221Y-29114D01*
X65306Y-27896D02*
X65384Y-27974D01*
X65384Y-27896D02*
X65306Y-27974D01*
X65331Y-36066D02*
X65409Y-36144D01*
X65409Y-36066D02*
X65331Y-36144D01*
X65356Y-32386D02*
X65434Y-32464D01*
X65434Y-32386D02*
X65356Y-32464D01*
X65356Y-32886D02*
X65434Y-32964D01*
X65434Y-32886D02*
X65356Y-32964D01*
X65356Y-33386D02*
X65434Y-33464D01*
X65434Y-33386D02*
X65356Y-33464D01*
X65361Y-34386D02*
X65439Y-34464D01*
X65439Y-34386D02*
X65361Y-34464D01*
X65386Y-36636D02*
X65464Y-36714D01*
X65464Y-36636D02*
X65386Y-36714D01*
X65591Y-22716D02*
X65669Y-22794D01*
X65669Y-22716D02*
X65591Y-22794D01*
X65766Y-27411D02*
X65844Y-27489D01*
X65844Y-27411D02*
X65766Y-27489D01*
X66066Y-28256D02*
X66144Y-28334D01*
X66144Y-28256D02*
X66066Y-28334D01*
X66351Y-38531D02*
X66429Y-38609D01*
X66429Y-38531D02*
X66351Y-38609D01*
X66381Y-22716D02*
X66459Y-22794D01*
X66459Y-22716D02*
X66381Y-22794D01*
X66536Y-25156D02*
X66614Y-25234D01*
X66614Y-25156D02*
X66536Y-25234D01*
X66566Y-27191D02*
X66644Y-27269D01*
X66644Y-27191D02*
X66566Y-27269D01*
X66566Y-28251D02*
X66644Y-28329D01*
X66644Y-28251D02*
X66566Y-28329D01*
X66971Y-36871D02*
X67049Y-36949D01*
X67049Y-36871D02*
X66971Y-36949D01*
X67066Y-28251D02*
X67144Y-28329D01*
X67144Y-28251D02*
X67066Y-28329D01*
X67071Y-34786D02*
X67149Y-34864D01*
X67149Y-34786D02*
X67071Y-34864D01*
X67131Y-32706D02*
X67209Y-32784D01*
X67209Y-32706D02*
X67131Y-32784D01*
X67151Y-32186D02*
X67229Y-32264D01*
X67229Y-32186D02*
X67151Y-32264D01*
X67166Y-22716D02*
X67244Y-22794D01*
X67244Y-22716D02*
X67166Y-22794D01*
X67351Y-27546D02*
X67429Y-27624D01*
X67429Y-27546D02*
X67351Y-27624D01*
X67566Y-28251D02*
X67644Y-28329D01*
X67644Y-28251D02*
X67566Y-28329D01*
X67646Y-37976D02*
X67724Y-38054D01*
X67724Y-37976D02*
X67646Y-38054D01*
X67646Y-39086D02*
X67724Y-39164D01*
X67724Y-39086D02*
X67646Y-39164D01*
X67911Y-40931D02*
X67989Y-41009D01*
X67989Y-40931D02*
X67911Y-41009D01*
X67956Y-22716D02*
X68034Y-22794D01*
X68034Y-22716D02*
X67956Y-22794D01*
X67961Y-28841D02*
X68039Y-28919D01*
X68039Y-28841D02*
X67961Y-28919D01*
X68056Y-31751D02*
X68134Y-31829D01*
X68134Y-31751D02*
X68056Y-31829D01*
X68056Y-33136D02*
X68134Y-33214D01*
X68134Y-33136D02*
X68056Y-33214D01*
X68086Y-35941D02*
X68164Y-36019D01*
X68164Y-35941D02*
X68086Y-36019D01*
X68086Y-36461D02*
X68164Y-36539D01*
X68164Y-36461D02*
X68086Y-36539D01*
X68096Y-37286D02*
X68174Y-37364D01*
X68174Y-37286D02*
X68096Y-37364D01*
X68156Y-38531D02*
X68234Y-38609D01*
X68234Y-38531D02*
X68156Y-38609D01*
X68186Y-34346D02*
X68264Y-34424D01*
X68264Y-34346D02*
X68186Y-34424D01*
X68261Y-26596D02*
X68339Y-26674D01*
X68339Y-26596D02*
X68261Y-26674D01*
X68536Y-41546D02*
X68614Y-41624D01*
X68614Y-41546D02*
X68536Y-41624D01*
X68636Y-34921D02*
X68714Y-34999D01*
X68714Y-34921D02*
X68636Y-34999D01*
X68741Y-22716D02*
X68819Y-22794D01*
X68819Y-22716D02*
X68741Y-22794D01*
X68921Y-25366D02*
X68999Y-25444D01*
X68999Y-25366D02*
X68921Y-25444D01*
X68921Y-25786D02*
X68999Y-25864D01*
X68999Y-25786D02*
X68921Y-25864D01*
X68921Y-26206D02*
X68999Y-26284D01*
X68999Y-26206D02*
X68921Y-26284D01*
X69191Y-29641D02*
X69269Y-29719D01*
X69269Y-29641D02*
X69191Y-29719D01*
X69311Y-33011D02*
X69389Y-33089D01*
X69389Y-33011D02*
X69311Y-33089D01*
X69311Y-34511D02*
X69389Y-34589D01*
X69389Y-34511D02*
X69311Y-34589D01*
X69531Y-22721D02*
X69609Y-22799D01*
X69609Y-22721D02*
X69531Y-22799D01*
X69696Y-27981D02*
X69774Y-28059D01*
X69774Y-27981D02*
X69696Y-28059D01*
X70111Y-33011D02*
X70189Y-33089D01*
X70189Y-33011D02*
X70111Y-33089D01*
X70161Y-34511D02*
X70239Y-34589D01*
X70239Y-34511D02*
X70161Y-34589D01*
X70251Y-29691D02*
X70329Y-29769D01*
X70329Y-29691D02*
X70251Y-29769D01*
X70316Y-22716D02*
X70394Y-22794D01*
X70394Y-22716D02*
X70316Y-22794D01*
X70726Y-25451D02*
X70804Y-25529D01*
X70804Y-25451D02*
X70726Y-25529D01*
X70821Y-28486D02*
X70899Y-28564D01*
X70899Y-28486D02*
X70821Y-28564D01*
X70911Y-33011D02*
X70989Y-33089D01*
X70989Y-33011D02*
X70911Y-33089D01*
X70961Y-34511D02*
X71039Y-34589D01*
X71039Y-34511D02*
X70961Y-34589D01*
X71106Y-22716D02*
X71184Y-22794D01*
X71184Y-22716D02*
X71106Y-22794D01*
X71281Y-39761D02*
X71359Y-39839D01*
X71359Y-39761D02*
X71281Y-39839D01*
X71306Y-26156D02*
X71384Y-26234D01*
X71384Y-26156D02*
X71306Y-26234D01*
X71711Y-33011D02*
X71789Y-33089D01*
X71789Y-33011D02*
X71711Y-33089D01*
X71761Y-34511D02*
X71839Y-34589D01*
X71839Y-34511D02*
X71761Y-34589D01*
X71891Y-22716D02*
X71969Y-22794D01*
X71969Y-22716D02*
X71891Y-22794D01*
X71896Y-25421D02*
X71974Y-25499D01*
X71974Y-25421D02*
X71896Y-25499D01*
X72361Y-35111D02*
X72439Y-35189D01*
X72439Y-35111D02*
X72361Y-35189D01*
X72511Y-33011D02*
X72589Y-33089D01*
X72589Y-33011D02*
X72511Y-33089D01*
X72691Y-22711D02*
X72769Y-22789D01*
X72769Y-22711D02*
X72691Y-22789D01*
X72761Y-39761D02*
X72839Y-39839D01*
X72839Y-39761D02*
X72761Y-39839D01*
X72911Y-35661D02*
X72989Y-35739D01*
X72989Y-35661D02*
X72911Y-35739D01*
X73466Y-22716D02*
X73544Y-22794D01*
X73544Y-22716D02*
X73466Y-22794D01*
X74011Y-35211D02*
X74089Y-35289D01*
X74089Y-35211D02*
X74011Y-35289D01*
X74271Y-22706D02*
X74349Y-22784D01*
X74349Y-22706D02*
X74271Y-22784D01*
X75041Y-22716D02*
X75119Y-22794D01*
X75119Y-22716D02*
X75041Y-22794D01*
X75826Y-25091D02*
X75904Y-25169D01*
X75904Y-25091D02*
X75826Y-25169D01*
X75831Y-22716D02*
X75909Y-22794D01*
X75909Y-22716D02*
X75831Y-22794D01*
X75831Y-24291D02*
X75909Y-24369D01*
X75909Y-24291D02*
X75831Y-24369D01*
X75831Y-25866D02*
X75909Y-25944D01*
X75909Y-25866D02*
X75831Y-25944D01*
X75831Y-26656D02*
X75909Y-26734D01*
X75909Y-26656D02*
X75831Y-26734D01*
X75836Y-23506D02*
X75914Y-23584D01*
X75914Y-23506D02*
X75836Y-23584D01*
X73161Y-24915D02*
X73158Y-24941D01*
X73150Y-24967D01*
X73137Y-24991D01*
X73120Y-25012D01*
X73100Y-25029D01*
X73076Y-25042D01*
X73050Y-25050D01*
X73023Y-25052D01*
X72998Y-25050D01*
X72972Y-25042D01*
X72948Y-25030D01*
X72927Y-25013D01*
X72910Y-24992D01*
X72897Y-24969D01*
X72889Y-24943D01*
X72886Y-24916D01*
X72888Y-24891D01*
X72895Y-24865D01*
X72908Y-24841D01*
X72924Y-24820D01*
X72945Y-24802D01*
X72968Y-24789D01*
X72994Y-24781D01*
X73021Y-24778D01*
X73046Y-24780D01*
X73072Y-24787D01*
X73096Y-24799D01*
X73118Y-24816D01*
X73135Y-24836D01*
X73149Y-24859D01*
X73157Y-24885D01*
X73160Y-24912D01*
X73161Y-24915D01*
X73948Y-24915D02*
X73945Y-24941D01*
X73937Y-24967D01*
X73924Y-24991D01*
X73907Y-25012D01*
X73887Y-25029D01*
X73863Y-25042D01*
X73837Y-25050D01*
X73810Y-25052D01*
X73785Y-25050D01*
X73759Y-25042D01*
X73735Y-25030D01*
X73714Y-25013D01*
X73697Y-24992D01*
X73684Y-24969D01*
X73676Y-24943D01*
X73673Y-24916D01*
X73675Y-24891D01*
X73682Y-24865D01*
X73695Y-24841D01*
X73711Y-24820D01*
X73732Y-24802D01*
X73755Y-24789D01*
X73781Y-24781D01*
X73808Y-24778D01*
X73833Y-24780D01*
X73859Y-24787D01*
X73883Y-24799D01*
X73905Y-24816D01*
X73922Y-24836D01*
X73936Y-24859D01*
X73944Y-24885D01*
X73947Y-24912D01*
X73948Y-24915D01*
X44400Y-28143D02*
X44400Y-28457D01*
X44557Y-28300D02*
X44243Y-28300D01*
X44400Y-28743D02*
X44400Y-29057D01*
X44557Y-28900D02*
X44243Y-28900D01*
X44700Y-28443D02*
X44700Y-28757D01*
X44857Y-28600D02*
X44543Y-28600D01*
X45000Y-28143D02*
X45000Y-28457D01*
X45157Y-28300D02*
X44843Y-28300D01*
X45000Y-28743D02*
X45000Y-29057D01*
X45157Y-28900D02*
X44843Y-28900D01*
X55770Y-42125D02*
X55766Y-42158D01*
X55756Y-42191D01*
X55740Y-42221D01*
X55719Y-42248D01*
X55692Y-42270D01*
X55662Y-42286D01*
X55630Y-42296D01*
X55596Y-42299D01*
X55563Y-42296D01*
X55530Y-42287D01*
X55500Y-42271D01*
X55473Y-42250D01*
X55451Y-42223D01*
X55435Y-42193D01*
X55424Y-42161D01*
X55421Y-42127D01*
X55423Y-42094D01*
X55433Y-42061D01*
X55448Y-42031D01*
X55470Y-42004D01*
X55496Y-41982D01*
X55525Y-41965D01*
X55558Y-41955D01*
X55592Y-41951D01*
X55625Y-41953D01*
X55658Y-41962D01*
X55688Y-41978D01*
X55715Y-41999D01*
X55738Y-42025D01*
X55754Y-42054D01*
X55765Y-42087D01*
X55769Y-42121D01*
X55770Y-42125D01*
X55420Y-41950D02*
X55770Y-42300D01*
X55770Y-41950D02*
X55420Y-42300D01*
X56770Y-42125D02*
X56766Y-42158D01*
X56756Y-42191D01*
X56740Y-42221D01*
X56719Y-42248D01*
X56692Y-42270D01*
X56662Y-42286D01*
X56630Y-42296D01*
X56596Y-42299D01*
X56563Y-42296D01*
X56530Y-42287D01*
X56500Y-42271D01*
X56473Y-42250D01*
X56451Y-42223D01*
X56435Y-42193D01*
X56424Y-42161D01*
X56421Y-42127D01*
X56423Y-42094D01*
X56433Y-42061D01*
X56448Y-42031D01*
X56470Y-42004D01*
X56496Y-41982D01*
X56525Y-41965D01*
X56558Y-41955D01*
X56592Y-41951D01*
X56625Y-41953D01*
X56658Y-41962D01*
X56688Y-41978D01*
X56715Y-41999D01*
X56738Y-42025D01*
X56754Y-42054D01*
X56765Y-42087D01*
X56769Y-42121D01*
X56770Y-42125D01*
X56420Y-41950D02*
X56770Y-42300D01*
X56770Y-41950D02*
X56420Y-42300D01*
X57770Y-42125D02*
X57766Y-42158D01*
X57756Y-42191D01*
X57740Y-42221D01*
X57719Y-42248D01*
X57692Y-42270D01*
X57662Y-42286D01*
X57630Y-42296D01*
X57596Y-42299D01*
X57563Y-42296D01*
X57530Y-42287D01*
X57500Y-42271D01*
X57473Y-42250D01*
X57451Y-42223D01*
X57435Y-42193D01*
X57424Y-42161D01*
X57421Y-42127D01*
X57423Y-42094D01*
X57433Y-42061D01*
X57448Y-42031D01*
X57470Y-42004D01*
X57496Y-41982D01*
X57525Y-41965D01*
X57558Y-41955D01*
X57592Y-41951D01*
X57625Y-41953D01*
X57658Y-41962D01*
X57688Y-41978D01*
X57715Y-41999D01*
X57738Y-42025D01*
X57754Y-42054D01*
X57765Y-42087D01*
X57769Y-42121D01*
X57770Y-42125D01*
X57420Y-41950D02*
X57770Y-42300D01*
X57770Y-41950D02*
X57420Y-42300D01*
X59735Y-42125D02*
X59731Y-42158D01*
X59721Y-42191D01*
X59705Y-42221D01*
X59684Y-42248D01*
X59657Y-42270D01*
X59627Y-42286D01*
X59595Y-42296D01*
X59561Y-42299D01*
X59528Y-42296D01*
X59495Y-42287D01*
X59465Y-42271D01*
X59438Y-42250D01*
X59416Y-42223D01*
X59400Y-42193D01*
X59389Y-42161D01*
X59386Y-42127D01*
X59388Y-42094D01*
X59398Y-42061D01*
X59413Y-42031D01*
X59435Y-42004D01*
X59461Y-41982D01*
X59490Y-41965D01*
X59523Y-41955D01*
X59557Y-41951D01*
X59590Y-41953D01*
X59623Y-41962D01*
X59653Y-41978D01*
X59680Y-41999D01*
X59703Y-42025D01*
X59719Y-42054D01*
X59730Y-42087D01*
X59734Y-42121D01*
X59735Y-42125D01*
X59385Y-41950D02*
X59735Y-42300D01*
X59735Y-41950D02*
X59385Y-42300D01*
X60735Y-42125D02*
X60731Y-42158D01*
X60721Y-42191D01*
X60705Y-42221D01*
X60684Y-42248D01*
X60657Y-42270D01*
X60627Y-42286D01*
X60595Y-42296D01*
X60561Y-42299D01*
X60528Y-42296D01*
X60495Y-42287D01*
X60465Y-42271D01*
X60438Y-42250D01*
X60416Y-42223D01*
X60400Y-42193D01*
X60389Y-42161D01*
X60386Y-42127D01*
X60388Y-42094D01*
X60398Y-42061D01*
X60413Y-42031D01*
X60435Y-42004D01*
X60461Y-41982D01*
X60490Y-41965D01*
X60523Y-41955D01*
X60557Y-41951D01*
X60590Y-41953D01*
X60623Y-41962D01*
X60653Y-41978D01*
X60680Y-41999D01*
X60703Y-42025D01*
X60719Y-42054D01*
X60730Y-42087D01*
X60734Y-42121D01*
X60735Y-42125D01*
X60385Y-41950D02*
X60735Y-42300D01*
X60735Y-41950D02*
X60385Y-42300D01*
X62700Y-42125D02*
X62696Y-42158D01*
X62686Y-42191D01*
X62670Y-42221D01*
X62649Y-42248D01*
X62622Y-42270D01*
X62592Y-42286D01*
X62560Y-42296D01*
X62526Y-42299D01*
X62493Y-42296D01*
X62460Y-42287D01*
X62430Y-42271D01*
X62403Y-42250D01*
X62381Y-42223D01*
X62365Y-42193D01*
X62354Y-42161D01*
X62351Y-42127D01*
X62353Y-42094D01*
X62363Y-42061D01*
X62378Y-42031D01*
X62400Y-42004D01*
X62426Y-41982D01*
X62455Y-41965D01*
X62488Y-41955D01*
X62522Y-41951D01*
X62555Y-41953D01*
X62588Y-41962D01*
X62618Y-41978D01*
X62645Y-41999D01*
X62668Y-42025D01*
X62684Y-42054D01*
X62695Y-42087D01*
X62699Y-42121D01*
X62700Y-42125D01*
X62350Y-41950D02*
X62700Y-42300D01*
X62700Y-41950D02*
X62350Y-42300D01*
X63145Y-24415D02*
X63141Y-24448D01*
X63131Y-24481D01*
X63115Y-24511D01*
X63094Y-24538D01*
X63067Y-24560D01*
X63037Y-24576D01*
X63005Y-24586D01*
X62971Y-24589D01*
X62938Y-24586D01*
X62905Y-24577D01*
X62875Y-24561D01*
X62848Y-24540D01*
X62826Y-24513D01*
X62810Y-24483D01*
X62799Y-24451D01*
X62796Y-24417D01*
X62798Y-24384D01*
X62808Y-24351D01*
X62823Y-24321D01*
X62845Y-24294D01*
X62871Y-24272D01*
X62900Y-24255D01*
X62933Y-24245D01*
X62967Y-24241D01*
X63000Y-24243D01*
X63033Y-24252D01*
X63063Y-24268D01*
X63090Y-24289D01*
X63113Y-24315D01*
X63129Y-24344D01*
X63140Y-24377D01*
X63144Y-24411D01*
X63145Y-24415D01*
X62795Y-24240D02*
X63145Y-24590D01*
X63145Y-24240D02*
X62795Y-24590D01*
X63700Y-42125D02*
X63696Y-42158D01*
X63686Y-42191D01*
X63670Y-42221D01*
X63649Y-42248D01*
X63622Y-42270D01*
X63592Y-42286D01*
X63560Y-42296D01*
X63526Y-42299D01*
X63493Y-42296D01*
X63460Y-42287D01*
X63430Y-42271D01*
X63403Y-42250D01*
X63381Y-42223D01*
X63365Y-42193D01*
X63354Y-42161D01*
X63351Y-42127D01*
X63353Y-42094D01*
X63363Y-42061D01*
X63378Y-42031D01*
X63400Y-42004D01*
X63426Y-41982D01*
X63455Y-41965D01*
X63488Y-41955D01*
X63522Y-41951D01*
X63555Y-41953D01*
X63588Y-41962D01*
X63618Y-41978D01*
X63645Y-41999D01*
X63668Y-42025D01*
X63684Y-42054D01*
X63695Y-42087D01*
X63699Y-42121D01*
X63700Y-42125D01*
X63350Y-41950D02*
X63700Y-42300D01*
X63700Y-41950D02*
X63350Y-42300D01*
X64145Y-24415D02*
X64141Y-24448D01*
X64131Y-24481D01*
X64115Y-24511D01*
X64094Y-24538D01*
X64067Y-24560D01*
X64037Y-24576D01*
X64005Y-24586D01*
X63971Y-24589D01*
X63938Y-24586D01*
X63905Y-24577D01*
X63875Y-24561D01*
X63848Y-24540D01*
X63826Y-24513D01*
X63810Y-24483D01*
X63799Y-24451D01*
X63796Y-24417D01*
X63798Y-24384D01*
X63808Y-24351D01*
X63823Y-24321D01*
X63845Y-24294D01*
X63871Y-24272D01*
X63900Y-24255D01*
X63933Y-24245D01*
X63967Y-24241D01*
X64000Y-24243D01*
X64033Y-24252D01*
X64063Y-24268D01*
X64090Y-24289D01*
X64113Y-24315D01*
X64129Y-24344D01*
X64140Y-24377D01*
X64144Y-24411D01*
X64145Y-24415D01*
X63795Y-24240D02*
X64145Y-24590D01*
X64145Y-24240D02*
X63795Y-24590D01*
X65670Y-42125D02*
X65666Y-42158D01*
X65656Y-42191D01*
X65640Y-42221D01*
X65619Y-42248D01*
X65592Y-42270D01*
X65562Y-42286D01*
X65530Y-42296D01*
X65496Y-42299D01*
X65463Y-42296D01*
X65430Y-42287D01*
X65400Y-42271D01*
X65373Y-42250D01*
X65351Y-42223D01*
X65335Y-42193D01*
X65324Y-42161D01*
X65321Y-42127D01*
X65323Y-42094D01*
X65333Y-42061D01*
X65348Y-42031D01*
X65370Y-42004D01*
X65396Y-41982D01*
X65425Y-41965D01*
X65458Y-41955D01*
X65492Y-41951D01*
X65525Y-41953D01*
X65558Y-41962D01*
X65588Y-41978D01*
X65615Y-41999D01*
X65638Y-42025D01*
X65654Y-42054D01*
X65665Y-42087D01*
X65669Y-42121D01*
X65670Y-42125D01*
X65320Y-41950D02*
X65670Y-42300D01*
X65670Y-41950D02*
X65320Y-42300D01*
X66670Y-42125D02*
X66666Y-42158D01*
X66656Y-42191D01*
X66640Y-42221D01*
X66619Y-42248D01*
X66592Y-42270D01*
X66562Y-42286D01*
X66530Y-42296D01*
X66496Y-42299D01*
X66463Y-42296D01*
X66430Y-42287D01*
X66400Y-42271D01*
X66373Y-42250D01*
X66351Y-42223D01*
X66335Y-42193D01*
X66324Y-42161D01*
X66321Y-42127D01*
X66323Y-42094D01*
X66333Y-42061D01*
X66348Y-42031D01*
X66370Y-42004D01*
X66396Y-41982D01*
X66425Y-41965D01*
X66458Y-41955D01*
X66492Y-41951D01*
X66525Y-41953D01*
X66558Y-41962D01*
X66588Y-41978D01*
X66615Y-41999D01*
X66638Y-42025D01*
X66654Y-42054D01*
X66665Y-42087D01*
X66669Y-42121D01*
X66670Y-42125D01*
X66320Y-41950D02*
X66670Y-42300D01*
X66670Y-41950D02*
X66320Y-42300D01*
X69347Y-41585D02*
X69343Y-41619D01*
X69333Y-41652D01*
X69317Y-41682D01*
X69295Y-41709D01*
X69268Y-41731D01*
X69238Y-41748D01*
X69205Y-41758D01*
X69171Y-41761D01*
X69137Y-41758D01*
X69104Y-41749D01*
X69074Y-41733D01*
X69047Y-41711D01*
X69024Y-41684D01*
X69008Y-41654D01*
X68997Y-41621D01*
X68994Y-41587D01*
X68996Y-41554D01*
X69006Y-41520D01*
X69022Y-41490D01*
X69043Y-41463D01*
X69069Y-41440D01*
X69100Y-41423D01*
X69132Y-41413D01*
X69167Y-41409D01*
X69200Y-41411D01*
X69234Y-41420D01*
X69264Y-41436D01*
X69292Y-41457D01*
X69314Y-41483D01*
X69331Y-41514D01*
X69342Y-41546D01*
X69346Y-41581D01*
X69347Y-41585D01*
X68993Y-41585D02*
X69347Y-41585D01*
X69347Y-42372D02*
X69343Y-42406D01*
X69333Y-42439D01*
X69317Y-42469D01*
X69295Y-42496D01*
X69268Y-42518D01*
X69238Y-42535D01*
X69205Y-42545D01*
X69171Y-42548D01*
X69137Y-42545D01*
X69104Y-42536D01*
X69074Y-42520D01*
X69047Y-42498D01*
X69024Y-42471D01*
X69008Y-42441D01*
X68997Y-42408D01*
X68994Y-42374D01*
X68996Y-42341D01*
X69006Y-42307D01*
X69022Y-42277D01*
X69043Y-42250D01*
X69069Y-42227D01*
X69100Y-42210D01*
X69132Y-42200D01*
X69167Y-42196D01*
X69200Y-42198D01*
X69234Y-42207D01*
X69264Y-42223D01*
X69292Y-42244D01*
X69314Y-42270D01*
X69331Y-42301D01*
X69342Y-42333D01*
X69346Y-42368D01*
X69347Y-42372D01*
X68993Y-42372D02*
X69347Y-42372D01*
X70134Y-41585D02*
X70130Y-41619D01*
X70120Y-41652D01*
X70104Y-41682D01*
X70082Y-41709D01*
X70055Y-41731D01*
X70025Y-41748D01*
X69992Y-41758D01*
X69958Y-41761D01*
X69924Y-41758D01*
X69891Y-41749D01*
X69861Y-41733D01*
X69834Y-41711D01*
X69811Y-41684D01*
X69795Y-41654D01*
X69784Y-41621D01*
X69781Y-41587D01*
X69783Y-41554D01*
X69793Y-41520D01*
X69809Y-41490D01*
X69830Y-41463D01*
X69856Y-41440D01*
X69887Y-41423D01*
X69919Y-41413D01*
X69954Y-41409D01*
X69987Y-41411D01*
X70021Y-41420D01*
X70051Y-41436D01*
X70079Y-41457D01*
X70101Y-41483D01*
X70118Y-41514D01*
X70129Y-41546D01*
X70133Y-41581D01*
X70134Y-41585D01*
X69780Y-41585D02*
X70134Y-41585D01*
X70134Y-42372D02*
X70130Y-42406D01*
X70120Y-42439D01*
X70104Y-42469D01*
X70082Y-42496D01*
X70055Y-42518D01*
X70025Y-42535D01*
X69992Y-42545D01*
X69958Y-42548D01*
X69924Y-42545D01*
X69891Y-42536D01*
X69861Y-42520D01*
X69834Y-42498D01*
X69811Y-42471D01*
X69795Y-42441D01*
X69784Y-42408D01*
X69781Y-42374D01*
X69783Y-42341D01*
X69793Y-42307D01*
X69809Y-42277D01*
X69830Y-42250D01*
X69856Y-42227D01*
X69887Y-42210D01*
X69919Y-42200D01*
X69954Y-42196D01*
X69987Y-42198D01*
X70021Y-42207D01*
X70051Y-42223D01*
X70079Y-42244D01*
X70101Y-42270D01*
X70118Y-42301D01*
X70129Y-42333D01*
X70133Y-42368D01*
X70134Y-42372D01*
X69780Y-42372D02*
X70134Y-42372D01*
X70922Y-41585D02*
X70918Y-41619D01*
X70908Y-41652D01*
X70892Y-41682D01*
X70870Y-41709D01*
X70843Y-41731D01*
X70813Y-41748D01*
X70780Y-41758D01*
X70746Y-41761D01*
X70712Y-41758D01*
X70679Y-41749D01*
X70649Y-41733D01*
X70622Y-41711D01*
X70599Y-41684D01*
X70583Y-41654D01*
X70572Y-41621D01*
X70569Y-41587D01*
X70571Y-41554D01*
X70581Y-41520D01*
X70597Y-41490D01*
X70618Y-41463D01*
X70644Y-41440D01*
X70675Y-41423D01*
X70707Y-41413D01*
X70742Y-41409D01*
X70775Y-41411D01*
X70809Y-41420D01*
X70839Y-41436D01*
X70867Y-41457D01*
X70889Y-41483D01*
X70906Y-41514D01*
X70917Y-41546D01*
X70921Y-41581D01*
X70922Y-41585D01*
X70568Y-41585D02*
X70922Y-41585D01*
X70922Y-42372D02*
X70918Y-42406D01*
X70908Y-42439D01*
X70892Y-42469D01*
X70870Y-42496D01*
X70843Y-42518D01*
X70813Y-42535D01*
X70780Y-42545D01*
X70746Y-42548D01*
X70712Y-42545D01*
X70679Y-42536D01*
X70649Y-42520D01*
X70622Y-42498D01*
X70599Y-42471D01*
X70583Y-42441D01*
X70572Y-42408D01*
X70569Y-42374D01*
X70571Y-42341D01*
X70581Y-42307D01*
X70597Y-42277D01*
X70618Y-42250D01*
X70644Y-42227D01*
X70675Y-42210D01*
X70707Y-42200D01*
X70742Y-42196D01*
X70775Y-42198D01*
X70809Y-42207D01*
X70839Y-42223D01*
X70867Y-42244D01*
X70889Y-42270D01*
X70906Y-42301D01*
X70917Y-42333D01*
X70921Y-42368D01*
X70922Y-42372D01*
X70568Y-42372D02*
X70922Y-42372D01*
X71709Y-41585D02*
X71705Y-41619D01*
X71695Y-41652D01*
X71679Y-41682D01*
X71657Y-41709D01*
X71630Y-41731D01*
X71600Y-41748D01*
X71567Y-41758D01*
X71533Y-41761D01*
X71499Y-41758D01*
X71466Y-41749D01*
X71436Y-41733D01*
X71409Y-41711D01*
X71386Y-41684D01*
X71370Y-41654D01*
X71359Y-41621D01*
X71356Y-41587D01*
X71358Y-41554D01*
X71368Y-41520D01*
X71384Y-41490D01*
X71405Y-41463D01*
X71431Y-41440D01*
X71462Y-41423D01*
X71494Y-41413D01*
X71529Y-41409D01*
X71562Y-41411D01*
X71596Y-41420D01*
X71626Y-41436D01*
X71654Y-41457D01*
X71676Y-41483D01*
X71693Y-41514D01*
X71704Y-41546D01*
X71708Y-41581D01*
X71709Y-41585D01*
X71355Y-41585D02*
X71709Y-41585D01*
X71709Y-42372D02*
X71705Y-42406D01*
X71695Y-42439D01*
X71679Y-42469D01*
X71657Y-42496D01*
X71630Y-42518D01*
X71600Y-42535D01*
X71567Y-42545D01*
X71533Y-42548D01*
X71499Y-42545D01*
X71466Y-42536D01*
X71436Y-42520D01*
X71409Y-42498D01*
X71386Y-42471D01*
X71370Y-42441D01*
X71359Y-42408D01*
X71356Y-42374D01*
X71358Y-42341D01*
X71368Y-42307D01*
X71384Y-42277D01*
X71405Y-42250D01*
X71431Y-42227D01*
X71462Y-42210D01*
X71494Y-42200D01*
X71529Y-42196D01*
X71562Y-42198D01*
X71596Y-42207D01*
X71626Y-42223D01*
X71654Y-42244D01*
X71676Y-42270D01*
X71693Y-42301D01*
X71704Y-42333D01*
X71708Y-42368D01*
X71709Y-42372D01*
X71355Y-42372D02*
X71709Y-42372D01*
X72497Y-41585D02*
X72493Y-41619D01*
X72483Y-41652D01*
X72467Y-41682D01*
X72445Y-41709D01*
X72418Y-41731D01*
X72388Y-41748D01*
X72355Y-41758D01*
X72321Y-41761D01*
X72287Y-41758D01*
X72254Y-41749D01*
X72224Y-41733D01*
X72197Y-41711D01*
X72174Y-41684D01*
X72158Y-41654D01*
X72147Y-41621D01*
X72144Y-41587D01*
X72146Y-41554D01*
X72156Y-41520D01*
X72172Y-41490D01*
X72193Y-41463D01*
X72219Y-41440D01*
X72250Y-41423D01*
X72282Y-41413D01*
X72317Y-41409D01*
X72350Y-41411D01*
X72384Y-41420D01*
X72414Y-41436D01*
X72442Y-41457D01*
X72464Y-41483D01*
X72481Y-41514D01*
X72492Y-41546D01*
X72496Y-41581D01*
X72497Y-41585D01*
X72143Y-41585D02*
X72497Y-41585D01*
X72497Y-42372D02*
X72493Y-42406D01*
X72483Y-42439D01*
X72467Y-42469D01*
X72445Y-42496D01*
X72418Y-42518D01*
X72388Y-42535D01*
X72355Y-42545D01*
X72321Y-42548D01*
X72287Y-42545D01*
X72254Y-42536D01*
X72224Y-42520D01*
X72197Y-42498D01*
X72174Y-42471D01*
X72158Y-42441D01*
X72147Y-42408D01*
X72144Y-42374D01*
X72146Y-42341D01*
X72156Y-42307D01*
X72172Y-42277D01*
X72193Y-42250D01*
X72219Y-42227D01*
X72250Y-42210D01*
X72282Y-42200D01*
X72317Y-42196D01*
X72350Y-42198D01*
X72384Y-42207D01*
X72414Y-42223D01*
X72442Y-42244D01*
X72464Y-42270D01*
X72481Y-42301D01*
X72492Y-42333D01*
X72496Y-42368D01*
X72497Y-42372D01*
X72143Y-42372D02*
X72497Y-42372D01*
X73284Y-41585D02*
X73280Y-41619D01*
X73270Y-41652D01*
X73254Y-41682D01*
X73232Y-41709D01*
X73205Y-41731D01*
X73175Y-41748D01*
X73142Y-41758D01*
X73108Y-41761D01*
X73074Y-41758D01*
X73041Y-41749D01*
X73011Y-41733D01*
X72984Y-41711D01*
X72961Y-41684D01*
X72945Y-41654D01*
X72934Y-41621D01*
X72931Y-41587D01*
X72933Y-41554D01*
X72943Y-41520D01*
X72959Y-41490D01*
X72980Y-41463D01*
X73006Y-41440D01*
X73037Y-41423D01*
X73069Y-41413D01*
X73104Y-41409D01*
X73137Y-41411D01*
X73171Y-41420D01*
X73201Y-41436D01*
X73229Y-41457D01*
X73251Y-41483D01*
X73268Y-41514D01*
X73279Y-41546D01*
X73283Y-41581D01*
X73284Y-41585D01*
X72930Y-41585D02*
X73284Y-41585D01*
X73284Y-42372D02*
X73280Y-42406D01*
X73270Y-42439D01*
X73254Y-42469D01*
X73232Y-42496D01*
X73205Y-42518D01*
X73175Y-42535D01*
X73142Y-42545D01*
X73108Y-42548D01*
X73074Y-42545D01*
X73041Y-42536D01*
X73011Y-42520D01*
X72984Y-42498D01*
X72961Y-42471D01*
X72945Y-42441D01*
X72934Y-42408D01*
X72931Y-42374D01*
X72933Y-42341D01*
X72943Y-42307D01*
X72959Y-42277D01*
X72980Y-42250D01*
X73006Y-42227D01*
X73037Y-42210D01*
X73069Y-42200D01*
X73104Y-42196D01*
X73137Y-42198D01*
X73171Y-42207D01*
X73201Y-42223D01*
X73229Y-42244D01*
X73251Y-42270D01*
X73268Y-42301D01*
X73279Y-42333D01*
X73283Y-42368D01*
X73284Y-42372D01*
X72930Y-42372D02*
X73284Y-42372D01*
X74071Y-41585D02*
X74067Y-41619D01*
X74057Y-41652D01*
X74041Y-41682D01*
X74019Y-41709D01*
X73992Y-41731D01*
X73962Y-41748D01*
X73929Y-41758D01*
X73895Y-41761D01*
X73861Y-41758D01*
X73828Y-41749D01*
X73798Y-41733D01*
X73771Y-41711D01*
X73748Y-41684D01*
X73732Y-41654D01*
X73721Y-41621D01*
X73718Y-41587D01*
X73720Y-41554D01*
X73730Y-41520D01*
X73746Y-41490D01*
X73767Y-41463D01*
X73793Y-41440D01*
X73824Y-41423D01*
X73856Y-41413D01*
X73891Y-41409D01*
X73924Y-41411D01*
X73958Y-41420D01*
X73988Y-41436D01*
X74016Y-41457D01*
X74038Y-41483D01*
X74055Y-41514D01*
X74066Y-41546D01*
X74070Y-41581D01*
X74071Y-41585D01*
X73717Y-41585D02*
X74071Y-41585D01*
X74071Y-42372D02*
X74067Y-42406D01*
X74057Y-42439D01*
X74041Y-42469D01*
X74019Y-42496D01*
X73992Y-42518D01*
X73962Y-42535D01*
X73929Y-42545D01*
X73895Y-42548D01*
X73861Y-42545D01*
X73828Y-42536D01*
X73798Y-42520D01*
X73771Y-42498D01*
X73748Y-42471D01*
X73732Y-42441D01*
X73721Y-42408D01*
X73718Y-42374D01*
X73720Y-42341D01*
X73730Y-42307D01*
X73746Y-42277D01*
X73767Y-42250D01*
X73793Y-42227D01*
X73824Y-42210D01*
X73856Y-42200D01*
X73891Y-42196D01*
X73924Y-42198D01*
X73958Y-42207D01*
X73988Y-42223D01*
X74016Y-42244D01*
X74038Y-42270D01*
X74055Y-42301D01*
X74066Y-42333D01*
X74070Y-42368D01*
X74071Y-42372D01*
X73717Y-42372D02*
X74071Y-42372D01*
X73384Y-33735D02*
X73380Y-33770D01*
X73370Y-33803D01*
X73353Y-33835D01*
X73331Y-33862D01*
X73304Y-33885D01*
X73273Y-33901D01*
X73239Y-33912D01*
X73204Y-33915D01*
X73170Y-33912D01*
X73136Y-33902D01*
X73104Y-33886D01*
X73077Y-33864D01*
X73054Y-33837D01*
X73037Y-33806D01*
X73026Y-33772D01*
X73023Y-33737D01*
X73025Y-33703D01*
X73035Y-33669D01*
X73051Y-33637D01*
X73073Y-33610D01*
X73100Y-33587D01*
X73131Y-33570D01*
X73165Y-33559D01*
X73200Y-33555D01*
X73234Y-33557D01*
X73268Y-33567D01*
X73299Y-33583D01*
X73327Y-33604D01*
X73350Y-33631D01*
X73368Y-33662D01*
X73379Y-33695D01*
X73383Y-33730D01*
X73384Y-33735D01*
X73203Y-33554D02*
X73203Y-33916D01*
X74171Y-32735D02*
X74167Y-32770D01*
X74157Y-32803D01*
X74140Y-32835D01*
X74118Y-32862D01*
X74091Y-32885D01*
X74060Y-32901D01*
X74026Y-32912D01*
X73991Y-32915D01*
X73957Y-32912D01*
X73923Y-32902D01*
X73891Y-32886D01*
X73864Y-32864D01*
X73841Y-32837D01*
X73824Y-32806D01*
X73813Y-32772D01*
X73810Y-32737D01*
X73812Y-32703D01*
X73822Y-32669D01*
X73838Y-32637D01*
X73860Y-32610D01*
X73887Y-32587D01*
X73918Y-32570D01*
X73952Y-32559D01*
X73987Y-32555D01*
X74021Y-32557D01*
X74055Y-32567D01*
X74086Y-32583D01*
X74114Y-32604D01*
X74137Y-32631D01*
X74155Y-32662D01*
X74166Y-32695D01*
X74170Y-32730D01*
X74171Y-32735D01*
X73990Y-32554D02*
X73990Y-32916D01*
X74171Y-33735D02*
X74167Y-33770D01*
X74157Y-33803D01*
X74140Y-33835D01*
X74118Y-33862D01*
X74091Y-33885D01*
X74060Y-33901D01*
X74026Y-33912D01*
X73991Y-33915D01*
X73957Y-33912D01*
X73923Y-33902D01*
X73891Y-33886D01*
X73864Y-33864D01*
X73841Y-33837D01*
X73824Y-33806D01*
X73813Y-33772D01*
X73810Y-33737D01*
X73812Y-33703D01*
X73822Y-33669D01*
X73838Y-33637D01*
X73860Y-33610D01*
X73887Y-33587D01*
X73918Y-33570D01*
X73952Y-33559D01*
X73987Y-33555D01*
X74021Y-33557D01*
X74055Y-33567D01*
X74086Y-33583D01*
X74114Y-33604D01*
X74137Y-33631D01*
X74155Y-33662D01*
X74166Y-33695D01*
X74170Y-33730D01*
X74171Y-33735D01*
X73990Y-33554D02*
X73990Y-33916D01*
X74971Y-32735D02*
X74967Y-32770D01*
X74957Y-32803D01*
X74940Y-32835D01*
X74918Y-32862D01*
X74891Y-32885D01*
X74860Y-32901D01*
X74826Y-32912D01*
X74791Y-32915D01*
X74757Y-32912D01*
X74723Y-32902D01*
X74691Y-32886D01*
X74664Y-32864D01*
X74641Y-32837D01*
X74624Y-32806D01*
X74613Y-32772D01*
X74610Y-32737D01*
X74612Y-32703D01*
X74622Y-32669D01*
X74638Y-32637D01*
X74660Y-32610D01*
X74687Y-32587D01*
X74718Y-32570D01*
X74752Y-32559D01*
X74787Y-32555D01*
X74821Y-32557D01*
X74855Y-32567D01*
X74886Y-32583D01*
X74914Y-32604D01*
X74937Y-32631D01*
X74955Y-32662D01*
X74966Y-32695D01*
X74970Y-32730D01*
X74971Y-32735D01*
X74790Y-32554D02*
X74790Y-32916D01*
X74971Y-33735D02*
X74967Y-33770D01*
X74957Y-33803D01*
X74940Y-33835D01*
X74918Y-33862D01*
X74891Y-33885D01*
X74860Y-33901D01*
X74826Y-33912D01*
X74791Y-33915D01*
X74757Y-33912D01*
X74723Y-33902D01*
X74691Y-33886D01*
X74664Y-33864D01*
X74641Y-33837D01*
X74624Y-33806D01*
X74613Y-33772D01*
X74610Y-33737D01*
X74612Y-33703D01*
X74622Y-33669D01*
X74638Y-33637D01*
X74660Y-33610D01*
X74687Y-33587D01*
X74718Y-33570D01*
X74752Y-33559D01*
X74787Y-33555D01*
X74821Y-33557D01*
X74855Y-33567D01*
X74886Y-33583D01*
X74914Y-33604D01*
X74937Y-33631D01*
X74955Y-33662D01*
X74966Y-33695D01*
X74970Y-33730D01*
X74971Y-33735D01*
X74790Y-33554D02*
X74790Y-33916D01*
X75746Y-33735D02*
X75742Y-33770D01*
X75732Y-33803D01*
X75715Y-33835D01*
X75693Y-33862D01*
X75666Y-33885D01*
X75635Y-33901D01*
X75601Y-33912D01*
X75566Y-33915D01*
X75532Y-33912D01*
X75498Y-33902D01*
X75466Y-33886D01*
X75439Y-33864D01*
X75416Y-33837D01*
X75399Y-33806D01*
X75388Y-33772D01*
X75385Y-33737D01*
X75387Y-33703D01*
X75397Y-33669D01*
X75413Y-33637D01*
X75435Y-33610D01*
X75462Y-33587D01*
X75493Y-33570D01*
X75527Y-33559D01*
X75562Y-33555D01*
X75596Y-33557D01*
X75630Y-33567D01*
X75661Y-33583D01*
X75689Y-33604D01*
X75712Y-33631D01*
X75730Y-33662D01*
X75741Y-33695D01*
X75745Y-33730D01*
X75746Y-33735D01*
X75565Y-33554D02*
X75565Y-33916D01*
X76533Y-33735D02*
X76529Y-33770D01*
X76519Y-33803D01*
X76502Y-33835D01*
X76480Y-33862D01*
X76453Y-33885D01*
X76422Y-33901D01*
X76388Y-33912D01*
X76353Y-33915D01*
X76319Y-33912D01*
X76285Y-33902D01*
X76253Y-33886D01*
X76226Y-33864D01*
X76203Y-33837D01*
X76186Y-33806D01*
X76175Y-33772D01*
X76172Y-33737D01*
X76174Y-33703D01*
X76184Y-33669D01*
X76200Y-33637D01*
X76222Y-33610D01*
X76249Y-33587D01*
X76280Y-33570D01*
X76314Y-33559D01*
X76349Y-33555D01*
X76383Y-33557D01*
X76417Y-33567D01*
X76448Y-33583D01*
X76476Y-33604D01*
X76499Y-33631D01*
X76517Y-33662D01*
X76528Y-33695D01*
X76532Y-33730D01*
X76533Y-33735D01*
X76352Y-33554D02*
X76352Y-33916D01*
X76173Y-31118D02*
X76173Y-30552D01*
X75607Y-30552D01*
X75607Y-31118D01*
X76173Y-31118D01*
X76173Y-35918D02*
X76173Y-35352D01*
X75607Y-35352D01*
X75607Y-35918D01*
X76173Y-35918D01*
X36750Y-29054D02*
X37439Y-28365D01*
X36750Y-27676D01*
X36061Y-28365D01*
X36750Y-29054D01*
X36750Y-38899D02*
X37439Y-38210D01*
X36750Y-37521D01*
X36061Y-38210D01*
X36750Y-38899D01*
X78090Y-29054D02*
X78779Y-28365D01*
X78090Y-27676D01*
X77401Y-28365D01*
X78090Y-29054D01*
X78090Y-38899D02*
X78779Y-38210D01*
X78090Y-37521D01*
X77401Y-38210D01*
X78090Y-38899D01*
G54D11*
X35346Y-46317D02*
X35346Y-45517D01*
X35537Y-45517D01*
X35651Y-45555D01*
X35727Y-45631D01*
X35766Y-45707D01*
X35804Y-45860D01*
X35804Y-45974D01*
X35766Y-46126D01*
X35727Y-46203D01*
X35651Y-46279D01*
X35537Y-46317D01*
X35346Y-46317D01*
X36146Y-46317D02*
X36146Y-45783D01*
X36146Y-45936D02*
X36185Y-45860D01*
X36223Y-45822D01*
X36299Y-45783D01*
X36375Y-45783D01*
X36641Y-46317D02*
X36641Y-45783D01*
X36641Y-45517D02*
X36603Y-45555D01*
X36641Y-45593D01*
X36680Y-45555D01*
X36641Y-45517D01*
X36641Y-45593D01*
X37137Y-46317D02*
X37061Y-46279D01*
X37022Y-46203D01*
X37022Y-45517D01*
X37556Y-46317D02*
X37480Y-46279D01*
X37441Y-46203D01*
X37441Y-45517D01*
X38470Y-46317D02*
X38470Y-45517D01*
X38737Y-46088D01*
X39004Y-45517D01*
X39004Y-46317D01*
X39727Y-46317D02*
X39727Y-45898D01*
X39689Y-45822D01*
X39613Y-45783D01*
X39461Y-45783D01*
X39384Y-45822D01*
X39727Y-46279D02*
X39651Y-46317D01*
X39461Y-46317D01*
X39384Y-46279D01*
X39346Y-46203D01*
X39346Y-46126D01*
X39384Y-46050D01*
X39461Y-46012D01*
X39651Y-46012D01*
X39727Y-45974D01*
X40108Y-45783D02*
X40108Y-46583D01*
X40108Y-45822D02*
X40185Y-45783D01*
X40337Y-45783D01*
X40413Y-45822D01*
X40451Y-45860D01*
X40489Y-45936D01*
X40489Y-46164D01*
X40451Y-46241D01*
X40413Y-46279D01*
X40337Y-46317D01*
X40185Y-46317D01*
X40108Y-46279D01*
X40832Y-46241D02*
X40871Y-46279D01*
X40832Y-46317D01*
X40794Y-46279D01*
X40832Y-46241D01*
X40832Y-46317D01*
X40832Y-45822D02*
X40871Y-45860D01*
X40832Y-45898D01*
X40794Y-45860D01*
X40832Y-45822D01*
X40832Y-45898D01*
X34877Y-47634D02*
X34955Y-47712D01*
X34955Y-47634D02*
X34877Y-47712D01*
X35499Y-47197D02*
X35575Y-47197D01*
X35651Y-47235D01*
X35689Y-47273D01*
X35727Y-47349D01*
X35766Y-47502D01*
X35766Y-47692D01*
X35727Y-47844D01*
X35689Y-47921D01*
X35651Y-47959D01*
X35575Y-47997D01*
X35499Y-47997D01*
X35423Y-47959D01*
X35385Y-47921D01*
X35346Y-47844D01*
X35308Y-47692D01*
X35308Y-47502D01*
X35346Y-47349D01*
X35385Y-47273D01*
X35423Y-47235D01*
X35499Y-47197D01*
X36108Y-47921D02*
X36147Y-47959D01*
X36108Y-47997D01*
X36070Y-47959D01*
X36108Y-47921D01*
X36108Y-47997D01*
X36451Y-47273D02*
X36489Y-47235D01*
X36566Y-47197D01*
X36756Y-47197D01*
X36832Y-47235D01*
X36870Y-47273D01*
X36909Y-47349D01*
X36909Y-47425D01*
X36870Y-47540D01*
X36413Y-47997D01*
X36909Y-47997D01*
X37404Y-47197D02*
X37480Y-47197D01*
X37556Y-47235D01*
X37594Y-47273D01*
X37632Y-47349D01*
X37671Y-47502D01*
X37671Y-47692D01*
X37632Y-47844D01*
X37594Y-47921D01*
X37556Y-47959D01*
X37480Y-47997D01*
X37404Y-47997D01*
X37328Y-47959D01*
X37290Y-47921D01*
X37251Y-47844D01*
X37213Y-47692D01*
X37213Y-47502D01*
X37251Y-47349D01*
X37290Y-47273D01*
X37328Y-47235D01*
X37404Y-47197D01*
X38013Y-47997D02*
X38013Y-47463D01*
X38013Y-47540D02*
X38052Y-47502D01*
X38128Y-47463D01*
X38242Y-47463D01*
X38318Y-47502D01*
X38356Y-47578D01*
X38356Y-47997D01*
X38356Y-47578D02*
X38394Y-47502D01*
X38471Y-47463D01*
X38585Y-47463D01*
X38661Y-47502D01*
X38699Y-47578D01*
X38699Y-47997D01*
X39080Y-47997D02*
X39080Y-47463D01*
X39080Y-47540D02*
X39119Y-47502D01*
X39195Y-47463D01*
X39309Y-47463D01*
X39385Y-47502D01*
X39423Y-47578D01*
X39423Y-47997D01*
X39423Y-47578D02*
X39461Y-47502D01*
X39538Y-47463D01*
X39652Y-47463D01*
X39728Y-47502D01*
X39766Y-47578D01*
X39766Y-47997D01*
X41329Y-47159D02*
X40643Y-48187D01*
X42358Y-47197D02*
X42434Y-47197D01*
X42510Y-47235D01*
X42548Y-47273D01*
X42586Y-47349D01*
X42625Y-47502D01*
X42625Y-47692D01*
X42586Y-47844D01*
X42548Y-47921D01*
X42510Y-47959D01*
X42434Y-47997D01*
X42358Y-47997D01*
X42282Y-47959D01*
X42244Y-47921D01*
X42205Y-47844D01*
X42167Y-47692D01*
X42167Y-47502D01*
X42205Y-47349D01*
X42244Y-47273D01*
X42282Y-47235D01*
X42358Y-47197D01*
X42967Y-47921D02*
X43006Y-47959D01*
X42967Y-47997D01*
X42929Y-47959D01*
X42967Y-47921D01*
X42967Y-47997D01*
X43501Y-47197D02*
X43577Y-47197D01*
X43653Y-47235D01*
X43691Y-47273D01*
X43729Y-47349D01*
X43768Y-47502D01*
X43768Y-47692D01*
X43729Y-47844D01*
X43691Y-47921D01*
X43653Y-47959D01*
X43577Y-47997D01*
X43501Y-47997D01*
X43425Y-47959D01*
X43387Y-47921D01*
X43348Y-47844D01*
X43310Y-47692D01*
X43310Y-47502D01*
X43348Y-47349D01*
X43387Y-47273D01*
X43425Y-47235D01*
X43501Y-47197D01*
X44263Y-47197D02*
X44339Y-47197D01*
X44415Y-47235D01*
X44453Y-47273D01*
X44491Y-47349D01*
X44530Y-47502D01*
X44530Y-47692D01*
X44491Y-47844D01*
X44453Y-47921D01*
X44415Y-47959D01*
X44339Y-47997D01*
X44263Y-47997D01*
X44187Y-47959D01*
X44149Y-47921D01*
X44110Y-47844D01*
X44072Y-47692D01*
X44072Y-47502D01*
X44110Y-47349D01*
X44149Y-47273D01*
X44187Y-47235D01*
X44263Y-47197D01*
X44987Y-47540D02*
X44911Y-47502D01*
X44872Y-47463D01*
X44834Y-47387D01*
X44834Y-47349D01*
X44872Y-47273D01*
X44911Y-47235D01*
X44987Y-47197D01*
X45139Y-47197D01*
X45215Y-47235D01*
X45253Y-47273D01*
X45292Y-47349D01*
X45292Y-47387D01*
X45253Y-47463D01*
X45215Y-47502D01*
X45139Y-47540D01*
X44987Y-47540D01*
X44911Y-47578D01*
X44872Y-47616D01*
X44834Y-47692D01*
X44834Y-47844D01*
X44872Y-47921D01*
X44911Y-47959D01*
X44987Y-47997D01*
X45139Y-47997D01*
X45215Y-47959D01*
X45253Y-47921D01*
X45292Y-47844D01*
X45292Y-47692D01*
X45253Y-47616D01*
X45215Y-47578D01*
X45139Y-47540D01*
X45596Y-47197D02*
X45596Y-47349D01*
X45901Y-47197D02*
X45901Y-47349D01*
X47083Y-48302D02*
X47045Y-48263D01*
X46969Y-48149D01*
X46931Y-48073D01*
X46893Y-47959D01*
X46854Y-47768D01*
X46854Y-47616D01*
X46893Y-47425D01*
X46931Y-47311D01*
X46969Y-47235D01*
X47045Y-47121D01*
X47083Y-47083D01*
X47768Y-47197D02*
X47387Y-47197D01*
X47349Y-47578D01*
X47387Y-47540D01*
X47464Y-47502D01*
X47654Y-47502D01*
X47730Y-47540D01*
X47768Y-47578D01*
X47807Y-47654D01*
X47807Y-47844D01*
X47768Y-47921D01*
X47730Y-47959D01*
X47654Y-47997D01*
X47464Y-47997D01*
X47387Y-47959D01*
X47349Y-47921D01*
X48302Y-47197D02*
X48378Y-47197D01*
X48454Y-47235D01*
X48492Y-47273D01*
X48530Y-47349D01*
X48569Y-47502D01*
X48569Y-47692D01*
X48530Y-47844D01*
X48492Y-47921D01*
X48454Y-47959D01*
X48378Y-47997D01*
X48302Y-47997D01*
X48226Y-47959D01*
X48188Y-47921D01*
X48149Y-47844D01*
X48111Y-47692D01*
X48111Y-47502D01*
X48149Y-47349D01*
X48188Y-47273D01*
X48226Y-47235D01*
X48302Y-47197D01*
X48873Y-47273D02*
X48911Y-47235D01*
X48988Y-47197D01*
X49178Y-47197D01*
X49254Y-47235D01*
X49292Y-47273D01*
X49331Y-47349D01*
X49331Y-47425D01*
X49292Y-47540D01*
X48835Y-47997D01*
X49331Y-47997D01*
X50283Y-47997D02*
X50283Y-47197D01*
X50626Y-47997D02*
X50626Y-47578D01*
X50588Y-47502D01*
X50512Y-47463D01*
X50398Y-47463D01*
X50322Y-47502D01*
X50283Y-47540D01*
X51122Y-47997D02*
X51046Y-47959D01*
X51007Y-47921D01*
X50969Y-47844D01*
X50969Y-47616D01*
X51007Y-47540D01*
X51046Y-47502D01*
X51122Y-47463D01*
X51236Y-47463D01*
X51312Y-47502D01*
X51350Y-47540D01*
X51388Y-47616D01*
X51388Y-47844D01*
X51350Y-47921D01*
X51312Y-47959D01*
X51236Y-47997D01*
X51122Y-47997D01*
X51846Y-47997D02*
X51770Y-47959D01*
X51731Y-47883D01*
X51731Y-47197D01*
X52455Y-47959D02*
X52379Y-47997D01*
X52227Y-47997D01*
X52150Y-47959D01*
X52112Y-47883D01*
X52112Y-47578D01*
X52150Y-47502D01*
X52227Y-47463D01*
X52379Y-47463D01*
X52455Y-47502D01*
X52493Y-47578D01*
X52493Y-47654D01*
X52112Y-47730D01*
X52798Y-47959D02*
X52875Y-47997D01*
X53027Y-47997D01*
X53103Y-47959D01*
X53141Y-47883D01*
X53141Y-47844D01*
X53103Y-47768D01*
X53027Y-47730D01*
X52913Y-47730D01*
X52836Y-47692D01*
X52798Y-47616D01*
X52798Y-47578D01*
X52836Y-47502D01*
X52913Y-47463D01*
X53027Y-47463D01*
X53103Y-47502D01*
X53408Y-48302D02*
X53446Y-48263D01*
X53523Y-48149D01*
X53561Y-48073D01*
X53599Y-47959D01*
X53637Y-47768D01*
X53637Y-47616D01*
X53599Y-47425D01*
X53561Y-47311D01*
X53523Y-47235D01*
X53446Y-47121D01*
X53408Y-47083D01*
G54D10*
X34956Y-48729D02*
X34953Y-48755D01*
X34945Y-48781D01*
X34932Y-48805D01*
X34915Y-48826D01*
X34895Y-48843D01*
X34871Y-48856D01*
X34845Y-48864D01*
X34818Y-48866D01*
X34793Y-48864D01*
X34767Y-48856D01*
X34743Y-48844D01*
X34722Y-48827D01*
X34705Y-48806D01*
X34692Y-48783D01*
X34684Y-48757D01*
X34681Y-48730D01*
X34683Y-48705D01*
X34690Y-48679D01*
X34703Y-48655D01*
X34719Y-48634D01*
X34740Y-48616D01*
X34763Y-48603D01*
X34789Y-48595D01*
X34816Y-48592D01*
X34841Y-48594D01*
X34867Y-48601D01*
X34891Y-48613D01*
X34913Y-48630D01*
X34930Y-48650D01*
X34944Y-48673D01*
X34952Y-48699D01*
X34955Y-48726D01*
X34956Y-48729D01*
G54D11*
X35499Y-48253D02*
X35575Y-48253D01*
X35651Y-48291D01*
X35689Y-48329D01*
X35727Y-48405D01*
X35766Y-48558D01*
X35766Y-48748D01*
X35727Y-48900D01*
X35689Y-48977D01*
X35651Y-49015D01*
X35575Y-49053D01*
X35499Y-49053D01*
X35423Y-49015D01*
X35385Y-48977D01*
X35346Y-48900D01*
X35308Y-48748D01*
X35308Y-48558D01*
X35346Y-48405D01*
X35385Y-48329D01*
X35423Y-48291D01*
X35499Y-48253D01*
X36108Y-48977D02*
X36147Y-49015D01*
X36108Y-49053D01*
X36070Y-49015D01*
X36108Y-48977D01*
X36108Y-49053D01*
X36413Y-48253D02*
X36947Y-48253D01*
X36604Y-49053D01*
X37404Y-48253D02*
X37480Y-48253D01*
X37556Y-48291D01*
X37594Y-48329D01*
X37632Y-48405D01*
X37671Y-48558D01*
X37671Y-48748D01*
X37632Y-48900D01*
X37594Y-48977D01*
X37556Y-49015D01*
X37480Y-49053D01*
X37404Y-49053D01*
X37328Y-49015D01*
X37290Y-48977D01*
X37251Y-48900D01*
X37213Y-48748D01*
X37213Y-48558D01*
X37251Y-48405D01*
X37290Y-48329D01*
X37328Y-48291D01*
X37404Y-48253D01*
X38013Y-49053D02*
X38013Y-48519D01*
X38013Y-48596D02*
X38052Y-48558D01*
X38128Y-48519D01*
X38242Y-48519D01*
X38318Y-48558D01*
X38356Y-48634D01*
X38356Y-49053D01*
X38356Y-48634D02*
X38394Y-48558D01*
X38471Y-48519D01*
X38585Y-48519D01*
X38661Y-48558D01*
X38699Y-48634D01*
X38699Y-49053D01*
X39080Y-49053D02*
X39080Y-48519D01*
X39080Y-48596D02*
X39119Y-48558D01*
X39195Y-48519D01*
X39309Y-48519D01*
X39385Y-48558D01*
X39423Y-48634D01*
X39423Y-49053D01*
X39423Y-48634D02*
X39461Y-48558D01*
X39538Y-48519D01*
X39652Y-48519D01*
X39728Y-48558D01*
X39766Y-48634D01*
X39766Y-49053D01*
X41329Y-48215D02*
X40643Y-49243D01*
X42358Y-48253D02*
X42434Y-48253D01*
X42510Y-48291D01*
X42548Y-48329D01*
X42586Y-48405D01*
X42625Y-48558D01*
X42625Y-48748D01*
X42586Y-48900D01*
X42548Y-48977D01*
X42510Y-49015D01*
X42434Y-49053D01*
X42358Y-49053D01*
X42282Y-49015D01*
X42244Y-48977D01*
X42205Y-48900D01*
X42167Y-48748D01*
X42167Y-48558D01*
X42205Y-48405D01*
X42244Y-48329D01*
X42282Y-48291D01*
X42358Y-48253D01*
X42967Y-48977D02*
X43006Y-49015D01*
X42967Y-49053D01*
X42929Y-49015D01*
X42967Y-48977D01*
X42967Y-49053D01*
X43501Y-48253D02*
X43577Y-48253D01*
X43653Y-48291D01*
X43691Y-48329D01*
X43729Y-48405D01*
X43768Y-48558D01*
X43768Y-48748D01*
X43729Y-48900D01*
X43691Y-48977D01*
X43653Y-49015D01*
X43577Y-49053D01*
X43501Y-49053D01*
X43425Y-49015D01*
X43387Y-48977D01*
X43348Y-48900D01*
X43310Y-48748D01*
X43310Y-48558D01*
X43348Y-48405D01*
X43387Y-48329D01*
X43425Y-48291D01*
X43501Y-48253D01*
X44072Y-48329D02*
X44110Y-48291D01*
X44187Y-48253D01*
X44377Y-48253D01*
X44453Y-48291D01*
X44491Y-48329D01*
X44530Y-48405D01*
X44530Y-48481D01*
X44491Y-48596D01*
X44034Y-49053D01*
X44530Y-49053D01*
X44987Y-48596D02*
X44911Y-48558D01*
X44872Y-48519D01*
X44834Y-48443D01*
X44834Y-48405D01*
X44872Y-48329D01*
X44911Y-48291D01*
X44987Y-48253D01*
X45139Y-48253D01*
X45215Y-48291D01*
X45253Y-48329D01*
X45292Y-48405D01*
X45292Y-48443D01*
X45253Y-48519D01*
X45215Y-48558D01*
X45139Y-48596D01*
X44987Y-48596D01*
X44911Y-48634D01*
X44872Y-48672D01*
X44834Y-48748D01*
X44834Y-48900D01*
X44872Y-48977D01*
X44911Y-49015D01*
X44987Y-49053D01*
X45139Y-49053D01*
X45215Y-49015D01*
X45253Y-48977D01*
X45292Y-48900D01*
X45292Y-48748D01*
X45253Y-48672D01*
X45215Y-48634D01*
X45139Y-48596D01*
X45596Y-48253D02*
X45596Y-48405D01*
X45901Y-48253D02*
X45901Y-48405D01*
X47083Y-49358D02*
X47045Y-49319D01*
X46969Y-49205D01*
X46931Y-49129D01*
X46893Y-49015D01*
X46854Y-48824D01*
X46854Y-48672D01*
X46893Y-48481D01*
X46931Y-48367D01*
X46969Y-48291D01*
X47045Y-48177D01*
X47083Y-48139D01*
X47349Y-48329D02*
X47387Y-48291D01*
X47464Y-48253D01*
X47654Y-48253D01*
X47730Y-48291D01*
X47768Y-48329D01*
X47807Y-48405D01*
X47807Y-48481D01*
X47768Y-48596D01*
X47311Y-49053D01*
X47807Y-49053D01*
X48759Y-49053D02*
X48759Y-48253D01*
X49102Y-49053D02*
X49102Y-48634D01*
X49064Y-48558D01*
X48988Y-48519D01*
X48874Y-48519D01*
X48798Y-48558D01*
X48759Y-48596D01*
X49598Y-49053D02*
X49522Y-49015D01*
X49483Y-48977D01*
X49445Y-48900D01*
X49445Y-48672D01*
X49483Y-48596D01*
X49522Y-48558D01*
X49598Y-48519D01*
X49712Y-48519D01*
X49788Y-48558D01*
X49826Y-48596D01*
X49864Y-48672D01*
X49864Y-48900D01*
X49826Y-48977D01*
X49788Y-49015D01*
X49712Y-49053D01*
X49598Y-49053D01*
X50322Y-49053D02*
X50246Y-49015D01*
X50207Y-48939D01*
X50207Y-48253D01*
X50931Y-49015D02*
X50855Y-49053D01*
X50703Y-49053D01*
X50626Y-49015D01*
X50588Y-48939D01*
X50588Y-48634D01*
X50626Y-48558D01*
X50703Y-48519D01*
X50855Y-48519D01*
X50931Y-48558D01*
X50969Y-48634D01*
X50969Y-48710D01*
X50588Y-48786D01*
X51274Y-49015D02*
X51351Y-49053D01*
X51503Y-49053D01*
X51579Y-49015D01*
X51617Y-48939D01*
X51617Y-48900D01*
X51579Y-48824D01*
X51503Y-48786D01*
X51389Y-48786D01*
X51312Y-48748D01*
X51274Y-48672D01*
X51274Y-48634D01*
X51312Y-48558D01*
X51389Y-48519D01*
X51503Y-48519D01*
X51579Y-48558D01*
X51884Y-49358D02*
X51922Y-49319D01*
X51999Y-49205D01*
X52037Y-49129D01*
X52075Y-49015D01*
X52113Y-48824D01*
X52113Y-48672D01*
X52075Y-48481D01*
X52037Y-48367D01*
X51999Y-48291D01*
X51922Y-48177D01*
X51884Y-48139D01*
X34798Y-49628D02*
X34798Y-49942D01*
X34955Y-49785D02*
X34641Y-49785D01*
X35499Y-49309D02*
X35575Y-49309D01*
X35651Y-49347D01*
X35689Y-49385D01*
X35727Y-49461D01*
X35766Y-49614D01*
X35766Y-49804D01*
X35727Y-49956D01*
X35689Y-50033D01*
X35651Y-50071D01*
X35575Y-50109D01*
X35499Y-50109D01*
X35423Y-50071D01*
X35385Y-50033D01*
X35346Y-49956D01*
X35308Y-49804D01*
X35308Y-49614D01*
X35346Y-49461D01*
X35385Y-49385D01*
X35423Y-49347D01*
X35499Y-49309D01*
X36108Y-50033D02*
X36147Y-50071D01*
X36108Y-50109D01*
X36070Y-50071D01*
X36108Y-50033D01*
X36108Y-50109D01*
X36604Y-49652D02*
X36528Y-49614D01*
X36489Y-49575D01*
X36451Y-49499D01*
X36451Y-49461D01*
X36489Y-49385D01*
X36528Y-49347D01*
X36604Y-49309D01*
X36756Y-49309D01*
X36832Y-49347D01*
X36870Y-49385D01*
X36909Y-49461D01*
X36909Y-49499D01*
X36870Y-49575D01*
X36832Y-49614D01*
X36756Y-49652D01*
X36604Y-49652D01*
X36528Y-49690D01*
X36489Y-49728D01*
X36451Y-49804D01*
X36451Y-49956D01*
X36489Y-50033D01*
X36528Y-50071D01*
X36604Y-50109D01*
X36756Y-50109D01*
X36832Y-50071D01*
X36870Y-50033D01*
X36909Y-49956D01*
X36909Y-49804D01*
X36870Y-49728D01*
X36832Y-49690D01*
X36756Y-49652D01*
X37404Y-49309D02*
X37480Y-49309D01*
X37556Y-49347D01*
X37594Y-49385D01*
X37632Y-49461D01*
X37671Y-49614D01*
X37671Y-49804D01*
X37632Y-49956D01*
X37594Y-50033D01*
X37556Y-50071D01*
X37480Y-50109D01*
X37404Y-50109D01*
X37328Y-50071D01*
X37290Y-50033D01*
X37251Y-49956D01*
X37213Y-49804D01*
X37213Y-49614D01*
X37251Y-49461D01*
X37290Y-49385D01*
X37328Y-49347D01*
X37404Y-49309D01*
X38013Y-50109D02*
X38013Y-49575D01*
X38013Y-49652D02*
X38052Y-49614D01*
X38128Y-49575D01*
X38242Y-49575D01*
X38318Y-49614D01*
X38356Y-49690D01*
X38356Y-50109D01*
X38356Y-49690D02*
X38394Y-49614D01*
X38471Y-49575D01*
X38585Y-49575D01*
X38661Y-49614D01*
X38699Y-49690D01*
X38699Y-50109D01*
X39080Y-50109D02*
X39080Y-49575D01*
X39080Y-49652D02*
X39119Y-49614D01*
X39195Y-49575D01*
X39309Y-49575D01*
X39385Y-49614D01*
X39423Y-49690D01*
X39423Y-50109D01*
X39423Y-49690D02*
X39461Y-49614D01*
X39538Y-49575D01*
X39652Y-49575D01*
X39728Y-49614D01*
X39766Y-49690D01*
X39766Y-50109D01*
X41329Y-49271D02*
X40643Y-50299D01*
X42358Y-49309D02*
X42434Y-49309D01*
X42510Y-49347D01*
X42548Y-49385D01*
X42586Y-49461D01*
X42625Y-49614D01*
X42625Y-49804D01*
X42586Y-49956D01*
X42548Y-50033D01*
X42510Y-50071D01*
X42434Y-50109D01*
X42358Y-50109D01*
X42282Y-50071D01*
X42244Y-50033D01*
X42205Y-49956D01*
X42167Y-49804D01*
X42167Y-49614D01*
X42205Y-49461D01*
X42244Y-49385D01*
X42282Y-49347D01*
X42358Y-49309D01*
X42967Y-50033D02*
X43006Y-50071D01*
X42967Y-50109D01*
X42929Y-50071D01*
X42967Y-50033D01*
X42967Y-50109D01*
X43501Y-49309D02*
X43577Y-49309D01*
X43653Y-49347D01*
X43691Y-49385D01*
X43729Y-49461D01*
X43768Y-49614D01*
X43768Y-49804D01*
X43729Y-49956D01*
X43691Y-50033D01*
X43653Y-50071D01*
X43577Y-50109D01*
X43501Y-50109D01*
X43425Y-50071D01*
X43387Y-50033D01*
X43348Y-49956D01*
X43310Y-49804D01*
X43310Y-49614D01*
X43348Y-49461D01*
X43387Y-49385D01*
X43425Y-49347D01*
X43501Y-49309D01*
X44034Y-49309D02*
X44530Y-49309D01*
X44263Y-49614D01*
X44377Y-49614D01*
X44453Y-49652D01*
X44491Y-49690D01*
X44530Y-49766D01*
X44530Y-49956D01*
X44491Y-50033D01*
X44453Y-50071D01*
X44377Y-50109D01*
X44149Y-50109D01*
X44072Y-50071D01*
X44034Y-50033D01*
X44834Y-49385D02*
X44872Y-49347D01*
X44949Y-49309D01*
X45139Y-49309D01*
X45215Y-49347D01*
X45253Y-49385D01*
X45292Y-49461D01*
X45292Y-49537D01*
X45253Y-49652D01*
X44796Y-50109D01*
X45292Y-50109D01*
X45596Y-49309D02*
X45596Y-49461D01*
X45901Y-49309D02*
X45901Y-49461D01*
X47083Y-50414D02*
X47045Y-50375D01*
X46969Y-50261D01*
X46931Y-50185D01*
X46893Y-50071D01*
X46854Y-49880D01*
X46854Y-49728D01*
X46893Y-49537D01*
X46931Y-49423D01*
X46969Y-49347D01*
X47045Y-49233D01*
X47083Y-49195D01*
X47768Y-49309D02*
X47387Y-49309D01*
X47349Y-49690D01*
X47387Y-49652D01*
X47464Y-49614D01*
X47654Y-49614D01*
X47730Y-49652D01*
X47768Y-49690D01*
X47807Y-49766D01*
X47807Y-49956D01*
X47768Y-50033D01*
X47730Y-50071D01*
X47654Y-50109D01*
X47464Y-50109D01*
X47387Y-50071D01*
X47349Y-50033D01*
X48759Y-50109D02*
X48759Y-49309D01*
X49102Y-50109D02*
X49102Y-49690D01*
X49064Y-49614D01*
X48988Y-49575D01*
X48874Y-49575D01*
X48798Y-49614D01*
X48759Y-49652D01*
X49598Y-50109D02*
X49522Y-50071D01*
X49483Y-50033D01*
X49445Y-49956D01*
X49445Y-49728D01*
X49483Y-49652D01*
X49522Y-49614D01*
X49598Y-49575D01*
X49712Y-49575D01*
X49788Y-49614D01*
X49826Y-49652D01*
X49864Y-49728D01*
X49864Y-49956D01*
X49826Y-50033D01*
X49788Y-50071D01*
X49712Y-50109D01*
X49598Y-50109D01*
X50322Y-50109D02*
X50246Y-50071D01*
X50207Y-49995D01*
X50207Y-49309D01*
X50931Y-50071D02*
X50855Y-50109D01*
X50703Y-50109D01*
X50626Y-50071D01*
X50588Y-49995D01*
X50588Y-49690D01*
X50626Y-49614D01*
X50703Y-49575D01*
X50855Y-49575D01*
X50931Y-49614D01*
X50969Y-49690D01*
X50969Y-49766D01*
X50588Y-49842D01*
X51274Y-50071D02*
X51351Y-50109D01*
X51503Y-50109D01*
X51579Y-50071D01*
X51617Y-49995D01*
X51617Y-49956D01*
X51579Y-49880D01*
X51503Y-49842D01*
X51389Y-49842D01*
X51312Y-49804D01*
X51274Y-49728D01*
X51274Y-49690D01*
X51312Y-49614D01*
X51389Y-49575D01*
X51503Y-49575D01*
X51579Y-49614D01*
X51884Y-50414D02*
X51922Y-50375D01*
X51999Y-50261D01*
X52037Y-50185D01*
X52075Y-50071D01*
X52113Y-49880D01*
X52113Y-49728D01*
X52075Y-49537D01*
X52037Y-49423D01*
X51999Y-49347D01*
X51922Y-49233D01*
X51884Y-49195D01*
G54D10*
X34956Y-50841D02*
X34952Y-50874D01*
X34942Y-50907D01*
X34926Y-50937D01*
X34905Y-50964D01*
X34878Y-50986D01*
X34848Y-51002D01*
X34816Y-51012D01*
X34782Y-51015D01*
X34749Y-51012D01*
X34716Y-51003D01*
X34686Y-50987D01*
X34659Y-50966D01*
X34637Y-50939D01*
X34621Y-50909D01*
X34610Y-50877D01*
X34607Y-50843D01*
X34609Y-50810D01*
X34619Y-50777D01*
X34634Y-50747D01*
X34656Y-50720D01*
X34682Y-50698D01*
X34711Y-50681D01*
X34744Y-50671D01*
X34778Y-50667D01*
X34811Y-50669D01*
X34844Y-50678D01*
X34874Y-50694D01*
X34901Y-50715D01*
X34924Y-50741D01*
X34940Y-50770D01*
X34951Y-50803D01*
X34955Y-50837D01*
X34956Y-50841D01*
X34606Y-50666D02*
X34956Y-51016D01*
X34956Y-50666D02*
X34606Y-51016D01*
G54D11*
X35499Y-50365D02*
X35575Y-50365D01*
X35651Y-50403D01*
X35689Y-50441D01*
X35727Y-50517D01*
X35766Y-50670D01*
X35766Y-50860D01*
X35727Y-51012D01*
X35689Y-51089D01*
X35651Y-51127D01*
X35575Y-51165D01*
X35499Y-51165D01*
X35423Y-51127D01*
X35385Y-51089D01*
X35346Y-51012D01*
X35308Y-50860D01*
X35308Y-50670D01*
X35346Y-50517D01*
X35385Y-50441D01*
X35423Y-50403D01*
X35499Y-50365D01*
X36108Y-51089D02*
X36147Y-51127D01*
X36108Y-51165D01*
X36070Y-51127D01*
X36108Y-51089D01*
X36108Y-51165D01*
X36604Y-50708D02*
X36528Y-50670D01*
X36489Y-50631D01*
X36451Y-50555D01*
X36451Y-50517D01*
X36489Y-50441D01*
X36528Y-50403D01*
X36604Y-50365D01*
X36756Y-50365D01*
X36832Y-50403D01*
X36870Y-50441D01*
X36909Y-50517D01*
X36909Y-50555D01*
X36870Y-50631D01*
X36832Y-50670D01*
X36756Y-50708D01*
X36604Y-50708D01*
X36528Y-50746D01*
X36489Y-50784D01*
X36451Y-50860D01*
X36451Y-51012D01*
X36489Y-51089D01*
X36528Y-51127D01*
X36604Y-51165D01*
X36756Y-51165D01*
X36832Y-51127D01*
X36870Y-51089D01*
X36909Y-51012D01*
X36909Y-50860D01*
X36870Y-50784D01*
X36832Y-50746D01*
X36756Y-50708D01*
X37290Y-51165D02*
X37442Y-51165D01*
X37518Y-51127D01*
X37556Y-51089D01*
X37632Y-50974D01*
X37671Y-50822D01*
X37671Y-50517D01*
X37632Y-50441D01*
X37594Y-50403D01*
X37518Y-50365D01*
X37366Y-50365D01*
X37290Y-50403D01*
X37251Y-50441D01*
X37213Y-50517D01*
X37213Y-50708D01*
X37251Y-50784D01*
X37290Y-50822D01*
X37366Y-50860D01*
X37518Y-50860D01*
X37594Y-50822D01*
X37632Y-50784D01*
X37671Y-50708D01*
X38013Y-51165D02*
X38013Y-50631D01*
X38013Y-50708D02*
X38052Y-50670D01*
X38128Y-50631D01*
X38242Y-50631D01*
X38318Y-50670D01*
X38356Y-50746D01*
X38356Y-51165D01*
X38356Y-50746D02*
X38394Y-50670D01*
X38471Y-50631D01*
X38585Y-50631D01*
X38661Y-50670D01*
X38699Y-50746D01*
X38699Y-51165D01*
X39080Y-51165D02*
X39080Y-50631D01*
X39080Y-50708D02*
X39119Y-50670D01*
X39195Y-50631D01*
X39309Y-50631D01*
X39385Y-50670D01*
X39423Y-50746D01*
X39423Y-51165D01*
X39423Y-50746D02*
X39461Y-50670D01*
X39538Y-50631D01*
X39652Y-50631D01*
X39728Y-50670D01*
X39766Y-50746D01*
X39766Y-51165D01*
X41329Y-50327D02*
X40643Y-51355D01*
X42358Y-50365D02*
X42434Y-50365D01*
X42510Y-50403D01*
X42548Y-50441D01*
X42586Y-50517D01*
X42625Y-50670D01*
X42625Y-50860D01*
X42586Y-51012D01*
X42548Y-51089D01*
X42510Y-51127D01*
X42434Y-51165D01*
X42358Y-51165D01*
X42282Y-51127D01*
X42244Y-51089D01*
X42205Y-51012D01*
X42167Y-50860D01*
X42167Y-50670D01*
X42205Y-50517D01*
X42244Y-50441D01*
X42282Y-50403D01*
X42358Y-50365D01*
X42967Y-51089D02*
X43006Y-51127D01*
X42967Y-51165D01*
X42929Y-51127D01*
X42967Y-51089D01*
X42967Y-51165D01*
X43501Y-50365D02*
X43577Y-50365D01*
X43653Y-50403D01*
X43691Y-50441D01*
X43729Y-50517D01*
X43768Y-50670D01*
X43768Y-50860D01*
X43729Y-51012D01*
X43691Y-51089D01*
X43653Y-51127D01*
X43577Y-51165D01*
X43501Y-51165D01*
X43425Y-51127D01*
X43387Y-51089D01*
X43348Y-51012D01*
X43310Y-50860D01*
X43310Y-50670D01*
X43348Y-50517D01*
X43387Y-50441D01*
X43425Y-50403D01*
X43501Y-50365D01*
X44034Y-50365D02*
X44530Y-50365D01*
X44263Y-50670D01*
X44377Y-50670D01*
X44453Y-50708D01*
X44491Y-50746D01*
X44530Y-50822D01*
X44530Y-51012D01*
X44491Y-51089D01*
X44453Y-51127D01*
X44377Y-51165D01*
X44149Y-51165D01*
X44072Y-51127D01*
X44034Y-51089D01*
X45253Y-50365D02*
X44872Y-50365D01*
X44834Y-50746D01*
X44872Y-50708D01*
X44949Y-50670D01*
X45139Y-50670D01*
X45215Y-50708D01*
X45253Y-50746D01*
X45292Y-50822D01*
X45292Y-51012D01*
X45253Y-51089D01*
X45215Y-51127D01*
X45139Y-51165D01*
X44949Y-51165D01*
X44872Y-51127D01*
X44834Y-51089D01*
X45596Y-50365D02*
X45596Y-50517D01*
X45901Y-50365D02*
X45901Y-50517D01*
X47083Y-51470D02*
X47045Y-51431D01*
X46969Y-51317D01*
X46931Y-51241D01*
X46893Y-51127D01*
X46854Y-50936D01*
X46854Y-50784D01*
X46893Y-50593D01*
X46931Y-50479D01*
X46969Y-50403D01*
X47045Y-50289D01*
X47083Y-50251D01*
X47807Y-51165D02*
X47349Y-51165D01*
X47578Y-51165D02*
X47578Y-50365D01*
X47502Y-50479D01*
X47426Y-50555D01*
X47349Y-50593D01*
X48569Y-51165D02*
X48111Y-51165D01*
X48340Y-51165D02*
X48340Y-50365D01*
X48264Y-50479D01*
X48188Y-50555D01*
X48111Y-50593D01*
X49521Y-51165D02*
X49521Y-50365D01*
X49864Y-51165D02*
X49864Y-50746D01*
X49826Y-50670D01*
X49750Y-50631D01*
X49636Y-50631D01*
X49560Y-50670D01*
X49521Y-50708D01*
X50360Y-51165D02*
X50284Y-51127D01*
X50245Y-51089D01*
X50207Y-51012D01*
X50207Y-50784D01*
X50245Y-50708D01*
X50284Y-50670D01*
X50360Y-50631D01*
X50474Y-50631D01*
X50550Y-50670D01*
X50588Y-50708D01*
X50626Y-50784D01*
X50626Y-51012D01*
X50588Y-51089D01*
X50550Y-51127D01*
X50474Y-51165D01*
X50360Y-51165D01*
X51084Y-51165D02*
X51008Y-51127D01*
X50969Y-51051D01*
X50969Y-50365D01*
X51693Y-51127D02*
X51617Y-51165D01*
X51465Y-51165D01*
X51388Y-51127D01*
X51350Y-51051D01*
X51350Y-50746D01*
X51388Y-50670D01*
X51465Y-50631D01*
X51617Y-50631D01*
X51693Y-50670D01*
X51731Y-50746D01*
X51731Y-50822D01*
X51350Y-50898D01*
X52036Y-51127D02*
X52113Y-51165D01*
X52265Y-51165D01*
X52341Y-51127D01*
X52379Y-51051D01*
X52379Y-51012D01*
X52341Y-50936D01*
X52265Y-50898D01*
X52151Y-50898D01*
X52074Y-50860D01*
X52036Y-50784D01*
X52036Y-50746D01*
X52074Y-50670D01*
X52151Y-50631D01*
X52265Y-50631D01*
X52341Y-50670D01*
X52646Y-51470D02*
X52684Y-51431D01*
X52761Y-51317D01*
X52799Y-51241D01*
X52837Y-51127D01*
X52875Y-50936D01*
X52875Y-50784D01*
X52837Y-50593D01*
X52799Y-50479D01*
X52761Y-50403D01*
X52684Y-50289D01*
X52646Y-50251D01*
G54D10*
X34956Y-51897D02*
X34952Y-51931D01*
X34942Y-51964D01*
X34926Y-51994D01*
X34904Y-52021D01*
X34877Y-52043D01*
X34847Y-52060D01*
X34814Y-52070D01*
X34780Y-52073D01*
X34746Y-52070D01*
X34713Y-52061D01*
X34683Y-52045D01*
X34656Y-52023D01*
X34633Y-51996D01*
X34617Y-51966D01*
X34606Y-51933D01*
X34603Y-51899D01*
X34605Y-51866D01*
X34615Y-51832D01*
X34631Y-51802D01*
X34652Y-51775D01*
X34678Y-51752D01*
X34709Y-51735D01*
X34741Y-51725D01*
X34776Y-51721D01*
X34809Y-51723D01*
X34843Y-51732D01*
X34873Y-51748D01*
X34901Y-51769D01*
X34923Y-51795D01*
X34940Y-51826D01*
X34951Y-51858D01*
X34955Y-51893D01*
X34956Y-51897D01*
X34602Y-51897D02*
X34956Y-51897D01*
G54D11*
X35499Y-51421D02*
X35575Y-51421D01*
X35651Y-51459D01*
X35689Y-51497D01*
X35727Y-51573D01*
X35766Y-51726D01*
X35766Y-51916D01*
X35727Y-52068D01*
X35689Y-52145D01*
X35651Y-52183D01*
X35575Y-52221D01*
X35499Y-52221D01*
X35423Y-52183D01*
X35385Y-52145D01*
X35346Y-52068D01*
X35308Y-51916D01*
X35308Y-51726D01*
X35346Y-51573D01*
X35385Y-51497D01*
X35423Y-51459D01*
X35499Y-51421D01*
X36108Y-52145D02*
X36147Y-52183D01*
X36108Y-52221D01*
X36070Y-52183D01*
X36108Y-52145D01*
X36108Y-52221D01*
X36528Y-52221D02*
X36680Y-52221D01*
X36756Y-52183D01*
X36794Y-52145D01*
X36870Y-52030D01*
X36909Y-51878D01*
X36909Y-51573D01*
X36870Y-51497D01*
X36832Y-51459D01*
X36756Y-51421D01*
X36604Y-51421D01*
X36528Y-51459D01*
X36489Y-51497D01*
X36451Y-51573D01*
X36451Y-51764D01*
X36489Y-51840D01*
X36528Y-51878D01*
X36604Y-51916D01*
X36756Y-51916D01*
X36832Y-51878D01*
X36870Y-51840D01*
X36909Y-51764D01*
X37404Y-51421D02*
X37480Y-51421D01*
X37556Y-51459D01*
X37594Y-51497D01*
X37632Y-51573D01*
X37671Y-51726D01*
X37671Y-51916D01*
X37632Y-52068D01*
X37594Y-52145D01*
X37556Y-52183D01*
X37480Y-52221D01*
X37404Y-52221D01*
X37328Y-52183D01*
X37290Y-52145D01*
X37251Y-52068D01*
X37213Y-51916D01*
X37213Y-51726D01*
X37251Y-51573D01*
X37290Y-51497D01*
X37328Y-51459D01*
X37404Y-51421D01*
X38013Y-52221D02*
X38013Y-51687D01*
X38013Y-51764D02*
X38052Y-51726D01*
X38128Y-51687D01*
X38242Y-51687D01*
X38318Y-51726D01*
X38356Y-51802D01*
X38356Y-52221D01*
X38356Y-51802D02*
X38394Y-51726D01*
X38471Y-51687D01*
X38585Y-51687D01*
X38661Y-51726D01*
X38699Y-51802D01*
X38699Y-52221D01*
X39080Y-52221D02*
X39080Y-51687D01*
X39080Y-51764D02*
X39119Y-51726D01*
X39195Y-51687D01*
X39309Y-51687D01*
X39385Y-51726D01*
X39423Y-51802D01*
X39423Y-52221D01*
X39423Y-51802D02*
X39461Y-51726D01*
X39538Y-51687D01*
X39652Y-51687D01*
X39728Y-51726D01*
X39766Y-51802D01*
X39766Y-52221D01*
X41329Y-51383D02*
X40643Y-52411D01*
X42358Y-51421D02*
X42434Y-51421D01*
X42510Y-51459D01*
X42548Y-51497D01*
X42586Y-51573D01*
X42625Y-51726D01*
X42625Y-51916D01*
X42586Y-52068D01*
X42548Y-52145D01*
X42510Y-52183D01*
X42434Y-52221D01*
X42358Y-52221D01*
X42282Y-52183D01*
X42244Y-52145D01*
X42205Y-52068D01*
X42167Y-51916D01*
X42167Y-51726D01*
X42205Y-51573D01*
X42244Y-51497D01*
X42282Y-51459D01*
X42358Y-51421D01*
X42967Y-52145D02*
X43006Y-52183D01*
X42967Y-52221D01*
X42929Y-52183D01*
X42967Y-52145D01*
X42967Y-52221D01*
X43501Y-51421D02*
X43577Y-51421D01*
X43653Y-51459D01*
X43691Y-51497D01*
X43729Y-51573D01*
X43768Y-51726D01*
X43768Y-51916D01*
X43729Y-52068D01*
X43691Y-52145D01*
X43653Y-52183D01*
X43577Y-52221D01*
X43501Y-52221D01*
X43425Y-52183D01*
X43387Y-52145D01*
X43348Y-52068D01*
X43310Y-51916D01*
X43310Y-51726D01*
X43348Y-51573D01*
X43387Y-51497D01*
X43425Y-51459D01*
X43501Y-51421D01*
X44034Y-51421D02*
X44530Y-51421D01*
X44263Y-51726D01*
X44377Y-51726D01*
X44453Y-51764D01*
X44491Y-51802D01*
X44530Y-51878D01*
X44530Y-52068D01*
X44491Y-52145D01*
X44453Y-52183D01*
X44377Y-52221D01*
X44149Y-52221D01*
X44072Y-52183D01*
X44034Y-52145D01*
X45253Y-51421D02*
X44872Y-51421D01*
X44834Y-51802D01*
X44872Y-51764D01*
X44949Y-51726D01*
X45139Y-51726D01*
X45215Y-51764D01*
X45253Y-51802D01*
X45292Y-51878D01*
X45292Y-52068D01*
X45253Y-52145D01*
X45215Y-52183D01*
X45139Y-52221D01*
X44949Y-52221D01*
X44872Y-52183D01*
X44834Y-52145D01*
X45596Y-51421D02*
X45596Y-51573D01*
X45901Y-51421D02*
X45901Y-51573D01*
X47083Y-52526D02*
X47045Y-52487D01*
X46969Y-52373D01*
X46931Y-52297D01*
X46893Y-52183D01*
X46854Y-51992D01*
X46854Y-51840D01*
X46893Y-51649D01*
X46931Y-51535D01*
X46969Y-51459D01*
X47045Y-51345D01*
X47083Y-51307D01*
X47807Y-52221D02*
X47349Y-52221D01*
X47578Y-52221D02*
X47578Y-51421D01*
X47502Y-51535D01*
X47426Y-51611D01*
X47349Y-51649D01*
X48492Y-51687D02*
X48492Y-52221D01*
X48302Y-51383D02*
X48111Y-51954D01*
X48607Y-51954D01*
X49521Y-52221D02*
X49521Y-51421D01*
X49864Y-52221D02*
X49864Y-51802D01*
X49826Y-51726D01*
X49750Y-51687D01*
X49636Y-51687D01*
X49560Y-51726D01*
X49521Y-51764D01*
X50360Y-52221D02*
X50284Y-52183D01*
X50245Y-52145D01*
X50207Y-52068D01*
X50207Y-51840D01*
X50245Y-51764D01*
X50284Y-51726D01*
X50360Y-51687D01*
X50474Y-51687D01*
X50550Y-51726D01*
X50588Y-51764D01*
X50626Y-51840D01*
X50626Y-52068D01*
X50588Y-52145D01*
X50550Y-52183D01*
X50474Y-52221D01*
X50360Y-52221D01*
X51084Y-52221D02*
X51008Y-52183D01*
X50969Y-52107D01*
X50969Y-51421D01*
X51693Y-52183D02*
X51617Y-52221D01*
X51465Y-52221D01*
X51388Y-52183D01*
X51350Y-52107D01*
X51350Y-51802D01*
X51388Y-51726D01*
X51465Y-51687D01*
X51617Y-51687D01*
X51693Y-51726D01*
X51731Y-51802D01*
X51731Y-51878D01*
X51350Y-51954D01*
X52036Y-52183D02*
X52113Y-52221D01*
X52265Y-52221D01*
X52341Y-52183D01*
X52379Y-52107D01*
X52379Y-52068D01*
X52341Y-51992D01*
X52265Y-51954D01*
X52151Y-51954D01*
X52074Y-51916D01*
X52036Y-51840D01*
X52036Y-51802D01*
X52074Y-51726D01*
X52151Y-51687D01*
X52265Y-51687D01*
X52341Y-51726D01*
X52646Y-52526D02*
X52684Y-52487D01*
X52761Y-52373D01*
X52799Y-52297D01*
X52837Y-52183D01*
X52875Y-51992D01*
X52875Y-51840D01*
X52837Y-51649D01*
X52799Y-51535D01*
X52761Y-51459D01*
X52684Y-51345D01*
X52646Y-51307D01*
G54D10*
X34956Y-52953D02*
X34952Y-52988D01*
X34942Y-53021D01*
X34925Y-53053D01*
X34903Y-53080D01*
X34876Y-53103D01*
X34845Y-53119D01*
X34811Y-53130D01*
X34776Y-53133D01*
X34742Y-53130D01*
X34708Y-53120D01*
X34676Y-53104D01*
X34649Y-53082D01*
X34626Y-53055D01*
X34609Y-53024D01*
X34598Y-52990D01*
X34595Y-52955D01*
X34597Y-52921D01*
X34607Y-52887D01*
X34623Y-52855D01*
X34645Y-52828D01*
X34672Y-52805D01*
X34703Y-52788D01*
X34737Y-52777D01*
X34772Y-52773D01*
X34806Y-52775D01*
X34840Y-52785D01*
X34871Y-52801D01*
X34899Y-52822D01*
X34922Y-52849D01*
X34940Y-52880D01*
X34951Y-52913D01*
X34955Y-52948D01*
X34956Y-52953D01*
X34775Y-52772D02*
X34775Y-53134D01*
G54D11*
X35499Y-52477D02*
X35575Y-52477D01*
X35651Y-52515D01*
X35689Y-52553D01*
X35727Y-52629D01*
X35766Y-52782D01*
X35766Y-52972D01*
X35727Y-53124D01*
X35689Y-53201D01*
X35651Y-53239D01*
X35575Y-53277D01*
X35499Y-53277D01*
X35423Y-53239D01*
X35385Y-53201D01*
X35346Y-53124D01*
X35308Y-52972D01*
X35308Y-52782D01*
X35346Y-52629D01*
X35385Y-52553D01*
X35423Y-52515D01*
X35499Y-52477D01*
X36108Y-53201D02*
X36147Y-53239D01*
X36108Y-53277D01*
X36070Y-53239D01*
X36108Y-53201D01*
X36108Y-53277D01*
X36528Y-53277D02*
X36680Y-53277D01*
X36756Y-53239D01*
X36794Y-53201D01*
X36870Y-53086D01*
X36909Y-52934D01*
X36909Y-52629D01*
X36870Y-52553D01*
X36832Y-52515D01*
X36756Y-52477D01*
X36604Y-52477D01*
X36528Y-52515D01*
X36489Y-52553D01*
X36451Y-52629D01*
X36451Y-52820D01*
X36489Y-52896D01*
X36528Y-52934D01*
X36604Y-52972D01*
X36756Y-52972D01*
X36832Y-52934D01*
X36870Y-52896D01*
X36909Y-52820D01*
X37213Y-52553D02*
X37251Y-52515D01*
X37328Y-52477D01*
X37518Y-52477D01*
X37594Y-52515D01*
X37632Y-52553D01*
X37671Y-52629D01*
X37671Y-52705D01*
X37632Y-52820D01*
X37175Y-53277D01*
X37671Y-53277D01*
X38013Y-53277D02*
X38013Y-52743D01*
X38013Y-52820D02*
X38052Y-52782D01*
X38128Y-52743D01*
X38242Y-52743D01*
X38318Y-52782D01*
X38356Y-52858D01*
X38356Y-53277D01*
X38356Y-52858D02*
X38394Y-52782D01*
X38471Y-52743D01*
X38585Y-52743D01*
X38661Y-52782D01*
X38699Y-52858D01*
X38699Y-53277D01*
X39080Y-53277D02*
X39080Y-52743D01*
X39080Y-52820D02*
X39119Y-52782D01*
X39195Y-52743D01*
X39309Y-52743D01*
X39385Y-52782D01*
X39423Y-52858D01*
X39423Y-53277D01*
X39423Y-52858D02*
X39461Y-52782D01*
X39538Y-52743D01*
X39652Y-52743D01*
X39728Y-52782D01*
X39766Y-52858D01*
X39766Y-53277D01*
X41329Y-52439D02*
X40643Y-53467D01*
X42358Y-52477D02*
X42434Y-52477D01*
X42510Y-52515D01*
X42548Y-52553D01*
X42586Y-52629D01*
X42625Y-52782D01*
X42625Y-52972D01*
X42586Y-53124D01*
X42548Y-53201D01*
X42510Y-53239D01*
X42434Y-53277D01*
X42358Y-53277D01*
X42282Y-53239D01*
X42244Y-53201D01*
X42205Y-53124D01*
X42167Y-52972D01*
X42167Y-52782D01*
X42205Y-52629D01*
X42244Y-52553D01*
X42282Y-52515D01*
X42358Y-52477D01*
X42967Y-53201D02*
X43006Y-53239D01*
X42967Y-53277D01*
X42929Y-53239D01*
X42967Y-53201D01*
X42967Y-53277D01*
X43501Y-52477D02*
X43577Y-52477D01*
X43653Y-52515D01*
X43691Y-52553D01*
X43729Y-52629D01*
X43768Y-52782D01*
X43768Y-52972D01*
X43729Y-53124D01*
X43691Y-53201D01*
X43653Y-53239D01*
X43577Y-53277D01*
X43501Y-53277D01*
X43425Y-53239D01*
X43387Y-53201D01*
X43348Y-53124D01*
X43310Y-52972D01*
X43310Y-52782D01*
X43348Y-52629D01*
X43387Y-52553D01*
X43425Y-52515D01*
X43501Y-52477D01*
X44034Y-52477D02*
X44530Y-52477D01*
X44263Y-52782D01*
X44377Y-52782D01*
X44453Y-52820D01*
X44491Y-52858D01*
X44530Y-52934D01*
X44530Y-53124D01*
X44491Y-53201D01*
X44453Y-53239D01*
X44377Y-53277D01*
X44149Y-53277D01*
X44072Y-53239D01*
X44034Y-53201D01*
X45215Y-52477D02*
X45063Y-52477D01*
X44987Y-52515D01*
X44949Y-52553D01*
X44872Y-52667D01*
X44834Y-52820D01*
X44834Y-53124D01*
X44872Y-53201D01*
X44911Y-53239D01*
X44987Y-53277D01*
X45139Y-53277D01*
X45215Y-53239D01*
X45253Y-53201D01*
X45292Y-53124D01*
X45292Y-52934D01*
X45253Y-52858D01*
X45215Y-52820D01*
X45139Y-52782D01*
X44987Y-52782D01*
X44911Y-52820D01*
X44872Y-52858D01*
X44834Y-52934D01*
X45596Y-52477D02*
X45596Y-52629D01*
X45901Y-52477D02*
X45901Y-52629D01*
X47083Y-53582D02*
X47045Y-53543D01*
X46969Y-53429D01*
X46931Y-53353D01*
X46893Y-53239D01*
X46854Y-53048D01*
X46854Y-52896D01*
X46893Y-52705D01*
X46931Y-52591D01*
X46969Y-52515D01*
X47045Y-52401D01*
X47083Y-52363D01*
X47311Y-52477D02*
X47845Y-52477D01*
X47502Y-53277D01*
X48759Y-53277D02*
X48759Y-52477D01*
X49102Y-53277D02*
X49102Y-52858D01*
X49064Y-52782D01*
X48988Y-52743D01*
X48874Y-52743D01*
X48798Y-52782D01*
X48759Y-52820D01*
X49598Y-53277D02*
X49522Y-53239D01*
X49483Y-53201D01*
X49445Y-53124D01*
X49445Y-52896D01*
X49483Y-52820D01*
X49522Y-52782D01*
X49598Y-52743D01*
X49712Y-52743D01*
X49788Y-52782D01*
X49826Y-52820D01*
X49864Y-52896D01*
X49864Y-53124D01*
X49826Y-53201D01*
X49788Y-53239D01*
X49712Y-53277D01*
X49598Y-53277D01*
X50322Y-53277D02*
X50246Y-53239D01*
X50207Y-53163D01*
X50207Y-52477D01*
X50931Y-53239D02*
X50855Y-53277D01*
X50703Y-53277D01*
X50626Y-53239D01*
X50588Y-53163D01*
X50588Y-52858D01*
X50626Y-52782D01*
X50703Y-52743D01*
X50855Y-52743D01*
X50931Y-52782D01*
X50969Y-52858D01*
X50969Y-52934D01*
X50588Y-53010D01*
X51274Y-53239D02*
X51351Y-53277D01*
X51503Y-53277D01*
X51579Y-53239D01*
X51617Y-53163D01*
X51617Y-53124D01*
X51579Y-53048D01*
X51503Y-53010D01*
X51389Y-53010D01*
X51312Y-52972D01*
X51274Y-52896D01*
X51274Y-52858D01*
X51312Y-52782D01*
X51389Y-52743D01*
X51503Y-52743D01*
X51579Y-52782D01*
X51884Y-53582D02*
X51922Y-53543D01*
X51999Y-53429D01*
X52037Y-53353D01*
X52075Y-53239D01*
X52113Y-53048D01*
X52113Y-52896D01*
X52075Y-52705D01*
X52037Y-52591D01*
X51999Y-52515D01*
X51922Y-52401D01*
X51884Y-52363D01*
G54D10*
X34839Y-54292D02*
X34839Y-53726D01*
X34273Y-53726D01*
X34273Y-54292D01*
X34839Y-54292D01*
G54D11*
X35308Y-53609D02*
X35346Y-53571D01*
X35423Y-53533D01*
X35613Y-53533D01*
X35689Y-53571D01*
X35727Y-53609D01*
X35766Y-53685D01*
X35766Y-53761D01*
X35727Y-53876D01*
X35270Y-54333D01*
X35766Y-54333D01*
X36108Y-54257D02*
X36147Y-54295D01*
X36108Y-54333D01*
X36070Y-54295D01*
X36108Y-54257D01*
X36108Y-54333D01*
X36642Y-53533D02*
X36718Y-53533D01*
X36794Y-53571D01*
X36832Y-53609D01*
X36870Y-53685D01*
X36909Y-53838D01*
X36909Y-54028D01*
X36870Y-54180D01*
X36832Y-54257D01*
X36794Y-54295D01*
X36718Y-54333D01*
X36642Y-54333D01*
X36566Y-54295D01*
X36528Y-54257D01*
X36489Y-54180D01*
X36451Y-54028D01*
X36451Y-53838D01*
X36489Y-53685D01*
X36528Y-53609D01*
X36566Y-53571D01*
X36642Y-53533D01*
X37175Y-53533D02*
X37671Y-53533D01*
X37404Y-53838D01*
X37518Y-53838D01*
X37594Y-53876D01*
X37632Y-53914D01*
X37671Y-53990D01*
X37671Y-54180D01*
X37632Y-54257D01*
X37594Y-54295D01*
X37518Y-54333D01*
X37290Y-54333D01*
X37213Y-54295D01*
X37175Y-54257D01*
X38013Y-54333D02*
X38013Y-53799D01*
X38013Y-53876D02*
X38052Y-53838D01*
X38128Y-53799D01*
X38242Y-53799D01*
X38318Y-53838D01*
X38356Y-53914D01*
X38356Y-54333D01*
X38356Y-53914D02*
X38394Y-53838D01*
X38471Y-53799D01*
X38585Y-53799D01*
X38661Y-53838D01*
X38699Y-53914D01*
X38699Y-54333D01*
X39080Y-54333D02*
X39080Y-53799D01*
X39080Y-53876D02*
X39119Y-53838D01*
X39195Y-53799D01*
X39309Y-53799D01*
X39385Y-53838D01*
X39423Y-53914D01*
X39423Y-54333D01*
X39423Y-53914D02*
X39461Y-53838D01*
X39538Y-53799D01*
X39652Y-53799D01*
X39728Y-53838D01*
X39766Y-53914D01*
X39766Y-54333D01*
X41329Y-53495D02*
X40643Y-54523D01*
X42358Y-53533D02*
X42434Y-53533D01*
X42510Y-53571D01*
X42548Y-53609D01*
X42586Y-53685D01*
X42625Y-53838D01*
X42625Y-54028D01*
X42586Y-54180D01*
X42548Y-54257D01*
X42510Y-54295D01*
X42434Y-54333D01*
X42358Y-54333D01*
X42282Y-54295D01*
X42244Y-54257D01*
X42205Y-54180D01*
X42167Y-54028D01*
X42167Y-53838D01*
X42205Y-53685D01*
X42244Y-53609D01*
X42282Y-53571D01*
X42358Y-53533D01*
X42967Y-54257D02*
X43006Y-54295D01*
X42967Y-54333D01*
X42929Y-54295D01*
X42967Y-54257D01*
X42967Y-54333D01*
X43501Y-53533D02*
X43577Y-53533D01*
X43653Y-53571D01*
X43691Y-53609D01*
X43729Y-53685D01*
X43768Y-53838D01*
X43768Y-54028D01*
X43729Y-54180D01*
X43691Y-54257D01*
X43653Y-54295D01*
X43577Y-54333D01*
X43501Y-54333D01*
X43425Y-54295D01*
X43387Y-54257D01*
X43348Y-54180D01*
X43310Y-54028D01*
X43310Y-53838D01*
X43348Y-53685D01*
X43387Y-53609D01*
X43425Y-53571D01*
X43501Y-53533D01*
X44225Y-53876D02*
X44149Y-53838D01*
X44110Y-53799D01*
X44072Y-53723D01*
X44072Y-53685D01*
X44110Y-53609D01*
X44149Y-53571D01*
X44225Y-53533D01*
X44377Y-53533D01*
X44453Y-53571D01*
X44491Y-53609D01*
X44530Y-53685D01*
X44530Y-53723D01*
X44491Y-53799D01*
X44453Y-53838D01*
X44377Y-53876D01*
X44225Y-53876D01*
X44149Y-53914D01*
X44110Y-53952D01*
X44072Y-54028D01*
X44072Y-54180D01*
X44110Y-54257D01*
X44149Y-54295D01*
X44225Y-54333D01*
X44377Y-54333D01*
X44453Y-54295D01*
X44491Y-54257D01*
X44530Y-54180D01*
X44530Y-54028D01*
X44491Y-53952D01*
X44453Y-53914D01*
X44377Y-53876D01*
X45025Y-53533D02*
X45101Y-53533D01*
X45177Y-53571D01*
X45215Y-53609D01*
X45253Y-53685D01*
X45292Y-53838D01*
X45292Y-54028D01*
X45253Y-54180D01*
X45215Y-54257D01*
X45177Y-54295D01*
X45101Y-54333D01*
X45025Y-54333D01*
X44949Y-54295D01*
X44911Y-54257D01*
X44872Y-54180D01*
X44834Y-54028D01*
X44834Y-53838D01*
X44872Y-53685D01*
X44911Y-53609D01*
X44949Y-53571D01*
X45025Y-53533D01*
X45596Y-53533D02*
X45596Y-53685D01*
X45901Y-53533D02*
X45901Y-53685D01*
X47083Y-54638D02*
X47045Y-54599D01*
X46969Y-54485D01*
X46931Y-54409D01*
X46893Y-54295D01*
X46854Y-54104D01*
X46854Y-53952D01*
X46893Y-53761D01*
X46931Y-53647D01*
X46969Y-53571D01*
X47045Y-53457D01*
X47083Y-53419D01*
X47349Y-53609D02*
X47387Y-53571D01*
X47464Y-53533D01*
X47654Y-53533D01*
X47730Y-53571D01*
X47768Y-53609D01*
X47807Y-53685D01*
X47807Y-53761D01*
X47768Y-53876D01*
X47311Y-54333D01*
X47807Y-54333D01*
X48759Y-54333D02*
X48759Y-53533D01*
X49102Y-54333D02*
X49102Y-53914D01*
X49064Y-53838D01*
X48988Y-53799D01*
X48874Y-53799D01*
X48798Y-53838D01*
X48759Y-53876D01*
X49598Y-54333D02*
X49522Y-54295D01*
X49483Y-54257D01*
X49445Y-54180D01*
X49445Y-53952D01*
X49483Y-53876D01*
X49522Y-53838D01*
X49598Y-53799D01*
X49712Y-53799D01*
X49788Y-53838D01*
X49826Y-53876D01*
X49864Y-53952D01*
X49864Y-54180D01*
X49826Y-54257D01*
X49788Y-54295D01*
X49712Y-54333D01*
X49598Y-54333D01*
X50322Y-54333D02*
X50246Y-54295D01*
X50207Y-54219D01*
X50207Y-53533D01*
X50931Y-54295D02*
X50855Y-54333D01*
X50703Y-54333D01*
X50626Y-54295D01*
X50588Y-54219D01*
X50588Y-53914D01*
X50626Y-53838D01*
X50703Y-53799D01*
X50855Y-53799D01*
X50931Y-53838D01*
X50969Y-53914D01*
X50969Y-53990D01*
X50588Y-54066D01*
X51274Y-54295D02*
X51351Y-54333D01*
X51503Y-54333D01*
X51579Y-54295D01*
X51617Y-54219D01*
X51617Y-54180D01*
X51579Y-54104D01*
X51503Y-54066D01*
X51389Y-54066D01*
X51312Y-54028D01*
X51274Y-53952D01*
X51274Y-53914D01*
X51312Y-53838D01*
X51389Y-53799D01*
X51503Y-53799D01*
X51579Y-53838D01*
X51884Y-54638D02*
X51922Y-54599D01*
X51999Y-54485D01*
X52037Y-54409D01*
X52075Y-54295D01*
X52113Y-54104D01*
X52113Y-53952D01*
X52075Y-53761D01*
X52037Y-53647D01*
X51999Y-53571D01*
X51922Y-53457D01*
X51884Y-53419D01*
G54D10*
X34267Y-55778D02*
X34956Y-55089D01*
X34267Y-54400D01*
X33578Y-55089D01*
X34267Y-55778D01*
G54D11*
X35270Y-54613D02*
X35766Y-54613D01*
X35499Y-54918D01*
X35613Y-54918D01*
X35689Y-54956D01*
X35727Y-54994D01*
X35766Y-55070D01*
X35766Y-55260D01*
X35727Y-55337D01*
X35689Y-55375D01*
X35613Y-55413D01*
X35385Y-55413D01*
X35308Y-55375D01*
X35270Y-55337D01*
X36108Y-55337D02*
X36147Y-55375D01*
X36108Y-55413D01*
X36070Y-55375D01*
X36108Y-55337D01*
X36108Y-55413D01*
X36870Y-54613D02*
X36489Y-54613D01*
X36451Y-54994D01*
X36489Y-54956D01*
X36566Y-54918D01*
X36756Y-54918D01*
X36832Y-54956D01*
X36870Y-54994D01*
X36909Y-55070D01*
X36909Y-55260D01*
X36870Y-55337D01*
X36832Y-55375D01*
X36756Y-55413D01*
X36566Y-55413D01*
X36489Y-55375D01*
X36451Y-55337D01*
X37404Y-54613D02*
X37480Y-54613D01*
X37556Y-54651D01*
X37594Y-54689D01*
X37632Y-54765D01*
X37671Y-54918D01*
X37671Y-55108D01*
X37632Y-55260D01*
X37594Y-55337D01*
X37556Y-55375D01*
X37480Y-55413D01*
X37404Y-55413D01*
X37328Y-55375D01*
X37290Y-55337D01*
X37251Y-55260D01*
X37213Y-55108D01*
X37213Y-54918D01*
X37251Y-54765D01*
X37290Y-54689D01*
X37328Y-54651D01*
X37404Y-54613D01*
X38013Y-55413D02*
X38013Y-54879D01*
X38013Y-54956D02*
X38052Y-54918D01*
X38128Y-54879D01*
X38242Y-54879D01*
X38318Y-54918D01*
X38356Y-54994D01*
X38356Y-55413D01*
X38356Y-54994D02*
X38394Y-54918D01*
X38471Y-54879D01*
X38585Y-54879D01*
X38661Y-54918D01*
X38699Y-54994D01*
X38699Y-55413D01*
X39080Y-55413D02*
X39080Y-54879D01*
X39080Y-54956D02*
X39119Y-54918D01*
X39195Y-54879D01*
X39309Y-54879D01*
X39385Y-54918D01*
X39423Y-54994D01*
X39423Y-55413D01*
X39423Y-54994D02*
X39461Y-54918D01*
X39538Y-54879D01*
X39652Y-54879D01*
X39728Y-54918D01*
X39766Y-54994D01*
X39766Y-55413D01*
X41329Y-54575D02*
X40643Y-55603D01*
X42358Y-54613D02*
X42434Y-54613D01*
X42510Y-54651D01*
X42548Y-54689D01*
X42586Y-54765D01*
X42625Y-54918D01*
X42625Y-55108D01*
X42586Y-55260D01*
X42548Y-55337D01*
X42510Y-55375D01*
X42434Y-55413D01*
X42358Y-55413D01*
X42282Y-55375D01*
X42244Y-55337D01*
X42205Y-55260D01*
X42167Y-55108D01*
X42167Y-54918D01*
X42205Y-54765D01*
X42244Y-54689D01*
X42282Y-54651D01*
X42358Y-54613D01*
X42967Y-55337D02*
X43006Y-55375D01*
X42967Y-55413D01*
X42929Y-55375D01*
X42967Y-55337D01*
X42967Y-55413D01*
X43768Y-55413D02*
X43310Y-55413D01*
X43539Y-55413D02*
X43539Y-54613D01*
X43463Y-54727D01*
X43387Y-54803D01*
X43310Y-54841D01*
X44034Y-54613D02*
X44530Y-54613D01*
X44263Y-54918D01*
X44377Y-54918D01*
X44453Y-54956D01*
X44491Y-54994D01*
X44530Y-55070D01*
X44530Y-55260D01*
X44491Y-55337D01*
X44453Y-55375D01*
X44377Y-55413D01*
X44149Y-55413D01*
X44072Y-55375D01*
X44034Y-55337D01*
X44987Y-54956D02*
X44911Y-54918D01*
X44872Y-54879D01*
X44834Y-54803D01*
X44834Y-54765D01*
X44872Y-54689D01*
X44911Y-54651D01*
X44987Y-54613D01*
X45139Y-54613D01*
X45215Y-54651D01*
X45253Y-54689D01*
X45292Y-54765D01*
X45292Y-54803D01*
X45253Y-54879D01*
X45215Y-54918D01*
X45139Y-54956D01*
X44987Y-54956D01*
X44911Y-54994D01*
X44872Y-55032D01*
X44834Y-55108D01*
X44834Y-55260D01*
X44872Y-55337D01*
X44911Y-55375D01*
X44987Y-55413D01*
X45139Y-55413D01*
X45215Y-55375D01*
X45253Y-55337D01*
X45292Y-55260D01*
X45292Y-55108D01*
X45253Y-55032D01*
X45215Y-54994D01*
X45139Y-54956D01*
X45596Y-54613D02*
X45596Y-54765D01*
X45901Y-54613D02*
X45901Y-54765D01*
X47083Y-55718D02*
X47045Y-55679D01*
X46969Y-55565D01*
X46931Y-55489D01*
X46893Y-55375D01*
X46854Y-55184D01*
X46854Y-55032D01*
X46893Y-54841D01*
X46931Y-54727D01*
X46969Y-54651D01*
X47045Y-54537D01*
X47083Y-54499D01*
X47730Y-54879D02*
X47730Y-55413D01*
X47540Y-54575D02*
X47349Y-55146D01*
X47845Y-55146D01*
X48759Y-55413D02*
X48759Y-54613D01*
X49102Y-55413D02*
X49102Y-54994D01*
X49064Y-54918D01*
X48988Y-54879D01*
X48874Y-54879D01*
X48798Y-54918D01*
X48759Y-54956D01*
X49598Y-55413D02*
X49522Y-55375D01*
X49483Y-55337D01*
X49445Y-55260D01*
X49445Y-55032D01*
X49483Y-54956D01*
X49522Y-54918D01*
X49598Y-54879D01*
X49712Y-54879D01*
X49788Y-54918D01*
X49826Y-54956D01*
X49864Y-55032D01*
X49864Y-55260D01*
X49826Y-55337D01*
X49788Y-55375D01*
X49712Y-55413D01*
X49598Y-55413D01*
X50322Y-55413D02*
X50246Y-55375D01*
X50207Y-55299D01*
X50207Y-54613D01*
X50931Y-55375D02*
X50855Y-55413D01*
X50703Y-55413D01*
X50626Y-55375D01*
X50588Y-55299D01*
X50588Y-54994D01*
X50626Y-54918D01*
X50703Y-54879D01*
X50855Y-54879D01*
X50931Y-54918D01*
X50969Y-54994D01*
X50969Y-55070D01*
X50588Y-55146D01*
X51274Y-55375D02*
X51351Y-55413D01*
X51503Y-55413D01*
X51579Y-55375D01*
X51617Y-55299D01*
X51617Y-55260D01*
X51579Y-55184D01*
X51503Y-55146D01*
X51389Y-55146D01*
X51312Y-55108D01*
X51274Y-55032D01*
X51274Y-54994D01*
X51312Y-54918D01*
X51389Y-54879D01*
X51503Y-54879D01*
X51579Y-54918D01*
X51884Y-55718D02*
X51922Y-55679D01*
X51999Y-55565D01*
X52037Y-55489D01*
X52075Y-55375D01*
X52113Y-55184D01*
X52113Y-55032D01*
X52075Y-54841D01*
X52037Y-54727D01*
X51999Y-54651D01*
X51922Y-54537D01*
X51884Y-54499D01*
M02*
