M48
;DRILL file {PCBnew (2010-02-09)-RC2} date 30.03.2010 12:29:51
;FORMAT={-.-/ absolute / metric / decimal}
R,T
VER,1
FMAT,2
METRIC,TZ
TCST,OFF
ICI,OFF
ATC,ON
T1C0.201
T2C0.701
T3C0.800
T4C0.889
T5C0.899
T6C0.919
T7C2.032
T8C3.500
%
M47
G05
M71
T1
X89.091Y-57.798
X89.091Y-59.804
X89.091Y-61.811
X89.091Y-63.818
X89.091Y-65.824
X89.091Y-67.831
X89.091Y-69.837
X89.091Y-71.844
X89.091Y-73.851
X89.091Y-75.857
X89.091Y-77.864
X89.091Y-79.870
X89.091Y-81.877
X89.091Y-83.884
X89.091Y-85.890
X89.091Y-87.897
X89.091Y-89.903
X89.091Y-91.910
X89.091Y-93.917
X89.091Y-95.923
X89.091Y-97.930
X89.091Y-99.936
X89.091Y-101.943
X89.091Y-103.950
X89.091Y-105.956
X89.091Y-107.963
X89.091Y-109.969
X89.205Y-111.163
X91.211Y-57.798
X91.211Y-111.163
X93.218Y-57.798
X93.218Y-111.163
X95.225Y-57.798
X95.225Y-111.163
X97.231Y-57.798
X97.231Y-111.163
X99.149Y-89.649
X99.187Y-77.902
X99.238Y-57.798
X99.238Y-59.804
X99.238Y-61.798
X99.238Y-65.799
X99.238Y-67.805
X99.238Y-79.578
X99.238Y-81.585
X99.238Y-83.579
X99.238Y-85.585
X99.238Y-87.579
X99.238Y-91.580
X99.238Y-93.586
X99.238Y-95.580
X99.238Y-97.587
X99.238Y-99.581
X99.238Y-103.581
X99.238Y-105.588
X99.238Y-107.582
X99.238Y-109.322
X99.238Y-111.163
X99.251Y-63.830
X99.251Y-101.600
X100.914Y-71.069
X100.927Y-73.711
X100.990Y-69.914
X101.054Y-72.415
X101.079Y-75.057
X101.143Y-111.163
X101.702Y-57.798
X102.197Y-69.482
X102.210Y-75.336
X102.426Y-86.919
X102.451Y-84.938
X102.616Y-107.899
X102.794Y-79.578
X103.175Y-68.707
X103.264Y-75.997
X103.340Y-90.475
X104.026Y-104.610
X104.026Y-109.195
X104.038Y-78.397
X104.318Y-68.212
X104.407Y-76.492
X104.458Y-82.309
X104.902Y-86.373
X105.220Y-87.567
X105.220Y-90.475
X105.220Y-97.346
X105.562Y-68.212
X105.651Y-76.492
X105.715Y-71.361
X105.728Y-108.014
X105.867Y-70.345
X106.070Y-74.346
X106.172Y-84.709
X106.401Y-58.357
X106.401Y-59.563
X106.401Y-60.770
X106.413Y-85.966
X106.413Y-96.114
X106.426Y-92.075
X106.426Y-94.107
X106.439Y-61.976
X106.566Y-89.014
X106.807Y-68.212
X106.807Y-87.732
X106.820Y-72.898
X106.896Y-76.492
X106.934Y-90.551
X107.125Y-108.026
X107.353Y-63.183
X107.480Y-74.346
X107.569Y-77.534
X107.594Y-102.349
X107.607Y-80.328
X107.633Y-70.206
X107.645Y-96.457
X107.734Y-84.544
X107.823Y-93.091
X108.052Y-68.212
X108.204Y-64.033
X108.433Y-76.924
X108.623Y-108.661
X108.687Y-91.262
X108.699Y-66.993
X109.055Y-64.884
X109.068Y-80.886
X109.068Y-82.309
X109.207Y-71.603
X109.207Y-83.388
X109.233Y-79.680
X109.385Y-76.238
X109.423Y-100.559
X109.423Y-101.765
X109.487Y-58.357
X109.487Y-59.563
X109.487Y-60.770
X109.563Y-106.794
X109.652Y-61.963
X109.842Y-74.511
X110.020Y-102.807
X110.020Y-104.013
X110.173Y-77.749
X110.173Y-78.905
X110.274Y-75.552
X110.274Y-107.861
X110.338Y-83.566
X110.503Y-62.814
X110.604Y-70.358
X111.036Y-74.867
X111.036Y-85.154
X111.100Y-66.980
X111.100Y-68.186
X111.265Y-108.661
X111.354Y-63.665
X111.900Y-83.757
X112.205Y-64.516
X112.255Y-107.404
X112.497Y-93.751
X112.509Y-79.718
X112.509Y-97.307
X112.509Y-98.514
X112.636Y-92.342
X112.789Y-99.695
X112.789Y-100.902
X112.789Y-102.108
X112.789Y-103.315
X112.789Y-104.521
X113.360Y-82.309
X113.475Y-95.263
X113.830Y-93.599
X113.868Y-64.516
X113.868Y-85.522
X114.198Y-76.352
X114.198Y-97.206
X114.452Y-104.927
X114.592Y-84.798
X114.719Y-63.665
X114.897Y-79.731
X115.354Y-98.412
X115.468Y-84.315
X115.570Y-62.814
X115.659Y-80.759
X115.710Y-79.045
X115.811Y-86.017
X115.837Y-65.519
X116.370Y-80.048
X116.421Y-61.963
X116.472Y-87.846
X116.510Y-97.206
X116.561Y-58.357
X116.561Y-59.563
X116.561Y-60.770
X116.675Y-67.666
X116.827Y-82.652
X116.840Y-75.463
X117.107Y-79.007
X117.119Y-64.529
X117.513Y-95.987
X117.640Y-104.826
X117.729Y-65.481
X118.047Y-66.459
X118.123Y-82.537
X118.262Y-77.927
X118.555Y-80.836
X118.618Y-102.006
X118.758Y-105.372
X118.758Y-106.375
X118.758Y-107.379
X118.758Y-108.382
X118.758Y-109.385
X118.834Y-70.701
X118.872Y-90.297
X119.037Y-91.605
X119.659Y-58.357
X119.659Y-59.563
X119.659Y-60.770
X119.672Y-62.078
X119.837Y-66.421
X120.396Y-90.043
X120.790Y-70.764
X120.993Y-77.826
X121.031Y-72.073
X121.209Y-67.335
X121.260Y-92.062
X121.260Y-95.047
X121.361Y-99.924
X121.361Y-103.505
X121.361Y-105.181
X121.374Y-108.382
X121.374Y-109.385
X122.250Y-93.561
X122.314Y-85.319
X122.377Y-102.387
X122.377Y-106.312
X122.390Y-101.054
X122.555Y-77.864
X122.555Y-96.304
X122.606Y-67.335
X122.695Y-57.798
X122.911Y-80.188
X122.936Y-87.846
X123.317Y-91.186
X123.571Y-96.304
X123.622Y-66.421
X123.685Y-101.079
X123.800Y-65.126
X123.914Y-89.357
X124.295Y-84.315
X124.397Y-101.791
X124.701Y-57.798
X125.108Y-102.502
X125.336Y-73.254
X125.349Y-71.907
X125.374Y-66.967
X125.438Y-65.075
X125.806Y-80.429
X125.819Y-103.213
X126.378Y-70.777
X126.378Y-74.359
X126.530Y-103.924
X126.695Y-57.798
X126.797Y-98.857
X126.860Y-63.754
X127.241Y-104.635
X127.445Y-80.112
X127.495Y-85.801
X127.673Y-70.777
X127.889Y-89.789
X127.889Y-91.567
X127.965Y-105.359
X128.016Y-100.965
X128.257Y-65.062
X128.588Y-63.449
X128.613Y-81.318
X128.702Y-57.798
X128.715Y-98.806
X128.727Y-101.676
X129.438Y-102.387
X129.616Y-95.644
X129.845Y-105.766
X129.858Y-62.179
X130.010Y-97.371
X130.150Y-103.099
X130.556Y-106.477
X130.696Y-57.798
X130.747Y-80.035
X130.924Y-78.740
X131.115Y-94.069
X131.115Y-96.482
X131.115Y-98.895
X131.115Y-101.308
X131.191Y-74.244
X131.191Y-75.794
X131.280Y-60.757
X131.356Y-71.768
X131.763Y-80.340
X132.652Y-98.095
X132.652Y-100.597
X132.652Y-103.099
X132.702Y-57.798
X132.702Y-59.334
X133.350Y-80.175
X133.515Y-78.816
X133.553Y-106.515
X134.049Y-66.891
X134.696Y-57.798
X134.861Y-78.308
X134.861Y-84.519
X134.861Y-86.563
X135.039Y-65.024
X135.382Y-90.195
X135.585Y-79.058
X136.157Y-86.576
X136.246Y-66.294
X136.296Y-79.820
X136.347Y-71.819
X136.703Y-57.798
X136.754Y-91.453
X137.109Y-87.059
X137.351Y-79.159
X137.376Y-67.310
X138.024Y-78.169
X138.113Y-90.195
X138.405Y-79.820
X138.697Y-57.798
X138.748Y-76.492
X139.484Y-75.298
X139.497Y-65.710
X140.246Y-67.247
X140.716Y-57.798
X142.100Y-76.225
X142.697Y-57.798
X143.802Y-59.868
X144.221Y-76.454
X144.234Y-65.367
X144.704Y-57.810
X145.948Y-67.247
X146.253Y-76.454
X146.253Y-77.749
X146.698Y-57.798
X147.930Y-106.998
X148.158Y-67.247
X148.590Y-65.659
X148.730Y-57.810
X149.136Y-84.379
X149.644Y-106.998
X150.241Y-89.675
X150.330Y-88.379
X150.482Y-84.379
X150.698Y-57.798
X151.829Y-84.353
X152.705Y-57.798
X153.035Y-84.557
X153.048Y-90.869
X153.886Y-80.035
X154.699Y-57.798
X155.283Y-62.840
X155.283Y-79.997
X155.550Y-85.623
X155.639Y-89.814
X156.210Y-105.321
X156.718Y-57.810
X157.175Y-106.998
X158.115Y-65.532
X158.699Y-57.798
X159.068Y-67.310
X159.474Y-76.403
X159.880Y-81.725
X159.893Y-80.455
X159.893Y-87.440
X160.134Y-85.916
X160.236Y-91.059
X160.261Y-89.980
X160.604Y-92.647
X160.617Y-83.655
X160.617Y-84.811
X160.693Y-57.810
X160.884Y-67.666
X160.909Y-87.744
X161.557Y-89.649
X161.595Y-86.119
X161.608Y-88.532
X161.912Y-67.145
X162.700Y-57.798
X162.979Y-71.565
X163.259Y-66.370
X163.754Y-105.321
X164.008Y-80.696
X164.706Y-57.798
X164.719Y-68.021
X164.719Y-106.998
X164.795Y-69.723
X164.846Y-61.976
X165.481Y-72.263
X165.506Y-80.696
X165.760Y-73.851
X165.849Y-91.745
X165.976Y-70.955
X166.103Y-82.360
X166.103Y-83.630
X166.103Y-84.900
X166.116Y-87.440
X166.180Y-93.155
X166.700Y-57.798
X167.145Y-69.723
X167.907Y-71.869
X168.631Y-97.968
X168.707Y-57.798
X169.101Y-63.995
X169.177Y-69.164
X169.177Y-71.857
X170.205Y-93.751
X170.447Y-71.857
X170.459Y-88.456
X170.612Y-83.172
X170.663Y-81.852
X170.701Y-57.798
X171.171Y-70.066
X171.717Y-71.857
X171.920Y-96.558
X171.920Y-99.378
X172.593Y-104.064
X172.707Y-57.798
X172.720Y-73.355
X172.961Y-80.747
X172.961Y-84.265
X173.038Y-91.389
X173.038Y-92.710
X173.063Y-94.806
X173.215Y-97.968
X173.292Y-87.338
X173.482Y-67.653
X174.181Y-105.626
X174.435Y-88.798
X174.701Y-57.798
X175.158Y-64.529
X175.158Y-65.596
X175.158Y-66.662
X175.844Y-75.387
X176.149Y-83.947
X176.149Y-87.757
X176.708Y-57.810
X177.127Y-71.171
X178.181Y-83.947
X178.308Y-87.757
X178.537Y-75.514
X178.702Y-57.798
X179.743Y-64.745
X179.984Y-72.454
X180.213Y-83.947
X180.340Y-87.757
X180.708Y-57.798
X181.153Y-101.092
X181.216Y-66.535
X182.245Y-83.947
X182.372Y-87.757
X182.702Y-57.798
X182.715Y-64.668
X183.896Y-89.281
X184.277Y-83.947
X184.734Y-57.785
X184.912Y-101.092
X185.293Y-90.678
X186.703Y-57.798
X188.087Y-89.535
X188.747Y-57.772
X190.703Y-57.798
X192.697Y-63.830
X192.710Y-57.798
X192.710Y-61.798
X192.710Y-65.799
X192.710Y-67.805
X192.723Y-59.804
T2
X185.478Y-63.284
X187.477Y-63.284
T3
X112.776Y-71.882
X112.776Y-73.406
X113.538Y-72.644
X114.300Y-71.882
X114.300Y-73.406
T4
X141.211Y-106.998
X143.751Y-106.998
X146.291Y-106.998
X151.282Y-106.998
X153.822Y-106.998
X158.814Y-106.998
X159.944Y-62.014
X161.354Y-106.998
X162.484Y-62.014
X166.357Y-106.998
X168.897Y-106.998
T5
X175.692Y-105.626
X175.692Y-107.625
X177.691Y-105.626
X177.691Y-107.625
X179.692Y-105.626
X179.692Y-107.625
X181.691Y-105.626
X181.691Y-107.625
X183.693Y-105.626
X183.693Y-107.625
X185.692Y-105.626
X185.692Y-107.625
X187.691Y-105.626
X187.691Y-107.625
T6
X185.936Y-85.687
X187.935Y-83.147
X187.935Y-85.687
X189.967Y-83.147
X189.967Y-85.687
X191.935Y-85.687
X193.934Y-85.687
T7
X192.761Y-78.321
X192.761Y-90.513
T8
X93.345Y-72.047
X93.345Y-97.053
X198.349Y-72.047
X198.349Y-97.053
T0
M30
